<svg xmlns="http://www.w3.org/2000/svg" xmlns:xlink="http://www.w3.org/1999/xlink" id="Group_98" data-name="Group 98" width="74.437px" height="117.809px" viewBox="0 0 74.437 117.809" transform="rotate(0) scale(1, 1)"><defs><clipPath id="clip-path"><rect id="Rectangle_31" width="74.437" height="117.809" fill="none"/></clipPath></defs><g id="Group_98-2" clip-path="url(#clip-path)"><path id="Path_86" d="M2.859,5.432v7.3c.024,1.441,1.087,2.15,2.812,2.15h.473v.945H5.67c-2.481,0-3.733-1.134-3.757-3.1v-7.3H0V4.488H1.914V1.534h.945V4.488H6.143v.945H2.859Z" transform="translate(0 -0.802)" fill="#000000"/><path id="Path_87" d="M17.774,5.529a4.431,4.431,0,0,1,3.544-1.843,4.651,4.651,0,0,1,4.489,4.8v6.072l.024.5h-.922l-.024-.473-.023-6.1a3.7,3.7,0,0,0-3.544-3.851,3.7,3.7,0,0,0-3.544,3.851v6.545h-.945V0h.945V5.529Z" transform="translate(-8.796)" fill="#000000"/><path id="Path_88" d="M48.53,16.227l.756.568A5.174,5.174,0,0,1,44.8,19.063a5.435,5.435,0,0,1-5.2-5.67,5.436,5.436,0,0,1,5.2-5.67,5.451,5.451,0,0,1,5.2,5.67v.473H40.568A4.422,4.422,0,0,0,44.8,18.117a4.287,4.287,0,0,0,3.733-1.89M40.568,12.92H49.05a4.241,4.241,0,1,0-8.482,0" transform="translate(-20.697 -4.036)" fill="#000000"/><path id="Path_89" d="M69.116,38.562c-4.021,0-8.039,4.076-10.019,7.585l-.188-.139c-.923-4.781-5.242-7.276-10.058-7.276A15.555,15.555,0,0,0,37.3,44.053c-1.7-3.509-5.661-5.434-9.961-5.434a13.577,13.577,0,0,0-10.528,4.925V39.072H0v.792c2.832.453,3.227,1.7,3.227,9.17V62.676c0,2.1-.4,4.755-3.227,6.34v.792H20.038v-.792c-2.829-1.585-3.224-4.133-3.224-6.34v-17.6c3.283-3.509,7.754-1.925,7.754,3.679V62.676c0,2.1-.4,4.755-3.227,6.34v.792H41.379v-.792c-2.829-1.585-3.227-4.133-3.227-6.34V47.959a8.915,8.915,0,0,0-.4-2.774c3.283-3.623,7.754-2.093,7.754,3.566V62.676c0,.393-.014.806-.055,1.227a6.137,6.137,0,0,1-3.172,5.113v.792H62.322v-.792c-2.829-1.585-3.225-4.133-3.225-6.34V48.694a23.233,23.233,0,0,1,5.094-6.34,3.2,3.2,0,0,0-.227,1.246,5.025,5.025,0,0,0,5.32,5.15c2.605,0,5.152-1.642,5.152-4.867a5.006,5.006,0,0,0-5.32-5.322" transform="translate(0 -20.155)" fill="#000000"/><path id="Path_90" d="M41.211,152.712,34.262,135.46H28.044c5.73-6.158,9.265-8.778,13.289-10.485v-1.1H31.091v1.1c1.647,1.523.244,4.327-5.486,10.546l-7.5,8.109v-33.1H0v.853c3.05.488,3.476,1.829,3.476,9.876V149.3c0,2.256-.426,5.121-3.476,6.827v.853H21.581v-.853c-3.047-1.706-3.473-4.451-3.473-6.827v-3.109l3.961-4.268,4.512,10.79c.548,1.342.67,3.475-2.136,3.475l.063.792H45.723l-.122-.792c-2.2,0-3.047-.914-4.39-3.475" transform="translate(0 -57.767)" fill="#000000"/><path id="Path_91" d="M109.446,147.655V125.891h4.268v-2.012h-4.268v-13.35h-1.218c-2.013,7.315-10.3,12.558-16.705,13.35v2.012h3.294V144.91c0,10.059,8.411,12.071,18.957,12.071v-1.22c-4.45-1.037-4.328-4.877-4.328-8.107" transform="translate(-47.835 -57.769)" fill="#000000"/><path id="Path_92" d="M3.693,245.785H3.228v-.93H21.074v.93H3.693Z" transform="translate(-1.687 -127.976)" fill="#000000"/><path id="Path_93" d="M8.463,224.971l.744.512a4.768,4.768,0,0,1-4.162,2.186,5.609,5.609,0,0,1,0-11.161,4.727,4.727,0,0,1,4.162,2.046l-.744.512a3.944,3.944,0,0,0-3.418-1.628,4.685,4.685,0,0,0,0,9.3,3.98,3.98,0,0,0,3.418-1.767" transform="translate(0 -113.16)" fill="#000000"/><path id="Path_94" d="M22.408,222.088a5.364,5.364,0,0,1,5.115-5.58,5.6,5.6,0,0,1,0,11.161,5.364,5.364,0,0,1-5.115-5.581m.93,0a4.434,4.434,0,0,0,4.185,4.65,4.676,4.676,0,0,0,0-9.3,4.434,4.434,0,0,0-4.185,4.65" transform="translate(-11.712 -113.16)" fill="#000000"/><path id="Path_95" d="M48.89,219.34a1.522,1.522,0,0,1-.578-.108,1.406,1.406,0,0,1-.459-.3,1.357,1.357,0,0,1-.3-.449,1.5,1.5,0,0,1,0-1.126,1.349,1.349,0,0,1,.3-.447,1.431,1.431,0,0,1,.459-.3,1.521,1.521,0,0,1,.578-.108,1.541,1.541,0,0,1,.581.108,1.449,1.449,0,0,1,.463.3,1.346,1.346,0,0,1,.305.447,1.492,1.492,0,0,1,0,1.126,1.354,1.354,0,0,1-.305.449,1.423,1.423,0,0,1-.463.3,1.542,1.542,0,0,1-.581.108m0-.145a1.376,1.376,0,0,0,.51-.093,1.208,1.208,0,0,0,.685-.663,1.294,1.294,0,0,0,.1-.516,1.273,1.273,0,0,0-.1-.5,1.218,1.218,0,0,0-.681-.669,1.434,1.434,0,0,0-1.032,0,1.215,1.215,0,0,0-.408.266,1.235,1.235,0,0,0-.267.4,1.289,1.289,0,0,0-.1.5,1.313,1.313,0,0,0,.1.5,1.221,1.221,0,0,0,.267.4,1.235,1.235,0,0,0,.408.269,1.326,1.326,0,0,0,.516.1m-.608-2.154h.754a.473.473,0,0,1,.216.049.541.541,0,0,1,.168.129.609.609,0,0,1,.11.182.569.569,0,0,1-.065.536.469.469,0,0,1-.273.19l.428.674h-.286l-.4-.635h-.4v.635h-.255Zm.742.9a.265.265,0,0,0,.218-.094.372.372,0,0,0,.076-.243.335.335,0,0,0-.088-.241.288.288,0,0,0-.218-.092h-.474v.671Z" transform="translate(-24.794 -113.16)" fill="#000000"/></g></svg>