<svg width="226" height="212" viewBox="0 0 226 212" fill="none" xmlns="http://www.w3.org/2000/svg">
<g clip-path="url(#clip0_137_477)">
<path d="M84.7502 97.1667C92.1999 97.1667 99.4824 95.0944 105.677 91.2119C111.871 87.3295 116.699 81.8112 119.55 75.3548C122.401 68.8985 123.146 61.7942 121.693 54.9402C120.24 48.0862 116.652 41.7904 111.385 36.8489C106.117 31.9075 99.4052 28.5423 92.0986 27.1789C84.7919 25.8156 77.2184 26.5153 70.3358 29.1896C63.4531 31.8639 57.5703 36.3927 53.4315 42.2032C49.2926 48.0137 47.0835 54.8451 47.0835 61.8334C47.0835 71.2043 51.0519 80.1915 58.1158 86.8178C65.1797 93.4441 74.7603 97.1667 84.7502 97.1667ZM84.7502 44.1667C88.475 44.1667 92.1163 45.2028 95.2134 47.1441C98.3105 49.0853 100.724 51.8444 102.15 55.0726C103.575 58.3008 103.948 61.853 103.222 65.2799C102.495 68.7069 100.701 71.8548 98.0673 74.3256C95.4334 76.7963 92.0777 78.4789 88.4244 79.1606C84.7711 79.8422 80.9843 79.4924 77.543 78.1552C74.1016 76.8181 71.1603 74.5537 69.0908 71.6484C67.0214 68.7432 65.9168 65.3275 65.9168 61.8334C65.9168 57.1479 67.901 52.6543 71.433 49.3411C74.9649 46.028 79.7553 44.1667 84.7502 44.1667Z" fill="black"/>
<path d="M160.083 114.834C165.671 114.834 171.133 113.279 175.778 110.367C180.424 107.456 184.045 103.317 186.183 98.4746C188.321 93.6324 188.881 88.3041 187.791 83.1636C186.701 78.0231 184.01 73.3013 180.059 69.5952C176.108 65.8891 171.075 63.3652 165.595 62.3427C160.115 61.3202 154.435 61.845 149.273 63.8507C144.111 65.8564 139.699 69.253 136.594 73.6109C133.49 77.9688 131.833 83.0923 131.833 88.3335C131.833 95.3617 134.81 102.102 140.108 107.072C145.406 112.042 152.591 114.834 160.083 114.834ZM160.083 79.5002C161.946 79.5002 163.767 80.0182 165.315 80.9889C166.864 81.9595 168.071 83.3391 168.783 84.9531C169.496 86.5672 169.683 88.3433 169.319 90.0568C168.956 91.7703 168.059 93.3442 166.742 94.5796C165.425 95.815 163.747 96.6563 161.921 96.9971C160.094 97.3379 158.201 97.163 156.48 96.4944C154.759 95.8259 153.289 94.6937 152.254 93.241C151.219 91.7884 150.667 90.0806 150.667 88.3335C150.667 85.9908 151.659 83.744 153.425 82.0874C155.191 80.4308 157.586 79.5002 160.083 79.5002Z" fill="black"/>
<path d="M160.083 123.667C149.648 123.678 139.512 126.94 131.268 132.942C122.045 124.324 110.308 118.46 97.5363 116.091C84.7651 113.723 71.5322 114.954 59.5062 119.631C47.4803 124.308 37.1999 132.22 29.9616 142.371C22.7232 152.521 18.8511 164.455 18.8335 176.667C18.8335 179.009 19.8256 181.256 21.5916 182.913C23.3575 184.569 25.7527 185.5 28.2502 185.5C30.7476 185.5 33.1428 184.569 34.9088 182.913C36.6747 181.256 37.6668 179.009 37.6668 176.667C37.6668 164.953 42.6274 153.719 51.4572 145.436C60.2871 137.153 72.2629 132.5 84.7502 132.5C97.2374 132.5 109.213 137.153 118.043 145.436C126.873 153.719 131.833 164.953 131.833 176.667C131.833 179.009 132.826 181.256 134.592 182.913C136.358 184.569 138.753 185.5 141.25 185.5C143.748 185.5 146.143 184.569 147.909 182.913C149.675 181.256 150.667 179.009 150.667 176.667C150.689 166.318 147.902 156.134 142.568 147.075C146.73 143.99 151.733 142.067 157.005 141.525C162.278 140.983 167.606 141.844 172.381 144.01C177.156 146.176 181.185 149.559 184.006 153.772C186.827 157.985 188.327 162.858 188.333 167.833C188.333 170.176 189.326 172.423 191.092 174.079C192.858 175.736 195.253 176.667 197.75 176.667C200.248 176.667 202.643 175.736 204.409 174.079C206.175 172.423 207.167 170.176 207.167 167.833C207.167 156.12 202.206 144.886 193.376 136.603C184.547 128.32 172.571 123.667 160.083 123.667Z" fill="black"/>
</g>
<defs>
<clipPath id="clip0_137_477">
<rect width="226" height="212" fill="white"/>
</clipPath>
</defs>
</svg>
