<svg width="670" height="98" viewBox="0 0 670 98" fill="none" xmlns="http://www.w3.org/2000/svg">
<path d="M24.75 20.0938C24.75 21.4687 25.3594 23.2656 26.5781 25.4844C25.3594 26.8594 23.9219 27.5469 22.2656 27.5469C20.8281 27.5469 19.0938 26.6406 17.0625 24.8281C15.1562 23.0781 14.2031 21.4844 14.2031 20.0469C14.2031 18.6094 14.6875 17.2031 15.6562 15.8281C16.625 14.4219 17.9062 13.125 19.5 11.9375C21.125 10.7188 23 9.625 25.125 8.65625C27.2812 7.6875 29.5312 6.85938 31.875 6.17188C36.7188 4.73437 40.9531 4.01562 44.5781 4.01562C48.2344 4.01562 51 4.29688 52.875 4.85938C54.75 5.42188 56.25 6.28125 57.375 7.4375C59.375 9.59375 60.375 12.9531 60.375 17.5156C60.375 22.0781 60 26.5 59.25 30.7812C58.5 35.0312 57.4531 39.375 56.1094 43.8125C54.7656 48.2188 53.1562 52.6094 51.2812 56.9844C49.4062 61.3594 47.3281 65.5469 45.0469 69.5469C42.7969 73.5156 40.375 77.2031 37.7812 80.6094C35.2188 84.0469 32.5625 87.0156 29.8125 89.5156C23.9062 94.8906 18.2969 97.5781 12.9844 97.5781C9.26562 97.5781 6.1875 96.4062 3.75 94.0625C1.3125 91.7812 0.09375 89.1875 0.09375 86.2812C0.09375 83.4062 0.578125 80.7656 1.54688 78.3594C2.54688 75.9531 3.92188 73.6719 5.67188 71.5156C7.45312 69.3281 9.54688 67.3125 11.9531 65.4688C14.3906 63.5938 17.0312 61.9531 19.875 60.5469C25.9375 57.5781 32.2344 55.875 38.7656 55.4375C45.3906 45.5 49.8281 35.9688 52.0781 26.8438C52.8594 23.6875 53.25 20.6562 53.25 17.75C53.25 14.8438 52.5625 12.75 51.1875 11.4688C49.8125 10.1875 47.625 9.54688 44.625 9.54688C40.6562 9.54688 36.5312 10.4062 32.25 12.125C27.25 14.1875 24.75 16.8438 24.75 20.0938ZM16.2188 73.4375C16.2188 74.8438 16.8594 75.5469 18.1406 75.5469C20.8594 75.5469 24.7344 72.75 29.7656 67.1562C31.3281 65.4375 32.9062 63.5312 34.5 61.4375C28.9062 62.4375 24.4062 64.1562 21 66.5938C17.8125 68.8438 16.2188 71.125 16.2188 73.4375ZM74.2969 77.2344L73.3594 77.2812C68.4219 77.2812 64.6562 76.0625 62.0625 73.625C59.625 71.3438 58.4062 68.25 58.4062 64.3438C58.4062 58.9688 60.5469 53.8281 64.8281 48.9219C68.9844 44.1719 74.0312 40.8438 79.9688 38.9375C79.7812 37.5312 80.2969 36.375 81.5156 35.4688C82.3906 34.8125 83.8281 34.4844 85.8281 34.4844C87.8594 34.4844 89.8125 34.6719 91.6875 35.0469C93.5625 35.4219 95.4531 36.25 97.3594 37.5312C101.484 40.25 103.547 43.9062 103.547 48.5C103.547 53.4688 102.312 58.1875 99.8438 62.6562C105.219 61.5 109.922 57.9062 113.953 51.875C115.359 51.7812 116.062 52.3594 116.062 53.6094C116.062 54.1094 115.906 54.7188 115.594 55.4375C111.344 65.5312 102.844 72.2188 90.0938 75.5C85.5312 76.6875 80.3438 77.2812 74.5312 77.2812L74.2969 77.2344ZM73.5 56.7031C73.5 60.3281 75.0156 62.1406 78.0469 62.1406C80.6094 62.1406 83.1875 60.5938 85.7812 57.5C88.5 54.2812 89.8594 51.0156 89.8594 47.7031C89.8594 44.3281 88.2344 42.0938 84.9844 41C79.3906 42.5625 75.8125 46.0625 74.25 51.5C73.75 53.1562 73.5 54.8906 73.5 56.7031ZM130.453 48.875C126.703 48.6875 123.516 48.2969 120.891 47.7031C117.672 53.2969 114.516 58.2812 111.422 62.6562C111.016 63.3125 110.094 63.4844 108.656 63.1719C106.094 62.6094 104.625 61.9531 104.25 61.2031C109.812 57.2969 113.719 52.2812 115.969 46.1562C112.688 44.6562 111.047 42.5312 111.047 39.7812C111.047 38.0938 112.156 35.9375 114.375 33.3125C116.469 30.75 118.016 29.4688 119.016 29.4688C122.078 29.4688 124.406 30.25 126 31.8125C126.625 32.4062 126.938 33.2031 126.938 34.2031C126.938 35.1719 126.406 36.8125 125.344 39.125C130.156 41.4688 136.219 42.8438 143.531 43.25C143.312 45.4062 142.406 47.1562 140.812 48.5C140.375 48.9062 139.938 49.1094 139.5 49.1094C137.281 51.1094 135.719 53.2812 134.812 55.625C134.531 56.375 134.391 57.0938 134.391 57.7812C134.391 60.6875 136.125 62.1406 139.594 62.1406C141.938 62.1406 144.531 61.0938 147.375 59C149.906 57.0938 152.125 54.7188 154.031 51.875C155.438 51.7812 156.141 52.3594 156.141 53.6094C156.141 54.6719 155.484 56.2969 154.172 58.4844C152.891 60.6719 151.641 62.5625 150.422 64.1562C149.203 65.75 147.844 67.3125 146.344 68.8438C144.844 70.375 143.25 71.75 141.562 72.9688C137.781 75.6562 134.078 77 130.453 77C124.297 77 120.172 75.0938 118.078 71.2812C117.359 70 117 68.5156 117 66.8281C117 65.1094 117.344 63.4219 118.031 61.7656C118.75 60.1094 119.719 58.5 120.938 56.9375C123.438 53.6875 126.609 51 130.453 48.875ZM195.797 62.1406C198.109 62.1406 200.688 61.0938 203.531 59C206.062 57.0938 208.281 54.7188 210.188 51.875C211.625 51.75 212.312 52.3594 212.25 53.7031C212.219 54.7656 211.562 56.375 210.281 58.5312C209.031 60.6875 207.797 62.5625 206.578 64.1562C205.359 65.75 204 67.3125 202.5 68.8438C201 70.375 199.406 71.75 197.719 72.9688C193.938 75.6562 190.25 77 186.656 77C182.062 77 179 75.625 177.469 72.875C176.938 71.9375 176.688 70.8125 176.719 69.5C174.062 72.7188 170.281 74.9688 165.375 76.25C163.719 76.6875 161.938 76.9062 160.031 76.9062C158.125 76.9062 156.375 76.6094 154.781 76.0156C153.219 75.3906 151.875 74.5312 150.75 73.4375C148.438 71.1562 147.281 68.1094 147.281 64.2969C147.281 59.9844 149.109 55.5625 152.766 51.0312C156.359 46.5312 160.969 42.8438 166.594 39.9688C172.594 36.9375 178.719 35.4219 184.969 35.4219C187.75 35.4219 188.984 36.6562 188.672 39.125C181.484 39.125 175.219 41.0625 169.875 44.9375C167.531 46.6562 165.688 48.5469 164.344 50.6094C163.031 52.6719 162.375 54.6719 162.375 56.6094C162.375 60.2344 163.906 62.0469 166.969 62.0469C171.375 62.0469 175.812 59.2969 180.281 53.7969C181.844 51.8594 183.656 49.1562 185.719 45.6875C187.812 42.1875 189.516 39.3438 190.828 37.1562C192.172 34.9375 193.531 32.6875 194.906 30.4062C196.312 28.0938 197.656 25.8906 198.938 23.7969C202.094 18.6406 204.047 15.5469 204.797 14.5156C205.922 12.9531 207.25 12.1719 208.781 12.1719C210.562 12.1719 211.859 12.8125 212.672 14.0938C209.234 19.5 206.031 25.2344 203.062 31.2969C200.094 37.3594 198.031 41.7812 196.875 44.5625C194.25 50.875 192.938 55.3906 192.938 58.1094C192.938 60.7969 193.891 62.1406 195.797 62.1406ZM231.938 69.5C227.656 74.5 222.438 77 216.281 77C212.375 77 209.25 75.8281 206.906 73.4844C204.594 71.1719 203.438 68.125 203.438 64.3438C203.438 59.5625 205.312 54.9219 209.062 50.4219C212.688 46.0469 217.438 42.4844 223.312 39.7344C229.406 36.8906 235.703 35.4688 242.203 35.4688C244.672 35.4688 246.438 35.8594 247.5 36.6406C248.344 35.6406 249.094 35.0625 249.75 34.9062C250.438 34.7188 250.969 34.625 251.344 34.625C252.531 34.625 253.797 34.7969 255.141 35.1406C255.016 35.5469 254.75 36.25 254.344 37.25C253.938 38.2188 253.484 39.375 252.984 40.7188C252.484 42.0625 251.953 43.5312 251.391 45.125C249.359 50.8125 248.344 55.0781 248.344 57.9219C248.344 60.7344 249.234 62.1406 251.016 62.1406C253.328 62.1406 255.906 61.0938 258.75 59C261.281 57.0938 263.5 54.7188 265.406 51.875C266.812 51.7812 267.516 52.3594 267.516 53.6094C267.516 54.6719 266.859 56.2969 265.547 58.4844C264.266 60.6719 263.016 62.5625 261.797 64.1562C260.578 65.75 259.219 67.3125 257.719 68.8438C256.219 70.375 254.625 71.75 252.938 72.9688C249.156 75.6562 245.469 77 241.875 77C237.312 77 234.25 75.625 232.688 72.875C232.188 72.0312 231.938 71.2969 231.938 70.6719C231.938 70.0156 231.938 69.625 231.938 69.5ZM218.531 56.7031C218.531 60.3281 220.047 62.1406 223.078 62.1406C226.422 62.1406 230.359 59.4375 234.891 54.0312C237.297 51.1562 239.391 48.4062 241.172 45.7812C242.984 43.1562 244.359 41.1562 245.297 39.7812C237.484 39.8438 231 41.625 225.844 45.125C220.969 48.4375 218.531 52.2969 218.531 56.7031ZM274.641 75.2188C274.641 76.4688 273.594 77.0938 271.5 77.0938C266.312 77.0938 262.625 75.0312 260.438 70.9062C259.625 69.4375 259.219 67.6875 259.219 65.6562C259.219 63.625 259.516 61.6094 260.109 59.6094C260.703 57.5781 261.5 55.5781 262.5 53.6094C263.5 51.6406 264.656 49.7344 265.969 47.8906C267.281 46.0469 268.672 44.3438 270.141 42.7812C273.234 39.4688 276.172 37.1406 278.953 35.7969C279.703 35.4531 280.375 35.2812 280.969 35.2812C281.594 35.2812 282.109 35.2969 282.516 35.3281C283.547 35.4219 284.312 35.8125 284.812 36.5C282.906 40.5312 281.344 44.2188 280.125 47.5625C285.688 42.0938 292.156 38.3594 299.531 36.3594C301.938 35.7031 304.031 35.375 305.812 35.375C307.625 35.375 308.672 35.7188 308.953 36.4062C309.234 37.0625 309.375 37.6719 309.375 38.2344C309.375 38.7969 309.297 39.5625 309.141 40.5312C308.984 41.4688 308.578 42.7812 307.922 44.4688C307.266 46.1562 306.594 47.8594 305.906 49.5781C304.156 53.9531 303.281 56.9375 303.281 58.5312C303.281 61.2812 304.266 62.6562 306.234 62.6562C309.609 62.6562 313.328 60.4375 317.391 56C318.578 54.7188 319.656 53.3438 320.625 51.875C322.031 51.7812 322.734 52.3594 322.734 53.6094C322.734 54.6094 322.094 56.2656 320.812 58.5781C319.531 60.8594 318.297 62.8438 317.109 64.5312C315.953 66.1875 314.641 67.8125 313.172 69.4062C311.703 71 310.094 72.4375 308.344 73.7188C304.531 76.5 300.812 77.8906 297.188 77.8906C293.562 77.8906 290.812 76.9375 288.938 75.0312C287.062 73.125 286.125 70.3438 286.125 66.6875C286.125 61.2812 288.938 54.8125 294.562 47.2812C296.281 45 297.031 43.8594 296.812 43.8594C294.438 43.8594 291.094 45.3594 286.781 48.3594C282.5 51.3594 279.234 54.5469 276.984 57.9219C275.547 63.7656 274.766 69.5312 274.641 75.2188ZM414.188 2.51562C415.469 1.42188 416.641 0.875 417.703 0.875C418.797 0.875 419.703 1.14063 420.422 1.67188C421.172 2.17188 421.781 2.84375 422.25 3.6875C423.156 5.3125 423.609 7.375 423.609 9.875C423.609 12.3438 423.203 15.0469 422.391 17.9844C421.578 20.8906 420.484 23.875 419.109 26.9375C417.734 29.9688 416.141 33.0312 414.328 36.125C412.516 39.2188 410.594 42.25 408.562 45.2188C406.562 48.1875 404.516 51.0781 402.422 53.8906C400.328 56.6719 398.312 59.2812 396.375 61.7188C394.438 64.1562 392.641 66.375 390.984 68.375C389.359 70.375 387.984 72.0938 386.859 73.5312C384.016 79.2812 380.875 82.1562 377.438 82.1562C375.156 82.1562 372.438 81.0469 369.281 78.8281C366 76.5156 364.359 74.375 364.359 72.4062C364.359 70.7812 365.562 68.9062 367.969 66.7812C368.562 66.2188 369.094 65.7969 369.562 65.5156C372.812 59.7031 375.469 51.8125 377.531 41.8438C378.688 36.1875 379.266 30.9844 379.266 26.2344C379.266 18.5469 377.656 13.3125 374.438 10.5312C372.938 9.25 371.25 8.60938 369.375 8.60938C367.5 8.60938 365.797 9.03125 364.266 9.875C362.734 10.7188 361.312 11.875 360 13.3438C357.031 16.6875 355.547 20.4375 355.547 24.5938C355.547 28.0312 357.156 31.2812 360.375 34.3438C359.188 35.9688 357.344 37.3438 354.844 38.4688C354.125 38.7812 353.406 38.9375 352.688 38.9375C351.969 38.9375 351.141 38.7188 350.203 38.2812C349.297 37.8438 348.469 37.2188 347.719 36.4062C346.125 34.5625 345.328 32.4219 345.328 29.9844C345.328 27.5469 345.672 25.2812 346.359 23.1875C347.016 21.0937 347.938 19.0938 349.125 17.1875C350.312 15.2812 351.703 13.5156 353.297 11.8906C354.891 10.2656 356.594 8.84375 358.406 7.625C362.281 5.09375 366 3.82812 369.562 3.82812C373.156 3.82812 376.188 4.48438 378.656 5.79688C381.156 7.10938 383.297 8.90625 385.078 11.1875C386.891 13.4375 388.375 16.0938 389.531 19.1562C391.969 25.5625 393.188 33.0781 393.188 41.7031C393.188 44.7656 393.031 47.7969 392.719 50.7969C399.844 44.0781 405.281 37.9375 409.031 32.375C414.062 24.9062 416.578 17.9062 416.578 11.375C416.578 7.65625 415.781 4.70313 414.188 2.51562ZM435.422 58.5781C437.234 61.8281 441.344 63.4531 447.75 63.4531C451.75 63.4531 455.516 62.4844 459.047 60.5469C462.609 58.5781 465.656 55.6875 468.188 51.875C469.594 51.7812 470.297 52.3594 470.297 53.6094C470.297 55.0156 469.453 57.0469 467.766 59.7031C466.109 62.3281 464.547 64.4531 463.078 66.0781C461.641 67.7031 460.016 69.2188 458.203 70.625C456.422 72 454.5 73.1875 452.438 74.1875C447.969 76.375 443.266 77.4688 438.328 77.4688C428.391 77.4688 421.938 74.7188 418.969 69.2188C417.906 67.2188 417.375 64.9375 417.375 62.375C417.375 59.7812 417.812 57.4062 418.688 55.25C419.594 53.0938 420.828 51.0469 422.391 49.1094C423.953 47.1406 425.812 45.3281 427.969 43.6719C430.125 42.0156 432.469 40.5938 435 39.4062C440.375 36.8125 445.859 35.5156 451.453 35.5156C455.484 35.5156 458.25 36.7812 459.75 39.3125C460.281 40.1875 460.547 41.3594 460.547 42.8281C460.547 44.2656 460.172 45.6875 459.422 47.0938C458.703 48.5 457.719 49.7812 456.469 50.9375C455.219 52.0625 453.766 53.0625 452.109 53.9375C450.453 54.7812 448.688 55.5156 446.812 56.1406C443.5 57.2656 439.703 58.0781 435.422 58.5781ZM434.766 54.2188C438.766 53.75 442.203 52.6406 445.078 50.8906C448.109 49.0156 449.625 46.8281 449.625 44.3281C449.625 41.7969 448.469 40.5312 446.156 40.5312C443.156 40.5312 440.547 41.9688 438.328 44.8438C436.203 47.5938 435.016 50.7188 434.766 54.2188ZM484.734 48.875C480.984 48.6875 477.797 48.2969 475.172 47.7031C471.953 53.2969 468.797 58.2812 465.703 62.6562C465.297 63.3125 464.375 63.4844 462.938 63.1719C460.375 62.6094 458.906 61.9531 458.531 61.2031C464.094 57.2969 468 52.2812 470.25 46.1562C466.969 44.6562 465.328 42.5312 465.328 39.7812C465.328 38.0938 466.438 35.9375 468.656 33.3125C470.75 30.75 472.297 29.4688 473.297 29.4688C476.359 29.4688 478.688 30.25 480.281 31.8125C480.906 32.4062 481.219 33.2031 481.219 34.2031C481.219 35.1719 480.688 36.8125 479.625 39.125C484.438 41.4688 490.5 42.8438 497.812 43.25C497.594 45.4062 496.688 47.1562 495.094 48.5C494.656 48.9062 494.219 49.1094 493.781 49.1094C491.562 51.1094 490 53.2812 489.094 55.625C488.812 56.375 488.672 57.0938 488.672 57.7812C488.672 60.6875 490.406 62.1406 493.875 62.1406C496.219 62.1406 498.812 61.0938 501.656 59C504.188 57.0938 506.406 54.7188 508.312 51.875C509.719 51.7812 510.422 52.3594 510.422 53.6094C510.422 54.6719 509.766 56.2969 508.453 58.4844C507.172 60.6719 505.922 62.5625 504.703 64.1562C503.484 65.75 502.125 67.3125 500.625 68.8438C499.125 70.375 497.531 71.75 495.844 72.9688C492.062 75.6562 488.359 77 484.734 77C478.578 77 474.453 75.0938 472.359 71.2812C471.641 70 471.281 68.5156 471.281 66.8281C471.281 65.1094 471.625 63.4219 472.312 61.7656C473.031 60.1094 474 58.5 475.219 56.9375C477.719 53.6875 480.891 51 484.734 48.875ZM517.547 75.2188C517.547 76.4688 516.5 77.0938 514.406 77.0938C509.219 77.0938 505.531 75.0312 503.344 70.9062C502.531 69.4375 502.125 67.6875 502.125 65.6562C502.125 63.625 502.422 61.6094 503.016 59.6094C503.609 57.5781 504.406 55.5781 505.406 53.6094C506.406 51.6406 507.562 49.7344 508.875 47.8906C510.188 46.0469 511.578 44.3438 513.047 42.7812C516.141 39.4688 519.078 37.1406 521.859 35.7969C522.609 35.4531 523.281 35.2812 523.875 35.2812C524.5 35.2812 525.016 35.2969 525.422 35.3281C526.453 35.4219 527.219 35.8125 527.719 36.5C525.812 40.5312 524.25 44.2188 523.031 47.5625C528.594 42.0938 535.062 38.3594 542.438 36.3594C544.844 35.7031 546.938 35.375 548.719 35.375C550.531 35.375 551.578 35.7188 551.859 36.4062C552.141 37.0625 552.281 37.6719 552.281 38.2344C552.281 38.7969 552.203 39.5625 552.047 40.5312C551.891 41.4688 551.484 42.7812 550.828 44.4688C550.172 46.1562 549.5 47.8594 548.812 49.5781C547.062 53.9531 546.188 56.9375 546.188 58.5312C546.188 61.2812 547.172 62.6562 549.141 62.6562C552.516 62.6562 556.234 60.4375 560.297 56C561.484 54.7188 562.562 53.3438 563.531 51.875C564.938 51.7812 565.641 52.3594 565.641 53.6094C565.641 54.6094 565 56.2656 563.719 58.5781C562.438 60.8594 561.203 62.8438 560.016 64.5312C558.859 66.1875 557.547 67.8125 556.078 69.4062C554.609 71 553 72.4375 551.25 73.7188C547.438 76.5 543.719 77.8906 540.094 77.8906C536.469 77.8906 533.719 76.9375 531.844 75.0312C529.969 73.125 529.031 70.3438 529.031 66.6875C529.031 61.2812 531.844 54.8125 537.469 47.2812C539.188 45 539.938 43.8594 539.719 43.8594C537.344 43.8594 534 45.3594 529.688 48.3594C525.406 51.3594 522.141 54.5469 519.891 57.9219C518.453 63.7656 517.672 69.5312 517.547 75.2188ZM572.859 77.2344L571.922 77.2812C566.984 77.2812 563.219 76.0625 560.625 73.625C558.188 71.3438 556.969 68.25 556.969 64.3438C556.969 58.9688 559.109 53.8281 563.391 48.9219C567.547 44.1719 572.594 40.8438 578.531 38.9375C578.344 37.5312 578.859 36.375 580.078 35.4688C580.953 34.8125 582.391 34.4844 584.391 34.4844C586.422 34.4844 588.375 34.6719 590.25 35.0469C592.125 35.4219 594.016 36.25 595.922 37.5312C600.047 40.25 602.109 43.9062 602.109 48.5C602.109 53.4688 600.875 58.1875 598.406 62.6562C603.781 61.5 608.484 57.9062 612.516 51.875C613.922 51.7812 614.625 52.3594 614.625 53.6094C614.625 54.1094 614.469 54.7188 614.156 55.4375C609.906 65.5312 601.406 72.2188 588.656 75.5C584.094 76.6875 578.906 77.2812 573.094 77.2812L572.859 77.2344ZM572.062 56.7031C572.062 60.3281 573.578 62.1406 576.609 62.1406C579.172 62.1406 581.75 60.5938 584.344 57.5C587.062 54.2812 588.422 51.0156 588.422 47.7031C588.422 44.3281 586.797 42.0938 583.547 41C577.953 42.5625 574.375 46.0625 572.812 51.5C572.312 53.1562 572.062 54.8906 572.062 56.7031ZM621.703 75.2188C621.703 76.4688 620.656 77.0938 618.562 77.0938C613.375 77.0938 609.688 75.0312 607.5 70.9062C606.688 69.4375 606.281 67.6875 606.281 65.6562C606.281 63.625 606.578 61.6094 607.172 59.6094C607.766 57.5781 608.562 55.5781 609.562 53.6094C610.562 51.6406 611.719 49.7344 613.031 47.8906C614.344 46.0469 615.734 44.3438 617.203 42.7812C620.297 39.4688 623.234 37.1406 626.016 35.7969C626.766 35.4531 627.438 35.2812 628.031 35.2812C628.656 35.2812 629.172 35.2969 629.578 35.3281C630.609 35.4219 631.375 35.8125 631.875 36.5C629.969 40.5312 628.406 44.2188 627.188 47.5625C632.75 42.0938 639.219 38.3594 646.594 36.3594C649 35.7031 651.094 35.375 652.875 35.375C654.688 35.375 655.734 35.7188 656.016 36.4062C656.297 37.0625 656.438 37.6719 656.438 38.2344C656.438 38.7969 656.359 39.5625 656.203 40.5312C656.047 41.4688 655.641 42.7812 654.984 44.4688C654.328 46.1562 653.656 47.8594 652.969 49.5781C651.219 53.9531 650.344 56.9375 650.344 58.5312C650.344 61.2812 651.328 62.6562 653.297 62.6562C656.672 62.6562 660.391 60.4375 664.453 56C665.641 54.7188 666.719 53.3438 667.688 51.875C669.094 51.7812 669.797 52.3594 669.797 53.6094C669.797 54.6094 669.156 56.2656 667.875 58.5781C666.594 60.8594 665.359 62.8438 664.172 64.5312C663.016 66.1875 661.703 67.8125 660.234 69.4062C658.766 71 657.156 72.4375 655.406 73.7188C651.594 76.5 647.875 77.8906 644.25 77.8906C640.625 77.8906 637.875 76.9375 636 75.0312C634.125 73.125 633.188 70.3438 633.188 66.6875C633.188 61.2812 636 54.8125 641.625 47.2812C643.344 45 644.094 43.8594 643.875 43.8594C641.5 43.8594 638.156 45.3594 633.844 48.3594C629.562 51.3594 626.297 54.5469 624.047 57.9219C622.609 63.7656 621.828 69.5312 621.703 75.2188Z" fill="#C6C6C6"/>
</svg>
