<svg width="559" height="70" viewBox="0 0 559 70" fill="none" xmlns="http://www.w3.org/2000/svg">
<path d="M20.0469 69.125C8.32812 69.125 1.71875 61.8594 1.01562 52.1562L0.96875 51.5H9.40625L9.45312 51.9688C9.96875 57.0781 13.2969 61.3438 20 61.3438C27.5 61.3438 31.5312 56.8906 31.5312 48.6406V0.359375H39.9688V48.7344C39.9688 61.5312 32.5625 69.125 20.0469 69.125ZM73.9512 68.9375C60.4044 68.9375 51.3575 59.1406 51.3575 43.625V43.5312C51.3575 28.0156 60.4512 18.3125 73.9044 18.3125C87.3575 18.3125 96.4981 27.9688 96.4981 43.5312V43.625C96.4981 59.1875 87.4044 68.9375 73.9512 68.9375ZM73.9981 61.7188C82.5762 61.7188 88.1544 55.0625 88.1544 43.625V43.5312C88.1544 32.0938 82.5294 25.5312 73.9044 25.5312C65.42 25.5312 59.7012 32.1406 59.7012 43.5312V43.625C59.7012 55.1094 65.3731 61.7188 73.9981 61.7188ZM106.668 68V19.25H114.824V27.5H115.012C116.652 21.875 120.871 18.3125 126.356 18.3125C127.762 18.3125 128.981 18.5469 129.637 18.6406V26.5625C128.981 26.3281 127.246 26.0938 125.277 26.0938C118.949 26.0938 114.824 30.5 114.824 37.9062V68H106.668ZM154.197 68.9375C141.729 68.9375 133.479 59 133.479 43.625V43.5781C133.479 28.2031 141.822 18.3125 154.057 18.3125C160.947 18.3125 166.619 21.7812 169.666 27.4062H169.854V0.359375H178.01V68H169.854V59.75H169.666C166.619 65.4219 161.182 68.9375 154.197 68.9375ZM155.791 61.7188C164.041 61.7188 169.901 54.5469 169.901 43.625V43.5781C169.901 32.7031 163.994 25.5312 155.791 25.5312C147.166 25.5312 141.822 32.4688 141.822 43.5781V43.625C141.822 54.8281 147.166 61.7188 155.791 61.7188ZM205.196 68.9375C195.492 68.9375 188.977 63.0781 188.977 54.2188V54.125C188.977 45.8281 195.446 40.625 206.649 39.9688L220.617 39.1719V35.0938C220.617 29.1406 216.727 25.5312 209.93 25.5312C203.649 25.5312 199.711 28.5312 198.774 32.8906L198.68 33.3125H190.805L190.852 32.7969C191.555 24.7812 198.539 18.3125 210.024 18.3125C221.555 18.3125 228.774 24.5469 228.774 34.2969V68H220.617V60.0781H220.43C217.571 65.4219 211.711 68.9375 205.196 68.9375ZM197.321 54.2188C197.321 58.9062 201.164 61.8594 207.024 61.8594C214.711 61.8594 220.617 56.5625 220.617 49.4844V45.5L207.586 46.2969C201.071 46.6719 197.321 49.5781 197.321 54.125V54.2188ZM241.053 68V19.25H249.209V26.1875H249.397C252.022 21.6406 256.991 18.3125 264.397 18.3125C275.084 18.3125 281.272 25.25 281.272 36.3594V68H273.116V37.8125C273.116 29.8906 269.413 25.5312 261.913 25.5312C254.225 25.5312 249.209 31.0156 249.209 39.3125V68H241.053ZM336.018 68L311.081 0.359375H319.94L340.096 57.875H340.284L360.44 0.359375H369.299L344.362 68H336.018ZM391.188 68.9375C377.172 68.9375 368.735 59.1406 368.735 43.8125V43.7656C368.735 28.6719 377.36 18.3125 390.672 18.3125C403.985 18.3125 412.094 28.2031 412.094 42.8281V45.8281H376.985C377.172 55.8594 382.704 61.7188 391.376 61.7188C397.563 61.7188 401.922 58.625 403.329 54.4531L403.469 54.0312H411.485L411.391 54.5C409.797 62.5625 401.829 68.9375 391.188 68.9375ZM390.626 25.5312C383.547 25.5312 378.016 30.3594 377.126 39.4531H403.797C403.001 29.9844 397.751 25.5312 390.626 25.5312ZM422.264 68V19.25H430.421V27.5H430.608C432.249 21.875 436.467 18.3125 441.952 18.3125C443.358 18.3125 444.577 18.5469 445.233 18.6406V26.5625C444.577 26.3281 442.842 26.0938 440.874 26.0938C434.546 26.0938 430.421 30.5 430.421 37.9062V68H422.264ZM453.809 68V19.25H461.966V26.1875H462.153C464.778 21.6406 469.747 18.3125 477.153 18.3125C487.841 18.3125 494.028 25.25 494.028 36.3594V68H485.872V37.8125C485.872 29.8906 482.169 25.5312 474.669 25.5312C466.981 25.5312 461.966 31.0156 461.966 39.3125V68H453.809ZM526.557 68.9375C513.011 68.9375 503.964 59.1406 503.964 43.625V43.5312C503.964 28.0156 513.057 18.3125 526.511 18.3125C539.964 18.3125 549.104 27.9688 549.104 43.5312V43.625C549.104 59.1875 540.011 68.9375 526.557 68.9375ZM526.604 61.7188C535.182 61.7188 540.761 55.0625 540.761 43.625V43.5312C540.761 32.0938 535.136 25.5312 526.511 25.5312C518.026 25.5312 512.307 32.1406 512.307 43.5312V43.625C512.307 55.1094 517.979 61.7188 526.604 61.7188ZM559.274 68V19.25H567.431V26.1875H567.618C570.243 21.6406 575.212 18.3125 582.618 18.3125C593.306 18.3125 599.493 25.25 599.493 36.3594V68H591.337V37.8125C591.337 29.8906 587.634 25.5312 580.134 25.5312C572.446 25.5312 567.431 31.0156 567.431 39.3125V68H559.274Z" fill="#C6C6C6"/>
</svg>
