<svg width="983" height="85" viewBox="0 0 983 85" fill="none" xmlns="http://www.w3.org/2000/svg">
<path d="M29.432 84.864C23.608 84.864 18.808 84.192 15.032 82.848C11.32 81.568 8.376 79.84 6.2 77.664C4.088 75.488 2.616 72.992 1.784 70.176C1.016 67.36 0.632 64.448 0.632 61.44V48.768C0.632 47.936 0.728 47.232 0.92 46.656C1.176 46.016 1.496 45.536 1.88 45.216L14.36 34.752C14.68 34.496 15.096 34.304 15.608 34.176C16.12 33.984 16.728 33.888 17.432 33.888H31.352C32.056 33.888 32.664 33.984 33.176 34.176C33.752 34.304 34.232 34.528 34.616 34.848V16.8C34.616 15.968 34.712 15.264 34.904 14.688C35.16 14.112 35.512 13.632 35.96 13.248L48.344 2.784C48.664 2.528 49.08 2.336 49.592 2.20799C50.168 2.016 50.776 1.92 51.416 1.92H66.488C68.024 1.92 69.144 2.272 69.848 2.976C70.552 3.68 70.904 4.8 70.904 6.336V53.856C70.904 56.864 70.456 59.648 69.56 62.208C68.728 64.704 67.224 66.848 65.048 68.64L52.664 79.104C50.488 80.896 47.544 82.304 43.832 83.328C40.12 84.352 35.32 84.864 29.432 84.864ZM69.944 53.856V6.336C69.944 5.12 69.656 4.256 69.08 3.744C68.568 3.168 67.704 2.88 66.488 2.88H51.416C50.2 2.88 49.304 3.168 48.728 3.744C48.216 4.256 47.96 5.12 47.96 6.336V50.016C47.96 51.296 47.576 52.384 46.808 53.28C46.104 54.112 44.376 54.528 41.624 54.528C38.68 54.528 36.792 54.112 35.96 53.28C35.192 52.384 34.808 51.296 34.808 50.016V38.304C34.808 37.088 34.52 36.224 33.944 35.712C33.432 35.136 32.568 34.848 31.352 34.848H17.432C16.216 34.848 15.32 35.136 14.744 35.712C14.232 36.224 13.976 37.088 13.976 38.304V53.856C13.976 56.8 14.36 59.488 15.128 61.92C15.96 64.288 17.4 66.336 19.448 68.064C21.56 69.728 24.408 71.04 27.992 72C31.64 72.96 36.248 73.44 41.816 73.44C47.448 73.44 52.088 72.96 55.736 72C59.384 71.04 62.232 69.728 64.28 68.064C66.392 66.336 67.864 64.288 68.696 61.92C69.528 59.488 69.944 56.8 69.944 53.856ZM58.424 11.52H59.384V51.552C59.384 55.328 58.168 58.432 55.736 60.864C53.368 63.296 48.792 64.512 42.008 64.512C38.424 64.512 35.448 64.192 33.08 63.552C30.776 62.912 28.952 62.048 27.608 60.96C26.264 59.808 25.304 58.432 24.728 56.832C24.216 55.232 23.96 53.472 23.96 51.552V43.968H24.92V51.552C24.92 55.2 26.104 58.112 28.472 60.288C30.904 62.464 35.416 63.552 42.008 63.552C48.344 63.552 52.664 62.464 54.968 60.288C57.272 58.048 58.424 55.136 58.424 51.552V11.52ZM133.696 78.816C131.456 80.736 128.32 82.208 124.288 83.232C120.256 84.32 115.072 84.864 108.736 84.864C102.464 84.864 97.3123 84.192 93.2803 82.848C89.3123 81.568 86.1762 79.84 83.8723 77.664C81.6323 75.488 80.0643 72.992 79.1683 70.176C78.3363 67.36 77.9203 64.448 77.9203 61.44V31.584C77.9203 28.64 78.3363 25.92 79.1683 23.424C80.0003 20.864 81.5043 18.688 83.6803 16.896L96.1603 6.528C98.4003 4.608 101.504 3.136 105.472 2.112C109.504 1.02399 114.72 0.479994 121.12 0.479994C127.392 0.479994 132.512 0.991995 136.48 2.016C140.512 3.04 143.648 4.48 145.888 6.336C148.192 8.128 149.76 10.304 150.592 12.864C151.424 15.36 151.84 18.112 151.84 21.12V53.856C151.84 56.8 151.424 59.52 150.592 62.016C149.76 64.512 148.256 66.656 146.08 68.448L133.696 78.816ZM150.88 53.856V21.12C150.88 18.176 150.432 15.52 149.536 13.152C148.704 10.72 147.168 8.64 144.928 6.912C142.752 5.184 139.712 3.84 135.808 2.88C131.968 1.92 127.072 1.44 121.12 1.44C115.168 1.44 110.24 1.92 106.336 2.88C102.432 3.84 99.3603 5.184 97.1203 6.912C94.9443 8.64 93.4083 10.72 92.5123 13.152C91.6803 15.52 91.2643 18.176 91.2643 21.12V53.856C91.2643 56.8 91.6803 59.488 92.5123 61.92C93.4083 64.288 94.9443 66.336 97.1203 68.064C99.3603 69.728 102.432 71.04 106.336 72C110.24 72.96 115.168 73.44 121.12 73.44C127.072 73.44 131.968 72.96 135.808 72C139.712 71.04 142.752 69.728 144.928 68.064C147.168 66.336 148.704 64.288 149.536 61.92C150.432 59.488 150.88 56.8 150.88 53.856ZM140.416 51.648C140.416 55.488 139.04 58.624 136.288 61.056C133.536 63.424 128.416 64.608 120.928 64.608C113.44 64.608 108.352 63.424 105.664 61.056C102.976 58.624 101.632 55.488 101.632 51.648V23.328C101.632 19.488 102.976 16.384 105.664 14.016C108.352 11.584 113.44 10.368 120.928 10.368C128.416 10.368 133.536 11.584 136.288 14.016C139.04 16.384 140.416 19.488 140.416 23.328V51.648ZM102.592 51.648C102.592 55.232 103.872 58.144 106.432 60.384C108.992 62.56 113.824 63.648 120.928 63.648C128.032 63.648 132.896 62.56 135.52 60.384C138.144 58.144 139.456 55.232 139.456 51.648V23.328C139.456 19.744 138.144 16.864 135.52 14.688C132.896 12.448 128.032 11.328 120.928 11.328C113.824 11.328 108.992 12.448 106.432 14.688C103.872 16.864 102.592 19.744 102.592 23.328V51.648ZM113.056 50.4V24.576C113.056 23.36 113.536 22.336 114.496 21.504C115.456 20.608 117.664 20.16 121.12 20.16C124.576 20.16 126.784 20.608 127.744 21.504C128.704 22.336 129.184 23.36 129.184 24.576V50.4C129.184 51.68 128.704 52.768 127.744 53.664C126.784 54.496 124.576 54.912 121.12 54.912C117.664 54.912 115.456 54.496 114.496 53.664C113.536 52.768 113.056 51.68 113.056 50.4ZM114.016 50.4C114.016 51.04 114.144 51.616 114.4 52.128C114.656 52.576 115.136 52.96 115.84 53.28V35.04C115.84 34.4 115.712 33.856 115.456 33.408C115.2 32.896 114.72 32.512 114.016 32.256V50.4ZM204.92 12.48H183.992V40.224H204.92C208.888 40.224 211.544 39.264 212.888 37.344C214.232 35.424 214.904 32.704 214.904 29.184V22.464C214.904 19.52 214.072 17.12 212.408 15.264C210.808 13.408 208.312 12.48 204.92 12.48ZM194.36 20.16H201.56C203.224 20.16 204.344 20.608 204.92 21.504C205.496 22.336 205.784 23.392 205.784 24.672V27.936C205.784 29.216 205.496 30.304 204.92 31.2C204.344 32.032 203.224 32.448 201.56 32.448H194.36V20.16ZM183.992 63.36H183.032V11.52H204.92C208.632 11.52 211.384 12.576 213.176 14.688C214.968 16.736 215.864 19.328 215.864 22.464V29.088C215.864 32.032 215.48 34.464 214.712 36.384C213.944 38.24 212.408 39.52 210.104 40.224H211.16C215.064 40.224 217.976 41.12 219.896 42.912C221.816 44.64 222.776 47.168 222.776 50.496V63.36H221.816V50.496C221.816 47.36 220.952 45.024 219.224 43.488C217.496 41.888 214.808 41.088 211.16 41.088H183.992V63.36ZM190.904 72C192.12 72 192.984 71.744 193.496 71.232C194.072 70.656 194.36 69.76 194.36 68.544V49.728H207.8C209.144 49.728 210.072 50.08 210.584 50.784C211.16 51.424 211.448 52.448 211.448 53.856V68.544C211.448 69.76 211.704 70.656 212.216 71.232C212.792 71.744 213.688 72 214.904 72H229.784C231 72 231.864 71.744 232.376 71.232C232.952 70.656 233.24 69.76 233.24 68.544V48.192C233.24 44.16 232.152 40.928 229.976 38.496C227.864 36.064 225.08 34.656 221.624 34.272C223.608 33.44 224.984 32.096 225.752 30.24C226.584 28.32 227 26.016 227 23.328V18.912C227 14.176 225.624 10.336 222.872 7.392C220.184 4.384 215.256 2.88 208.088 2.88H176.12C174.904 2.88 174.008 3.168 173.432 3.744C172.92 4.256 172.664 5.12 172.664 6.336V68.544C172.664 69.76 172.92 70.656 173.432 71.232C174.008 71.744 174.904 72 176.12 72H190.904ZM193.976 72.096L181.496 82.464C181.24 82.72 180.824 82.944 180.248 83.136C179.736 83.328 179.16 83.424 178.52 83.424H163.736C162.2 83.424 161.08 83.072 160.376 82.368C159.672 81.664 159.32 80.544 159.32 79.008V16.8C159.32 15.968 159.416 15.264 159.608 14.688C159.864 14.112 160.216 13.632 160.664 13.248L173.048 2.784C173.368 2.528 173.784 2.336 174.296 2.20799C174.872 2.016 175.48 1.92 176.12 1.92H208.088C215.704 1.92 220.92 3.52 223.736 6.72C226.552 9.856 227.96 13.92 227.96 18.912V23.328C227.96 25.696 227.672 27.776 227.096 29.568C226.52 31.296 225.592 32.704 224.312 33.792H224.216C227.224 34.624 229.624 36.288 231.416 38.784C233.272 41.28 234.2 44.416 234.2 48.192V68.544C234.2 69.376 234.072 70.08 233.816 70.656C233.624 71.232 233.304 71.712 232.856 72.096L220.376 82.464C220.12 82.72 219.704 82.944 219.128 83.136C218.616 83.328 218.04 83.424 217.4 83.424H202.52C200.984 83.424 199.864 83.072 199.16 82.368C198.456 81.664 198.104 80.544 198.104 79.008V64.32C198.104 63.296 197.912 62.528 197.528 62.016C197.144 61.44 196.44 61.152 195.416 61.152H195.32V68.544C195.32 69.376 195.192 70.08 194.936 70.656C194.744 71.232 194.424 71.712 193.976 72.096ZM295.426 78.336C293.442 80 290.914 81.248 287.842 82.08C284.77 82.976 281.154 83.424 276.994 83.424H244.642C243.106 83.424 241.986 83.072 241.282 82.368C240.578 81.664 240.226 80.544 240.226 79.008V16.8C240.226 15.968 240.322 15.264 240.514 14.688C240.77 14.112 241.122 13.632 241.57 13.248L253.954 2.784C254.274 2.528 254.69 2.336 255.202 2.20799C255.778 2.016 256.386 1.92 257.026 1.92H289.378C297.762 1.92 303.938 3.616 307.906 7.008C311.938 10.4 313.954 15.552 313.954 22.464V52.416C313.954 55.872 313.442 58.912 312.418 61.536C311.394 64.096 309.89 66.24 307.906 67.968L295.426 78.336ZM289.378 72C297.378 72 303.298 70.4 307.138 67.2C311.042 64 312.994 59.072 312.994 52.416V22.464C312.994 15.808 311.042 10.88 307.138 7.68C303.298 4.48 297.378 2.88 289.378 2.88H257.026C255.81 2.88 254.914 3.168 254.338 3.744C253.826 4.256 253.57 5.12 253.57 6.336V68.544C253.57 69.76 253.826 70.656 254.338 71.232C254.914 71.744 255.81 72 257.026 72H289.378ZM264.034 63.36V11.52H287.266C290.53 11.52 293.154 11.872 295.138 12.576C297.186 13.28 298.754 14.24 299.842 15.456C300.93 16.608 301.666 18.016 302.05 19.68C302.434 21.28 302.626 23.008 302.626 24.864V50.304C302.626 52.16 302.434 53.888 302.05 55.488C301.73 57.088 301.026 58.464 299.938 59.616C298.85 60.768 297.282 61.696 295.234 62.4C293.186 63.04 290.53 63.36 287.266 63.36H264.034ZM287.266 12.48H264.994V62.4H287.266C290.338 62.4 292.802 62.112 294.658 61.536C296.578 60.896 298.05 60.064 299.074 59.04C300.098 57.952 300.77 56.672 301.09 55.2C301.474 53.664 301.666 52.032 301.666 50.304V24.864C301.666 23.136 301.474 21.504 301.09 19.968C300.706 18.432 300.002 17.12 298.978 16.032C297.954 14.944 296.482 14.08 294.562 13.44C292.706 12.8 290.274 12.48 287.266 12.48ZM275.362 21.216H286.786C288.322 21.216 289.442 21.6 290.146 22.368C290.914 23.072 291.298 24.224 291.298 25.824V49.152C291.298 50.752 290.914 51.936 290.146 52.704C289.442 53.472 288.322 53.856 286.786 53.856H275.362V21.216ZM277.954 36.288C277.954 35.456 277.826 34.752 277.57 34.176C277.314 33.6 276.898 33.184 276.322 32.928V52.896H277.954V36.288ZM344.454 42.912V45.888H381.894V42.912C381.894 41.184 381.734 39.584 381.414 38.112C381.158 36.64 380.806 35.264 380.358 33.984L373.734 18.336C373.03 16.672 372.294 15.296 371.526 14.208C370.758 13.056 369.478 12.48 367.686 12.48H358.278C356.358 12.48 355.014 13.056 354.246 14.208C353.478 15.296 352.774 16.64 352.134 18.24L345.99 33.984C345.542 35.264 345.158 36.64 344.838 38.112C344.582 39.584 344.454 41.184 344.454 42.912ZM359.814 23.04C360.07 22.464 360.326 22.048 360.582 21.792C360.902 21.536 361.254 21.408 361.638 21.408H364.038C364.422 21.408 364.742 21.536 364.998 21.792C365.318 22.048 365.606 22.464 365.862 23.04L370.374 37.632H355.302L359.814 23.04ZM381.894 63.36V46.848H344.454V63.36H343.494V42.912C343.494 41.12 343.622 39.488 343.878 38.016C344.198 36.48 344.614 35.008 345.126 33.6L351.27 17.856C351.974 16.064 352.774 14.56 353.67 13.344C354.566 12.128 356.102 11.52 358.278 11.52H367.686C369.798 11.52 371.27 12.128 372.102 13.344C372.998 14.56 373.83 16.096 374.598 17.952L381.222 33.6C381.734 35.008 382.118 36.48 382.374 38.016C382.694 39.488 382.854 41.12 382.854 42.912V63.36H381.894ZM354.342 68.544V55.104H371.334V68.544C371.334 69.76 371.622 70.656 372.198 71.232C372.838 71.744 373.798 72 375.078 72H389.574C390.79 72 391.654 71.744 392.166 71.232C392.742 70.656 393.03 69.76 393.03 68.544V43.2C393.03 41.28 392.71 39.072 392.07 36.576C391.494 34.08 390.566 31.168 389.286 27.84L380.934 6.048C380.55 4.96 379.942 4.16 379.11 3.648C378.342 3.136 377.35 2.88 376.134 2.88H350.31C349.03 2.88 347.974 3.136 347.142 3.648C346.374 4.16 345.798 4.96 345.414 6.048L337.062 27.84C335.782 31.168 334.822 34.08 334.182 36.576C333.606 39.072 333.318 41.28 333.318 43.2V68.544C333.318 69.76 333.574 70.656 334.086 71.232C334.662 71.744 335.558 72 336.774 72H350.886C352.102 72 352.966 71.744 353.478 71.232C354.054 70.656 354.342 69.76 354.342 68.544ZM341.478 82.464C341.222 82.72 340.806 82.944 340.23 83.136C339.718 83.328 339.142 83.424 338.502 83.424H324.39C322.854 83.424 321.734 83.072 321.03 82.368C320.326 81.664 319.974 80.544 319.974 79.008V53.664C319.974 51.68 320.262 49.44 320.838 46.944C321.478 44.384 322.47 41.376 323.814 37.92L332.07 16.224C332.262 15.648 332.486 15.168 332.742 14.784C333.062 14.336 333.382 13.952 333.702 13.632L333.798 13.536L346.086 3.264C346.598 2.816 347.206 2.496 347.91 2.304C348.614 2.048 349.414 1.92 350.31 1.92H376.134C377.606 1.92 378.79 2.24 379.686 2.88C380.646 3.456 381.35 4.384 381.798 5.664L390.15 27.456C391.494 30.912 392.454 33.92 393.03 36.48C393.67 38.976 393.99 41.216 393.99 43.2V68.544C393.99 69.376 393.862 70.08 393.606 70.656C393.414 71.232 393.094 71.712 392.646 72.096L380.166 82.464C379.91 82.72 379.494 82.944 378.918 83.136C378.406 83.328 377.83 83.424 377.19 83.424H362.694C361.094 83.424 359.91 83.04 359.142 82.272C358.374 81.568 357.99 80.48 357.99 79.008V66.528H355.302V68.544C355.302 69.376 355.174 70.08 354.918 70.656C354.726 71.232 354.406 71.712 353.958 72.096L341.478 82.464ZM427.117 12.288L462.445 52.032V11.52H463.405V63.36H462.445V53.472L426.157 12.768C426.093 12.704 425.997 12.64 425.869 12.576C425.805 12.512 425.741 12.48 425.677 12.48C425.613 12.48 425.549 12.512 425.485 12.576C425.485 12.64 425.485 12.704 425.485 12.768V63.36H424.525V12.576C424.525 12.192 424.653 11.904 424.909 11.712C425.165 11.52 425.421 11.424 425.677 11.424C425.933 11.424 426.157 11.488 426.349 11.616C426.541 11.744 426.797 11.968 427.117 12.288ZM432.301 72C433.517 72 434.381 71.744 434.893 71.232C435.469 70.656 435.757 69.76 435.757 68.544V36.864L452.173 56.736V68.544C452.173 69.76 452.429 70.656 452.941 71.232C453.517 71.744 454.413 72 455.629 72H470.029C471.245 72 472.109 71.744 472.621 71.232C473.197 70.656 473.485 69.76 473.485 68.544V6.336C473.485 5.12 473.197 4.256 472.621 3.744C472.109 3.168 471.245 2.88 470.029 2.88H455.629C454.413 2.88 453.517 3.168 452.941 3.744C452.429 4.256 452.173 5.12 452.173 6.336V26.784L433.549 5.472C432.717 4.512 431.853 3.84 430.957 3.456C430.125 3.072 429.101 2.88 427.885 2.88H417.901C416.685 2.88 415.789 3.168 415.213 3.744C414.701 4.256 414.445 5.12 414.445 6.336V68.544C414.445 69.76 414.701 70.656 415.213 71.232C415.789 71.744 416.685 72 417.901 72H432.301ZM435.373 72.096L422.893 82.464C422.637 82.72 422.221 82.944 421.645 83.136C421.133 83.328 420.557 83.424 419.917 83.424H405.517C403.981 83.424 402.861 83.072 402.157 82.368C401.453 81.664 401.101 80.544 401.101 79.008V16.8C401.101 15.968 401.197 15.264 401.389 14.688C401.645 14.112 401.997 13.632 402.445 13.248L414.829 2.784C415.149 2.528 415.565 2.336 416.077 2.20799C416.653 2.016 417.261 1.92 417.901 1.92H427.885C429.293 1.92 430.477 2.144 431.437 2.592C432.397 3.04 433.357 3.776 434.317 4.8L440.941 12.48L452.557 2.784C452.877 2.528 453.293 2.336 453.805 2.20799C454.381 2.016 454.989 1.92 455.629 1.92H470.029C471.565 1.92 472.685 2.272 473.389 2.976C474.093 3.68 474.445 4.8 474.445 6.336V68.544C474.445 69.376 474.317 70.08 474.061 70.656C473.869 71.232 473.549 71.712 473.101 72.096L460.621 82.464C460.365 82.72 459.949 82.944 459.373 83.136C458.861 83.328 458.285 83.424 457.645 83.424H443.245C441.709 83.424 440.589 83.072 439.885 82.368C439.181 81.664 438.829 80.544 438.829 79.008V67.584L436.717 64.992V68.544C436.717 69.376 436.589 70.08 436.333 70.656C436.141 71.232 435.821 71.712 435.373 72.096ZM530.591 83.424C529.119 83.424 527.935 83.136 527.039 82.56C526.143 82.048 525.407 81.088 524.831 79.68L515.423 56.16C514.847 54.688 514.335 53.44 513.887 52.416C513.503 51.328 513.183 50.304 512.927 49.344C512.671 48.32 512.479 47.264 512.351 46.176C512.287 45.024 512.255 43.68 512.255 42.144V16.8C512.255 15.968 512.351 15.264 512.543 14.688C512.799 14.112 513.151 13.632 513.599 13.248L525.983 2.784C526.303 2.528 526.719 2.336 527.231 2.20799C527.807 2.016 528.415 1.92 529.055 1.92H544.319C545.855 1.92 547.007 2.304 547.775 3.07199C548.607 3.776 549.023 4.864 549.023 6.336V32.832C549.023 33.472 549.087 34.08 549.215 34.656C549.343 35.232 549.503 35.84 549.695 36.48L549.983 37.152V16.8C549.983 15.968 550.079 15.264 550.271 14.688C550.527 14.112 550.879 13.632 551.327 13.248L563.711 2.784C564.031 2.528 564.447 2.336 564.959 2.20799C565.535 2.016 566.143 1.92 566.783 1.92H581.855C583.455 1.92 584.575 2.272 585.215 2.976C585.919 3.68 586.271 4.8 586.271 6.336V31.68C586.271 33.216 586.207 34.56 586.079 35.712C586.015 36.8 585.855 37.856 585.599 38.88C585.343 39.84 584.991 40.864 584.543 41.952C584.159 42.976 583.679 44.224 583.103 45.696L573.695 69.216C573.503 69.792 573.247 70.304 572.927 70.752C572.607 71.2 572.287 71.552 571.967 71.808L559.583 82.08C559.071 82.528 558.463 82.848 557.759 83.04C557.119 83.296 556.383 83.424 555.551 83.424H530.591ZM567.935 72C569.151 72 570.143 71.776 570.911 71.328C571.743 70.88 572.383 70.048 572.831 68.832L582.239 45.312C582.815 43.904 583.295 42.688 583.679 41.664C584.063 40.576 584.383 39.552 584.639 38.592C584.895 37.632 585.055 36.64 585.119 35.616C585.247 34.528 585.311 33.216 585.311 31.68V6.336C585.311 5.12 585.023 4.256 584.447 3.744C583.935 3.168 583.071 2.88 581.855 2.88H566.783C565.567 2.88 564.671 3.168 564.095 3.744C563.583 4.256 563.327 5.12 563.327 6.336V32.736C563.327 33.376 563.263 34.016 563.135 34.656C563.007 35.296 562.815 35.968 562.559 36.672L558.047 50.208C557.855 50.848 557.631 51.296 557.375 51.552C557.119 51.744 556.735 51.84 556.223 51.84H555.167C554.655 51.84 554.271 51.744 554.015 51.552C553.759 51.296 553.535 50.848 553.343 50.208L548.831 36.768C548.575 36.064 548.383 35.392 548.255 34.752C548.127 34.112 548.063 33.472 548.063 32.832V6.336C548.063 5.12 547.743 4.256 547.103 3.744C546.463 3.168 545.535 2.88 544.319 2.88H529.055C527.839 2.88 526.943 3.168 526.367 3.744C525.855 4.256 525.599 5.12 525.599 6.336V31.68C525.599 33.216 525.631 34.528 525.695 35.616C525.823 36.64 526.015 37.632 526.271 38.592C526.527 39.552 526.847 40.576 527.231 41.664C527.615 42.688 528.095 43.904 528.671 45.312L538.079 68.832C538.527 70.048 539.135 70.88 539.903 71.328C540.735 71.776 541.759 72 542.975 72H567.935ZM536.447 11.52H537.407V32.256C537.407 33.92 537.535 35.52 537.791 37.056C538.047 38.528 538.431 39.904 538.943 41.184L545.279 56.544C545.919 58.208 546.623 59.616 547.391 60.768C548.223 61.856 549.535 62.4 551.327 62.4H559.775C561.567 62.4 562.847 61.856 563.615 60.768C564.447 59.616 565.183 58.208 565.823 56.544L572.159 41.184C572.671 39.904 573.055 38.528 573.311 37.056C573.567 35.52 573.695 33.92 573.695 32.256V11.52H574.655V32.256C574.655 34.048 574.527 35.712 574.271 37.248C574.079 38.72 573.695 40.16 573.119 41.568L566.783 56.928C566.015 58.784 565.151 60.32 564.191 61.536C563.231 62.752 561.759 63.36 559.775 63.36H551.327C549.343 63.36 547.871 62.752 546.911 61.536C545.951 60.32 545.087 58.784 544.319 56.928L537.983 41.568C537.407 40.16 536.991 38.72 536.735 37.248C536.543 35.712 536.447 34.048 536.447 32.256V11.52ZM642.343 83.424H597.799C596.263 83.424 595.143 83.072 594.439 82.368C593.735 81.664 593.383 80.544 593.383 79.008V16.8C593.383 15.968 593.479 15.264 593.671 14.688C593.927 14.112 594.279 13.632 594.727 13.248L607.111 2.784C607.431 2.528 607.847 2.336 608.359 2.20799C608.935 2.016 609.543 1.92 610.183 1.92H654.727C656.263 1.92 657.383 2.272 658.087 2.976C658.791 3.68 659.143 4.8 659.143 6.336V17.568C659.143 18.4 659.015 19.104 658.759 19.68C658.567 20.256 658.247 20.736 657.799 21.12L649.543 27.936C650.183 28.256 650.631 28.736 650.887 29.376C651.207 30.016 651.367 30.848 651.367 31.872V42.144C651.367 42.976 651.239 43.68 650.983 44.256C650.791 44.832 650.471 45.312 650.023 45.696L641.479 52.896H654.727C656.263 52.896 657.383 53.248 658.087 53.952C658.791 54.656 659.143 55.776 659.143 57.312V68.544C659.143 69.376 659.015 70.08 658.759 70.656C658.567 71.232 658.247 71.712 657.799 72.096L645.319 82.464C645.063 82.72 644.647 82.944 644.071 83.136C643.559 83.328 642.983 83.424 642.343 83.424ZM654.727 72C655.943 72 656.807 71.744 657.319 71.232C657.895 70.656 658.183 69.76 658.183 68.544V57.312C658.183 56.096 657.895 55.232 657.319 54.72C656.807 54.144 655.943 53.856 654.727 53.856H628.231V45.6H646.951C648.167 45.6 649.031 45.344 649.543 44.832C650.119 44.256 650.407 43.36 650.407 42.144V31.872C650.407 30.656 650.119 29.792 649.543 29.28C649.031 28.704 648.167 28.416 646.951 28.416H628.231V21.024H654.727C655.943 21.024 656.807 20.768 657.319 20.256C657.895 19.68 658.183 18.784 658.183 17.568V6.336C658.183 5.12 657.895 4.256 657.319 3.744C656.807 3.168 655.943 2.88 654.727 2.88H610.183C608.967 2.88 608.071 3.168 607.495 3.744C606.983 4.256 606.727 5.12 606.727 6.336V68.544C606.727 69.76 606.983 70.656 607.495 71.232C608.071 71.744 608.967 72 610.183 72H654.727ZM649.543 62.4V63.36H617.191V11.52H649.543V12.48H618.151V36.576H641.767V37.536H618.151V62.4H649.543ZM711.358 12.48H690.43V40.224H711.358C715.326 40.224 717.982 39.264 719.326 37.344C720.67 35.424 721.342 32.704 721.342 29.184V22.464C721.342 19.52 720.51 17.12 718.846 15.264C717.246 13.408 714.75 12.48 711.358 12.48ZM700.798 20.16H707.998C709.662 20.16 710.782 20.608 711.358 21.504C711.934 22.336 712.222 23.392 712.222 24.672V27.936C712.222 29.216 711.934 30.304 711.358 31.2C710.782 32.032 709.662 32.448 707.998 32.448H700.798V20.16ZM690.43 63.36H689.47V11.52H711.358C715.07 11.52 717.822 12.576 719.614 14.688C721.406 16.736 722.302 19.328 722.302 22.464V29.088C722.302 32.032 721.918 34.464 721.15 36.384C720.382 38.24 718.846 39.52 716.542 40.224H717.598C721.502 40.224 724.414 41.12 726.334 42.912C728.254 44.64 729.214 47.168 729.214 50.496V63.36H728.254V50.496C728.254 47.36 727.39 45.024 725.662 43.488C723.934 41.888 721.246 41.088 717.598 41.088H690.43V63.36ZM697.342 72C698.558 72 699.422 71.744 699.934 71.232C700.51 70.656 700.798 69.76 700.798 68.544V49.728H714.238C715.582 49.728 716.51 50.08 717.022 50.784C717.598 51.424 717.885 52.448 717.885 53.856V68.544C717.885 69.76 718.142 70.656 718.654 71.232C719.23 71.744 720.126 72 721.342 72H736.222C737.438 72 738.302 71.744 738.814 71.232C739.39 70.656 739.678 69.76 739.678 68.544V48.192C739.678 44.16 738.59 40.928 736.414 38.496C734.302 36.064 731.518 34.656 728.062 34.272C730.046 33.44 731.422 32.096 732.19 30.24C733.022 28.32 733.438 26.016 733.438 23.328V18.912C733.438 14.176 732.062 10.336 729.31 7.392C726.622 4.384 721.694 2.88 714.526 2.88H682.558C681.342 2.88 680.446 3.168 679.87 3.744C679.358 4.256 679.102 5.12 679.102 6.336V68.544C679.102 69.76 679.358 70.656 679.87 71.232C680.446 71.744 681.342 72 682.558 72H697.342ZM700.414 72.096L687.934 82.464C687.678 82.72 687.262 82.944 686.686 83.136C686.174 83.328 685.598 83.424 684.958 83.424H670.174C668.638 83.424 667.518 83.072 666.814 82.368C666.11 81.664 665.758 80.544 665.758 79.008V16.8C665.758 15.968 665.854 15.264 666.046 14.688C666.302 14.112 666.654 13.632 667.102 13.248L679.486 2.784C679.806 2.528 680.222 2.336 680.734 2.20799C681.31 2.016 681.918 1.92 682.558 1.92H714.526C722.142 1.92 727.358 3.52 730.174 6.72C732.99 9.856 734.398 13.92 734.398 18.912V23.328C734.398 25.696 734.11 27.776 733.534 29.568C732.958 31.296 732.03 32.704 730.75 33.792H730.654C733.662 34.624 736.062 36.288 737.854 38.784C739.71 41.28 740.638 44.416 740.638 48.192V68.544C740.638 69.376 740.51 70.08 740.254 70.656C740.062 71.232 739.742 71.712 739.294 72.096L726.814 82.464C726.558 82.72 726.142 82.944 725.566 83.136C725.054 83.328 724.478 83.424 723.838 83.424H708.958C707.422 83.424 706.302 83.072 705.598 82.368C704.894 81.664 704.542 80.544 704.542 79.008V64.32C704.542 63.296 704.35 62.528 703.966 62.016C703.582 61.44 702.878 61.152 701.854 61.152H701.758V68.544C701.758 69.376 701.63 70.08 701.374 70.656C701.182 71.232 700.862 71.712 700.414 72.096ZM772.68 12.288L808.008 52.032V11.52H808.968V63.36H808.008V53.472L771.72 12.768C771.656 12.704 771.56 12.64 771.432 12.576C771.368 12.512 771.304 12.48 771.24 12.48C771.176 12.48 771.112 12.512 771.048 12.576C771.048 12.64 771.048 12.704 771.048 12.768V63.36H770.088V12.576C770.088 12.192 770.216 11.904 770.472 11.712C770.728 11.52 770.984 11.424 771.24 11.424C771.496 11.424 771.72 11.488 771.912 11.616C772.104 11.744 772.36 11.968 772.68 12.288ZM777.864 72C779.08 72 779.944 71.744 780.456 71.232C781.032 70.656 781.32 69.76 781.32 68.544V36.864L797.736 56.736V68.544C797.736 69.76 797.992 70.656 798.504 71.232C799.08 71.744 799.976 72 801.192 72H815.592C816.808 72 817.672 71.744 818.184 71.232C818.76 70.656 819.048 69.76 819.048 68.544V6.336C819.048 5.12 818.76 4.256 818.184 3.744C817.672 3.168 816.808 2.88 815.592 2.88H801.192C799.976 2.88 799.08 3.168 798.504 3.744C797.992 4.256 797.736 5.12 797.736 6.336V26.784L779.112 5.472C778.28 4.512 777.416 3.84 776.52 3.456C775.688 3.072 774.664 2.88 773.448 2.88H763.464C762.248 2.88 761.352 3.168 760.776 3.744C760.264 4.256 760.008 5.12 760.008 6.336V68.544C760.008 69.76 760.264 70.656 760.776 71.232C761.352 71.744 762.248 72 763.464 72H777.864ZM780.936 72.096L768.456 82.464C768.2 82.72 767.784 82.944 767.208 83.136C766.696 83.328 766.12 83.424 765.48 83.424H751.08C749.544 83.424 748.424 83.072 747.72 82.368C747.016 81.664 746.664 80.544 746.664 79.008V16.8C746.664 15.968 746.76 15.264 746.952 14.688C747.208 14.112 747.56 13.632 748.008 13.248L760.392 2.784C760.712 2.528 761.128 2.336 761.64 2.20799C762.216 2.016 762.824 1.92 763.464 1.92H773.448C774.856 1.92 776.04 2.144 777 2.592C777.96 3.04 778.92 3.776 779.88 4.8L786.504 12.48L798.12 2.784C798.44 2.528 798.856 2.336 799.368 2.20799C799.944 2.016 800.552 1.92 801.192 1.92H815.592C817.128 1.92 818.248 2.272 818.952 2.976C819.656 3.68 820.008 4.8 820.008 6.336V68.544C820.008 69.376 819.88 70.08 819.624 70.656C819.432 71.232 819.112 71.712 818.664 72.096L806.184 82.464C805.928 82.72 805.512 82.944 804.936 83.136C804.424 83.328 803.848 83.424 803.208 83.424H788.808C787.272 83.424 786.152 83.072 785.448 82.368C784.744 81.664 784.392 80.544 784.392 79.008V67.584L782.28 64.992V68.544C782.28 69.376 782.152 70.08 781.896 70.656C781.704 71.232 781.384 71.712 780.936 72.096ZM883.228 78.816C880.988 80.736 877.852 82.208 873.82 83.232C869.788 84.32 864.604 84.864 858.268 84.864C851.996 84.864 846.844 84.192 842.812 82.848C838.844 81.568 835.707 79.84 833.404 77.664C831.164 75.488 829.596 72.992 828.7 70.176C827.868 67.36 827.452 64.448 827.452 61.44V31.584C827.452 28.64 827.868 25.92 828.7 23.424C829.532 20.864 831.036 18.688 833.212 16.896L845.692 6.528C847.932 4.608 851.036 3.136 855.004 2.112C859.036 1.02399 864.252 0.479994 870.652 0.479994C876.924 0.479994 882.044 0.991995 886.012 2.016C890.044 3.04 893.18 4.48 895.42 6.336C897.724 8.128 899.292 10.304 900.124 12.864C900.956 15.36 901.372 18.112 901.372 21.12V53.856C901.372 56.8 900.956 59.52 900.124 62.016C899.292 64.512 897.788 66.656 895.612 68.448L883.228 78.816ZM900.412 53.856V21.12C900.412 18.176 899.964 15.52 899.068 13.152C898.236 10.72 896.7 8.64 894.46 6.912C892.284 5.184 889.244 3.84 885.34 2.88C881.5 1.92 876.604 1.44 870.652 1.44C864.7 1.44 859.772 1.92 855.868 2.88C851.964 3.84 848.892 5.184 846.652 6.912C844.476 8.64 842.94 10.72 842.044 13.152C841.212 15.52 840.796 18.176 840.796 21.12V53.856C840.796 56.8 841.212 59.488 842.044 61.92C842.94 64.288 844.476 66.336 846.652 68.064C848.892 69.728 851.964 71.04 855.868 72C859.772 72.96 864.7 73.44 870.652 73.44C876.604 73.44 881.5 72.96 885.34 72C889.244 71.04 892.284 69.728 894.46 68.064C896.7 66.336 898.236 64.288 899.068 61.92C899.964 59.488 900.412 56.8 900.412 53.856ZM889.948 51.648C889.948 55.488 888.572 58.624 885.82 61.056C883.068 63.424 877.948 64.608 870.46 64.608C862.972 64.608 857.884 63.424 855.196 61.056C852.508 58.624 851.164 55.488 851.164 51.648V23.328C851.164 19.488 852.508 16.384 855.196 14.016C857.884 11.584 862.972 10.368 870.46 10.368C877.948 10.368 883.068 11.584 885.82 14.016C888.572 16.384 889.948 19.488 889.948 23.328V51.648ZM852.124 51.648C852.124 55.232 853.404 58.144 855.964 60.384C858.524 62.56 863.356 63.648 870.46 63.648C877.564 63.648 882.428 62.56 885.052 60.384C887.676 58.144 888.988 55.232 888.988 51.648V23.328C888.988 19.744 887.676 16.864 885.052 14.688C882.428 12.448 877.564 11.328 870.46 11.328C863.356 11.328 858.524 12.448 855.964 14.688C853.404 16.864 852.124 19.744 852.124 23.328V51.648ZM862.588 50.4V24.576C862.588 23.36 863.068 22.336 864.028 21.504C864.988 20.608 867.196 20.16 870.652 20.16C874.108 20.16 876.316 20.608 877.276 21.504C878.236 22.336 878.716 23.36 878.716 24.576V50.4C878.716 51.68 878.236 52.768 877.276 53.664C876.316 54.496 874.108 54.912 870.652 54.912C867.196 54.912 864.988 54.496 864.028 53.664C863.068 52.768 862.588 51.68 862.588 50.4ZM863.548 50.4C863.548 51.04 863.676 51.616 863.932 52.128C864.188 52.576 864.668 52.96 865.372 53.28V35.04C865.372 34.4 865.244 33.856 864.988 33.408C864.732 32.896 864.252 32.512 863.548 32.256V50.4ZM934.867 12.288L970.195 52.032V11.52H971.155V63.36H970.195V53.472L933.907 12.768C933.843 12.704 933.747 12.64 933.619 12.576C933.555 12.512 933.491 12.48 933.427 12.48C933.363 12.48 933.299 12.512 933.235 12.576C933.235 12.64 933.235 12.704 933.235 12.768V63.36H932.275V12.576C932.275 12.192 932.403 11.904 932.659 11.712C932.915 11.52 933.171 11.424 933.427 11.424C933.683 11.424 933.907 11.488 934.099 11.616C934.291 11.744 934.547 11.968 934.867 12.288ZM940.051 72C941.267 72 942.131 71.744 942.643 71.232C943.219 70.656 943.507 69.76 943.507 68.544V36.864L959.923 56.736V68.544C959.923 69.76 960.179 70.656 960.691 71.232C961.267 71.744 962.163 72 963.379 72H977.779C978.995 72 979.859 71.744 980.371 71.232C980.947 70.656 981.235 69.76 981.235 68.544V6.336C981.235 5.12 980.947 4.256 980.371 3.744C979.859 3.168 978.995 2.88 977.779 2.88H963.379C962.163 2.88 961.267 3.168 960.691 3.744C960.179 4.256 959.923 5.12 959.923 6.336V26.784L941.299 5.472C940.467 4.512 939.603 3.84 938.707 3.456C937.875 3.072 936.851 2.88 935.635 2.88H925.651C924.435 2.88 923.539 3.168 922.963 3.744C922.451 4.256 922.195 5.12 922.195 6.336V68.544C922.195 69.76 922.451 70.656 922.963 71.232C923.539 71.744 924.435 72 925.651 72H940.051ZM943.123 72.096L930.643 82.464C930.387 82.72 929.971 82.944 929.395 83.136C928.883 83.328 928.307 83.424 927.667 83.424H913.267C911.731 83.424 910.611 83.072 909.907 82.368C909.203 81.664 908.851 80.544 908.851 79.008V16.8C908.851 15.968 908.947 15.264 909.139 14.688C909.395 14.112 909.747 13.632 910.195 13.248L922.579 2.784C922.899 2.528 923.315 2.336 923.827 2.20799C924.403 2.016 925.011 1.92 925.651 1.92H935.635C937.043 1.92 938.227 2.144 939.187 2.592C940.147 3.04 941.107 3.776 942.067 4.8L948.691 12.48L960.307 2.784C960.627 2.528 961.043 2.336 961.555 2.20799C962.131 2.016 962.739 1.92 963.379 1.92H977.779C979.315 1.92 980.435 2.272 981.139 2.976C981.843 3.68 982.195 4.8 982.195 6.336V68.544C982.195 69.376 982.067 70.08 981.811 70.656C981.619 71.232 981.299 71.712 980.851 72.096L968.371 82.464C968.115 82.72 967.699 82.944 967.123 83.136C966.611 83.328 966.035 83.424 965.395 83.424H950.995C949.459 83.424 948.339 83.072 947.635 82.368C946.931 81.664 946.579 80.544 946.579 79.008V67.584L944.467 64.992V68.544C944.467 69.376 944.339 70.08 944.083 70.656C943.891 71.232 943.571 71.712 943.123 72.096Z" fill="#C6C6C6"/>
</svg>
