<svg width="370" height="68" viewBox="0 0 370 68" fill="none" xmlns="http://www.w3.org/2000/svg">
<path d="M-168.25 9.5625V0.5625L-158.875 0.375H-140.125V47.25C-140.125 50.6719 -140.969 53.8125 -142.656 56.6719C-144.344 59.5312 -146.594 61.7812 -149.406 63.4688C-152.266 65.1562 -155.406 66 -158.875 66C-164.078 66 -168.719 63.9375 -172.094 60.5156C-173.266 59.3438 -174.297 58.0781 -175.094 56.625C-176.359 54.4688 -177.156 52.125 -177.484 49.5469L-177.438 47.25H-168.25C-168.25 49.8281 -167.312 52.0312 -165.484 53.8594C-163.656 55.6875 -161.453 56.625 -158.875 56.625C-156.297 56.625 -154.047 55.6875 -152.219 53.8594C-150.391 52.0312 -149.5 49.8281 -149.5 47.25V9.75H-158.875L-168.25 9.5625ZM-109.234 66C-113.547 66 -117.484 64.9219 -121 62.8125C-124.562 60.7031 -127.375 57.8906 -129.484 54.3281C-131.594 50.8125 -132.672 46.875 -132.672 42.5625C-132.672 38.2031 -131.594 34.2656 -129.484 30.7031C-127.375 27.1875 -124.562 24.375 -121 22.2656C-117.484 20.1562 -113.547 19.125 -109.234 19.125C-104.922 19.125 -100.984 20.1562 -97.4219 22.2656C-93.9062 24.375 -91.0469 27.1875 -88.9375 30.7031C-86.8281 34.2656 -85.7969 38.2031 -85.7969 42.5625C-85.7969 46.875 -86.8281 50.8125 -88.9375 54.3281C-91.0469 57.8906 -93.9062 60.7031 -97.4219 62.8125C-100.984 64.9219 -104.922 66 -109.234 66ZM-123.297 42.5625C-123.297 46.4531 -121.938 49.7344 -119.172 52.5C-116.406 55.2656 -113.125 56.625 -109.234 56.625C-105.344 56.625 -102.062 55.2656 -99.2969 52.5C-96.5312 49.7344 -95.1719 46.4531 -95.1719 42.5625C-95.1719 38.6719 -96.5312 35.3438 -99.2969 32.5781C-102.062 29.8594 -105.344 28.5 -109.234 28.5C-113.125 28.5 -116.406 29.8594 -119.172 32.5781C-121.938 35.3438 -123.297 38.6719 -123.297 42.5625ZM-68.6406 33.1406V56.625L-68.8281 66H-77.8281L-78.0156 56.625V28.4531L-77.8281 19.0781H-68.8281L-68.7812 22.9219C-67.4688 21.8906 -66.0625 21.0469 -64.6094 20.4375C-63.8125 20.0156 -61.8906 19.3125 -59.2656 19.125C-59.0781 19.0781 -58.8438 19.0781 -58.5156 19.0781C-57.8594 19.0781 -56.9219 19.125 -55.7031 19.3125V28.5938C-56.2656 28.5 -56.9219 28.4531 -57.7188 28.4531C-58.1875 28.4531 -58.7031 28.4531 -59.2656 28.5H-59.4062C-61.0469 28.5469 -63.5781 28.875 -65.9688 30.4219C-67.1406 31.2188 -68.0312 32.1562 -68.6406 33.1406ZM-19.0469 9.70312L-18.8594 0.328125H-9.85938L-9.67188 9.70312V56.625L-9.85938 66H-18.8594L-18.9531 61.6406V61.5C-20.6406 63.2344 -22.8438 64.5938 -25.5156 65.625C-28.6562 66.7031 -31.4219 66.75 -32.5469 66.75C-39.0625 66.75 -44.8281 64.0781 -49.1406 59.7656C-53.4062 55.4062 -55.9844 49.5 -55.9844 42.9375C-55.9844 36.3281 -53.4062 30.4219 -49.1406 26.0625C-44.8281 21.75 -39.0625 19.125 -32.5469 19.125C-28.9375 19.125 -26.2656 19.875 -25.5156 20.2031C-22.9375 21.0938 -20.7812 22.3125 -19.0469 23.7656V9.70312ZM-32.5469 57.1875C-32.5 57.1875 -32.4062 57.1875 -32.3594 57.1875C-30.2031 57.1875 -27.8594 56.6719 -25.3281 55.6406C-22.8438 54.6094 -20.7344 52.9688 -19.0469 50.6719V34.5469C-20.7812 32.3906 -22.8906 30.8438 -25.375 29.9531C-27.8594 29.0625 -30.1094 28.6406 -32.125 28.6406C-32.2656 28.6406 -32.4062 28.6406 -32.5469 28.6406C-34.75 28.7812 -36.1094 28.9688 -36.6719 29.25C-38.9219 29.9531 -40.8438 31.1719 -42.4844 32.8125C-45.25 35.5781 -46.6094 38.9531 -46.6094 42.9375C-46.6094 46.875 -45.25 50.25 -42.4844 53.0156C-40.8438 54.6562 -38.9219 55.875 -36.6719 56.5781C-36.1094 56.8594 -34.75 57.0469 -32.5469 57.1875ZM10.0625 19.125H21.2656C24.5938 19.125 27.5 20.0625 30.0781 21.8906C32.6094 23.7656 34.3906 26.2031 35.4688 29.2031C36.0312 30.75 36.3125 32.3906 36.3125 34.125V56.625L36.125 66H27.125L26.9844 60.4688C24.4062 63.6562 20.9844 66.2812 16.4375 67.0312C16.1094 67.125 15.5469 67.1719 14.75 67.2188C14 67.2188 13.5781 67.2188 13.4844 67.2188C12.0781 67.2188 10.4375 66.9375 8.51562 66.375C6.64062 65.7656 4.8125 64.6406 3.03125 62.9062C0.921875 60.5156 -0.34375 58.3125 -0.671875 56.2969C-1.04688 54.2812 -1.23438 52.875 -1.23438 52.0312C-1.23438 51.7969 -1.23438 51.5625 -1.1875 51.4219C-1.09375 49.5469 -0.625 47.25 0.21875 44.4844C1.0625 41.7656 2.60938 39.0938 4.85938 36.4219C7.34375 33.7969 10.0625 31.875 13.0156 30.7031C15.9688 29.5312 18.8281 28.7812 21.5938 28.5L10.0625 28.0312L0.6875 27.8438V19.3125L10.0625 19.125ZM15.5938 58.2656C15.6875 58.2656 15.7812 58.2656 15.875 58.2656C18.3125 58.2656 20.4688 57.5156 22.4375 56.0156C24.3594 54.4688 25.8594 52.8281 26.9375 51.0938V34.1719C26.9375 33.9844 26.9375 33.7969 26.8906 33.6562C26.0938 33.7031 24.8281 33.9844 23 34.4062C21.1719 34.875 19.2031 35.6719 17.0938 36.8438C14.9844 38.0156 13.0625 39.75 11.375 42C10.8125 42.7031 10.1562 43.7812 9.40625 45.2344C8.70312 46.7344 8.32812 48.4219 8.32812 50.3906C8.32812 50.5312 8.32812 50.7188 8.32812 50.8594C8.32812 52.0312 8.65625 54.2344 10.3438 56.1094C12.3594 58.0312 14.5625 58.2656 15.4531 58.2656C15.5 58.2656 15.5469 58.2656 15.5938 58.2656ZM54.6406 33.1406V56.625L54.4531 66H45.4531L45.2656 56.625V28.4531L45.4531 19.0781H54.4531L54.5 22.9219C55.8125 21.8906 57.2188 21.0469 58.6719 20.4375C59.4688 20.0156 61.3906 19.3125 64.0156 19.125C64.2031 19.0781 64.4375 19.0781 64.7656 19.0781C65.6094 19.0781 67.3906 18.9844 70.5781 20.1094C74.4688 21.6094 76.7188 23.8125 77.6094 24.9375C79.7656 27.5156 81.1719 30 81.8281 32.3906C82.4375 34.7812 82.7656 36.5625 82.7656 37.7344C82.7656 37.7812 82.7656 37.8281 82.7656 37.875V56.625L82.5781 66H73.5781L73.3906 56.625V37.875C73.3906 35.2969 72.4531 33.0469 70.625 31.2188C68.7969 29.3906 66.5938 28.5 64.0156 28.5C63.875 28.5 63.7344 28.4531 63.5469 28.4531C62.4688 28.4531 60.1719 28.5 57.3125 30.4219C56.1406 31.2188 55.25 32.1562 54.6406 33.1406ZM148.672 6.23438L150.688 0.375H160.25L157.578 9.14062L151.484 28.5L150.969 30L139.625 66H134.234L117.641 13.5L113.609 0.375H123.125L125.188 6.23438L126.266 9.75L132.219 28.5V28.5469L136.906 43.3594L138.688 37.875L141.594 28.5469L141.641 28.5L148.672 6.23438ZM184.016 52.0312H194.047C193.672 53.7656 192.359 57.1406 189.219 60.4688C188.094 61.7344 185.562 63.75 181.625 65.1094C179.797 65.7188 177.922 66 175.953 66C172.484 66 169.344 65.1562 166.531 63.4688C163.672 61.7812 161.422 59.5312 159.734 56.6719C158.047 53.8125 157.203 50.6719 157.203 47.25V37.875C157.203 32.6719 159.266 27.9844 162.688 24.6094C166.109 21.1875 170.75 19.125 175.953 19.125C179.375 19.125 182.516 19.9688 185.375 21.6094C188.234 23.2969 190.484 25.5469 192.172 28.4062C193.859 31.2656 194.703 34.4062 194.703 37.875V45.375H166.578V47.25C166.578 49.8281 167.469 52.0312 169.297 53.8594C171.125 55.6875 173.375 56.625 175.953 56.625C176 56.625 177.312 56.5781 178.672 56.2031C180.219 55.6875 181.438 54.9375 182.328 54C183.219 53.0625 183.781 52.4062 184.016 52.0312ZM175.953 28.5C173.375 28.5 171.172 29.3906 169.344 31.2188C167.516 33.0469 166.578 35.2969 166.578 37.875H185.328C185.328 35.2969 184.391 33.0469 182.562 31.2188C180.734 29.3906 178.531 28.5 175.953 28.5ZM212.328 33.1406V56.625L212.141 66H203.141L202.953 56.625V28.4531L203.141 19.0781H212.141L212.188 22.9219C213.5 21.8906 214.906 21.0469 216.359 20.4375C217.156 20.0156 219.078 19.3125 221.703 19.125C221.891 19.0781 222.125 19.0781 222.453 19.0781C223.109 19.0781 224.047 19.125 225.266 19.3125V28.5938C224.703 28.5 224.047 28.4531 223.25 28.4531C222.781 28.4531 222.266 28.4531 221.703 28.5H221.562C219.922 28.5469 217.391 28.875 215 30.4219C213.828 31.2188 212.938 32.1562 212.328 33.1406ZM241.766 33.1406V56.625L241.578 66H232.578L232.391 56.625V28.4531L232.578 19.0781H241.578L241.625 22.9219C242.938 21.8906 244.344 21.0469 245.797 20.4375C246.594 20.0156 248.516 19.3125 251.141 19.125C251.328 19.0781 251.562 19.0781 251.891 19.0781C252.734 19.0781 254.516 18.9844 257.703 20.1094C261.594 21.6094 263.844 23.8125 264.734 24.9375C266.891 27.5156 268.297 30 268.953 32.3906C269.562 34.7812 269.891 36.5625 269.891 37.7344C269.891 37.7812 269.891 37.8281 269.891 37.875V56.625L269.703 66H260.703L260.516 56.625V37.875C260.516 35.2969 259.578 33.0469 257.75 31.2188C255.922 29.3906 253.719 28.5 251.141 28.5C251 28.5 250.859 28.4531 250.672 28.4531C249.594 28.4531 247.297 28.5 244.438 30.4219C243.266 31.2188 242.375 32.1562 241.766 33.1406ZM300.828 66C296.516 66 292.578 64.9219 289.062 62.8125C285.5 60.7031 282.688 57.8906 280.578 54.3281C278.469 50.8125 277.391 46.875 277.391 42.5625C277.391 38.2031 278.469 34.2656 280.578 30.7031C282.688 27.1875 285.5 24.375 289.062 22.2656C292.578 20.1562 296.516 19.125 300.828 19.125C305.141 19.125 309.078 20.1562 312.641 22.2656C316.156 24.375 319.016 27.1875 321.125 30.7031C323.234 34.2656 324.266 38.2031 324.266 42.5625C324.266 46.875 323.234 50.8125 321.125 54.3281C319.016 57.8906 316.156 60.7031 312.641 62.8125C309.078 64.9219 305.141 66 300.828 66ZM286.766 42.5625C286.766 46.4531 288.125 49.7344 290.891 52.5C293.656 55.2656 296.938 56.625 300.828 56.625C304.719 56.625 308 55.2656 310.766 52.5C313.531 49.7344 314.891 46.4531 314.891 42.5625C314.891 38.6719 313.531 35.3438 310.766 32.5781C308 29.8594 304.719 28.5 300.828 28.5C296.938 28.5 293.656 29.8594 290.891 32.5781C288.125 35.3438 286.766 38.6719 286.766 42.5625ZM341.422 33.1406V56.625L341.234 66H332.234L332.047 56.625V28.4531L332.234 19.0781H341.234L341.281 22.9219C342.594 21.8906 344 21.0469 345.453 20.4375C346.25 20.0156 348.172 19.3125 350.797 19.125C350.984 19.0781 351.219 19.0781 351.547 19.0781C352.391 19.0781 354.172 18.9844 357.359 20.1094C361.25 21.6094 363.5 23.8125 364.391 24.9375C366.547 27.5156 367.953 30 368.609 32.3906C369.219 34.7812 369.547 36.5625 369.547 37.7344C369.547 37.7812 369.547 37.8281 369.547 37.875V56.625L369.359 66H360.359L360.172 56.625V37.875C360.172 35.2969 359.234 33.0469 357.406 31.2188C355.578 29.3906 353.375 28.5 350.797 28.5C350.656 28.5 350.516 28.4531 350.328 28.4531C349.25 28.4531 346.953 28.5 344.094 30.4219C342.922 31.2188 342.031 32.1562 341.422 33.1406Z" fill="#C6C6C6"/>
</svg>
