<svg width="691" height="70" viewBox="0 0 691 70" fill="none" xmlns="http://www.w3.org/2000/svg">
<path d="M-28.24 69.44C-34.128 69.44 -38.576 68.416 -41.584 66.368C-44.528 64.32 -46 61.824 -46 58.88C-46 56.704 -45.36 54.976 -44.08 53.696C-42.736 52.352 -40.976 51.68 -38.8 51.68C-38.288 51.68 -37.776 51.744 -37.264 51.872C-36.752 51.936 -36.4 51.968 -36.208 51.968L-34.96 52.16V66.56C-34.512 66.816 -34.064 66.976 -33.616 67.04C-32.528 67.36 -31.376 67.52 -30.16 67.52C-22.48 67.52 -18.64 61.28 -18.64 48.8V3.68L-24.4 2.23999V0.799995H2.96V2.23999L-2.8 3.68V48.8C-2.8 55.456 -4.88 60.576 -9.04 64.16C-13.2 67.68 -19.6 69.44 -28.24 69.44ZM37.9812 69.44C30.0452 69.44 23.8052 67.2 19.2612 62.72C14.7812 58.176 12.5412 51.936 12.5412 44C12.5412 36.064 14.7812 29.856 19.2612 25.376C23.8052 20.832 30.0452 18.56 37.9812 18.56C45.9172 18.56 52.1252 20.832 56.6052 25.376C61.1493 29.856 63.4213 36.064 63.4213 44C63.4213 51.936 61.1493 58.176 56.6052 62.72C52.1252 67.2 45.9172 69.44 37.9812 69.44ZM37.9812 67.52C40.5413 67.52 42.6853 65.728 44.4132 62.144C46.2052 58.56 47.1012 52.512 47.1012 44C47.1012 35.488 46.2052 29.44 44.4132 25.856C42.6853 22.272 40.5413 20.48 37.9812 20.48C35.4212 20.48 33.2452 22.272 31.4532 25.856C29.7252 29.44 28.8612 35.488 28.8612 44C28.8612 52.512 29.7252 58.56 31.4532 62.144C33.2452 65.728 35.4212 67.52 37.9812 67.52ZM73.055 66.56L78.815 65.12V22.88L73.055 21.44V20H81.695C85.471 20 88.447 21.216 90.623 23.648C91.455 24.608 92.159 25.792 92.735 27.2C93.695 25.792 94.879 24.512 96.287 23.36C99.487 20.8 103.071 19.52 107.039 19.52C110.431 19.52 112.959 20.32 114.623 21.92C116.351 23.456 117.215 25.696 117.215 28.64C117.215 30.816 116.543 32.576 115.199 33.92C113.919 35.2 112.191 35.84 110.015 35.84C109.119 35.84 108.223 35.776 107.327 35.648L106.175 35.36V21.92C102.911 21.92 99.935 23.2 97.247 25.76C95.967 27.04 94.943 28.32 94.175 29.6V65.12L99.935 66.56V68H73.055V66.56ZM143.124 69.44C139.348 69.44 135.988 68.48 133.044 66.56C130.1 64.576 127.764 61.696 126.036 57.92C124.308 54.08 123.444 49.44 123.444 44C123.444 35.808 125.332 29.536 129.108 25.184C132.948 20.768 138.1 18.56 144.564 18.56C147.636 18.56 150.324 19.2 152.628 20.48C153.588 20.928 154.58 21.568 155.604 22.4V3.68L149.844 2.23999V0.799995H162.324C168.084 0.799995 170.964 3.68 170.964 9.44V65.12L176.724 66.56V68H168.084C164.244 68 161.268 66.816 159.156 64.448C158.26 63.488 157.556 62.272 157.044 60.8C156.212 62.4 155.156 63.84 153.876 65.12C150.996 68 147.412 69.44 143.124 69.44ZM146.964 66.08C149.332 66.08 151.476 64.8 153.396 62.24C154.1 61.28 154.836 60 155.604 58.4V25.28C154.9 24.576 154.164 23.936 153.396 23.36C151.668 22.08 150.004 21.44 148.404 21.44C145.652 21.44 143.508 23.04 141.972 26.24C140.5 29.44 139.764 35.36 139.764 44C139.764 52.256 140.436 58.016 141.78 61.28C143.188 64.48 144.916 66.08 146.964 66.08ZM203.615 69.44C197.919 69.44 193.535 68.224 190.463 65.792C187.391 63.36 185.855 60.256 185.855 56.48C185.855 53.984 186.399 51.52 187.487 49.088C187.935 47.936 188.511 46.88 189.215 45.92C191.839 45.28 194.687 44.704 197.759 44.192C204.671 43.04 210.783 42.336 216.095 42.08V39.2C216.095 32.096 215.231 27.2 213.503 24.512C211.775 21.824 209.119 20.48 205.535 20.48C204.191 20.48 203.039 20.64 202.079 20.96L200.735 21.44V35.84L199.487 36.128C198.463 36.256 197.599 36.32 196.895 36.32C194.719 36.32 192.959 35.68 191.615 34.4C190.335 33.056 189.695 31.296 189.695 29.12C189.695 26.176 191.167 23.68 194.111 21.632C197.119 19.584 201.567 18.56 207.455 18.56C212.447 18.56 216.735 19.456 220.319 21.248C223.967 22.976 226.719 25.408 228.575 28.544C230.495 31.616 231.455 35.168 231.455 39.2V65.12L237.215 66.56V68H228.575C224.735 68 221.759 66.816 219.647 64.448C218.751 63.488 218.047 62.272 217.535 60.8C216.639 62.4 215.583 63.84 214.367 65.12C211.487 68 207.903 69.44 203.615 69.44ZM207.455 66.08C209.823 66.08 211.967 64.8 213.887 62.24C214.591 61.28 215.327 60 216.095 58.4V44.48C213.151 44.48 210.335 44.64 207.647 44.96C205.663 45.216 204.319 45.376 203.615 45.44C203.295 46.144 202.975 47.104 202.655 48.32C202.015 50.752 201.695 53.152 201.695 55.52C201.695 59.104 202.239 61.76 203.327 63.488C204.415 65.216 205.791 66.08 207.455 66.08ZM244.94 66.56L250.7 65.12V22.88L244.94 21.44V20H253.58C257.356 20 260.332 21.216 262.508 23.648C263.34 24.608 264.044 25.792 264.62 27.2C265.516 25.536 266.572 24.096 267.788 22.88C270.668 20 274.252 18.56 278.54 18.56C282.124 18.56 285.324 19.328 288.14 20.864C291.02 22.336 293.26 24.288 294.86 26.72C296.46 29.152 297.26 31.712 297.26 34.4V65.12L303.02 66.56V68H290.54C284.78 68 281.9 65.12 281.9 59.36V34.4C281.9 30.368 281.164 27.296 279.692 25.184C278.284 23.008 276.62 21.92 274.7 21.92C272.268 21.92 270.092 23.2 268.172 25.76C267.34 26.848 266.636 28.128 266.06 29.6V65.12L271.82 66.56V68H244.94V66.56ZM338.57 3.68L333.77 2.23999V0.799995H345.29C348.618 0.799995 351.338 1.568 353.45 3.10399C355.562 4.57599 357.162 6.528 358.25 8.96L375.242 47.648L390.89 5.12L383.69 2.23999V0.799995H401.45V2.23999L393.77 5.12L370.25 68.96H367.37L338.57 3.68ZM426.432 69.44C418.24 69.44 411.872 67.2 407.328 62.72C402.784 58.176 400.512 51.936 400.512 44C400.512 38.816 401.504 34.304 403.488 30.464C405.472 26.624 408.224 23.68 411.744 21.632C415.328 19.584 419.424 18.56 424.032 18.56C428.64 18.56 432.672 19.424 436.128 21.152C439.648 22.88 442.336 25.216 444.192 28.16C446.112 31.04 447.072 34.24 447.072 37.76C447.072 39.36 446.912 40.736 446.592 41.888L446.112 43.52C443.36 44.096 440.384 44.576 437.184 44.96C430.464 45.92 423.68 46.4 416.832 46.4C416.832 53.824 417.856 59.136 419.904 62.336C421.952 65.472 424.768 67.04 428.352 67.04C430.848 67.04 433.152 66.464 435.264 65.312C437.44 64.096 439.136 62.528 440.352 60.608C441.632 58.624 442.272 56.608 442.272 54.56H444.672C444.672 57.12 443.904 59.552 442.368 61.856C440.832 64.16 438.688 66.016 435.936 67.424C433.184 68.768 430.016 69.44 426.432 69.44ZM416.832 44C420.928 44 424.256 43.84 426.816 43.52C427.904 43.456 429.056 43.296 430.272 43.04C430.336 42.72 430.496 42.016 430.752 40.928C431.072 39.328 431.232 37.632 431.232 35.84C431.232 30.528 430.528 26.656 429.12 24.224C427.712 21.728 426.016 20.48 424.032 20.48C419.232 20.48 416.832 28.32 416.832 44ZM456.151 66.56L461.911 65.12V22.88L456.151 21.44V20H464.791C468.567 20 471.543 21.216 473.719 23.648C474.551 24.608 475.255 25.792 475.831 27.2C476.791 25.792 477.975 24.512 479.383 23.36C482.583 20.8 486.167 19.52 490.135 19.52C493.527 19.52 496.055 20.32 497.719 21.92C499.447 23.456 500.311 25.696 500.311 28.64C500.311 30.816 499.639 32.576 498.295 33.92C497.015 35.2 495.287 35.84 493.111 35.84C492.215 35.84 491.319 35.776 490.423 35.648L489.271 35.36V21.92C486.007 21.92 483.031 23.2 480.343 25.76C479.063 27.04 478.039 28.32 477.271 29.6V65.12L483.031 66.56V68H456.151V66.56ZM506.54 66.56L512.3 65.12V22.88L506.54 21.44V20H515.18C518.956 20 521.932 21.216 524.108 23.648C524.94 24.608 525.644 25.792 526.22 27.2C527.116 25.536 528.172 24.096 529.388 22.88C532.268 20 535.852 18.56 540.14 18.56C543.724 18.56 546.924 19.328 549.74 20.864C552.62 22.336 554.86 24.288 556.46 26.72C558.06 29.152 558.86 31.712 558.86 34.4V65.12L564.62 66.56V68H552.14C546.38 68 543.5 65.12 543.5 59.36V34.4C543.5 30.368 542.764 27.296 541.292 25.184C539.884 23.008 538.22 21.92 536.3 21.92C533.868 21.92 531.692 23.2 529.772 25.76C528.94 26.848 528.236 28.128 527.66 29.6V65.12L533.42 66.56V68H506.54V66.56ZM597.744 69.44C589.808 69.44 583.568 67.2 579.024 62.72C574.544 58.176 572.304 51.936 572.304 44C572.304 36.064 574.544 29.856 579.024 25.376C583.568 20.832 589.808 18.56 597.744 18.56C605.68 18.56 611.888 20.832 616.368 25.376C620.912 29.856 623.184 36.064 623.184 44C623.184 51.936 620.912 58.176 616.368 62.72C611.888 67.2 605.68 69.44 597.744 69.44ZM597.744 67.52C600.304 67.52 602.448 65.728 604.176 62.144C605.968 58.56 606.864 52.512 606.864 44C606.864 35.488 605.968 29.44 604.176 25.856C602.448 22.272 600.304 20.48 597.744 20.48C595.184 20.48 593.008 22.272 591.216 25.856C589.488 29.44 588.624 35.488 588.624 44C588.624 52.512 589.488 58.56 591.216 62.144C593.008 65.728 595.184 67.52 597.744 67.52ZM632.817 66.56L638.577 65.12V22.88L632.817 21.44V20H641.457C645.233 20 648.209 21.216 650.385 23.648C651.217 24.608 651.921 25.792 652.497 27.2C653.393 25.536 654.449 24.096 655.665 22.88C658.545 20 662.129 18.56 666.417 18.56C670.001 18.56 673.201 19.328 676.017 20.864C678.897 22.336 681.137 24.288 682.737 26.72C684.337 29.152 685.137 31.712 685.137 34.4V65.12L690.897 66.56V68H678.417C672.657 68 669.777 65.12 669.777 59.36V34.4C669.777 30.368 669.041 27.296 667.569 25.184C666.161 23.008 664.497 21.92 662.577 21.92C660.145 21.92 657.969 23.2 656.049 25.76C655.217 26.848 654.513 28.128 653.937 29.6V65.12L659.697 66.56V68H632.817V66.56Z" fill="#C6C6C6"/>
</svg>
