<svg width="881" height="82" viewBox="0 0 881 82" fill="none" xmlns="http://www.w3.org/2000/svg">
<path d="M13.9062 80.8281C9.78125 80.8281 5.67188 80.2812 1.57812 79.1875C-2.51562 78.0938 -6.03125 76.3906 -8.96875 74.0781C-15.2188 69.2031 -18.3438 61.9844 -18.3438 52.4219V45.2969L7.67188 41.7344V48.9531C7.67188 53.2969 8.96875 56.0938 11.5625 57.3438C13.125 58.125 14.7188 58.0938 16.3438 57.25C17.1562 56.8125 17.875 56.1875 18.5 55.375C19.875 53.625 20.5625 51.3906 20.5625 48.6719V4.14062H50.4219V40.3281C50.4219 59.1719 44.6406 71.4375 33.0781 77.125C28.1406 79.5625 21.75 80.7969 13.9062 80.8281ZM101.094 37.3281C100.469 37.0156 99.6562 36.8594 98.6562 36.8594C97.6875 36.8594 96.6094 37.1562 95.4219 37.75C94.2344 38.3125 93.0625 39.0938 91.9062 40.0938C89.4688 42.2188 87.4219 44.7969 85.7656 47.8281C84.1094 50.8594 83.2812 53.6562 83.2812 56.2188C83.2812 58.75 84.25 60.4531 86.1875 61.3281C86.875 61.6406 87.7188 61.7969 88.7188 61.7969C89.7188 61.7969 90.7656 61.5 91.8594 60.9062C92.9531 60.2812 94.0469 59.4531 95.1406 58.4219C97.4219 56.2656 99.4219 53.6562 101.141 50.5938C102.859 47.5 103.719 44.7344 103.719 42.2969C103.719 39.8594 102.844 38.2031 101.094 37.3281ZM92 80.7344C83.0625 80.7344 75.3594 77.9062 68.8906 72.25C61.9844 66.25 58.5312 58.7031 58.5312 49.6094C58.5312 40.4844 61.7656 33.0312 68.2344 27.25C74.7031 21.4375 82.6875 18.5312 92.1875 18.5312C101.688 18.5312 109.672 21.375 116.141 27.0625C122.609 32.7188 125.859 40.2969 125.891 49.7969C125.922 55.8906 124.375 61.2812 121.25 65.9688C118.125 70.6562 113.953 74.2812 108.734 76.8438C103.516 79.4062 97.9375 80.7031 92 80.7344ZM176.844 42.7188C173.969 42.7188 171.016 43.7656 167.984 45.8594C164.953 47.9531 163.422 49.9375 163.391 51.8125V79H135.172V20.7344H163.391V26.9688C164.984 24.5625 166.953 22.6406 169.297 21.2031C171.672 19.7656 174.188 18.9062 176.844 18.625V42.7188ZM218.75 18.625C222.469 18.625 226.297 19.2344 230.234 20.4531V0.109375H257.516V79H240.125L233.422 69.2969C227.703 76.8594 220.188 80.6406 210.875 80.6406C203.406 80.6406 196.875 78.1094 191.281 73.0469C185.719 67.9531 182.938 61.4375 182.938 53.5C182.938 45.5625 184.562 39.0312 187.812 33.9062C194.25 23.7188 204.562 18.625 218.75 18.625ZM230.234 38.4062C229.172 37.75 228.016 37.4219 226.766 37.4219C225.516 37.4219 224.312 37.6719 223.156 38.1719C220.781 39.2031 218.656 40.875 216.781 43.1875C215.781 44.3125 214.938 45.5156 214.25 46.7969C212.75 49.5469 212 52.2812 212 55C212 57.6875 212.828 59.5625 214.484 60.625C215.078 61 215.797 61.2031 216.641 61.2344C220.703 61.2344 225.234 59.1875 230.234 55.0938V38.4062ZM275.328 73.8438C272.828 71.5 270.828 68.5625 269.328 65.0312C267.859 61.4688 267.125 57.6406 267.125 53.5469C267.125 49.4531 267.531 45.9062 268.344 42.9062C269.969 36.9375 272.812 31.9219 276.875 27.8594C278.812 25.8594 280.969 24.1719 283.344 22.7969C288.219 19.9531 293.359 18.5312 298.766 18.5312C304.203 18.5312 308.969 20.3281 313.062 23.9219C314.375 25.0781 315.516 26.4062 316.484 27.9062L323.188 20.7344H338.562V79H323.188L316.484 69.2969C311.359 76.8594 303.594 80.6562 293.188 80.6875C290.312 80.7188 287.234 80.1562 283.953 79C280.703 77.875 277.828 76.1562 275.328 73.8438ZM313.297 38.4062C312.172 37.75 310.828 37.4219 309.266 37.4219C307.703 37.4219 306.047 37.9844 304.297 39.1094C302.578 40.2031 301.031 41.5938 299.656 43.2812C296.594 47.0625 295.062 50.9062 295.062 54.8125C295.062 57.5625 295.906 59.5 297.594 60.625C299.156 61.6562 301.531 61.5156 304.719 60.2031C307.938 58.8594 310.797 57.125 313.297 55V38.4062ZM381.359 36.5781C378.859 36.5781 377.609 38.5938 377.609 42.625V79H349.766V20.7344H365.141L371.844 29.8281C374.344 26.3594 377.797 23.6094 382.203 21.5781C386.641 19.5469 390.781 18.5312 394.625 18.5312C401.688 18.5312 407.281 20.4062 411.406 24.1562C415.562 27.9062 417.641 32.9375 417.641 39.25V79H389.609V50.875C389.609 41.3438 386.859 36.5781 381.359 36.5781ZM482.094 4.14062L493.766 27.625L504.641 4.14062H532.109L495.312 78.9062C494.5 80.4375 493.078 81.2031 491.047 81.2031C489.047 81.2031 487.656 80.4375 486.875 78.9062L448.109 4.14062H482.094ZM577.156 37.4219C577.156 34.6719 575.875 33.2969 573.312 33.2969C570.375 33.5781 568.469 35.0938 567.594 37.8438C567.156 39.1562 566.844 40.6875 566.656 42.4375C566.5 44.1562 566.25 46 565.906 47.9688L576.172 45.6719L577.062 38.5L577.156 37.4219ZM570.828 58.75C570.828 58.75 569.969 58.75 568.25 58.75C567.438 58.75 566.656 58.7188 565.906 58.6562C565.906 62.375 567.891 64.4062 571.859 64.75C572.953 64.8438 574.016 64.8906 575.047 64.8906C577.703 64.8906 581.031 64.2812 585.031 63.0625C589.062 61.8438 592.672 59.8594 595.859 57.1094L598.766 71.6875C591.797 77.7188 581.266 80.7344 567.172 80.7344C559.078 80.7344 552.125 78.375 546.312 73.6562C540 68.5 536.844 61.3594 536.844 52.2344C536.844 45.3594 538.625 39.1875 542.188 33.7188C545.5 28.7188 549.984 24.9219 555.641 22.3281C561.297 19.7344 567.406 18.4375 573.969 18.4375C582.469 18.4375 588.891 20.2969 593.234 24.0156C597.609 27.7344 599.781 32.3281 599.75 37.7969C599.75 43.2656 597.141 48.125 591.922 52.375C586.703 56.625 579.672 58.75 570.828 58.75ZM651.312 42.7188C648.438 42.7188 645.484 43.7656 642.453 45.8594C639.422 47.9531 637.891 49.9375 637.859 51.8125V79H609.641V20.7344H637.859V26.9688C639.453 24.5625 641.422 22.6406 643.766 21.2031C646.141 19.7656 648.656 18.9062 651.312 18.625V42.7188ZM691.203 36.5781C688.703 36.5781 687.453 38.5938 687.453 42.625V79H659.609V20.7344H674.984L681.688 29.8281C684.188 26.3594 687.641 23.6094 692.047 21.5781C696.484 19.5469 700.625 18.5312 704.469 18.5312C711.531 18.5312 717.125 20.4062 721.25 24.1562C725.406 27.9062 727.484 32.9375 727.484 39.25V79H699.453V50.875C699.453 41.3438 696.703 36.5781 691.203 36.5781ZM778.812 37.3281C778.188 37.0156 777.375 36.8594 776.375 36.8594C775.406 36.8594 774.328 37.1562 773.141 37.75C771.953 38.3125 770.781 39.0938 769.625 40.0938C767.188 42.2188 765.141 44.7969 763.484 47.8281C761.828 50.8594 761 53.6562 761 56.2188C761 58.75 761.969 60.4531 763.906 61.3281C764.594 61.6406 765.438 61.7969 766.438 61.7969C767.438 61.7969 768.484 61.5 769.578 60.9062C770.672 60.2812 771.766 59.4531 772.859 58.4219C775.141 56.2656 777.141 53.6562 778.859 50.5938C780.578 47.5 781.438 44.7344 781.438 42.2969C781.438 39.8594 780.562 38.2031 778.812 37.3281ZM769.719 80.7344C760.781 80.7344 753.078 77.9062 746.609 72.25C739.703 66.25 736.25 58.7031 736.25 49.6094C736.25 40.4844 739.484 33.0312 745.953 27.25C752.422 21.4375 760.406 18.5312 769.906 18.5312C779.406 18.5312 787.391 21.375 793.859 27.0625C800.328 32.7188 803.578 40.2969 803.609 49.7969C803.641 55.8906 802.094 61.2812 798.969 65.9688C795.844 70.6562 791.672 74.2812 786.453 76.8438C781.234 79.4062 775.656 80.7031 769.719 80.7344ZM844.484 36.5781C841.984 36.5781 840.734 38.5938 840.734 42.625V79H812.891V20.7344H828.266L834.969 29.8281C837.469 26.3594 840.922 23.6094 845.328 21.5781C849.766 19.5469 853.906 18.5312 857.75 18.5312C864.812 18.5312 870.406 20.4062 874.531 24.1562C878.688 27.9062 880.766 32.9375 880.766 39.25V79H852.734V50.875C852.734 41.3438 849.984 36.5781 844.484 36.5781Z" fill="#C6C6C6"/>
</svg>
