<svg width="515" height="50" viewBox="0 0 515 50" fill="none" xmlns="http://www.w3.org/2000/svg">
<path d="M41.268 6.044C40.452 7.268 39.772 8.78666 39.228 10.6C38.684 12.4133 38.14 14.1813 37.596 15.904C37.1427 17.4453 36.6213 19.236 36.032 21.276C35.4427 23.2707 34.8533 25.2653 34.264 27.26C33.6747 29.2093 33.1307 30.9547 32.632 32.496C32.1787 33.9013 31.748 35.4427 31.34 37.12C30.932 38.752 30.3653 40.044 29.64 40.996C29.096 41.7213 28.212 42.356 26.988 42.9C25.764 43.444 24.472 43.9427 23.112 44.396C21.752 44.804 20.5507 45.212 19.508 45.62C17.5587 46.3453 15.6773 46.8667 13.864 47.184C12.0507 47.456 10.2373 47.728 8.424 48C8.19733 48.0453 7.97067 48.068 7.744 48.068C7.51733 48.1133 7.29067 48.1587 7.064 48.204C6.112 48.3853 5.16 48.4987 4.208 48.544C3.30133 48.6347 2.41733 48.4533 1.556 48C1.51067 47.6373 1.39733 47.4107 1.216 47.32C1.08 47.184 0.898667 47.048 0.672 46.912C0.898667 45.7333 1.03467 44.464 1.08 43.104C1.12533 41.744 1.53333 40.4973 2.304 39.364C2.44 39.1373 2.644 38.7747 2.916 38.276C3.23333 37.732 3.55067 37.2333 3.868 36.78C4.23067 36.2813 4.57067 36.032 4.888 36.032C6.20267 34.5813 7.72133 33.4707 9.444 32.7C11.1667 31.884 12.5267 31.3173 13.524 31C14.2947 30.592 15.2693 30.388 16.448 30.388C17.672 30.3427 18.7827 30.3653 19.78 30.456C19.5533 31.2267 19.0547 31.9747 18.284 32.7C17.5587 33.4253 16.9693 33.924 16.516 34.196C16.1987 34.3773 15.836 34.5133 15.428 34.604C15.0653 34.6947 14.7027 34.8533 14.34 35.08C13.6147 35.488 12.776 36.0093 11.824 36.644C10.9173 37.2787 10.1467 37.9587 9.512 38.684C8.92267 39.4093 8.67333 40.112 8.764 40.792C8.9 41.2 8.9 41.5627 8.764 41.88C8.628 42.1973 8.46933 42.492 8.288 42.764C8.152 42.9453 8.016 43.1493 7.88 43.376C7.78933 43.5573 7.72133 43.7613 7.676 43.988C9.80667 44.0333 11.96 43.6707 14.136 42.9C16.3573 42.1293 18.2613 41.2 19.848 40.112C20.8 40.3387 21.5707 40.2933 22.16 39.976C22.7493 39.6133 23.316 39.2053 23.86 38.752C24.2227 38.4347 24.5853 38.1627 24.948 37.936C25.3107 37.664 25.7187 37.46 26.172 37.324C26.4893 36.644 26.8293 35.76 27.192 34.672C27.5547 33.584 27.8947 32.496 28.212 31.408C28.5747 30.2747 28.8693 29.3453 29.096 28.62C29.8213 26.3987 30.5693 23.996 31.34 21.412C32.156 18.828 32.904 16.2667 33.584 13.728C34.264 11.144 34.7853 8.78666 35.148 6.656C34.1053 6.33867 32.9267 6.18 31.612 6.18C30.2973 6.18 29.0507 6.112 27.872 5.976C26.8747 5.88533 26.0133 5.65867 25.288 5.296C24.608 4.93333 24.2 4.32133 24.064 3.46C25.3333 3.55066 26.58 3.528 27.804 3.392C29.028 3.21067 30.2293 3.02933 31.408 2.848C32.8587 2.62133 34.3093 2.44 35.76 2.304C37.256 2.168 38.7293 2.25867 40.18 2.576C40.2707 3.07467 40.4973 3.324 40.86 3.324C40.8147 3.732 40.8147 4.16267 40.86 4.616C40.9507 5.024 41.0867 5.5 41.268 6.044ZM82.0319 28.688C82.0319 28.7333 81.9639 28.8693 81.8279 29.096C81.6012 29.4587 81.2839 30.0027 80.8759 30.728C80.5132 31.408 80.1732 32.1333 79.8559 32.904C79.5839 33.6293 79.4479 34.2413 79.4479 34.74C79.2665 34.6947 79.0172 34.876 78.6999 35.284C78.3825 35.692 78.0879 36.1227 77.8159 36.576C77.5892 36.984 77.4759 37.2787 77.4759 37.46C76.8412 38.14 76.2292 38.9333 75.6399 39.84C75.0959 40.7013 74.4839 41.5173 73.8039 42.288C73.1692 43.0133 72.3532 43.512 71.3559 43.784C71.0839 44.1467 70.6985 44.5773 70.1999 45.076C69.7012 45.5293 69.2252 45.688 68.7719 45.552C68.3639 46.1867 67.7292 46.64 66.8679 46.912C66.0065 47.184 65.1679 47.4107 64.3519 47.592C63.5812 47.728 63.0825 48.0227 62.8559 48.476C62.4025 48.34 62.0172 48.2947 61.6999 48.34C61.3825 48.4307 61.0652 48.5213 60.7479 48.612C60.5665 48.7027 60.3852 48.7707 60.2039 48.816C60.0679 48.8613 59.8865 48.9067 59.6599 48.952C58.2999 48.4987 57.1665 48.0453 56.2599 47.592C55.3532 47.1387 54.6279 46.3227 54.0839 45.144C54.2199 44.9173 54.2425 44.6453 54.1519 44.328C54.1065 43.9653 54.0385 43.6027 53.9479 43.24C53.8119 42.7867 53.6985 42.356 53.6079 41.948C53.5625 41.54 53.6759 41.2453 53.9479 41.064C53.4492 39.568 53.2905 38.14 53.4719 36.78C53.6985 35.3747 53.9932 33.924 54.3559 32.428C54.5825 31.6573 54.7865 30.8413 54.9679 29.98C55.1492 29.1187 55.3079 28.212 55.4439 27.26C55.6705 27.124 55.8745 27.056 56.0559 27.056C56.4185 25.0613 57.2345 23.2027 58.5039 21.48C59.8185 19.7573 61.0652 18.148 62.2439 16.652C62.5612 16.6067 62.8785 16.5387 63.1959 16.448C63.5132 16.312 63.8305 16.1987 64.1479 16.108C64.9639 15.7907 65.7345 15.5867 66.4599 15.496C67.1852 15.36 67.7519 15.6773 68.1599 16.448C68.4772 16.3573 69.0212 16.3347 69.7919 16.38C70.6079 16.4253 71.4465 16.516 72.3079 16.652C73.1692 16.7427 73.7812 16.8787 74.1439 17.06C74.7332 17.2867 75.4359 17.672 76.2519 18.216C77.0679 18.7147 77.8385 19.236 78.5639 19.78C79.3345 20.324 79.9012 20.8227 80.2639 21.276C80.6265 21.5933 80.9212 22.024 81.1479 22.568C81.3745 23.112 81.5105 23.6333 81.5559 24.132C81.7825 24.132 81.9412 24.4947 82.0319 25.22C82.1225 25.9 82.1679 26.6253 82.1679 27.396C82.1679 28.1213 82.1225 28.552 82.0319 28.688ZM76.7279 26.24C76.5012 26.104 76.1612 25.9 75.7079 25.628C75.2999 25.356 74.9599 25.016 74.6879 24.608C74.4159 24.2 74.3479 23.7467 74.4839 23.248C74.1212 23.2933 73.8492 23.2707 73.6679 23.18C73.4865 23.0893 73.3279 22.976 73.1919 22.84C73.1465 22.7947 73.1012 22.772 73.0559 22.772C72.4665 22.2733 71.6732 21.9107 70.6759 21.684C69.6785 21.4573 68.6132 21.2533 67.4799 21.072C66.3919 20.8907 65.3492 20.664 64.3519 20.392C62.9919 21.9333 61.7905 23.9733 60.7479 26.512C59.7505 29.0053 59.0252 31.6573 58.5719 34.468C58.1185 37.2333 57.9825 39.84 58.1639 42.288C58.3905 42.424 58.6172 42.5147 58.8439 42.56C59.0705 42.56 59.3199 42.5373 59.5919 42.492C59.7732 42.492 59.9772 42.492 60.2039 42.492C60.4305 42.492 60.6572 42.5147 60.8839 42.56C60.9292 42.8773 61.0879 43.104 61.3599 43.24C61.6772 43.376 61.8812 43.308 61.9719 43.036C62.5159 42.628 63.2865 42.084 64.2839 41.404C65.3265 40.724 66.2105 40.112 66.9359 39.568C67.0719 39.568 67.2759 39.568 67.5479 39.568C68.0012 39.5227 68.4772 39.4773 68.9759 39.432C69.4745 39.3867 69.8372 39.228 70.0639 38.956C69.9732 38.8653 69.8145 38.7973 69.5879 38.752C69.4065 38.7067 69.2479 38.6613 69.1119 38.616C69.0212 38.5253 68.9985 38.344 69.0439 38.072C69.5879 37.936 70.1999 37.4827 70.8799 36.712C71.6052 35.9413 72.2852 35.1707 72.9199 34.4C73.5999 33.584 74.1212 33.1307 74.4839 33.04C74.4385 32.632 74.5065 32.2693 74.6879 31.952C74.9145 31.5893 75.1639 31.2267 75.4359 30.864C75.7079 30.5013 75.9345 30.1387 76.1159 29.776C76.3425 29.368 76.2972 28.96 75.9799 28.552C76.4332 28.416 76.6825 28.212 76.7279 27.94C76.7732 27.668 76.7732 27.3507 76.7279 26.988C76.6825 26.6707 76.6825 26.4213 76.7279 26.24ZM63.0599 20.664C62.9239 20.6187 62.8559 20.5053 62.8559 20.324C62.8559 20.1427 62.7199 20.0747 62.4479 20.12C61.3145 21.7067 60.4759 23.2933 59.9319 24.88C59.4332 26.4213 58.7759 28.212 57.9599 30.252C58.0505 30.2973 58.1412 30.4107 58.2319 30.592C58.2772 30.6827 58.3225 30.7507 58.3679 30.796C58.4585 30.796 58.5945 30.6827 58.7759 30.456C59.0025 29.4587 59.3879 28.3707 59.9319 27.192C60.4759 26.0133 61.0425 24.8573 61.6319 23.724C62.2212 22.5453 62.6972 21.5253 63.0599 20.664ZM122.994 26.376C122.495 26.512 122.042 26.7613 121.634 27.124C121.226 27.4867 120.818 27.8493 120.41 28.212C120.047 28.5293 119.571 28.688 118.982 28.688C118.393 27.9627 117.962 27.0787 117.69 26.036C117.463 24.9933 117.191 23.9733 116.874 22.976C116.557 21.9787 115.967 21.2533 115.106 20.8C114.743 20.8453 114.245 21.0267 113.61 21.344C113.021 21.6613 112.477 22.024 111.978 22.432C111.479 22.7947 111.253 23.18 111.298 23.588C110.89 23.7693 110.437 24.0867 109.938 24.54C109.485 24.9933 109.122 25.4467 108.85 25.9C108.578 26.3533 108.487 26.716 108.578 26.988C108.215 27.124 107.966 27.396 107.83 27.804C107.694 28.1667 107.535 28.5293 107.354 28.892C107.218 29.2547 106.923 29.4813 106.47 29.572C106.47 29.708 106.515 29.844 106.606 29.98C106.742 30.1613 106.742 30.2973 106.606 30.388C105.563 31.7027 104.702 33.3573 104.022 35.352C103.342 37.3013 102.707 39.3413 102.118 41.472C101.529 43.5573 100.871 45.484 100.146 47.252C99.6472 47.5693 99.1712 47.9093 98.7179 48.272C98.3099 48.68 97.8566 49.0427 97.3579 49.36C96.5419 48.8613 95.7712 48.3173 95.0459 47.728C94.3206 47.1387 93.6859 46.4813 93.1419 45.756C93.7312 45.5293 94.0259 45.1667 94.0259 44.668C94.0712 44.124 94.0939 43.58 94.0939 43.036C94.1392 42.492 94.4566 42.1293 95.0459 41.948C95.5899 39.3187 96.0206 36.4173 96.3379 33.244C96.7006 30.0253 97.1086 26.8293 97.5619 23.656C98.0152 20.4827 98.6272 17.6267 99.3979 15.088C99.8512 15.5413 100.123 16.108 100.214 16.788C100.35 17.468 100.441 18.1027 100.486 18.692C100.622 20.46 100.667 22.16 100.622 23.792C100.622 25.424 100.713 27.056 100.894 28.688C102.843 26.2853 104.793 24.0187 106.742 21.888C108.691 19.7573 110.867 17.8307 113.27 16.108C114.993 15.5187 116.489 15.4507 117.758 15.904C119.073 16.312 120.138 17.0147 120.954 18.012C121.861 19.0547 122.473 20.3467 122.79 21.888C123.153 23.384 123.221 24.88 122.994 26.376ZM162.398 2.236C161.945 5.68133 161.469 8.764 160.97 11.484C160.472 14.204 159.95 16.7653 159.406 19.168C158.908 21.5253 158.364 23.86 157.774 26.172C157.23 28.4387 156.641 30.864 156.006 33.448C155.644 34.128 155.326 34.944 155.054 35.896C154.828 36.8027 154.782 37.528 154.918 38.072C154.873 38.344 154.714 38.9333 154.442 39.84C154.17 40.7013 153.853 41.6533 153.49 42.696C153.128 43.6933 152.788 44.532 152.47 45.212C152.153 45.892 151.926 46.1413 151.79 45.96C151.564 46.096 151.45 46.2093 151.45 46.3C151.496 46.3907 151.564 46.504 151.654 46.64C151.79 46.8213 151.881 46.9573 151.926 47.048C151.926 47.2293 151.768 47.4107 151.45 47.592C151.133 47.7733 150.816 47.9547 150.498 48.136C150.045 48.3627 149.818 48.4987 149.818 48.544C148.368 48.4533 147.121 48.204 146.078 47.796C145.036 47.3427 143.812 46.7987 142.406 46.164C141.862 45.7107 141.092 44.9173 140.094 43.784C139.142 42.6053 138.122 41.3133 137.034 39.908C135.946 38.4573 134.972 37.0973 134.11 35.828C133.249 34.5133 132.66 33.4933 132.342 32.768C132.116 32.088 132.184 31.2267 132.546 30.184C132.909 29.1413 133.317 28.0987 133.77 27.056C133.952 26.6933 134.11 26.3307 134.246 25.968C134.428 25.6053 134.586 25.2427 134.722 24.88C135.674 24.88 136.672 24.812 137.714 24.676C138.802 24.54 139.754 24.2453 140.57 23.792C141.386 23.3387 141.885 22.6813 142.066 21.82C143.2 21.684 144.378 21.3893 145.602 20.936C146.872 20.4827 148.005 20.188 149.002 20.052C149.954 19.916 150.929 19.984 151.926 20.256C152.969 20.528 153.558 21.0493 153.694 21.82C153.966 21.8653 154.17 21.7067 154.306 21.344C154.488 20.936 154.646 20.5053 154.782 20.052C155.734 16.5613 156.664 13.3427 157.57 10.396C158.522 7.404 159.429 4.18533 160.29 0.739996C160.744 1.012 161.152 1.23866 161.514 1.42C161.877 1.60133 162.172 1.87333 162.398 2.236ZM153.082 25.628C152.538 25.22 151.768 25.016 150.77 25.016C149.773 25.016 148.685 25.22 147.506 25.628C146.373 25.9907 145.33 26.4893 144.378 27.124C143.426 27.7133 142.701 28.416 142.202 29.232C141.522 29.4587 140.888 29.98 140.298 30.796C139.754 31.5667 139.324 32.4053 139.006 33.312C138.689 34.1733 138.53 34.8987 138.53 35.488C138.802 35.76 139.074 36.0547 139.346 36.372C139.618 36.644 139.89 36.9387 140.162 37.256C141.024 38.208 141.885 39.1147 142.746 39.976C143.653 40.8373 144.537 41.4493 145.398 41.812C146.305 42.1747 147.166 42.0613 147.982 41.472C149.025 39.2053 150 36.6893 150.906 33.924C151.813 31.1587 152.538 28.3933 153.082 25.628ZM200.291 46.504C200.019 46.4133 199.837 46.4587 199.747 46.64C199.656 46.8213 199.565 47.048 199.475 47.32C199.384 47.6373 199.248 47.9093 199.067 48.136C198.931 48.408 198.681 48.4307 198.319 48.204C198.047 47.2067 197.865 46.1413 197.775 45.008C197.684 43.8293 197.525 42.7187 197.299 41.676C197.072 40.6333 196.619 39.8173 195.939 39.228C195.032 40.2253 193.989 41.2 192.811 42.152C191.632 43.104 190.907 43.9653 190.635 44.736C190.272 44.9173 189.887 45.0987 189.479 45.28C189.116 45.4613 188.753 45.6653 188.391 45.892C187.121 46.5267 185.807 47.116 184.447 47.66C183.132 48.204 181.772 48.3853 180.367 48.204C179.097 48.0227 177.76 47.7053 176.355 47.252C174.995 46.7533 173.929 46.0053 173.159 45.008C173.023 44.6907 172.955 44.4187 172.955 44.192C172.955 43.92 172.773 43.6933 172.411 43.512C173.136 37.4373 174.791 32.3373 177.375 28.212C180.004 24.0867 183.495 20.7093 187.847 18.08C187.983 17.8533 188.164 17.6947 188.391 17.604C188.663 17.468 188.844 17.264 188.935 16.992C189.569 17.4 190.272 17.6947 191.043 17.876C191.859 18.0573 192.652 18.1707 193.423 18.216C194.964 20.4373 196.233 22.9533 197.231 25.764C198.273 28.5293 199.293 31.3173 200.291 34.128C200.245 34.7627 200.268 35.42 200.359 36.1C200.449 36.7347 200.563 37.392 200.699 38.072C200.925 39.3867 201.084 40.7693 201.175 42.22C201.265 43.6253 200.971 45.0533 200.291 46.504ZM195.055 33.924C194.964 33.4707 194.76 32.632 194.443 31.408C194.125 30.184 193.695 28.8693 193.151 27.464C192.652 26.0587 192.063 24.8347 191.383 23.792C190.748 22.704 190.068 22.1373 189.343 22.092C187.303 23.452 185.648 24.9933 184.379 26.716C183.155 28.3933 182.089 30.252 181.183 32.292C180.321 34.332 179.347 36.576 178.259 39.024C178.395 39.16 178.463 39.364 178.463 39.636C178.463 39.8627 178.417 40.112 178.327 40.384C178.281 40.656 178.236 40.928 178.191 41.2C178.191 41.472 178.259 41.676 178.395 41.812C179.936 42.22 181.387 42.22 182.747 41.812C184.107 41.3587 185.421 40.8373 186.691 40.248C187.507 39.84 188.3 39.5 189.071 39.228C189.841 38.9107 190.589 38.752 191.315 38.752C191.36 38.2987 191.632 37.7547 192.131 37.12C192.629 36.4853 193.173 35.8733 193.763 35.284C194.352 34.6493 194.783 34.196 195.055 33.924ZM239.702 27.328C239.838 27.736 239.906 28.5747 239.906 29.844C239.951 31.1133 239.928 32.5413 239.838 34.128C239.747 35.6693 239.611 37.12 239.43 38.48C239.294 39.7947 239.09 40.724 238.818 41.268C238.818 41.4493 238.84 41.6533 238.886 41.88C238.931 42.0613 238.976 42.2653 239.022 42.492C239.158 43.1267 239.271 43.8067 239.362 44.532C239.452 45.212 239.43 45.688 239.294 45.96C238.432 46.096 237.707 46.3227 237.118 46.64C236.574 46.9573 236.052 47.2293 235.554 47.456C233.559 46.9573 232.811 45.8467 233.31 44.124C233.264 43.8067 233.196 43.1493 233.106 42.152C233.06 41.1547 233.015 40.0213 232.97 38.752C232.924 37.4373 232.902 36.168 232.902 34.944C232.947 33.6747 233.038 32.632 233.174 31.816C233.31 31 233.514 30.6147 233.786 30.66C233.786 30.252 233.786 29.64 233.786 28.824C233.831 28.008 233.808 27.124 233.718 26.172C233.672 25.1747 233.536 24.268 233.31 23.452C233.128 22.5907 232.856 21.9787 232.494 21.616C231.496 22.2507 230.454 22.9987 229.366 23.86C228.278 24.7213 227.688 25.7413 227.598 26.92C227.416 26.92 227.076 27.2373 226.578 27.872C226.079 28.5067 225.512 29.2773 224.878 30.184C224.288 31.0453 223.744 31.8613 223.246 32.632C222.747 33.4027 222.43 33.924 222.294 34.196C222.067 34.6493 221.863 35.1253 221.682 35.624C221.546 36.1227 221.092 36.5307 220.322 36.848C220.458 37.12 220.344 37.732 219.982 38.684C219.664 39.636 219.256 40.6787 218.758 41.812C218.259 42.9453 217.76 43.9653 217.262 44.872C216.808 45.7787 216.491 46.3227 216.31 46.504C215.766 47.048 215.108 47.4787 214.338 47.796C213.612 48.068 212.728 48.1813 211.686 48.136C211.686 47.592 211.482 47.252 211.074 47.116C210.711 46.9347 210.484 46.5947 210.394 46.096C210.892 45.824 211.3 45.3027 211.618 44.532C211.935 43.716 212.184 42.8773 212.366 42.016C212.547 41.1547 212.683 40.5427 212.774 40.18C213.771 36.5533 214.746 32.972 215.698 29.436C216.695 25.8547 218.146 22.568 220.05 19.576C220.186 19.3947 220.435 19.3947 220.798 19.576C221.16 19.712 221.364 20.1653 221.41 20.936C221.41 21.6613 221.296 22.4547 221.07 23.316C220.888 24.1773 220.684 25.0387 220.458 25.9C220.231 26.6707 220.027 27.4187 219.846 28.144C219.71 28.824 219.642 29.436 219.642 29.98C220.322 29.4813 220.911 28.8013 221.41 27.94C221.954 27.0787 222.475 26.3533 222.974 25.764C223.563 25.0387 224.379 24.1547 225.422 23.112C226.464 22.024 227.62 20.9813 228.89 19.984C230.204 18.9413 231.451 18.148 232.63 17.604C232.902 17.468 233.332 17.4 233.922 17.4C234.556 17.3547 235.191 17.3547 235.826 17.4C236.506 17.4453 237.004 17.5133 237.322 17.604C237.956 18.3747 238.478 19.168 238.886 19.984C239.294 20.8 239.43 21.7747 239.294 22.908C239.248 23.452 239.248 24.1547 239.294 25.016C239.384 25.8773 239.52 26.648 239.702 27.328ZM313.707 18.352C313.661 18.8053 313.639 19.3267 313.639 19.916C313.639 20.46 313.661 21.0267 313.707 21.616C313.707 22.3867 313.707 23.18 313.707 23.996C313.707 24.812 313.661 25.5827 313.571 26.308C313.525 26.716 313.299 27.328 312.891 28.144C312.528 28.9147 312.029 29.64 311.395 30.32C310.805 31 310.125 31.34 309.355 31.34C308.357 31.9747 307.224 32.8133 305.955 33.856C304.731 34.8987 303.847 35.7827 303.303 36.508C303.257 36.5533 302.849 36.8027 302.079 37.256C301.308 37.7093 300.469 38.2307 299.563 38.82C298.701 39.364 297.999 39.908 297.455 40.452C295.777 41.3133 294.213 42.492 292.763 43.988C291.357 45.484 290.043 46.7987 288.819 47.932C288.501 47.8413 288.161 47.8187 287.799 47.864C287.481 47.9093 287.141 47.9547 286.779 48C286.053 48.0907 285.328 48.1133 284.603 48.068C283.923 48.0227 283.333 47.592 282.835 46.776C282.653 43.6027 282.132 40.2027 281.271 36.576C280.409 32.904 279.344 29.2093 278.075 25.492C276.805 21.7747 275.468 18.2613 274.063 14.952C272.703 11.5973 271.411 8.628 270.187 6.044L271.139 6.248C272.997 8.10667 274.72 10.464 276.307 13.32C277.893 16.176 279.344 19.2813 280.659 22.636C282.019 25.9453 283.243 29.232 284.331 32.496C285.419 35.7147 286.348 38.6387 287.119 41.268C287.663 41.1773 288.433 40.792 289.431 40.112C290.428 39.432 291.516 38.616 292.695 37.664C293.919 36.712 295.097 35.8507 296.231 35.08C297.364 34.264 298.339 33.72 299.155 33.448C300.107 32.4053 301.263 31.5213 302.623 30.796C303.983 30.0253 305.161 29.2093 306.159 28.348C306.929 26.4893 307.383 24.7667 307.519 23.18C307.655 21.548 307.677 20.188 307.587 19.1C307.496 17.9667 307.224 16.6293 306.771 15.088C306.363 13.5467 305.864 12.0507 305.275 10.6C304.685 9.104 304.096 7.90267 303.507 6.996C303.235 6.54266 302.736 6.29333 302.011 6.248C301.285 6.15733 300.673 5.976 300.175 5.704C300.084 5.47733 299.971 5.296 299.835 5.16C299.699 5.024 299.563 4.91066 299.427 4.82C299.2 4.59333 299.019 4.36666 298.883 4.14C298.747 3.91333 298.747 3.57333 298.883 3.12C300.56 2.44 301.897 2.19067 302.895 2.372C303.937 2.55333 304.753 2.96133 305.343 3.596C305.977 4.18533 306.521 4.79733 306.975 5.432C307.247 5.74933 307.496 6.044 307.723 6.316C307.949 6.588 308.176 6.81466 308.403 6.996C308.629 7.63066 308.969 8.33333 309.423 9.104C309.876 9.82933 310.352 10.6 310.851 11.416C311.667 12.6853 312.415 13.9547 313.095 15.224C313.775 16.448 313.979 17.4907 313.707 18.352ZM355.718 29.708C355.763 30.524 355.468 31.204 354.834 31.748C354.199 32.2467 353.383 32.6547 352.386 32.972C351.434 33.2893 350.436 33.516 349.394 33.652C348.351 33.788 347.444 33.8787 346.674 33.924C345.631 33.9693 344.679 33.9013 343.818 33.72C343.002 33.5387 342.186 33.3573 341.37 33.176C341.143 33.1307 340.916 33.0853 340.69 33.04C340.463 32.9493 340.236 32.8813 340.01 32.836C339.012 32.6093 337.879 32.4053 336.61 32.224C335.386 31.9973 334.411 31.6573 333.686 31.204C333.278 31.6573 333.006 32.3373 332.87 33.244C332.734 34.1053 332.711 35.0347 332.802 36.032C332.938 36.984 333.164 37.8453 333.482 38.616C333.844 39.3413 334.275 39.772 334.774 39.908C335.408 39.9987 335.952 40.2253 336.406 40.588C336.904 40.9053 337.38 41.268 337.834 41.676C338.423 42.1747 339.035 42.6507 339.67 43.104C340.35 43.512 341.166 43.648 342.118 43.512C342.435 44.192 342.707 44.5547 342.934 44.6C343.206 44.6 343.478 44.5547 343.75 44.464C343.976 44.3733 344.158 44.328 344.294 44.328C344.928 44.5093 345.676 44.8947 346.538 45.484C347.399 46.0733 347.988 46.776 348.306 47.592C347.671 48.136 347.014 48.4307 346.334 48.476C345.654 48.5213 344.928 48.5213 344.158 48.476C343.614 48.4307 343.047 48.408 342.458 48.408C341.868 48.408 341.256 48.476 340.622 48.612C340.44 48.2493 340.1 48.0453 339.602 48C339.148 47.9093 338.65 47.7733 338.106 47.592C337.562 47.4107 337.086 46.98 336.678 46.3C335.091 45.9373 333.618 45.1213 332.258 43.852C330.898 42.5373 329.651 41.2907 328.518 40.112C328.336 39.4773 328.132 38.8653 327.906 38.276C327.724 37.6867 327.384 37.2333 326.886 36.916C326.976 36.4173 326.976 36.032 326.886 35.76C326.84 35.488 326.772 35.216 326.682 34.944C326.636 34.8533 326.591 34.7627 326.546 34.672C326.5 34.536 326.455 34.3773 326.41 34.196C326.954 32.0653 327.792 29.98 328.926 27.94C330.059 25.9 331.487 23.996 333.21 22.228C333.89 21.5027 334.706 20.7547 335.658 19.984C336.655 19.168 337.675 18.4427 338.718 17.808C339.806 17.1733 340.803 16.8107 341.71 16.72C342.072 16.6747 342.412 16.6973 342.73 16.788C343.092 16.8333 343.455 16.9013 343.818 16.992C344.271 17.128 344.724 17.2413 345.178 17.332C345.676 17.3773 346.175 17.3093 346.674 17.128C348.034 17.9893 349.303 18.828 350.482 19.644C351.66 20.46 352.363 21.616 352.59 23.112C353.315 23.4293 353.791 24.0187 354.018 24.88C354.29 25.696 354.652 26.444 355.106 27.124C354.652 27.4867 354.471 27.9853 354.562 28.62C354.698 29.2547 355.083 29.6173 355.718 29.708ZM348.85 28.484C348.986 27.8493 348.918 27.2373 348.646 26.648C348.374 26.0133 348.056 25.4013 347.694 24.812C347.467 24.404 347.263 24.0413 347.082 23.724C346.946 23.3613 346.855 23.0213 346.81 22.704C346.175 22.6133 345.676 22.3867 345.314 22.024C344.951 21.616 344.452 21.276 343.818 21.004C341.732 21.9107 339.76 23.112 337.902 24.608C336.088 26.0587 334.774 27.8267 333.958 29.912C335.046 29.6853 336.202 29.572 337.426 29.572C338.695 29.572 339.942 29.5947 341.166 29.64C342.435 29.6853 343.659 29.708 344.838 29.708C346.016 29.708 347.059 29.572 347.966 29.3C347.966 28.892 348.079 28.7107 348.306 28.756C348.578 28.8013 348.759 28.7107 348.85 28.484ZM396.811 26.376C396.312 26.512 395.859 26.7613 395.451 27.124C395.043 27.4867 394.635 27.8493 394.227 28.212C393.864 28.5293 393.388 28.688 392.799 28.688C392.209 27.9627 391.779 27.0787 391.507 26.036C391.28 24.9933 391.008 23.9733 390.691 22.976C390.373 21.9787 389.784 21.2533 388.923 20.8C388.56 20.8453 388.061 21.0267 387.427 21.344C386.837 21.6613 386.293 22.024 385.795 22.432C385.296 22.7947 385.069 23.18 385.115 23.588C384.707 23.7693 384.253 24.0867 383.755 24.54C383.301 24.9933 382.939 25.4467 382.667 25.9C382.395 26.3533 382.304 26.716 382.395 26.988C382.032 27.124 381.783 27.396 381.647 27.804C381.511 28.1667 381.352 28.5293 381.171 28.892C381.035 29.2547 380.74 29.4813 380.287 29.572C380.287 29.708 380.332 29.844 380.423 29.98C380.559 30.1613 380.559 30.2973 380.423 30.388C379.38 31.7027 378.519 33.3573 377.839 35.352C377.159 37.3013 376.524 39.3413 375.935 41.472C375.345 43.5573 374.688 45.484 373.963 47.252C373.464 47.5693 372.988 47.9093 372.535 48.272C372.127 48.68 371.673 49.0427 371.175 49.36C370.359 48.8613 369.588 48.3173 368.863 47.728C368.137 47.1387 367.503 46.4813 366.959 45.756C367.548 45.5293 367.843 45.1667 367.843 44.668C367.888 44.124 367.911 43.58 367.911 43.036C367.956 42.492 368.273 42.1293 368.863 41.948C369.407 39.3187 369.837 36.4173 370.155 33.244C370.517 30.0253 370.925 26.8293 371.379 23.656C371.832 20.4827 372.444 17.6267 373.215 15.088C373.668 15.5413 373.94 16.108 374.031 16.788C374.167 17.468 374.257 18.1027 374.303 18.692C374.439 20.46 374.484 22.16 374.439 23.792C374.439 25.424 374.529 27.056 374.711 28.688C376.66 26.2853 378.609 24.0187 380.559 21.888C382.508 19.7573 384.684 17.8307 387.087 16.108C388.809 15.5187 390.305 15.4507 391.575 15.904C392.889 16.312 393.955 17.0147 394.771 18.012C395.677 19.0547 396.289 20.3467 396.607 21.888C396.969 23.384 397.037 24.88 396.811 26.376ZM433.767 27.328C433.903 27.736 433.971 28.5747 433.971 29.844C434.017 31.1133 433.994 32.5413 433.903 34.128C433.813 35.6693 433.677 37.12 433.495 38.48C433.359 39.7947 433.155 40.724 432.883 41.268C432.883 41.4493 432.906 41.6533 432.951 41.88C432.997 42.0613 433.042 42.2653 433.087 42.492C433.223 43.1267 433.337 43.8067 433.427 44.532C433.518 45.212 433.495 45.688 433.359 45.96C432.498 46.096 431.773 46.3227 431.183 46.64C430.639 46.9573 430.118 47.2293 429.619 47.456C427.625 46.9573 426.877 45.8467 427.375 44.124C427.33 43.8067 427.262 43.1493 427.171 42.152C427.126 41.1547 427.081 40.0213 427.035 38.752C426.99 37.4373 426.967 36.168 426.967 34.944C427.013 33.6747 427.103 32.632 427.239 31.816C427.375 31 427.579 30.6147 427.851 30.66C427.851 30.252 427.851 29.64 427.851 28.824C427.897 28.008 427.874 27.124 427.783 26.172C427.738 25.1747 427.602 24.268 427.375 23.452C427.194 22.5907 426.922 21.9787 426.559 21.616C425.562 22.2507 424.519 22.9987 423.431 23.86C422.343 24.7213 421.754 25.7413 421.663 26.92C421.482 26.92 421.142 27.2373 420.643 27.872C420.145 28.5067 419.578 29.2773 418.943 30.184C418.354 31.0453 417.81 31.8613 417.311 32.632C416.813 33.4027 416.495 33.924 416.359 34.196C416.133 34.6493 415.929 35.1253 415.747 35.624C415.611 36.1227 415.158 36.5307 414.387 36.848C414.523 37.12 414.41 37.732 414.047 38.684C413.73 39.636 413.322 40.6787 412.823 41.812C412.325 42.9453 411.826 43.9653 411.327 44.872C410.874 45.7787 410.557 46.3227 410.375 46.504C409.831 47.048 409.174 47.4787 408.403 47.796C407.678 48.068 406.794 48.1813 405.751 48.136C405.751 47.592 405.547 47.252 405.139 47.116C404.777 46.9347 404.55 46.5947 404.459 46.096C404.958 45.824 405.366 45.3027 405.683 44.532C406.001 43.716 406.25 42.8773 406.431 42.016C406.613 41.1547 406.749 40.5427 406.839 40.18C407.837 36.5533 408.811 32.972 409.763 29.436C410.761 25.8547 412.211 22.568 414.115 19.576C414.251 19.3947 414.501 19.3947 414.863 19.576C415.226 19.712 415.43 20.1653 415.475 20.936C415.475 21.6613 415.362 22.4547 415.135 23.316C414.954 24.1773 414.75 25.0387 414.523 25.9C414.297 26.6707 414.093 27.4187 413.911 28.144C413.775 28.824 413.707 29.436 413.707 29.98C414.387 29.4813 414.977 28.8013 415.475 27.94C416.019 27.0787 416.541 26.3533 417.039 25.764C417.629 25.0387 418.445 24.1547 419.487 23.112C420.53 22.024 421.686 20.9813 422.955 19.984C424.27 18.9413 425.517 18.148 426.695 17.604C426.967 17.468 427.398 17.4 427.987 17.4C428.622 17.3547 429.257 17.3547 429.891 17.4C430.571 17.4453 431.07 17.5133 431.387 17.604C432.022 18.3747 432.543 19.168 432.951 19.984C433.359 20.8 433.495 21.7747 433.359 22.908C433.314 23.452 433.314 24.1547 433.359 25.016C433.45 25.8773 433.586 26.648 433.767 27.328ZM475.608 28.688C475.608 28.7333 475.54 28.8693 475.404 29.096C475.178 29.4587 474.86 30.0027 474.452 30.728C474.09 31.408 473.75 32.1333 473.432 32.904C473.16 33.6293 473.024 34.2413 473.024 34.74C472.843 34.6947 472.594 34.876 472.276 35.284C471.959 35.692 471.664 36.1227 471.392 36.576C471.166 36.984 471.052 37.2787 471.052 37.46C470.418 38.14 469.806 38.9333 469.216 39.84C468.672 40.7013 468.06 41.5173 467.38 42.288C466.746 43.0133 465.93 43.512 464.932 43.784C464.66 44.1467 464.275 44.5773 463.776 45.076C463.278 45.5293 462.802 45.688 462.348 45.552C461.94 46.1867 461.306 46.64 460.444 46.912C459.583 47.184 458.744 47.4107 457.928 47.592C457.158 47.728 456.659 48.0227 456.432 48.476C455.979 48.34 455.594 48.2947 455.276 48.34C454.959 48.4307 454.642 48.5213 454.324 48.612C454.143 48.7027 453.962 48.7707 453.78 48.816C453.644 48.8613 453.463 48.9067 453.236 48.952C451.876 48.4987 450.743 48.0453 449.836 47.592C448.93 47.1387 448.204 46.3227 447.66 45.144C447.796 44.9173 447.819 44.6453 447.728 44.328C447.683 43.9653 447.615 43.6027 447.524 43.24C447.388 42.7867 447.275 42.356 447.184 41.948C447.139 41.54 447.252 41.2453 447.524 41.064C447.026 39.568 446.867 38.14 447.048 36.78C447.275 35.3747 447.57 33.924 447.932 32.428C448.159 31.6573 448.363 30.8413 448.544 29.98C448.726 29.1187 448.884 28.212 449.02 27.26C449.247 27.124 449.451 27.056 449.632 27.056C449.995 25.0613 450.811 23.2027 452.08 21.48C453.395 19.7573 454.642 18.148 455.82 16.652C456.138 16.6067 456.455 16.5387 456.772 16.448C457.09 16.312 457.407 16.1987 457.724 16.108C458.54 15.7907 459.311 15.5867 460.036 15.496C460.762 15.36 461.328 15.6773 461.736 16.448C462.054 16.3573 462.598 16.3347 463.368 16.38C464.184 16.4253 465.023 16.516 465.884 16.652C466.746 16.7427 467.358 16.8787 467.72 17.06C468.31 17.2867 469.012 17.672 469.828 18.216C470.644 18.7147 471.415 19.236 472.14 19.78C472.911 20.324 473.478 20.8227 473.84 21.276C474.203 21.5933 474.498 22.024 474.724 22.568C474.951 23.112 475.087 23.6333 475.132 24.132C475.359 24.132 475.518 24.4947 475.608 25.22C475.699 25.9 475.744 26.6253 475.744 27.396C475.744 28.1213 475.699 28.552 475.608 28.688ZM470.304 26.24C470.078 26.104 469.738 25.9 469.284 25.628C468.876 25.356 468.536 25.016 468.264 24.608C467.992 24.2 467.924 23.7467 468.06 23.248C467.698 23.2933 467.426 23.2707 467.244 23.18C467.063 23.0893 466.904 22.976 466.768 22.84C466.723 22.7947 466.678 22.772 466.632 22.772C466.043 22.2733 465.25 21.9107 464.252 21.684C463.255 21.4573 462.19 21.2533 461.056 21.072C459.968 20.8907 458.926 20.664 457.928 20.392C456.568 21.9333 455.367 23.9733 454.324 26.512C453.327 29.0053 452.602 31.6573 452.148 34.468C451.695 37.2333 451.559 39.84 451.74 42.288C451.967 42.424 452.194 42.5147 452.42 42.56C452.647 42.56 452.896 42.5373 453.168 42.492C453.35 42.492 453.554 42.492 453.78 42.492C454.007 42.492 454.234 42.5147 454.46 42.56C454.506 42.8773 454.664 43.104 454.936 43.24C455.254 43.376 455.458 43.308 455.548 43.036C456.092 42.628 456.863 42.084 457.86 41.404C458.903 40.724 459.787 40.112 460.512 39.568C460.648 39.568 460.852 39.568 461.124 39.568C461.578 39.5227 462.054 39.4773 462.552 39.432C463.051 39.3867 463.414 39.228 463.64 38.956C463.55 38.8653 463.391 38.7973 463.164 38.752C462.983 38.7067 462.824 38.6613 462.688 38.616C462.598 38.5253 462.575 38.344 462.62 38.072C463.164 37.936 463.776 37.4827 464.456 36.712C465.182 35.9413 465.862 35.1707 466.496 34.4C467.176 33.584 467.698 33.1307 468.06 33.04C468.015 32.632 468.083 32.2693 468.264 31.952C468.491 31.5893 468.74 31.2267 469.012 30.864C469.284 30.5013 469.511 30.1387 469.692 29.776C469.919 29.368 469.874 28.96 469.556 28.552C470.01 28.416 470.259 28.212 470.304 27.94C470.35 27.668 470.35 27.3507 470.304 26.988C470.259 26.6707 470.259 26.4213 470.304 26.24ZM456.636 20.664C456.5 20.6187 456.432 20.5053 456.432 20.324C456.432 20.1427 456.296 20.0747 456.024 20.12C454.891 21.7067 454.052 23.2933 453.508 24.88C453.01 26.4213 452.352 28.212 451.536 30.252C451.627 30.2973 451.718 30.4107 451.808 30.592C451.854 30.6827 451.899 30.7507 451.944 30.796C452.035 30.796 452.171 30.6827 452.352 30.456C452.579 29.4587 452.964 28.3707 453.508 27.192C454.052 26.0133 454.619 24.8573 455.208 23.724C455.798 22.5453 456.274 21.5253 456.636 20.664ZM513.85 27.328C513.986 27.736 514.054 28.5747 514.054 29.844C514.1 31.1133 514.077 32.5413 513.986 34.128C513.896 35.6693 513.76 37.12 513.578 38.48C513.442 39.7947 513.238 40.724 512.966 41.268C512.966 41.4493 512.989 41.6533 513.034 41.88C513.08 42.0613 513.125 42.2653 513.17 42.492C513.306 43.1267 513.42 43.8067 513.51 44.532C513.601 45.212 513.578 45.688 513.442 45.96C512.581 46.096 511.856 46.3227 511.266 46.64C510.722 46.9573 510.201 47.2293 509.702 47.456C507.708 46.9573 506.96 45.8467 507.458 44.124C507.413 43.8067 507.345 43.1493 507.254 42.152C507.209 41.1547 507.164 40.0213 507.118 38.752C507.073 37.4373 507.05 36.168 507.05 34.944C507.096 33.6747 507.186 32.632 507.322 31.816C507.458 31 507.662 30.6147 507.934 30.66C507.934 30.252 507.934 29.64 507.934 28.824C507.98 28.008 507.957 27.124 507.866 26.172C507.821 25.1747 507.685 24.268 507.458 23.452C507.277 22.5907 507.005 21.9787 506.642 21.616C505.645 22.2507 504.602 22.9987 503.514 23.86C502.426 24.7213 501.837 25.7413 501.746 26.92C501.565 26.92 501.225 27.2373 500.726 27.872C500.228 28.5067 499.661 29.2773 499.026 30.184C498.437 31.0453 497.893 31.8613 497.394 32.632C496.896 33.4027 496.578 33.924 496.442 34.196C496.216 34.6493 496.012 35.1253 495.83 35.624C495.694 36.1227 495.241 36.5307 494.47 36.848C494.606 37.12 494.493 37.732 494.13 38.684C493.813 39.636 493.405 40.6787 492.906 41.812C492.408 42.9453 491.909 43.9653 491.41 44.872C490.957 45.7787 490.64 46.3227 490.458 46.504C489.914 47.048 489.257 47.4787 488.486 47.796C487.761 48.068 486.877 48.1813 485.834 48.136C485.834 47.592 485.63 47.252 485.222 47.116C484.86 46.9347 484.633 46.5947 484.542 46.096C485.041 45.824 485.449 45.3027 485.766 44.532C486.084 43.716 486.333 42.8773 486.514 42.016C486.696 41.1547 486.832 40.5427 486.922 40.18C487.92 36.5533 488.894 32.972 489.846 29.436C490.844 25.8547 492.294 22.568 494.198 19.576C494.334 19.3947 494.584 19.3947 494.946 19.576C495.309 19.712 495.513 20.1653 495.558 20.936C495.558 21.6613 495.445 22.4547 495.218 23.316C495.037 24.1773 494.833 25.0387 494.606 25.9C494.38 26.6707 494.176 27.4187 493.994 28.144C493.858 28.824 493.79 29.436 493.79 29.98C494.47 29.4813 495.06 28.8013 495.558 27.94C496.102 27.0787 496.624 26.3533 497.122 25.764C497.712 25.0387 498.528 24.1547 499.57 23.112C500.613 22.024 501.769 20.9813 503.038 19.984C504.353 18.9413 505.6 18.148 506.778 17.604C507.05 17.468 507.481 17.4 508.07 17.4C508.705 17.3547 509.34 17.3547 509.974 17.4C510.654 17.4453 511.153 17.5133 511.47 17.604C512.105 18.3747 512.626 19.168 513.034 19.984C513.442 20.8 513.578 21.7747 513.442 22.908C513.397 23.452 513.397 24.1547 513.442 25.016C513.533 25.8773 513.669 26.648 513.85 27.328Z" fill="#C6C6C6"/>
</svg>
