<svg width="871" height="91" viewBox="0 0 871 91" fill="none" xmlns="http://www.w3.org/2000/svg">
<path d="M9.40625 60.7812C8.84375 61.0312 8.20312 61.1562 7.48438 61.1562C6.79688 61.1562 6.01562 60.6562 5.14062 59.6562C4.29688 58.6562 3.53125 57.4062 2.84375 55.9062C1.34375 52.5312 0.59375 49.2344 0.59375 46.0156C0.59375 43.9844 0.984375 42.375 1.76562 41.1875C1.76562 41.1875 3.21875 39.5938 6.125 36.4062C7.5 34.8438 8.98438 33.4688 10.5781 32.2812C29.0156 18.8438 47.6875 11.625 66.5938 10.625C69.25 10.4688 71.3125 10.3906 72.7812 10.3906C74.25 10.3906 75.4375 10.6094 76.3438 11.0469C77.2812 11.4531 78.1719 12 79.0156 12.6875C79.8594 13.3438 80.6562 14.0938 81.4062 14.9375C82.1562 15.75 82.8125 16.5625 83.375 17.375C84.5625 19.0312 85.1562 20.2031 85.1562 20.8906C85.1562 21.5781 85.0156 22.3906 84.7344 23.3281C84.4531 24.2344 84.125 25.2344 83.75 26.3281C83.375 27.3906 82.9688 28.4531 82.5312 29.5156L81.5 32.2344C76.8438 44.2656 71.3125 55.5625 64.9062 66.125C62.7812 69.6562 61 72.375 59.5625 74.2812C58.1562 76.2188 56.9688 77.7656 56 78.9219C55.0625 80.0781 54.0469 81.2188 52.9531 82.3438C51.8594 83.4688 50.6875 84.5312 49.4375 85.5312C48.1875 86.5625 46.9062 87.4688 45.5938 88.25C42.7188 89.9375 39.875 90.7812 37.0625 90.7812C35.1875 90.7812 33.0625 89.7969 30.6875 87.8281C28.1875 85.7344 26.9375 83.6094 26.9375 81.4531C26.9375 77.9531 30.3594 72.8438 37.2031 66.125C40.7969 62.5938 44.0625 59.7344 47 57.5469C49.9375 55.3281 52.0625 53.8281 53.375 53.0469C58.2812 43.7656 61.2969 37.9531 62.4219 35.6094L65.0469 30.0312C66.3594 27.125 67.0156 25.3906 67.0156 24.8281C67.0156 23.4219 66.2656 22.7188 64.7656 22.7188C63.2656 22.7188 61.3438 23.0781 59 23.7969C56.6562 24.5156 54.1406 25.5 51.4531 26.75C48.7656 27.9688 45.9688 29.4062 43.0625 31.0625C40.1875 32.6875 37.3594 34.4219 34.5781 36.2656C31.8281 38.0781 29.1875 39.9531 26.6562 41.8906C24.1562 43.8281 21.9375 45.7031 20 47.5156C15.7188 51.4844 13.375 54.5469 12.9688 56.7031C12.5625 58.6406 11.375 60 9.40625 60.7812ZM136.812 45.125C136.812 46.8125 138.25 47.6562 141.125 47.6562C143.25 47.6562 146.031 46.625 149.469 44.5625L153.219 42.5C154.375 41.8438 155.375 41.5156 156.219 41.5156C157.094 41.5156 157.781 41.7812 158.281 42.3125C158.781 42.8438 159.031 43.5781 159.031 44.5156C159.031 45.4531 158.719 46.5469 158.094 47.7969C157.469 49.0156 156.609 50.3125 155.516 51.6875C154.422 53.0312 153.141 54.375 151.672 55.7188C150.203 57.0312 148.625 58.2188 146.938 59.2812C143.188 61.625 139.703 62.7969 136.484 62.7969C133.078 62.7969 130.359 62.2188 128.328 61.0625C127.703 60.6875 127.094 60.2969 126.5 59.8906C123.156 63.7031 118.312 67.2031 111.969 70.3906C105.219 73.7656 99.3281 75.4531 94.2969 75.4531C89.0156 75.4531 84.8438 73.375 81.7812 69.2188C79.3125 65.8438 78.0781 62.4219 78.0781 58.9531C78.0781 53.9531 80.75 49.1875 86.0938 44.6562C90.0312 41.3438 93.8281 38.8281 97.4844 37.1094C101.172 35.3906 104.5 34.0625 107.469 33.125C113.75 31.1562 119.406 30.1719 124.438 30.1719C126.688 30.1719 128.688 30.6094 130.438 31.4844C132.219 32.3281 133.531 33.1875 134.375 34.0625C136.375 36.0312 137.375 38.5469 137.375 41.6094C137.375 42.5156 137.281 43.2188 137.094 43.7188C136.906 44.2188 136.812 44.6875 136.812 45.125ZM98.4688 53.9844L98.4219 54.125V54.1719C98.4219 55.5156 98.7188 56.3906 99.3125 56.7969C100.75 57.6719 102.266 57.9062 103.859 57.5C105.453 57.0625 106.969 56.5312 108.406 55.9062C111.969 54.375 115.188 52.4375 118.062 50.0938C117.562 49.0938 117.312 48.0625 117.312 47C117.312 44.75 118.297 42.5 120.266 40.25C117.766 40.25 114.391 41.4219 110.141 43.7656C105.453 46.3594 101.938 49.0312 99.5938 51.7812C98.8438 52.7188 98.4688 53.4531 98.4688 53.9844ZM148.344 58.5312C147.75 58.5312 147.172 58.3906 146.609 58.1094C146.016 57.8281 145.469 57.375 144.969 56.75C143.875 55.375 143.328 53.5 143.328 51.125C143.328 48.5938 144.844 45.4375 147.875 41.6562C150.812 38 154.234 34.8438 158.141 32.1875C162.328 29.3125 165.922 27.875 168.922 27.875C171.578 27.875 173.375 28.625 174.312 30.125L174.969 31.1562C175.469 31.9375 175.969 32.3281 176.469 32.3281C176.969 32.3281 177.75 32.2812 178.812 32.1875L185.469 31.7188C186.5 31.625 187.312 31.5781 187.906 31.5781C188.5 31.5781 189.172 31.7969 189.922 32.2344C190.703 32.6406 191.391 33.1875 191.984 33.875C193.297 35.4375 193.953 37.1562 193.953 39.0312C193.953 40.9688 191.812 44.0156 187.531 48.1719L184.438 51.2656C182.219 53.5469 181.109 54.9844 181.109 55.5781C181.109 56.1719 181.391 56.7031 181.953 57.1719C182.516 57.6094 183.125 57.8281 183.781 57.8281C184.438 57.8281 185.172 57.6562 185.984 57.3125C186.828 56.9375 187.859 56.4062 189.078 55.7188C190.297 55 191.688 54.1406 193.25 53.1406C197.531 50.3281 200.391 48.3906 201.828 47.3281L205.719 44.5625C208.375 42.6875 210.266 41.75 211.391 41.75C212.516 41.75 213.438 42 214.156 42.5C214.875 42.9688 215.234 43.7969 215.234 44.9844C215.234 46.1719 214.625 47.7656 213.406 49.7656C212.188 51.7656 210.859 53.5 209.422 54.9688C208.016 56.4375 206.641 57.7969 205.297 59.0469C203.953 60.2969 202.359 61.6562 200.516 63.125C198.703 64.5625 196.688 66.0312 194.469 67.5312C192.25 69 189.906 70.3281 187.438 71.5156C181.844 74.2344 176.703 75.5938 172.016 75.5938C165.172 75.5938 161 73.8281 159.5 70.2969C159.031 69.2344 158.797 68.0469 158.797 66.7344C158.797 65.4219 159.047 64.0156 159.547 62.5156C160.047 60.9844 160.703 59.4688 161.516 57.9688C163.141 55 165.062 52.375 167.281 50.0938C169.156 48.125 170.094 46.9531 170.094 46.5781C170.094 45.9844 169.75 45.6094 169.062 45.4531C168.406 45.2969 167.422 45.2188 166.109 45.2188C165.547 45.2188 164.344 46.0312 162.5 47.6562L157.906 51.875C153.031 56.3125 149.844 58.5312 148.344 58.5312ZM286.578 39.3594C287.984 39.3594 288.688 40.0781 288.688 41.5156C288.688 43.7969 287.188 47.0156 284.188 51.1719C282.094 54.0781 277.781 58.1094 271.25 63.2656C263.469 69.3594 257.219 72.4062 252.5 72.4062C248.938 72.4062 246.25 70.9062 244.438 67.9062C243.344 66.0938 242.453 63.4375 241.766 59.9375L237.594 62.9375C226.125 70.875 217.562 74.8438 211.906 74.8438C207.188 74.8438 203.406 73.125 200.562 69.6875C198.062 66.5938 196.812 62.8906 196.812 58.5781C196.812 53.8281 198.438 50.0781 201.688 47.3281C208.312 41.7656 216.547 37.1875 226.391 33.5938C230.391 32.125 232.922 31.3906 233.984 31.3906C235.047 31.3906 236.016 31.5781 236.891 31.9531C237.797 32.2969 238.688 32.75 239.562 33.3125C241.625 34.7188 242.656 36.0781 242.656 37.3906C242.656 38.4531 242 39.3125 240.688 39.9688C240.281 40.1875 239.594 40.4844 238.625 40.8594C237.656 41.2344 236.469 41.75 235.062 42.4062C231.281 44.1875 227.594 46.3438 224 48.875C221.438 51.0625 220.156 52.8125 220.156 54.125C220.156 55.4062 221.062 56.0469 222.875 56.0469C224.375 56.0469 227.375 54.7188 231.875 52.0625C231.875 52.0625 233.203 51.25 235.859 49.625C238.703 47.8438 240.984 46.2188 242.703 44.75C242.703 44.75 243.422 42.4062 244.859 37.7188C247.516 29.3438 250.469 22.4219 253.719 16.9531C259.469 5.92188 265.25 0.40625 271.062 0.40625C273.188 0.40625 274.875 0.796875 276.125 1.57812C278.375 2.98438 279.5 4.54687 279.5 6.26562C279.5 7.95312 279.188 9.75 278.562 11.6562C277.938 13.5625 277.109 15.4531 276.078 17.3281C275.078 19.2031 273.922 21.0625 272.609 22.9062L264.594 33.5C263.25 35.2188 262.062 36.8906 261.031 38.5156C259.219 42.4219 258.312 45.7656 258.312 48.5469C258.312 52.5469 259.766 54.5469 262.672 54.5469C264.328 54.5469 267.312 52.8125 271.625 49.3438L277.156 44.6562C279.75 42.3438 282.312 40.7188 284.844 39.7812C285.562 39.5 286.141 39.3594 286.578 39.3594ZM359.797 38.7969C360.797 38.7969 361.297 39.6406 361.297 41.3281C361.297 44.2344 359.266 48 355.203 52.625L352.531 55.3438C344.438 63.4375 336.812 68.8281 329.656 71.5156C325.219 73.1719 322.031 73.0938 320.094 71.2812C318.5 69.75 317.234 67.2812 316.297 63.875L315.172 59.7969L305.188 65.9375L299.422 69.2188C292.547 72.9688 287.391 74.8438 283.953 74.8438C279.547 74.8438 275.875 73.1406 272.938 69.7344C270.125 66.5156 268.719 62.7812 268.719 58.5312C268.719 54.3438 270.391 50.6094 273.734 47.3281C278.516 42.6406 286.062 38.3438 296.375 34.4375C306.125 30.7812 314 28.9531 320 28.9531C322.031 28.9531 323.047 29.9531 323.047 31.9531C323.047 33.3281 322.781 34.3594 322.25 35.0469C321.719 35.7344 320.625 36.4375 318.969 37.1562L313.062 39.6875C304.312 43.3438 297.906 47.1406 293.844 51.0781C292.688 52.1719 292.109 53.2344 292.109 54.2656C292.109 55.2969 292.938 55.8125 294.594 55.8125C296.219 55.8125 300 54.0625 305.938 50.5625L309.828 48.2656C315.859 44.6406 320.906 42.8281 324.969 42.8281C328.406 42.8281 330.688 44.3438 331.812 47.375C332.094 48.1875 332.359 49.0156 332.609 49.8594C332.859 50.6719 333.109 51.4062 333.359 52.0625C333.922 53.5938 334.422 54.3594 334.859 54.3594C335.328 54.3594 335.984 54.1406 336.828 53.7031C337.672 53.2344 338.594 52.6562 339.594 51.9688C340.625 51.25 341.688 50.4688 342.781 49.625L348.453 45.0781C353.484 40.8906 357.266 38.7969 359.797 38.7969ZM402.266 48.8281C402.266 51.6719 403.094 53.0938 404.75 53.0938C408.812 53.0938 414.094 50.3438 420.594 44.8438L421.859 43.7656C424.391 42.0781 426.438 41.2344 428 41.2344C429.594 41.2344 430.594 41.4688 431 41.9375C431.438 42.4062 431.656 43.1562 431.656 44.1875C431.656 46.5 430.484 48.9531 428.141 51.5469C424.641 55.7969 419.844 59.8281 413.75 63.6406C406.688 68.0781 400.359 70.2969 394.766 70.2969C390.859 70.2969 388.406 68.125 387.406 63.7812C387.125 62.6562 386.922 61.5781 386.797 60.5469C386.484 58.0469 386.156 56.6562 385.812 56.375C385.469 56.0938 384.781 56.125 383.75 56.4688C382.75 56.7812 381.547 57.3281 380.141 58.1094C378.766 58.8594 377.234 59.7812 375.547 60.875C366.609 66.8125 361.469 70.2031 360.125 71.0469C356.906 73.0469 354.734 74.0469 353.609 74.0469C352.484 74.0469 351.375 73.8125 350.281 73.3438C349.219 72.875 348.281 72.2812 347.469 71.5625C345.781 69.9688 344.938 68.3438 344.938 66.6875C344.938 57.2188 347 48.9375 351.125 41.8438C353.875 37.0625 357.25 33.75 361.25 31.9062C363.281 30.9375 365.469 30.4531 367.812 30.4531C372.094 30.4531 374.234 31.8594 374.234 34.6719C374.234 36.3906 373.219 39.2031 371.188 43.1094L369.781 45.875C368.781 47.7812 368.297 48.8594 368.328 49.1094C368.516 50.0469 368.938 50.5156 369.594 50.5156C370.312 50.5156 371.375 49.9844 372.781 48.9219L381.406 42.5L385.719 39.5C390.688 36.25 394.344 34.625 396.688 34.625C397.938 34.625 399.078 35.125 400.109 36.125C402.016 37.9375 402.969 39.5156 402.969 40.8594C402.969 41.2969 402.922 41.8281 402.828 42.4531C402.766 43.0781 402.688 43.75 402.594 44.4688L402.406 46.6719C402.312 47.4219 402.266 48.1406 402.266 48.8281ZM481.484 76.8594C480.359 76.3906 479.203 75.8438 478.016 75.2188C476.859 74.5938 475.5 73.4531 473.938 71.7969C472.406 70.1094 470.969 67.9375 469.625 65.2812C466.438 59.0938 464.844 51.8594 464.844 43.5781C464.844 34.8281 467.188 27.0625 471.875 20.2812C474.812 16.0938 478.094 13.1875 481.719 11.5625C483.562 10.75 485.469 10.3438 487.438 10.3438C489.438 10.3438 491.188 10.7188 492.688 11.4688C494.219 12.1875 495.469 13.0625 496.438 14.0938C497.406 15.0937 498.109 16.1094 498.547 17.1406C499.016 18.1719 499.25 19.2656 499.25 20.4219C499.25 21.5469 498.875 22.7812 498.125 24.125C497.375 25.4688 496.453 26.7031 495.359 27.8281C494.297 28.9531 493.141 30.0312 491.891 31.0625C490.641 32.0625 489.531 33.0938 488.562 34.1562C486.312 38.8125 485.188 43.3438 485.188 47.75C485.188 52.375 486.391 55.8906 488.797 58.2969C489.547 59.0469 490.391 59.5938 491.328 59.9375C494.891 58.7812 500.062 54.3594 506.844 46.6719C511.906 40.6094 515.484 36.1719 517.578 33.3594L522.875 26C527.906 18.75 533.062 13.9375 538.344 11.5625C540.375 10.625 542.312 10.1719 544.156 10.2031C546.031 10.2344 547.516 10.4688 548.609 10.9062C549.734 11.3125 550.656 11.8594 551.375 12.5469C552.75 13.9219 553.438 15.4844 553.438 17.2344C553.438 20.4531 552.344 23.3281 550.156 25.8594C543.594 33.0469 538.594 38.3906 535.156 41.8906L525.406 51.4062L516.5 59.5625C502.781 71.5938 493.25 77.6094 487.906 77.6094C484.781 77.6094 482.641 77.3594 481.484 76.8594ZM606.547 39.5469C608.047 39.5469 608.797 40.3906 608.797 42.0781C608.797 43.2031 608.406 44.625 607.625 46.3438C606.875 48.0312 605.781 49.625 604.344 51.125C602.906 52.5938 601.25 54.125 599.375 55.7188C597.531 57.3125 595.359 58.9844 592.859 60.7344C590.391 62.4844 587.656 64.2188 584.656 65.9375C581.656 67.6562 578.469 69.2031 575.094 70.5781C567.625 73.6406 560.391 75.1719 553.391 75.1719C548.047 75.1719 543.375 73.7812 539.375 71C535.188 68.0938 533.094 64.5625 533.094 60.4062C533.094 53.875 536.609 47.6719 543.641 41.7969C549.703 36.7344 556.844 32.8125 565.062 30.0312C570.062 28.3438 574.297 27.5 577.766 27.5C580.578 27.5 582.953 28.1875 584.891 29.5625C586.953 31.0625 587.984 33.0781 587.984 35.6094C587.984 39.5781 584.844 43.9688 578.562 48.7812C577.562 49.5625 576.656 50.2188 575.844 50.75L574.156 51.875C571.031 54.0625 566.281 56.5156 559.906 59.2344C561.875 60.2656 563.703 60.7812 565.391 60.7812C567.109 60.7812 568.641 60.5781 569.984 60.1719C571.359 59.7656 572.906 59.1875 574.625 58.4375C576.344 57.6875 578.172 56.7969 580.109 55.7656C582.078 54.7031 584.062 53.5469 586.062 52.2969C590.531 49.5156 594.406 46.6719 597.688 43.7656C599.406 42.1719 601.594 40.9062 604.25 39.9688C605.125 39.6875 605.891 39.5469 606.547 39.5469ZM554.844 52.7188L557.422 51.4062C558.266 50.9688 559.016 50.5625 559.672 50.1875C565.984 46.5625 569.578 44.3281 570.453 43.4844C571.328 42.6406 571.766 42.0625 571.766 41.75C571.766 41.4062 571.672 41.0156 571.484 40.5781C571.297 40.1406 571.047 39.75 570.734 39.4062C569.984 38.5312 569.188 38.0938 568.344 38.0938C567.5 38.0938 566.562 38.25 565.531 38.5625C564.531 38.875 563.516 39.3125 562.484 39.875C561.453 40.4062 560.453 41.0625 559.484 41.8438C558.547 42.5938 557.719 43.4062 557 44.2812C555.344 46.25 554.516 47.9531 554.516 49.3906C554.516 50.8281 554.625 51.9375 554.844 52.7188ZM594.969 58.5312C594.375 58.5312 593.797 58.3906 593.234 58.1094C592.641 57.8281 592.094 57.375 591.594 56.75C590.5 55.375 589.953 53.5 589.953 51.125C589.953 48.5938 591.469 45.4375 594.5 41.6562C597.438 38 600.859 34.8438 604.766 32.1875C608.953 29.3125 612.547 27.875 615.547 27.875C618.203 27.875 620 28.625 620.938 30.125L621.594 31.1562C622.094 31.9375 622.594 32.3281 623.094 32.3281C623.594 32.3281 624.375 32.2812 625.438 32.1875L632.094 31.7188C633.125 31.625 633.938 31.5781 634.531 31.5781C635.125 31.5781 635.797 31.7969 636.547 32.2344C637.328 32.6406 638.016 33.1875 638.609 33.875C639.922 35.4375 640.578 37.1562 640.578 39.0312C640.578 40.9688 638.438 44.0156 634.156 48.1719L631.062 51.2656C628.844 53.5469 627.734 54.9844 627.734 55.5781C627.734 56.1719 628.016 56.7031 628.578 57.1719C629.141 57.6094 629.75 57.8281 630.406 57.8281C631.062 57.8281 631.797 57.6562 632.609 57.3125C633.453 56.9375 634.484 56.4062 635.703 55.7188C636.922 55 638.312 54.1406 639.875 53.1406C644.156 50.3281 647.016 48.3906 648.453 47.3281L652.344 44.5625C655 42.6875 656.891 41.75 658.016 41.75C659.141 41.75 660.062 42 660.781 42.5C661.5 42.9688 661.859 43.7969 661.859 44.9844C661.859 46.1719 661.25 47.7656 660.031 49.7656C658.812 51.7656 657.484 53.5 656.047 54.9688C654.641 56.4375 653.266 57.7969 651.922 59.0469C650.578 60.2969 648.984 61.6562 647.141 63.125C645.328 64.5625 643.312 66.0312 641.094 67.5312C638.875 69 636.531 70.3281 634.062 71.5156C628.469 74.2344 623.328 75.5938 618.641 75.5938C611.797 75.5938 607.625 73.8281 606.125 70.2969C605.656 69.2344 605.422 68.0469 605.422 66.7344C605.422 65.4219 605.672 64.0156 606.172 62.5156C606.672 60.9844 607.328 59.4688 608.141 57.9688C609.766 55 611.688 52.375 613.906 50.0938C615.781 48.125 616.719 46.9531 616.719 46.5781C616.719 45.9844 616.375 45.6094 615.688 45.4531C615.031 45.2969 614.047 45.2188 612.734 45.2188C612.172 45.2188 610.969 46.0312 609.125 47.6562L604.531 51.875C599.656 56.3125 596.469 58.5312 594.969 58.5312ZM705.453 48.8281C705.453 51.6719 706.281 53.0938 707.938 53.0938C712 53.0938 717.281 50.3438 723.781 44.8438L725.047 43.7656C727.578 42.0781 729.625 41.2344 731.188 41.2344C732.781 41.2344 733.781 41.4688 734.188 41.9375C734.625 42.4062 734.844 43.1562 734.844 44.1875C734.844 46.5 733.672 48.9531 731.328 51.5469C727.828 55.7969 723.031 59.8281 716.938 63.6406C709.875 68.0781 703.547 70.2969 697.953 70.2969C694.047 70.2969 691.594 68.125 690.594 63.7812C690.312 62.6562 690.109 61.5781 689.984 60.5469C689.672 58.0469 689.344 56.6562 689 56.375C688.656 56.0938 687.969 56.125 686.938 56.4688C685.938 56.7812 684.734 57.3281 683.328 58.1094C681.953 58.8594 680.422 59.7812 678.734 60.875C669.797 66.8125 664.656 70.2031 663.312 71.0469C660.094 73.0469 657.922 74.0469 656.797 74.0469C655.672 74.0469 654.562 73.8125 653.469 73.3438C652.406 72.875 651.469 72.2812 650.656 71.5625C648.969 69.9688 648.125 68.3438 648.125 66.6875C648.125 57.2188 650.188 48.9375 654.312 41.8438C657.062 37.0625 660.438 33.75 664.438 31.9062C666.469 30.9375 668.656 30.4531 671 30.4531C675.281 30.4531 677.422 31.8594 677.422 34.6719C677.422 36.3906 676.406 39.2031 674.375 43.1094L672.969 45.875C671.969 47.7812 671.484 48.8594 671.516 49.1094C671.703 50.0469 672.125 50.5156 672.781 50.5156C673.5 50.5156 674.562 49.9844 675.969 48.9219L684.594 42.5L688.906 39.5C693.875 36.25 697.531 34.625 699.875 34.625C701.125 34.625 702.266 35.125 703.297 36.125C705.203 37.9375 706.156 39.5156 706.156 40.8594C706.156 41.2969 706.109 41.8281 706.016 42.4531C705.953 43.0781 705.875 43.75 705.781 44.4688L705.594 46.6719C705.5 47.4219 705.453 48.1406 705.453 48.8281ZM774.781 45.125C774.781 46.8125 776.219 47.6562 779.094 47.6562C781.219 47.6562 784 46.625 787.438 44.5625L791.188 42.5C792.344 41.8438 793.344 41.5156 794.188 41.5156C795.062 41.5156 795.75 41.7812 796.25 42.3125C796.75 42.8438 797 43.5781 797 44.5156C797 45.4531 796.688 46.5469 796.062 47.7969C795.438 49.0156 794.578 50.3125 793.484 51.6875C792.391 53.0312 791.109 54.375 789.641 55.7188C788.172 57.0312 786.594 58.2188 784.906 59.2812C781.156 61.625 777.672 62.7969 774.453 62.7969C771.047 62.7969 768.328 62.2188 766.297 61.0625C765.672 60.6875 765.062 60.2969 764.469 59.8906C761.125 63.7031 756.281 67.2031 749.938 70.3906C743.188 73.7656 737.297 75.4531 732.266 75.4531C726.984 75.4531 722.812 73.375 719.75 69.2188C717.281 65.8438 716.047 62.4219 716.047 58.9531C716.047 53.9531 718.719 49.1875 724.062 44.6562C728 41.3438 731.797 38.8281 735.453 37.1094C739.141 35.3906 742.469 34.0625 745.438 33.125C751.719 31.1562 757.375 30.1719 762.406 30.1719C764.656 30.1719 766.656 30.6094 768.406 31.4844C770.188 32.3281 771.5 33.1875 772.344 34.0625C774.344 36.0312 775.344 38.5469 775.344 41.6094C775.344 42.5156 775.25 43.2188 775.062 43.7188C774.875 44.2188 774.781 44.6875 774.781 45.125ZM736.438 53.9844L736.391 54.125V54.1719C736.391 55.5156 736.688 56.3906 737.281 56.7969C738.719 57.6719 740.234 57.9062 741.828 57.5C743.422 57.0625 744.938 56.5312 746.375 55.9062C749.938 54.375 753.156 52.4375 756.031 50.0938C755.531 49.0938 755.281 48.0625 755.281 47C755.281 44.75 756.266 42.5 758.234 40.25C755.734 40.25 752.359 41.4219 748.109 43.7656C743.422 46.3594 739.906 49.0312 737.562 51.7812C736.812 52.7188 736.438 53.4531 736.438 53.9844ZM841.016 48.8281C841.016 51.6719 841.844 53.0938 843.5 53.0938C847.562 53.0938 852.844 50.3438 859.344 44.8438L860.609 43.7656C863.141 42.0781 865.188 41.2344 866.75 41.2344C868.344 41.2344 869.344 41.4688 869.75 41.9375C870.188 42.4062 870.406 43.1562 870.406 44.1875C870.406 46.5 869.234 48.9531 866.891 51.5469C863.391 55.7969 858.594 59.8281 852.5 63.6406C845.438 68.0781 839.109 70.2969 833.516 70.2969C829.609 70.2969 827.156 68.125 826.156 63.7812C825.875 62.6562 825.672 61.5781 825.547 60.5469C825.234 58.0469 824.906 56.6562 824.562 56.375C824.219 56.0938 823.531 56.125 822.5 56.4688C821.5 56.7812 820.297 57.3281 818.891 58.1094C817.516 58.8594 815.984 59.7812 814.297 60.875C805.359 66.8125 800.219 70.2031 798.875 71.0469C795.656 73.0469 793.484 74.0469 792.359 74.0469C791.234 74.0469 790.125 73.8125 789.031 73.3438C787.969 72.875 787.031 72.2812 786.219 71.5625C784.531 69.9688 783.688 68.3438 783.688 66.6875C783.688 57.2188 785.75 48.9375 789.875 41.8438C792.625 37.0625 796 33.75 800 31.9062C802.031 30.9375 804.219 30.4531 806.562 30.4531C810.844 30.4531 812.984 31.8594 812.984 34.6719C812.984 36.3906 811.969 39.2031 809.938 43.1094L808.531 45.875C807.531 47.7812 807.047 48.8594 807.078 49.1094C807.266 50.0469 807.688 50.5156 808.344 50.5156C809.062 50.5156 810.125 49.9844 811.531 48.9219L820.156 42.5L824.469 39.5C829.438 36.25 833.094 34.625 835.438 34.625C836.688 34.625 837.828 35.125 838.859 36.125C840.766 37.9375 841.719 39.5156 841.719 40.8594C841.719 41.2969 841.672 41.8281 841.578 42.4531C841.516 43.0781 841.438 43.75 841.344 44.4688L841.156 46.6719C841.062 47.4219 841.016 48.1406 841.016 48.8281Z" fill="#C6C6C6"/>
</svg>
