<svg width="750" height="88" viewBox="0 0 750 88" fill="none" xmlns="http://www.w3.org/2000/svg">
<path d="M32.448 82.104C31.232 84.28 29.408 85.784 26.976 86.616C24.608 87.512 21.888 87.96 18.816 87.96C15.808 87.96 13.6 87.896 12.192 87.768C10.784 87.704 9.28 87.448 7.68 87C6.144 86.616 4.928 86.072 4.032 85.368C1.984 83.64 0.96 80.952 0.96 77.304C0.96 72.056 2.304 69.432 4.992 69.432C5.824 69.432 6.464 69.304 6.912 69.048C8.128 68.472 8.736 66.488 8.736 63.096V13.08C8.736 11.672 10.56 10.296 14.208 8.952C17.92 7.544 21.856 6.84 26.016 6.84C32.352 6.84 35.52 8.344 35.52 11.352V64.44C35.52 68.856 35.328 72.376 34.944 75C34.56 77.624 33.728 79.992 32.448 82.104ZM74.223 75.864C69.423 75.864 65.295 75.448 61.839 74.616C58.383 73.784 55.247 72.312 52.431 70.2C46.607 65.976 43.695 58.104 43.695 46.584C43.695 36.344 46.671 29.016 52.623 24.6C58.191 20.504 65.391 18.456 74.223 18.456C77.999 18.456 81.231 18.648 83.919 19.032C86.607 19.352 89.327 20.088 92.079 21.24C94.895 22.392 97.135 23.96 98.799 25.944C100.527 27.928 101.935 30.68 103.023 34.2C104.111 37.656 104.655 41.784 104.655 46.584C104.655 56.312 101.903 63.64 96.399 68.568C90.895 73.432 83.503 75.864 74.223 75.864ZM70.863 57.144C71.311 59.448 71.759 60.824 72.207 61.272C72.719 61.72 73.359 61.944 74.127 61.944C74.959 61.944 75.599 61.72 76.047 61.272C76.559 60.824 77.007 59.448 77.391 57.144C77.839 54.84 78.063 51.96 78.063 48.504C78.063 44.984 77.967 42.296 77.775 40.44C77.647 38.52 77.455 37.048 77.199 36.024C77.007 35 76.719 34.2 76.335 33.624C75.759 32.792 75.055 32.376 74.223 32.376C73.455 32.376 72.815 32.632 72.303 33.144C71.791 33.592 71.311 35 70.863 37.368C70.415 39.672 70.191 42.968 70.191 47.256C70.191 51.544 70.415 54.84 70.863 57.144ZM138.214 44.664V72.696C138.214 73.4 136.39 73.976 132.742 74.424C129.158 74.808 125.414 75 121.51 75C117.67 75 115.174 74.84 114.022 74.52C112.87 74.136 112.294 73.528 112.294 72.696V25.368C112.294 24.152 114.054 22.84 117.574 21.432C121.158 20.024 125.03 19.32 129.19 19.32C133.414 19.32 135.782 20.472 136.294 22.776L137.254 27.192H137.926C138.822 24.76 140.966 22.712 144.358 21.048C147.75 19.32 151.142 18.456 154.534 18.456C157.926 18.456 160.294 19 161.638 20.088C163.046 21.176 163.75 22.584 163.75 24.312C163.75 25.976 163.622 28.12 163.366 30.744C163.11 33.368 162.47 36.216 161.446 39.288C160.486 42.36 159.206 43.896 157.606 43.896C156.966 43.896 154.95 43.416 151.558 42.456C148.166 41.496 145.35 41.016 143.11 41.016C140.934 41.016 139.558 41.336 138.982 41.976C138.47 42.616 138.214 43.512 138.214 44.664ZM188.512 75.864C186.144 75.864 183.936 75.512 181.888 74.808C179.84 74.104 178.144 73.24 176.8 72.216C175.52 71.192 174.4 69.816 173.44 68.088C172.48 66.36 171.744 64.728 171.232 63.192C170.72 61.592 170.336 59.64 170.08 57.336C169.696 53.944 169.504 50.072 169.504 45.72C169.504 36.824 171.136 30.072 174.4 25.464C177.664 20.792 182.144 18.456 187.84 18.456C193.664 18.456 197.888 19.832 200.512 22.584C201.088 23.224 201.536 23.992 201.856 24.888H202.624L201.472 18.264V6.264C201.472 4.856 203.264 3.48 206.848 2.13599C210.432 0.791996 214.304 0.119997 218.464 0.119997C222.816 0.119997 225.6 0.951998 226.816 2.616C227.264 3.256 227.488 3.896 227.488 4.536V72.696C227.488 73.4 225.696 73.976 222.112 74.424C218.592 74.808 215.168 75 211.84 75C208.576 75 206.464 74.904 205.504 74.712C204.608 74.456 204.032 74.2 203.776 73.944C203.584 73.688 203.456 73.272 203.392 72.696L202.624 67.224H201.856C201.28 69.464 200.128 71.352 198.4 72.888C196.224 74.872 192.928 75.864 188.512 75.864ZM199.264 61.848C200.288 61.848 201.056 61.208 201.568 59.928V34.296C201.568 33.656 201.216 33.176 200.512 32.856C199.872 32.472 199.296 32.28 198.784 32.28C196.608 32.28 195.52 37.272 195.52 47.256C195.52 52.568 195.808 56.344 196.384 58.584C197.024 60.76 197.984 61.848 199.264 61.848ZM254.374 75.864C248.55 75.864 243.974 74.488 240.646 71.736C239.302 70.584 238.118 68.888 237.094 66.648C236.134 64.408 235.654 61.784 235.654 58.776C235.654 55.768 236.358 53.144 237.766 50.904C239.238 48.664 240.998 46.936 243.046 45.72C245.094 44.504 247.494 43.512 250.246 42.744C254.406 41.656 258.982 41.112 263.974 41.112H267.142C267.142 38.488 266.246 36.632 264.454 35.544C263.686 35.096 262.502 34.872 260.902 34.872C259.366 34.872 257.478 35.288 255.238 36.12C253.062 36.952 251.238 37.816 249.766 38.712C248.294 39.544 247.302 39.96 246.79 39.96C245.638 39.96 244.07 38.456 242.086 35.448C240.102 32.376 239.11 29.592 239.11 27.096C239.11 26.264 240.294 25.176 242.662 23.832C245.03 22.488 248.358 21.272 252.646 20.184C256.998 19.032 261.222 18.456 265.318 18.456C269.414 18.456 272.934 18.808 275.878 19.512C278.886 20.152 281.318 20.952 283.174 21.912C285.094 22.872 286.694 24.152 287.974 25.752C289.318 27.352 290.31 28.792 290.95 30.072C291.654 31.352 292.166 33.016 292.486 35.064C292.934 37.432 293.158 40.344 293.158 43.8V72.696C293.158 73.4 291.43 73.976 287.974 74.424C284.582 74.808 281.19 75 277.798 75C274.47 75 272.294 74.904 271.27 74.712C270.31 74.52 269.734 74.296 269.542 74.04C269.35 73.784 269.19 73.336 269.062 72.696L268.294 67.224H267.526C265.926 72.984 261.542 75.864 254.374 75.864ZM267.238 59.928V48.696C265.574 48.696 264.23 49.4 263.206 50.808C262.182 52.216 261.67 53.816 261.67 55.608C261.67 59.832 262.63 61.944 264.55 61.944C265.382 61.944 266.022 61.752 266.47 61.368C266.982 60.92 267.238 60.44 267.238 59.928ZM359.692 43.128V72.696C359.692 73.4 357.868 73.976 354.22 74.424C350.572 74.808 346.796 75 342.892 75C339.052 75 336.556 74.84 335.404 74.52C334.316 74.136 333.772 73.528 333.772 72.696V42.168C333.772 39.288 333.644 37.4 333.388 36.504C333.196 35.608 333.004 34.808 332.812 34.104C332.364 32.888 331.564 32.28 330.412 32.28C328.62 32.28 327.724 33.144 327.724 34.872V72.696C327.724 73.4 325.9 73.976 322.252 74.424C318.668 74.808 314.924 75 311.02 75C307.18 75 304.684 74.84 303.532 74.52C302.38 74.136 301.804 73.528 301.804 72.696V25.368C301.804 24.024 303.628 22.68 307.276 21.336C310.988 19.992 314.892 19.32 318.988 19.32C323.084 19.32 325.388 20.504 325.9 22.872L326.764 27.096H327.436C329.292 23.384 332.492 20.792 337.036 19.32C338.892 18.744 340.94 18.456 343.18 18.456C349.644 18.456 353.996 20.408 356.236 24.312C358.54 28.152 359.692 34.424 359.692 43.128ZM389.4 13.656C389.4 12.888 390.232 11.992 391.896 10.968C393.56 9.88 395.896 8.92 398.904 8.088C401.976 7.256 405.304 6.84 408.888 6.84C412.472 6.84 415.096 7.352 416.76 8.376C418.424 9.4 419.32 10.52 419.448 11.736L422.808 46.68H424.152L427.128 12.6C427.32 10.808 429.496 9.4 433.656 8.376C437.816 7.352 441.688 6.84 445.272 6.84C448.856 6.84 451.512 7.16 453.24 7.8C454.968 8.376 456.056 8.984 456.504 9.62399C457.016 10.264 457.272 10.872 457.272 11.448C457.272 11.96 456.792 13.464 455.832 15.96C454.936 18.392 453.976 21.016 452.952 23.832C449.56 32.792 443.832 48.856 435.768 72.024C435.064 74.008 429.56 75 419.256 75C416.056 75 413.944 74.776 412.92 74.328C411.896 73.88 411.192 73.112 410.808 72.024C407.032 61.144 402.52 48.792 397.272 34.968C392.024 21.144 389.4 14.04 389.4 13.656ZM488.718 53.304C488.718 57.464 490.702 59.544 494.67 59.544C496.974 59.544 499.982 58.776 503.694 57.24C507.406 55.64 509.358 54.84 509.55 54.84C510.766 54.84 512.366 56.664 514.35 60.312C516.334 63.96 517.326 66.648 517.326 68.376C517.326 70.872 514.766 72.76 509.646 74.04C504.526 75.32 499.502 75.96 494.574 75.96C489.71 75.96 485.614 75.576 482.286 74.808C479.022 74.04 476.334 73.08 474.222 71.928C472.174 70.712 470.35 69.24 468.75 67.512C467.214 65.784 466.062 64.152 465.294 62.616C464.526 61.016 463.918 59.256 463.47 57.336C462.83 54.52 462.51 51.608 462.51 48.6C462.51 36.952 465.55 28.92 471.63 24.504C474.638 22.264 477.998 20.696 481.71 19.8C485.422 18.904 489.806 18.456 494.862 18.456C511.054 18.456 519.15 24.088 519.15 35.352C519.15 47.32 510.062 53.304 491.886 53.304H488.718ZM488.526 39.288V45.624C490.382 45.624 491.886 44.888 493.038 43.416C494.254 41.944 494.862 40.152 494.862 38.04C494.862 34.2 493.87 32.28 491.886 32.28C489.646 32.28 488.526 34.616 488.526 39.288ZM552.716 44.664V72.696C552.716 73.4 550.892 73.976 547.244 74.424C543.66 74.808 539.916 75 536.012 75C532.172 75 529.676 74.84 528.524 74.52C527.372 74.136 526.796 73.528 526.796 72.696V25.368C526.796 24.152 528.556 22.84 532.076 21.432C535.66 20.024 539.532 19.32 543.692 19.32C547.916 19.32 550.284 20.472 550.796 22.776L551.756 27.192H552.428C553.324 24.76 555.468 22.712 558.86 21.048C562.252 19.32 565.644 18.456 569.036 18.456C572.428 18.456 574.796 19 576.14 20.088C577.548 21.176 578.252 22.584 578.252 24.312C578.252 25.976 578.124 28.12 577.868 30.744C577.612 33.368 576.972 36.216 575.948 39.288C574.988 42.36 573.708 43.896 572.108 43.896C571.468 43.896 569.452 43.416 566.06 42.456C562.668 41.496 559.852 41.016 557.612 41.016C555.436 41.016 554.06 41.336 553.484 41.976C552.972 42.616 552.716 43.512 552.716 44.664ZM642.854 43.128V72.696C642.854 73.4 641.03 73.976 637.382 74.424C633.734 74.808 629.958 75 626.054 75C622.214 75 619.718 74.84 618.566 74.52C617.478 74.136 616.934 73.528 616.934 72.696V42.168C616.934 39.288 616.806 37.4 616.55 36.504C616.358 35.608 616.166 34.808 615.974 34.104C615.526 32.888 614.726 32.28 613.574 32.28C611.782 32.28 610.886 33.144 610.886 34.872V72.696C610.886 73.4 609.062 73.976 605.414 74.424C601.83 74.808 598.086 75 594.182 75C590.342 75 587.846 74.84 586.694 74.52C585.542 74.136 584.966 73.528 584.966 72.696V25.368C584.966 24.024 586.79 22.68 590.438 21.336C594.15 19.992 598.054 19.32 602.15 19.32C606.246 19.32 608.55 20.504 609.062 22.872L609.926 27.096H610.598C612.454 23.384 615.654 20.792 620.198 19.32C622.054 18.744 624.102 18.456 626.342 18.456C632.806 18.456 637.158 20.408 639.398 24.312C641.702 28.152 642.854 34.424 642.854 43.128ZM681.048 75.864C676.248 75.864 672.12 75.448 668.664 74.616C665.208 73.784 662.072 72.312 659.256 70.2C653.432 65.976 650.52 58.104 650.52 46.584C650.52 36.344 653.496 29.016 659.448 24.6C665.016 20.504 672.216 18.456 681.048 18.456C684.824 18.456 688.056 18.648 690.744 19.032C693.432 19.352 696.152 20.088 698.904 21.24C701.72 22.392 703.96 23.96 705.624 25.944C707.352 27.928 708.76 30.68 709.848 34.2C710.936 37.656 711.48 41.784 711.48 46.584C711.48 56.312 708.728 63.64 703.224 68.568C697.72 73.432 690.328 75.864 681.048 75.864ZM677.688 57.144C678.136 59.448 678.584 60.824 679.032 61.272C679.544 61.72 680.184 61.944 680.952 61.944C681.784 61.944 682.424 61.72 682.872 61.272C683.384 60.824 683.832 59.448 684.216 57.144C684.664 54.84 684.888 51.96 684.888 48.504C684.888 44.984 684.792 42.296 684.6 40.44C684.472 38.52 684.28 37.048 684.024 36.024C683.832 35 683.544 34.2 683.16 33.624C682.584 32.792 681.88 32.376 681.048 32.376C680.28 32.376 679.64 32.632 679.128 33.144C678.616 33.592 678.136 35 677.688 37.368C677.24 39.672 677.016 42.968 677.016 47.256C677.016 51.544 677.24 54.84 677.688 57.144ZM777.007 43.128V72.696C777.007 73.4 775.183 73.976 771.535 74.424C767.887 74.808 764.111 75 760.207 75C756.367 75 753.871 74.84 752.719 74.52C751.631 74.136 751.087 73.528 751.087 72.696V42.168C751.087 39.288 750.959 37.4 750.703 36.504C750.511 35.608 750.319 34.808 750.127 34.104C749.679 32.888 748.879 32.28 747.727 32.28C745.935 32.28 745.039 33.144 745.039 34.872V72.696C745.039 73.4 743.215 73.976 739.567 74.424C735.983 74.808 732.239 75 728.335 75C724.495 75 721.999 74.84 720.847 74.52C719.695 74.136 719.119 73.528 719.119 72.696V25.368C719.119 24.024 720.943 22.68 724.591 21.336C728.303 19.992 732.207 19.32 736.303 19.32C740.399 19.32 742.703 20.504 743.215 22.872L744.079 27.096H744.751C746.607 23.384 749.807 20.792 754.351 19.32C756.207 18.744 758.255 18.456 760.495 18.456C766.959 18.456 771.311 20.408 773.551 24.312C775.855 28.152 777.007 34.424 777.007 43.128Z" fill="#C6C6C6"/>
</svg>
