<svg width="423" height="52" viewBox="0 0 423 52" fill="none" xmlns="http://www.w3.org/2000/svg">
<path d="M6.052 38.216C6.052 39.984 6.27867 41.6613 6.732 43.248C7.23067 44.7893 7.86533 46.1493 8.636 47.328C9.452 48.4613 10.3813 49.368 11.424 50.048C12.512 50.6827 13.6453 51 14.824 51C16.048 51 17.1813 50.7053 18.224 50.116C19.312 49.4813 20.2413 48.6653 21.012 47.668C21.828 46.6253 22.4627 45.4467 22.916 44.132C23.4147 42.772 23.664 41.3667 23.664 39.916H25.024V11.152C25.024 9.47466 25.0013 8.18267 24.956 7.276C24.9107 6.324 24.7973 5.62133 24.616 5.168C24.4347 4.71467 24.1627 4.44266 23.8 4.352C23.4373 4.216 22.9387 4.12533 22.304 4.08V3.4H33.184V4.08C32.5493 4.12533 32.0507 4.216 31.688 4.352C31.3253 4.44266 31.0533 4.71467 30.872 5.168C30.6907 5.62133 30.5773 6.324 30.532 7.276C30.4867 8.18267 30.464 9.47466 30.464 11.152V43.248C30.464 44.9253 30.4867 46.24 30.532 47.192C30.5773 48.0987 30.6907 48.7787 30.872 49.232C31.0533 49.6853 31.3253 49.98 31.688 50.116C32.0507 50.2067 32.5493 50.2747 33.184 50.32V51H22.304V50.32C22.9387 50.2747 23.4373 50.2067 23.8 50.116C24.1627 49.98 24.4347 49.6853 24.616 49.232C24.7973 48.7787 24.9107 48.0987 24.956 47.192C25.0013 46.24 25.024 44.9253 25.024 43.248V40.596H24.344C24.2987 42.0013 24.004 43.384 23.46 44.744C22.9613 46.0587 22.2813 47.2373 21.42 48.28C20.604 49.2773 19.6293 50.0933 18.496 50.728C17.3627 51.3627 16.1387 51.68 14.824 51.68C13.0107 51.68 11.2427 51.34 9.52 50.66C7.79733 49.9347 6.27867 48.9827 4.964 47.804C3.69467 46.58 2.652 45.152 1.836 43.52C1.06533 41.888 0.68 40.12 0.68 38.216H6.052ZM35.9231 34.068C35.9231 31.5747 36.3991 29.2627 37.3511 27.132C38.3485 24.956 39.6631 23.0747 41.2951 21.488C42.9725 19.9013 44.9218 18.6547 47.1431 17.748C49.3645 16.8413 51.6991 16.388 54.1471 16.388C56.5951 16.388 58.9071 16.8413 61.0831 17.748C63.3045 18.6547 65.2311 19.9013 66.8631 21.488C68.5405 23.0293 69.8778 24.8653 70.8751 26.996C71.8725 29.1267 72.3711 31.4387 72.3711 33.932C72.3711 36.4253 71.8725 38.76 70.8751 40.936C69.9231 43.0667 68.6085 44.9253 66.9311 46.512C65.2538 48.0533 63.3045 49.2773 61.0831 50.184C58.9071 51.0907 56.5951 51.544 54.1471 51.544C51.7445 51.544 49.4325 51.1133 47.2111 50.252C45.0351 49.3453 43.1085 48.1213 41.4311 46.58C39.7538 44.9933 38.4165 43.1347 37.4191 41.004C36.4218 38.8733 35.9231 36.5613 35.9231 34.068ZM41.3631 33.932C41.3631 36.244 41.6578 38.42 42.2471 40.46C42.8818 42.5 43.7658 44.2907 44.8991 45.832C46.0325 47.3733 47.3698 48.5973 48.9111 49.504C50.4978 50.4107 52.2431 50.864 54.1471 50.864C56.0511 50.864 57.7738 50.4107 59.3151 49.504C60.9018 48.5973 62.2618 47.3733 63.3951 45.832C64.5285 44.2907 65.3898 42.5 65.9791 40.46C66.6138 38.42 66.9311 36.244 66.9311 33.932C66.9311 31.62 66.6138 29.444 65.9791 27.404C65.3445 25.364 64.4605 23.596 63.3271 22.1C62.2391 20.5587 60.9018 19.3347 59.3151 18.428C57.7738 17.5213 56.0511 17.068 54.1471 17.068C52.2431 17.068 50.4978 17.5213 48.9111 18.428C47.3698 19.3347 46.0325 20.5587 44.8991 22.1C43.8111 23.596 42.9498 25.364 42.3151 27.404C41.6805 29.444 41.3631 31.62 41.3631 33.932ZM82.5642 16.388V27.472H83.2442C83.2896 26.2933 83.4936 25.0467 83.8562 23.732C84.2189 22.4173 84.7402 21.216 85.4202 20.128C86.1002 19.04 86.9389 18.156 87.9362 17.476C88.9336 16.7507 90.0896 16.388 91.4042 16.388C93.1722 16.388 94.7589 16.7053 96.1642 17.34C97.6149 17.9747 98.8162 18.836 99.7682 19.924C100.766 20.9667 101.514 22.1907 102.012 23.596C102.556 24.956 102.828 26.4067 102.828 27.948H97.3882C97.3882 24.82 96.8669 22.236 95.8242 20.196C94.7816 18.1107 93.3082 17.068 91.4042 17.068C90.1802 17.068 89.0922 17.4307 88.1402 18.156C87.2336 18.8813 86.4629 19.8107 85.8282 20.944C85.1936 22.032 84.7176 23.2333 84.4002 24.548C84.0829 25.8173 83.9242 27.0187 83.9242 28.152H82.5642V43.248C82.5642 44.9253 82.5869 46.24 82.6322 47.192C82.6776 48.0987 82.7909 48.7787 82.9722 49.232C83.1536 49.6853 83.4256 49.98 83.7882 50.116C84.1509 50.2067 84.6496 50.2747 85.2842 50.32V51H74.4042V50.32C75.0389 50.2747 75.5376 50.2067 75.9002 50.116C76.2629 49.98 76.5349 49.6853 76.7162 49.232C76.8976 48.7787 77.0109 48.0987 77.0562 47.192C77.1016 46.24 77.1242 44.9253 77.1242 43.248V19.924C76.6256 20.06 76.0816 20.1507 75.4922 20.196C74.9482 20.2413 74.3589 20.264 73.7242 20.264V19.584C74.9936 19.584 76.3309 19.3573 77.7362 18.904C79.1869 18.4507 80.5696 17.612 81.8842 16.388H82.5642ZM128.565 39.78V26.112C128.565 24.9787 128.315 23.868 127.817 22.78C127.363 21.692 126.729 20.74 125.913 19.924C125.142 19.0627 124.213 18.3827 123.125 17.884C122.082 17.34 120.949 17.068 119.725 17.068C118.319 17.068 117.073 17.4987 115.985 18.36C114.942 19.2213 114.035 20.4227 113.265 21.964C112.539 23.5053 111.973 25.296 111.565 27.336C111.202 29.376 111.021 31.5973 111.021 34C111.021 36.3573 111.202 38.5787 111.565 40.664C111.973 42.704 112.539 44.4947 113.265 46.036C114.035 47.532 114.965 48.7107 116.053 49.572C117.141 50.4333 118.365 50.864 119.725 50.864C120.949 50.864 122.014 50.5013 122.921 49.776C123.873 49.0507 124.666 48.144 125.301 47.056C125.935 45.9227 126.411 44.7213 126.729 43.452C127.046 42.1373 127.205 40.9133 127.205 39.78H128.565ZM119.725 51.544C117.458 51.544 115.441 51.0907 113.673 50.184C111.95 49.2773 110.477 48.0533 109.253 46.512C108.074 44.9253 107.167 43.0667 106.533 40.936C105.898 38.8053 105.581 36.4933 105.581 34C105.581 31.5067 105.875 29.1947 106.465 27.064C107.099 24.888 108.006 23.0293 109.185 21.488C110.409 19.9013 111.905 18.6547 113.673 17.748C115.441 16.8413 117.458 16.388 119.725 16.388C121.81 16.388 123.623 17 125.165 18.224C126.751 19.448 127.885 20.9213 128.565 22.644V3.536C128.066 3.672 127.522 3.76266 126.933 3.808C126.389 3.85333 125.799 3.876 125.165 3.876V3.196C126.434 3.196 127.771 2.96933 129.177 2.516C130.627 2.06266 132.01 1.224 133.325 -4.05312e-06H134.005V43.248C134.005 44.9253 134.027 46.24 134.073 47.192C134.118 48.0987 134.231 48.7787 134.413 49.232C134.594 49.6853 134.866 49.98 135.229 50.116C135.591 50.2067 136.09 50.2747 136.725 50.32V51H125.845V50.32C126.479 50.2747 126.978 50.2067 127.341 50.116C127.703 49.98 127.975 49.6853 128.157 49.232C128.338 48.7787 128.451 48.0987 128.497 47.192C128.542 46.24 128.565 44.9253 128.565 43.248V40.46H127.885C127.839 41.6387 127.635 42.8853 127.273 44.2C126.91 45.5147 126.389 46.716 125.709 47.804C125.029 48.892 124.19 49.7987 123.193 50.524C122.195 51.204 121.039 51.544 119.725 51.544ZM159.336 31.348C159.109 31.348 158.86 31.3707 158.588 31.416C158.361 31.416 158.134 31.416 157.908 31.416C158.406 32.7307 158.656 34.3853 158.656 36.38C158.656 37.9213 158.497 39.576 158.18 41.344C157.862 43.112 157.318 44.7667 156.548 46.308C155.822 47.804 154.848 49.0507 153.624 50.048C152.4 51.0453 150.904 51.544 149.136 51.544C147.64 51.544 146.257 51.408 144.988 51.136C143.764 50.864 142.676 50.388 141.724 49.708C140.817 49.028 140.092 48.0987 139.548 46.92C139.049 45.7413 138.8 44.2453 138.8 42.432C138.8 40.3467 139.298 38.6013 140.296 37.196C141.338 35.7453 142.698 34.5667 144.376 33.66C146.053 32.7533 147.98 32.0733 150.156 31.62C152.332 31.1667 154.576 30.872 156.888 30.736C155.301 27.4267 152.06 25.7493 147.164 25.704H142.404C142.404 24.3893 142.608 23.1653 143.016 22.032C143.424 20.8987 144.081 19.924 144.988 19.108C145.94 18.2467 147.118 17.5893 148.524 17.136C149.974 16.6373 151.72 16.388 153.76 16.388C155.12 16.388 156.457 16.5467 157.772 16.864C159.086 17.1813 160.265 17.748 161.308 18.564C162.35 19.38 163.189 20.5133 163.824 21.964C164.458 23.4147 164.776 25.2733 164.776 27.54V40.46C164.776 42.636 164.821 44.4267 164.912 45.832C165.002 47.192 165.138 48.2573 165.32 49.028C165.501 49.7533 165.728 50.252 166 50.524C166.272 50.7507 166.589 50.864 166.952 50.864C167.994 50.8187 168.765 50.2747 169.264 49.232C169.762 48.144 170.125 46.9427 170.352 45.628L170.964 45.764C170.782 46.58 170.601 47.3507 170.42 48.076C170.238 48.8013 169.944 49.4133 169.536 49.912C169.173 50.4107 168.652 50.796 167.972 51.068C167.292 51.3853 166.408 51.544 165.32 51.544C163.96 51.544 162.872 51.34 162.056 50.932C161.285 50.4787 160.696 49.7987 160.288 48.892C159.88 47.9853 159.608 46.852 159.472 45.492C159.381 44.0867 159.336 42.4093 159.336 40.46V31.348ZM159.336 27.54C159.336 25.364 159.177 23.596 158.86 22.236C158.542 20.8307 158.112 19.7653 157.568 19.04C157.069 18.2693 156.48 17.748 155.8 17.476C155.12 17.204 154.44 17.068 153.76 17.068C151.765 17.068 150.292 17.8387 149.34 19.38C148.433 20.876 147.934 22.7573 147.844 25.024C152.83 25.296 156.094 27.2 157.636 30.736C157.908 30.736 158.18 30.736 158.452 30.736C158.769 30.6907 159.064 30.668 159.336 30.668V27.54ZM157.16 31.416C152.672 31.7787 149.385 32.9347 147.3 34.884C145.26 36.8333 144.24 39.8027 144.24 43.792C144.24 44.336 144.33 45.016 144.512 45.832C144.693 46.6027 144.965 47.3733 145.328 48.144C145.736 48.8693 146.257 49.504 146.892 50.048C147.526 50.592 148.274 50.864 149.136 50.864C150.768 50.864 152.15 50.388 153.284 49.436C154.417 48.4387 155.324 47.2147 156.004 45.764C156.729 44.268 157.228 42.6813 157.5 41.004C157.817 39.3267 157.976 37.7853 157.976 36.38C157.976 34.476 157.704 32.8213 157.16 31.416ZM181.207 16.388V27.472H181.887C181.932 26.2933 182.136 25.0467 182.499 23.732C182.861 22.4173 183.383 21.216 184.063 20.128C184.743 19.04 185.581 18.156 186.579 17.476C187.576 16.7507 188.732 16.388 190.047 16.388C191.407 16.388 192.699 16.5467 193.923 16.864C195.192 17.1813 196.303 17.748 197.255 18.564C198.207 19.38 198.955 20.5133 199.499 21.964C200.088 23.4147 200.383 25.2733 200.383 27.54V40.46C200.383 42.636 200.428 44.4267 200.519 45.832C200.609 47.192 200.745 48.2573 200.927 49.028C201.108 49.7533 201.335 50.252 201.607 50.524C201.879 50.7507 202.196 50.864 202.559 50.864C203.601 50.8187 204.372 50.2747 204.871 49.232C205.369 48.144 205.732 46.9427 205.959 45.628L206.571 45.764C206.389 46.58 206.208 47.3507 206.027 48.076C205.845 48.8013 205.551 49.4133 205.143 49.912C204.78 50.4107 204.259 50.796 203.579 51.068C202.899 51.3853 202.015 51.544 200.927 51.544C199.567 51.544 198.479 51.34 197.663 50.932C196.892 50.4787 196.303 49.7987 195.895 48.892C195.487 47.9853 195.215 46.852 195.079 45.492C194.988 44.0867 194.943 42.4093 194.943 40.46V27.54C194.943 25.364 194.807 23.596 194.535 22.236C194.308 20.8307 193.968 19.7653 193.515 19.04C193.107 18.2693 192.585 17.748 191.951 17.476C191.361 17.204 190.727 17.068 190.047 17.068C188.823 17.068 187.735 17.4307 186.783 18.156C185.876 18.8813 185.105 19.8107 184.471 20.944C183.836 22.032 183.36 23.2333 183.043 24.548C182.725 25.8173 182.567 27.0187 182.567 28.152H181.207V43.248C181.207 44.9253 181.229 46.24 181.275 47.192C181.32 48.0987 181.433 48.7787 181.615 49.232C181.796 49.6853 182.068 49.98 182.431 50.116C182.793 50.2067 183.292 50.2747 183.927 50.32V51H173.047V50.32C173.681 50.2747 174.18 50.2067 174.543 50.116C174.905 49.98 175.177 49.6853 175.359 49.232C175.54 48.7787 175.653 48.0987 175.699 47.192C175.744 46.24 175.767 44.9253 175.767 43.248V19.924C175.268 20.06 174.724 20.1507 174.135 20.196C173.591 20.2413 173.001 20.264 172.367 20.264V19.584C173.636 19.584 174.973 19.3573 176.379 18.904C177.829 18.4507 179.212 17.612 180.527 16.388H181.207ZM244.544 51L232.372 10.064C231.919 8.65866 231.534 7.57067 231.216 6.8C230.944 5.984 230.65 5.39466 230.332 5.032C230.06 4.66933 229.743 4.44266 229.38 4.352C229.018 4.216 228.519 4.12533 227.884 4.08L227.68 3.4H240.6L240.804 4.08C239.852 4.12533 239.082 4.216 238.492 4.352C237.903 4.44266 237.495 4.692 237.268 5.1C237.042 5.508 236.974 6.12 237.064 6.936C237.2 7.752 237.495 8.908 237.948 10.404L247.264 41.82L256.58 10.404C257.034 8.908 257.306 7.752 257.396 6.936C257.532 6.12 257.487 5.508 257.26 5.1C257.034 4.692 256.626 4.44266 256.036 4.352C255.447 4.216 254.676 4.12533 253.724 4.08L253.928 3.4H262.088L261.884 4.08C261.295 4.12533 260.796 4.216 260.388 4.352C260.026 4.44266 259.686 4.66933 259.368 5.032C259.096 5.39466 258.802 5.984 258.484 6.8C258.212 7.57067 257.85 8.65866 257.396 10.064L247.604 42.976L248.692 46.58C247.65 46.58 246.811 47.056 246.176 48.008C245.542 48.96 245.224 49.9573 245.224 51H244.544ZM272.154 51.544C269.887 51.544 267.87 51.0907 266.102 50.184C264.379 49.2773 262.906 48.0533 261.682 46.512C260.503 44.9253 259.596 43.0667 258.962 40.936C258.327 38.8053 258.01 36.4933 258.01 34C258.01 31.5067 258.304 29.1947 258.894 27.064C259.528 24.888 260.435 23.0293 261.614 21.488C262.838 19.9013 264.334 18.6547 266.102 17.748C267.87 16.8413 269.887 16.388 272.154 16.388C273.922 16.388 275.554 16.728 277.05 17.408C278.546 18.0427 279.792 19.0173 280.79 20.332C281.832 21.6013 282.603 23.1653 283.102 25.024C283.6 26.8373 283.759 28.9453 283.578 31.348H278.342C277.118 31.348 275.78 31.4613 274.33 31.688C272.924 31.8693 271.587 32.3 270.318 32.98C269.094 33.6147 268.051 34.5667 267.19 35.836C266.374 37.1053 265.966 38.8053 265.966 40.936H264.062C264.696 43.928 265.694 46.3307 267.054 48.144C268.414 49.9573 270.114 50.864 272.154 50.864C273.423 50.864 274.624 50.728 275.758 50.456C276.891 50.1387 277.911 49.6627 278.818 49.028C279.77 48.3933 280.586 47.5547 281.266 46.512C281.991 45.424 282.535 44.1093 282.898 42.568L283.578 42.704C283.17 44.6533 282.512 46.2173 281.606 47.396C280.744 48.5747 279.77 49.4813 278.682 50.116C277.594 50.7053 276.46 51.0907 275.282 51.272C274.148 51.4533 273.106 51.544 272.154 51.544ZM272.154 17.068C270.748 17.068 269.502 17.4987 268.414 18.36C267.371 19.2213 266.464 20.4227 265.694 21.964C264.968 23.5053 264.402 25.296 263.994 27.336C263.631 29.376 263.45 31.5973 263.45 34C263.45 35.1333 263.495 36.2213 263.586 37.264C263.676 38.3067 263.812 39.304 263.994 40.256H265.286C265.376 38.1253 265.852 36.448 266.714 35.224C267.575 33.9547 268.64 32.98 269.91 32.3C271.179 31.62 272.562 31.1893 274.058 31.008C275.554 30.7813 276.936 30.668 278.206 30.668C278.432 26.3613 277.956 23.0293 276.778 20.672C275.599 18.2693 274.058 17.068 272.154 17.068ZM294.557 16.388V27.472H295.237C295.282 26.2933 295.486 25.0467 295.849 23.732C296.212 22.4173 296.733 21.216 297.413 20.128C298.093 19.04 298.932 18.156 299.929 17.476C300.926 16.7507 302.082 16.388 303.397 16.388C305.165 16.388 306.752 16.7053 308.157 17.34C309.608 17.9747 310.809 18.836 311.761 19.924C312.758 20.9667 313.506 22.1907 314.005 23.596C314.549 24.956 314.821 26.4067 314.821 27.948H309.381C309.381 24.82 308.86 22.236 307.817 20.196C306.774 18.1107 305.301 17.068 303.397 17.068C302.173 17.068 301.085 17.4307 300.133 18.156C299.226 18.8813 298.456 19.8107 297.821 20.944C297.186 22.032 296.71 23.2333 296.393 24.548C296.076 25.8173 295.917 27.0187 295.917 28.152H294.557V43.248C294.557 44.9253 294.58 46.24 294.625 47.192C294.67 48.0987 294.784 48.7787 294.965 49.232C295.146 49.6853 295.418 49.98 295.781 50.116C296.144 50.2067 296.642 50.2747 297.277 50.32V51H286.397V50.32C287.032 50.2747 287.53 50.2067 287.893 50.116C288.256 49.98 288.528 49.6853 288.709 49.232C288.89 48.7787 289.004 48.0987 289.049 47.192C289.094 46.24 289.117 44.9253 289.117 43.248V19.924C288.618 20.06 288.074 20.1507 287.485 20.196C286.941 20.2413 286.352 20.264 285.717 20.264V19.584C286.986 19.584 288.324 19.3573 289.729 18.904C291.18 18.4507 292.562 17.612 293.877 16.388H294.557ZM325.733 16.388V27.472H326.413C326.459 26.2933 326.663 25.0467 327.025 23.732C327.388 22.4173 327.909 21.216 328.589 20.128C329.269 19.04 330.108 18.156 331.105 17.476C332.103 16.7507 333.259 16.388 334.573 16.388C335.933 16.388 337.225 16.5467 338.449 16.864C339.719 17.1813 340.829 17.748 341.781 18.564C342.733 19.38 343.481 20.5133 344.025 21.964C344.615 23.4147 344.909 25.2733 344.909 27.54V40.46C344.909 42.636 344.955 44.4267 345.045 45.832C345.136 47.192 345.272 48.2573 345.453 49.028C345.635 49.7533 345.861 50.252 346.133 50.524C346.405 50.7507 346.723 50.864 347.085 50.864C348.128 50.8187 348.899 50.2747 349.397 49.232C349.896 48.144 350.259 46.9427 350.485 45.628L351.097 45.764C350.916 46.58 350.735 47.3507 350.553 48.076C350.372 48.8013 350.077 49.4133 349.669 49.912C349.307 50.4107 348.785 50.796 348.105 51.068C347.425 51.3853 346.541 51.544 345.453 51.544C344.093 51.544 343.005 51.34 342.189 50.932C341.419 50.4787 340.829 49.7987 340.421 48.892C340.013 47.9853 339.741 46.852 339.605 45.492C339.515 44.0867 339.469 42.4093 339.469 40.46V27.54C339.469 25.364 339.333 23.596 339.061 22.236C338.835 20.8307 338.495 19.7653 338.041 19.04C337.633 18.2693 337.112 17.748 336.477 17.476C335.888 17.204 335.253 17.068 334.573 17.068C333.349 17.068 332.261 17.4307 331.309 18.156C330.403 18.8813 329.632 19.8107 328.997 20.944C328.363 22.032 327.887 23.2333 327.569 24.548C327.252 25.8173 327.093 27.0187 327.093 28.152H325.733V43.248C325.733 44.9253 325.756 46.24 325.801 47.192C325.847 48.0987 325.96 48.7787 326.141 49.232C326.323 49.6853 326.595 49.98 326.957 50.116C327.32 50.2067 327.819 50.2747 328.453 50.32V51H317.573V50.32C318.208 50.2747 318.707 50.2067 319.069 50.116C319.432 49.98 319.704 49.6853 319.885 49.232C320.067 48.7787 320.18 48.0987 320.225 47.192C320.271 46.24 320.293 44.9253 320.293 43.248V19.924C319.795 20.06 319.251 20.1507 318.661 20.196C318.117 20.2413 317.528 20.264 316.893 20.264V19.584C318.163 19.584 319.5 19.3573 320.905 18.904C322.356 18.4507 323.739 17.612 325.053 16.388H325.733ZM350.476 34.068C350.476 31.5747 350.952 29.2627 351.904 27.132C352.902 24.956 354.216 23.0747 355.848 21.488C357.526 19.9013 359.475 18.6547 361.696 17.748C363.918 16.8413 366.252 16.388 368.7 16.388C371.148 16.388 373.46 16.8413 375.636 17.748C377.858 18.6547 379.784 19.9013 381.416 21.488C383.094 23.0293 384.431 24.8653 385.428 26.996C386.426 29.1267 386.924 31.4387 386.924 33.932C386.924 36.4253 386.426 38.76 385.428 40.936C384.476 43.0667 383.162 44.9253 381.484 46.512C379.807 48.0533 377.858 49.2773 375.636 50.184C373.46 51.0907 371.148 51.544 368.7 51.544C366.298 51.544 363.986 51.1133 361.764 50.252C359.588 49.3453 357.662 48.1213 355.984 46.58C354.307 44.9933 352.97 43.1347 351.972 41.004C350.975 38.8733 350.476 36.5613 350.476 34.068ZM355.916 33.932C355.916 36.244 356.211 38.42 356.8 40.46C357.435 42.5 358.319 44.2907 359.452 45.832C360.586 47.3733 361.923 48.5973 363.464 49.504C365.051 50.4107 366.796 50.864 368.7 50.864C370.604 50.864 372.327 50.4107 373.868 49.504C375.455 48.5973 376.815 47.3733 377.948 45.832C379.082 44.2907 379.943 42.5 380.532 40.46C381.167 38.42 381.484 36.244 381.484 33.932C381.484 31.62 381.167 29.444 380.532 27.404C379.898 25.364 379.014 23.596 377.88 22.1C376.792 20.5587 375.455 19.3347 373.868 18.428C372.327 17.5213 370.604 17.068 368.7 17.068C366.796 17.068 365.051 17.5213 363.464 18.428C361.923 19.3347 360.586 20.5587 359.452 22.1C358.364 23.596 357.503 25.364 356.868 27.404C356.234 29.444 355.916 31.62 355.916 33.932ZM397.117 16.388V27.472H397.797C397.843 26.2933 398.047 25.0467 398.409 23.732C398.772 22.4173 399.293 21.216 399.973 20.128C400.653 19.04 401.492 18.156 402.489 17.476C403.487 16.7507 404.643 16.388 405.957 16.388C407.317 16.388 408.609 16.5467 409.833 16.864C411.103 17.1813 412.213 17.748 413.165 18.564C414.117 19.38 414.865 20.5133 415.409 21.964C415.999 23.4147 416.293 25.2733 416.293 27.54V40.46C416.293 42.636 416.339 44.4267 416.429 45.832C416.52 47.192 416.656 48.2573 416.837 49.028C417.019 49.7533 417.245 50.252 417.517 50.524C417.789 50.7507 418.107 50.864 418.469 50.864C419.512 50.8187 420.283 50.2747 420.781 49.232C421.28 48.144 421.643 46.9427 421.869 45.628L422.481 45.764C422.3 46.58 422.119 47.3507 421.937 48.076C421.756 48.8013 421.461 49.4133 421.053 49.912C420.691 50.4107 420.169 50.796 419.489 51.068C418.809 51.3853 417.925 51.544 416.837 51.544C415.477 51.544 414.389 51.34 413.573 50.932C412.803 50.4787 412.213 49.7987 411.805 48.892C411.397 47.9853 411.125 46.852 410.989 45.492C410.899 44.0867 410.853 42.4093 410.853 40.46V27.54C410.853 25.364 410.717 23.596 410.445 22.236C410.219 20.8307 409.879 19.7653 409.425 19.04C409.017 18.2693 408.496 17.748 407.861 17.476C407.272 17.204 406.637 17.068 405.957 17.068C404.733 17.068 403.645 17.4307 402.693 18.156C401.787 18.8813 401.016 19.8107 400.381 20.944C399.747 22.032 399.271 23.2333 398.953 24.548C398.636 25.8173 398.477 27.0187 398.477 28.152H397.117V43.248C397.117 44.9253 397.14 46.24 397.185 47.192C397.231 48.0987 397.344 48.7787 397.525 49.232C397.707 49.6853 397.979 49.98 398.341 50.116C398.704 50.2067 399.203 50.2747 399.837 50.32V51H388.957V50.32C389.592 50.2747 390.091 50.2067 390.453 50.116C390.816 49.98 391.088 49.6853 391.269 49.232C391.451 48.7787 391.564 48.0987 391.609 47.192C391.655 46.24 391.677 44.9253 391.677 43.248V19.924C391.179 20.06 390.635 20.1507 390.045 20.196C389.501 20.2413 388.912 20.264 388.277 20.264V19.584C389.547 19.584 390.884 19.3573 392.289 18.904C393.74 18.4507 395.123 17.612 396.437 16.388H397.117Z" fill="#C6C6C6"/>
</svg>
