<svg width="737" height="70" viewBox="0 0 737 70" fill="none" xmlns="http://www.w3.org/2000/svg">
<path d="M17.76 69.44C11.872 69.44 7.424 68.416 4.416 66.368C1.472 64.32 0 61.824 0 58.88C0 56.704 0.64 54.976 1.92 53.696C3.264 52.352 5.024 51.68 7.2 51.68C7.712 51.68 8.224 51.744 8.736 51.872C9.248 51.936 9.6 51.968 9.792 51.968L11.04 52.16V66.56C11.488 66.816 11.936 66.976 12.384 67.04C13.472 67.36 14.624 67.52 15.84 67.52C23.52 67.52 27.36 61.28 27.36 48.8V3.68L21.6 2.23999V0.799995H48.96V2.23999L43.2 3.68V48.8C43.2 55.456 41.12 60.576 36.96 64.16C32.8 67.68 26.4 69.44 17.76 69.44ZM83.9812 69.44C76.0452 69.44 69.8052 67.2 65.2612 62.72C60.7812 58.176 58.5412 51.936 58.5412 44C58.5412 36.064 60.7812 29.856 65.2612 25.376C69.8052 20.832 76.0452 18.56 83.9812 18.56C91.9172 18.56 98.1252 20.832 102.605 25.376C107.149 29.856 109.421 36.064 109.421 44C109.421 51.936 107.149 58.176 102.605 62.72C98.1252 67.2 91.9172 69.44 83.9812 69.44ZM83.9812 67.52C86.5413 67.52 88.6853 65.728 90.4132 62.144C92.2052 58.56 93.1012 52.512 93.1012 44C93.1012 35.488 92.2052 29.44 90.4132 25.856C88.6853 22.272 86.5413 20.48 83.9812 20.48C81.4212 20.48 79.2452 22.272 77.4532 25.856C75.7252 29.44 74.8612 35.488 74.8612 44C74.8612 52.512 75.7252 58.56 77.4532 62.144C79.2452 65.728 81.4212 67.52 83.9812 67.52ZM119.055 66.56L124.815 65.12V22.88L119.055 21.44V20H127.695C131.471 20 134.447 21.216 136.623 23.648C137.455 24.608 138.159 25.792 138.735 27.2C139.695 25.792 140.879 24.512 142.287 23.36C145.487 20.8 149.071 19.52 153.039 19.52C156.431 19.52 158.959 20.32 160.623 21.92C162.351 23.456 163.215 25.696 163.215 28.64C163.215 30.816 162.543 32.576 161.199 33.92C159.919 35.2 158.191 35.84 156.015 35.84C155.119 35.84 154.223 35.776 153.327 35.648L152.175 35.36V21.92C148.911 21.92 145.935 23.2 143.247 25.76C141.967 27.04 140.943 28.32 140.175 29.6V65.12L145.935 66.56V68H119.055V66.56ZM189.124 69.44C185.348 69.44 181.988 68.48 179.044 66.56C176.1 64.576 173.764 61.696 172.036 57.92C170.308 54.08 169.444 49.44 169.444 44C169.444 35.808 171.332 29.536 175.108 25.184C178.948 20.768 184.1 18.56 190.564 18.56C193.636 18.56 196.324 19.2 198.628 20.48C199.588 20.928 200.58 21.568 201.604 22.4V3.68L195.844 2.23999V0.799995H208.324C214.084 0.799995 216.964 3.68 216.964 9.44V65.12L222.724 66.56V68H214.084C210.244 68 207.268 66.816 205.156 64.448C204.26 63.488 203.556 62.272 203.044 60.8C202.212 62.4 201.156 63.84 199.876 65.12C196.996 68 193.412 69.44 189.124 69.44ZM192.964 66.08C195.332 66.08 197.476 64.8 199.396 62.24C200.1 61.28 200.836 60 201.604 58.4V25.28C200.9 24.576 200.164 23.936 199.396 23.36C197.668 22.08 196.004 21.44 194.404 21.44C191.652 21.44 189.508 23.04 187.972 26.24C186.5 29.44 185.764 35.36 185.764 44C185.764 52.256 186.436 58.016 187.78 61.28C189.188 64.48 190.916 66.08 192.964 66.08ZM249.615 69.44C243.919 69.44 239.535 68.224 236.463 65.792C233.391 63.36 231.855 60.256 231.855 56.48C231.855 53.984 232.399 51.52 233.487 49.088C233.935 47.936 234.511 46.88 235.215 45.92C237.839 45.28 240.687 44.704 243.759 44.192C250.671 43.04 256.783 42.336 262.095 42.08V39.2C262.095 32.096 261.231 27.2 259.503 24.512C257.775 21.824 255.119 20.48 251.535 20.48C250.191 20.48 249.039 20.64 248.079 20.96L246.735 21.44V35.84L245.487 36.128C244.463 36.256 243.599 36.32 242.895 36.32C240.719 36.32 238.959 35.68 237.615 34.4C236.335 33.056 235.695 31.296 235.695 29.12C235.695 26.176 237.167 23.68 240.111 21.632C243.119 19.584 247.567 18.56 253.455 18.56C258.447 18.56 262.735 19.456 266.319 21.248C269.967 22.976 272.719 25.408 274.575 28.544C276.495 31.616 277.455 35.168 277.455 39.2V65.12L283.215 66.56V68H274.575C270.735 68 267.759 66.816 265.647 64.448C264.751 63.488 264.047 62.272 263.535 60.8C262.639 62.4 261.583 63.84 260.367 65.12C257.487 68 253.903 69.44 249.615 69.44ZM253.455 66.08C255.823 66.08 257.967 64.8 259.887 62.24C260.591 61.28 261.327 60 262.095 58.4V44.48C259.151 44.48 256.335 44.64 253.647 44.96C251.663 45.216 250.319 45.376 249.615 45.44C249.295 46.144 248.975 47.104 248.655 48.32C248.015 50.752 247.695 53.152 247.695 55.52C247.695 59.104 248.239 61.76 249.327 63.488C250.415 65.216 251.791 66.08 253.455 66.08ZM290.94 66.56L296.7 65.12V22.88L290.94 21.44V20H299.58C303.356 20 306.332 21.216 308.508 23.648C309.34 24.608 310.044 25.792 310.62 27.2C311.516 25.536 312.572 24.096 313.788 22.88C316.668 20 320.252 18.56 324.54 18.56C328.124 18.56 331.324 19.328 334.14 20.864C337.02 22.336 339.26 24.288 340.86 26.72C342.46 29.152 343.26 31.712 343.26 34.4V65.12L349.02 66.56V68H336.54C330.78 68 327.9 65.12 327.9 59.36V34.4C327.9 30.368 327.164 27.296 325.692 25.184C324.284 23.008 322.62 21.92 320.7 21.92C318.268 21.92 316.092 23.2 314.172 25.76C313.34 26.848 312.636 28.128 312.06 29.6V65.12L317.82 66.56V68H290.94V66.56ZM384.57 3.68L379.77 2.23999V0.799995H391.29C394.618 0.799995 397.338 1.568 399.45 3.10399C401.562 4.57599 403.162 6.528 404.25 8.96L421.242 47.648L436.89 5.12L429.69 2.23999V0.799995H447.45V2.23999L439.77 5.12L416.25 68.96H413.37L384.57 3.68ZM472.432 69.44C464.24 69.44 457.872 67.2 453.328 62.72C448.784 58.176 446.512 51.936 446.512 44C446.512 38.816 447.504 34.304 449.488 30.464C451.472 26.624 454.224 23.68 457.744 21.632C461.328 19.584 465.424 18.56 470.032 18.56C474.64 18.56 478.672 19.424 482.128 21.152C485.648 22.88 488.336 25.216 490.192 28.16C492.112 31.04 493.072 34.24 493.072 37.76C493.072 39.36 492.912 40.736 492.592 41.888L492.112 43.52C489.36 44.096 486.384 44.576 483.184 44.96C476.464 45.92 469.68 46.4 462.832 46.4C462.832 53.824 463.856 59.136 465.904 62.336C467.952 65.472 470.768 67.04 474.352 67.04C476.848 67.04 479.152 66.464 481.264 65.312C483.44 64.096 485.136 62.528 486.352 60.608C487.632 58.624 488.272 56.608 488.272 54.56H490.672C490.672 57.12 489.904 59.552 488.368 61.856C486.832 64.16 484.688 66.016 481.936 67.424C479.184 68.768 476.016 69.44 472.432 69.44ZM462.832 44C466.928 44 470.256 43.84 472.816 43.52C473.904 43.456 475.056 43.296 476.272 43.04C476.336 42.72 476.496 42.016 476.752 40.928C477.072 39.328 477.232 37.632 477.232 35.84C477.232 30.528 476.528 26.656 475.12 24.224C473.712 21.728 472.016 20.48 470.032 20.48C465.232 20.48 462.832 28.32 462.832 44ZM502.151 66.56L507.911 65.12V22.88L502.151 21.44V20H510.791C514.567 20 517.543 21.216 519.719 23.648C520.551 24.608 521.255 25.792 521.831 27.2C522.791 25.792 523.975 24.512 525.383 23.36C528.583 20.8 532.167 19.52 536.135 19.52C539.527 19.52 542.055 20.32 543.719 21.92C545.447 23.456 546.311 25.696 546.311 28.64C546.311 30.816 545.639 32.576 544.295 33.92C543.015 35.2 541.287 35.84 539.111 35.84C538.215 35.84 537.319 35.776 536.423 35.648L535.271 35.36V21.92C532.007 21.92 529.031 23.2 526.343 25.76C525.063 27.04 524.039 28.32 523.271 29.6V65.12L529.031 66.56V68H502.151V66.56ZM552.54 66.56L558.3 65.12V22.88L552.54 21.44V20H561.18C564.956 20 567.932 21.216 570.108 23.648C570.94 24.608 571.644 25.792 572.22 27.2C573.116 25.536 574.172 24.096 575.388 22.88C578.268 20 581.852 18.56 586.14 18.56C589.724 18.56 592.924 19.328 595.74 20.864C598.62 22.336 600.86 24.288 602.46 26.72C604.06 29.152 604.86 31.712 604.86 34.4V65.12L610.62 66.56V68H598.14C592.38 68 589.5 65.12 589.5 59.36V34.4C589.5 30.368 588.764 27.296 587.292 25.184C585.884 23.008 584.22 21.92 582.3 21.92C579.868 21.92 577.692 23.2 575.772 25.76C574.94 26.848 574.236 28.128 573.66 29.6V65.12L579.42 66.56V68H552.54V66.56ZM643.744 69.44C635.808 69.44 629.568 67.2 625.024 62.72C620.544 58.176 618.304 51.936 618.304 44C618.304 36.064 620.544 29.856 625.024 25.376C629.568 20.832 635.808 18.56 643.744 18.56C651.68 18.56 657.888 20.832 662.368 25.376C666.912 29.856 669.184 36.064 669.184 44C669.184 51.936 666.912 58.176 662.368 62.72C657.888 67.2 651.68 69.44 643.744 69.44ZM643.744 67.52C646.304 67.52 648.448 65.728 650.176 62.144C651.968 58.56 652.864 52.512 652.864 44C652.864 35.488 651.968 29.44 650.176 25.856C648.448 22.272 646.304 20.48 643.744 20.48C641.184 20.48 639.008 22.272 637.216 25.856C635.488 29.44 634.624 35.488 634.624 44C634.624 52.512 635.488 58.56 637.216 62.144C639.008 65.728 641.184 67.52 643.744 67.52ZM678.817 66.56L684.577 65.12V22.88L678.817 21.44V20H687.457C691.233 20 694.209 21.216 696.385 23.648C697.217 24.608 697.921 25.792 698.497 27.2C699.393 25.536 700.449 24.096 701.665 22.88C704.545 20 708.129 18.56 712.417 18.56C716.001 18.56 719.201 19.328 722.017 20.864C724.897 22.336 727.137 24.288 728.737 26.72C730.337 29.152 731.137 31.712 731.137 34.4V65.12L736.897 66.56V68H724.417C718.657 68 715.777 65.12 715.777 59.36V34.4C715.777 30.368 715.041 27.296 713.569 25.184C712.161 23.008 710.497 21.92 708.577 21.92C706.145 21.92 703.969 23.2 702.049 25.76C701.217 26.848 700.513 28.128 699.937 29.6V65.12L705.697 66.56V68H678.817V66.56Z" fill="#C6C6C6"/>
</svg>
