<svg width="772" height="87" viewBox="0 0 772 87" fill="none" xmlns="http://www.w3.org/2000/svg">
<path d="M27.288 85.472C27.032 85.6 26.68 85.696 26.232 85.76C25.848 85.888 25.432 85.92 24.984 85.856C23.576 85.728 22.136 85.696 20.664 85.76C19.192 85.824 17.72 85.92 16.248 86.048C13.752 86.112 11.608 85.568 9.816 84.416C8.024 83.328 6.392 81.952 4.92 80.288C3.768 79.008 2.84 77.6 2.136 76.064C1.496 74.464 0.888 72.864 0.312 71.264C0.12 70.752 0.0560005 70.176 0.120001 69.536C0.184 68.896 0.216 68.192 0.216 67.424C3.992 67.296 7.704 67.168 11.352 67.04C15 66.912 18.616 66.816 22.2 66.752C22.136 66.304 22.04 65.824 21.912 65.312C21.848 64.8 21.816 64.288 21.816 63.776C21.816 60 21.816 56.224 21.816 52.448C21.88 48.672 21.88 44.896 21.816 41.12C21.752 38.432 21.656 35.776 21.528 33.152C21.4 30.464 21.304 27.808 21.24 25.184C21.176 21.792 21.144 18.464 21.144 15.2C21.208 11.936 21.24 8.64 21.24 5.31199V2.23999H38.424C38.488 2.55999 38.52 2.88 38.52 3.2C38.584 3.456 38.616 3.744 38.616 4.064V64.352C38.616 65.312 38.584 66.24 38.52 67.136C38.52 68.032 38.552 68.928 38.616 69.824C38.872 72.256 38.296 74.528 36.888 76.64C35.608 78.432 34.2 80.128 32.664 81.728C31.192 83.328 29.4 84.576 27.288 85.472ZM99.936 54.368C99.872 55.136 99.808 55.936 99.744 56.768C99.68 57.536 99.584 58.304 99.456 59.072C99.392 59.52 99.264 59.904 99.072 60.224C98.88 60.48 98.528 60.48 98.016 60.224C97.12 59.712 96.192 59.552 95.232 59.744C94.336 59.872 93.44 59.904 92.544 59.84C90.688 59.648 88.8 59.584 86.88 59.648C85.024 59.648 83.168 59.616 81.312 59.552C77.472 59.36 73.6 59.136 69.696 58.88C65.856 58.624 61.888 58.368 57.792 58.112C57.92 57.28 58.048 56.512 58.176 55.808C58.368 55.04 58.496 54.336 58.56 53.696C58.624 51.584 59.136 49.664 60.096 47.936C61.12 46.208 62.272 44.576 63.552 43.04C64.64 41.76 65.92 40.704 67.392 39.872C68.928 39.04 70.56 38.432 72.288 38.048C74.528 37.536 76.704 37.344 78.816 37.472C80.992 37.536 83.168 37.824 85.344 38.336C86.816 38.656 88.16 39.2 89.376 39.968C90.592 40.672 91.712 41.504 92.736 42.464C93.824 43.488 94.816 44.608 95.712 45.824C96.672 47.04 97.344 48.416 97.728 49.952C97.856 50.4 98.016 50.88 98.208 51.392C98.464 51.84 98.816 52.224 99.264 52.544C99.52 52.736 99.712 52.992 99.84 53.312C100.032 53.568 100.064 53.92 99.936 54.368ZM57.408 67.424C57.344 67.488 57.216 67.584 57.024 67.712C56.832 67.84 56.576 68 56.256 68.192C56.192 67.872 56.128 67.616 56.064 67.424C56 67.168 56 66.912 56.064 66.656C56.128 65.696 56.192 64.736 56.256 63.776C56.32 62.816 56.384 61.824 56.448 60.8C56.512 60.288 56.576 59.84 56.64 59.456C56.768 59.072 57.152 58.848 57.792 58.784C58.432 58.656 58.88 58.752 59.136 59.072C59.456 59.392 59.68 59.808 59.808 60.32C59.872 60.384 59.904 60.448 59.904 60.512C59.968 60.576 60.064 60.704 60.192 60.896C61.28 60.96 62.4 60.992 63.552 60.992C64.768 60.992 65.984 61.024 67.2 61.088C71.744 61.152 76.256 61.216 80.736 61.28C85.216 61.28 89.696 61.312 94.176 61.376C94.432 61.376 94.688 61.408 94.944 61.472C95.2 61.536 95.456 61.568 95.712 61.568C96.096 61.632 96.512 61.664 96.96 61.664C97.408 61.6 97.952 61.536 98.592 61.472C98.656 61.536 98.784 61.664 98.976 61.856C99.168 62.048 99.264 62.304 99.264 62.624C99.264 63.84 99.104 65.152 98.784 66.56C98.72 67.2 98.592 67.84 98.4 68.48C98.208 69.056 98.048 69.664 97.92 70.304C97.856 70.56 97.696 70.88 97.44 71.264C97.248 71.52 97.056 71.808 96.864 72.128C96.672 72.384 96.512 72.672 96.384 72.992C94.464 76.128 92.032 78.4 89.088 79.808C86.208 81.216 83.04 82.08 79.584 82.4C78.048 82.464 76.512 82.464 74.976 82.4C73.504 82.336 72.032 82.112 70.56 81.728C70.176 81.728 69.888 81.632 69.696 81.44C68.48 80.736 67.264 80 66.048 79.232C64.832 78.4 63.648 77.568 62.496 76.736C62.176 76.48 61.888 76.128 61.632 75.68C61.376 75.232 61.152 74.816 60.96 74.432C60.32 73.28 59.712 72.128 59.136 70.976C58.624 69.824 58.048 68.64 57.408 67.424ZM132.489 34.784L132.201 50.336V66.656C132.329 69.408 132.329 72.192 132.201 75.008C132.137 77.76 132.233 80.448 132.489 83.072H116.361L115.689 35.072C116.073 35.008 116.937 34.976 118.281 34.976C119.689 34.912 121.289 34.912 123.081 34.976C124.873 34.976 126.633 34.976 128.361 34.976C130.089 34.912 131.465 34.848 132.489 34.784ZM134.025 36.8C133.961 36.48 133.929 36.16 133.929 35.84C133.929 35.456 133.897 35.104 133.833 34.784L151.593 35.36V48.608C151.529 48.8 151.465 49.024 151.401 49.28C151.401 49.472 151.369 49.664 151.305 49.856C151.305 50.176 151.305 50.528 151.305 50.912C151.369 51.232 151.433 51.648 151.497 52.16C151.433 52.224 151.305 52.352 151.113 52.544C150.985 52.672 150.793 52.736 150.537 52.736C149.961 52.736 149.385 52.704 148.809 52.64C148.297 52.512 147.753 52.416 147.177 52.352C146.665 52.224 146.153 52.128 145.641 52.064C145.193 51.936 144.713 51.808 144.201 51.68C143.881 51.616 143.593 51.488 143.337 51.296C143.081 51.168 142.825 51.04 142.569 50.912C142.377 50.72 142.153 50.56 141.897 50.432C139.273 48.896 137.385 46.944 136.233 44.576C135.081 42.208 134.345 39.616 134.025 36.8ZM206.208 17.408L205.92 39.296V62.144C206.048 66.048 206.048 69.952 205.92 73.856C205.792 77.76 205.888 81.6 206.208 85.376H189.504L188.832 17.792C189.216 17.664 190.112 17.6 191.52 17.6C192.928 17.536 194.56 17.504 196.416 17.504C198.336 17.504 200.16 17.504 201.888 17.504C203.68 17.504 205.12 17.472 206.208 17.408ZM163.488 63.296C163.488 62.848 163.488 62.4 163.488 61.952C163.552 61.504 163.552 61.056 163.488 60.608C163.36 58.56 163.584 56.64 164.16 54.848C164.8 53.056 165.632 51.296 166.656 49.568C166.848 49.248 167.072 48.96 167.328 48.704C167.648 48.448 167.936 48.192 168.192 47.936C168.704 47.488 169.216 47.008 169.728 46.496C170.24 45.984 170.784 45.504 171.36 45.056C171.744 44.736 172.16 44.448 172.608 44.192C173.12 43.936 173.6 43.68 174.048 43.424C174.56 43.168 175.072 42.976 175.584 42.848C176.16 42.72 176.576 42.336 176.832 41.696C176.96 41.504 177.216 41.376 177.6 41.312C177.984 41.184 178.304 41.12 178.56 41.12C180.352 41.056 182.112 41.056 183.84 41.12C184.096 41.12 184.544 41.28 185.184 41.6C184.608 42.432 184.288 43.232 184.224 44C184.16 44.768 184.448 45.568 185.088 46.4C184.96 46.528 184.8 46.688 184.608 46.88C184.48 47.072 184.352 47.264 184.224 47.456C184.608 47.648 184.832 47.904 184.896 48.224C185.024 48.48 185.088 48.832 185.088 49.28V80.96C185.088 81.088 185.056 81.248 184.992 81.44C184.992 81.632 184.992 81.888 184.992 82.208C184.224 82.208 183.456 82.208 182.688 82.208C181.92 82.272 181.152 82.176 180.384 81.92C179.936 81.728 179.456 81.6 178.944 81.536C178.432 81.472 177.92 81.408 177.408 81.344C175.616 80.96 174.016 80.32 172.608 79.424C171.264 78.528 169.952 77.536 168.672 76.448C167.392 75.296 166.4 73.984 165.696 72.512C165.056 71.04 164.448 69.536 163.872 68C163.68 67.232 163.552 66.464 163.488 65.696C163.488 64.864 163.488 64.064 163.488 63.296ZM268.796 25.088C269.052 28.032 269.276 30.976 269.468 33.92C269.724 36.864 269.98 39.744 270.236 42.56C270.364 45.12 270.396 47.392 270.332 49.376C270.332 51.296 270.3 52.256 270.236 52.256V83.072H251.708C251.644 82.304 251.612 81.536 251.612 80.768C251.612 80 251.612 79.296 251.612 78.656C251.548 72.96 251.452 67.264 251.324 61.568C251.26 55.808 251.228 50.08 251.228 44.384C251.228 41.248 251.292 38.08 251.42 34.88C251.548 31.68 251.644 28.416 251.708 25.088H268.796ZM223.58 61.184C223.516 60.928 223.484 60.704 223.484 60.512C223.484 60.32 223.484 60.128 223.484 59.936V57.824C223.228 54.624 223.708 51.744 224.924 49.184C226.14 46.624 227.708 44.16 229.628 41.792C232.316 38.528 235.804 36.352 240.092 35.264C241.116 34.944 242.14 34.752 243.164 34.688C244.252 34.624 245.308 34.56 246.332 34.496C247.292 34.432 247.868 34.56 248.06 34.88C248.316 35.2 248.444 35.808 248.444 36.704C248.38 40.16 248.316 43.616 248.252 47.072C248.252 50.528 248.188 54.016 248.06 57.536C247.996 59.584 247.932 61.632 247.868 63.68C247.804 65.728 247.708 67.776 247.58 69.824C247.516 69.888 247.548 70.144 247.676 70.592L247.58 73.472C247.452 74.688 247.292 75.872 247.1 77.024C246.972 78.176 246.812 79.392 246.62 80.672C245.596 80.48 244.604 80.288 243.644 80.096C242.684 79.968 241.756 79.776 240.859 79.52C237.724 78.752 235.068 77.408 232.892 75.488C230.716 73.504 228.796 71.168 227.132 68.48C226.492 67.264 225.884 66.048 225.308 64.832C224.732 63.616 224.156 62.4 223.58 61.184ZM286.245 61.376V35.168H305.445C305.573 35.808 305.637 36.448 305.637 37.088C305.637 37.728 305.637 38.336 305.637 38.912C305.829 48.576 305.925 58.304 305.925 68.096C305.925 70.72 305.861 73.408 305.733 76.16C305.669 78.848 305.573 81.568 305.445 84.32H287.685C287.429 81.888 287.173 79.424 286.917 76.928C286.725 74.432 286.501 72 286.245 69.632C286.181 67.392 286.149 65.472 286.149 63.872C286.149 62.208 286.181 61.376 286.245 61.376ZM326.853 53.6H326.949V56.288C326.885 57.696 326.853 59.072 326.853 60.416C326.853 61.696 326.725 63.008 326.469 64.352C326.213 65.824 326.085 67.328 326.085 68.864C326.085 70.4 326.021 71.936 325.893 73.472C325.829 74.816 325.765 76.224 325.701 77.696C325.637 79.104 325.541 80.576 325.413 82.112C323.621 82.048 321.893 82.08 320.229 82.208C318.565 82.336 316.901 82.08 315.237 81.44C314.405 81.184 313.829 80.896 313.509 80.576C313.253 80.256 313.157 79.712 313.221 78.944C313.541 75.168 313.861 71.36 314.181 67.52C314.501 63.68 314.821 59.84 315.141 56L306.693 55.712C306.757 53.216 306.789 50.72 306.789 48.224C306.789 45.664 306.789 43.104 306.789 40.544C306.853 40.288 306.917 40.064 306.981 39.872C307.045 39.616 307.077 39.36 307.077 39.104C307.077 38.784 307.045 38.432 306.981 38.048C306.981 37.6 306.949 37.056 306.885 36.416C306.949 36.416 307.077 36.32 307.269 36.128C307.461 35.936 307.685 35.84 307.941 35.84C308.645 35.84 309.285 35.872 309.861 35.936C310.501 36 311.141 36.096 311.781 36.224C312.357 36.288 312.933 36.416 313.509 36.608C314.085 36.736 314.661 36.864 315.237 36.992C315.493 37.056 315.813 37.216 316.197 37.472C316.773 37.728 317.317 38.08 317.829 38.528C320.773 40.192 322.917 42.336 324.261 44.96C325.605 47.584 326.469 50.464 326.853 53.6ZM495.289 5.888C495.545 5.888 495.801 5.984 496.057 6.17599C496.569 7.584 496.601 8.928 496.153 10.208C495.769 11.488 495.417 12.768 495.097 14.048C494.073 17.76 493.081 21.44 492.121 25.088C491.161 28.736 490.201 32.352 489.241 35.936C488.537 38.304 487.833 40.672 487.129 43.04C486.489 45.408 485.849 47.776 485.209 50.144C484.569 52.768 483.929 55.456 483.289 58.208C482.649 60.896 482.009 63.552 481.369 66.176C480.729 68.736 480.089 71.296 479.449 73.856C478.873 76.352 478.265 78.816 477.625 81.248C477.497 82.016 477.369 82.784 477.241 83.552C477.177 84.32 477.081 85.088 476.953 85.856C475.737 85.92 474.585 85.92 473.497 85.856C472.409 85.856 471.321 85.632 470.233 85.184C468.121 84.288 466.041 84.288 463.993 85.184C462.969 85.632 461.913 85.888 460.825 85.952C459.737 86.016 458.617 85.984 457.465 85.856C457.017 84.384 456.569 82.912 456.121 81.44C455.737 79.968 455.353 78.496 454.969 77.024C454.393 75.296 453.849 73.568 453.337 71.84C452.889 70.048 452.409 68.256 451.897 66.464C450.873 62.624 449.817 58.816 448.729 55.04C447.705 51.264 446.649 47.456 445.561 43.616C444.473 39.392 443.353 35.168 442.201 30.944C441.113 26.656 440.025 22.4 438.937 18.176C438.489 16.256 437.977 14.4 437.401 12.608C436.889 10.752 436.665 8.832 436.729 6.848C436.729 6.656 436.729 6.464 436.729 6.272C436.793 6.016 436.825 5.824 436.825 5.696C438.297 5.18399 439.609 4.672 440.761 4.16C441.465 3.84 442.201 3.68 442.969 3.68C443.801 3.68 444.601 3.616 445.369 3.488C446.649 3.168 447.897 2.784 449.113 2.336C450.393 1.888 451.641 1.504 452.857 1.184C453.305 1.056 453.721 0.927998 454.105 0.799995C454.553 0.671997 455.065 0.511997 455.641 0.319996C456.409 3.584 457.273 6.752 458.233 9.824C459.257 12.832 460.217 15.936 461.113 19.136C461.945 22.208 462.745 25.344 463.513 28.544C464.345 31.68 465.209 34.944 466.105 38.336C466.617 36.16 467.097 34.144 467.545 32.288C468.057 30.432 468.537 28.608 468.985 26.816C469.433 24.96 469.881 23.168 470.329 21.44C470.841 19.648 471.321 17.856 471.769 16.064C472.281 13.888 472.793 11.712 473.305 9.536C473.881 7.296 474.393 5.088 474.841 2.912C475.033 2.08 475.545 1.664 476.377 1.664C476.697 1.664 477.017 1.664 477.337 1.664C477.657 1.664 477.945 1.728 478.201 1.856C481.081 2.496 483.929 3.168 486.745 3.872C489.625 4.512 492.473 5.184 495.289 5.888ZM517.389 59.072H514.701C513.613 58.88 512.493 58.72 511.341 58.592C510.253 58.4 509.069 58.24 507.789 58.112C508.045 57.152 508.237 56.224 508.365 55.328C508.557 54.368 508.749 53.472 508.941 52.64C509.709 49.632 510.989 47.104 512.781 45.056C514.637 43.008 516.845 41.216 519.405 39.68C520.557 39.04 521.709 38.464 522.861 37.952C524.013 37.376 525.197 36.832 526.413 36.32C526.605 36.192 526.957 36.128 527.469 36.128C527.789 36.128 528.109 36.16 528.429 36.224C528.813 36.224 529.165 36.192 529.485 36.128C532.493 35.936 535.213 36.416 537.645 37.568C540.141 38.72 542.477 40.192 544.653 41.984C547.725 44.48 549.805 47.808 550.893 51.968C551.149 52.864 551.309 53.824 551.373 54.848C551.501 55.872 551.565 56.864 551.565 57.824C551.629 58.72 551.533 59.296 551.277 59.552C551.021 59.744 550.445 59.84 549.549 59.84C546.221 59.776 542.925 59.712 539.661 59.648C536.397 59.584 533.101 59.52 529.773 59.456C527.853 59.392 525.901 59.328 523.917 59.264C521.997 59.2 520.077 59.136 518.157 59.072C518.093 59.008 517.997 59.008 517.869 59.072C517.741 59.072 517.581 59.072 517.389 59.072ZM519.309 80.384C516.173 78.528 513.901 76.224 512.493 73.472C511.085 70.656 510.221 67.584 509.901 64.256C509.837 63.872 509.805 63.488 509.805 63.104C509.805 62.656 509.805 62.24 509.805 61.856L530.925 62.432C530.925 65.056 530.925 67.712 530.925 70.4C530.925 73.024 530.893 75.648 530.829 78.272C530.829 78.528 530.797 78.784 530.733 79.04C530.669 79.232 530.637 79.456 530.637 79.712C530.637 80.096 530.637 80.48 530.637 80.864C530.701 81.312 530.765 81.856 530.829 82.496C530.765 82.56 530.605 82.656 530.349 82.784C530.157 82.976 529.933 83.072 529.677 83.072C529.037 83.136 528.365 83.104 527.661 82.976C527.021 82.912 526.381 82.816 525.741 82.688C525.101 82.56 524.461 82.432 523.821 82.304C523.245 82.176 522.669 82.048 522.093 81.92C521.709 81.856 521.357 81.696 521.037 81.44C520.781 81.248 520.493 81.056 520.173 80.864C519.917 80.672 519.629 80.512 519.309 80.384ZM580.333 34.784L580.045 50.336V66.656C580.173 69.408 580.173 72.192 580.045 75.008C579.981 77.76 580.077 80.448 580.333 83.072H564.205L563.533 35.072C563.917 35.008 564.781 34.976 566.125 34.976C567.533 34.912 569.133 34.912 570.925 34.976C572.717 34.976 574.477 34.976 576.205 34.976C577.933 34.912 579.309 34.848 580.333 34.784ZM581.869 36.8C581.805 36.48 581.773 36.16 581.773 35.84C581.773 35.456 581.741 35.104 581.677 34.784L599.437 35.36V48.608C599.373 48.8 599.309 49.024 599.245 49.28C599.245 49.472 599.213 49.664 599.149 49.856C599.149 50.176 599.149 50.528 599.149 50.912C599.213 51.232 599.277 51.648 599.341 52.16C599.277 52.224 599.149 52.352 598.957 52.544C598.829 52.672 598.637 52.736 598.381 52.736C597.805 52.736 597.229 52.704 596.653 52.64C596.141 52.512 595.597 52.416 595.021 52.352C594.509 52.224 593.997 52.128 593.485 52.064C593.037 51.936 592.557 51.808 592.045 51.68C591.725 51.616 591.437 51.488 591.181 51.296C590.925 51.168 590.669 51.04 590.413 50.912C590.221 50.72 589.997 50.56 589.741 50.432C587.117 48.896 585.229 46.944 584.077 44.576C582.925 42.208 582.189 39.616 581.869 36.8ZM612.964 61.376V35.168H632.164C632.292 35.808 632.356 36.448 632.356 37.088C632.356 37.728 632.356 38.336 632.356 38.912C632.548 48.576 632.644 58.304 632.644 68.096C632.644 70.72 632.58 73.408 632.452 76.16C632.388 78.848 632.292 81.568 632.164 84.32H614.404C614.148 81.888 613.892 79.424 613.636 76.928C613.444 74.432 613.22 72 612.964 69.632C612.9 67.392 612.868 65.472 612.868 63.872C612.868 62.208 612.9 61.376 612.964 61.376ZM653.572 53.6H653.668V56.288C653.604 57.696 653.572 59.072 653.572 60.416C653.572 61.696 653.444 63.008 653.188 64.352C652.932 65.824 652.804 67.328 652.804 68.864C652.804 70.4 652.74 71.936 652.612 73.472C652.548 74.816 652.484 76.224 652.42 77.696C652.356 79.104 652.26 80.576 652.132 82.112C650.34 82.048 648.612 82.08 646.948 82.208C645.284 82.336 643.62 82.08 641.956 81.44C641.124 81.184 640.548 80.896 640.228 80.576C639.972 80.256 639.876 79.712 639.94 78.944C640.26 75.168 640.58 71.36 640.9 67.52C641.22 63.68 641.54 59.84 641.86 56L633.412 55.712C633.476 53.216 633.508 50.72 633.508 48.224C633.508 45.664 633.508 43.104 633.508 40.544C633.572 40.288 633.636 40.064 633.7 39.872C633.764 39.616 633.796 39.36 633.796 39.104C633.796 38.784 633.764 38.432 633.7 38.048C633.7 37.6 633.668 37.056 633.604 36.416C633.668 36.416 633.796 36.32 633.988 36.128C634.18 35.936 634.404 35.84 634.66 35.84C635.364 35.84 636.004 35.872 636.58 35.936C637.22 36 637.86 36.096 638.5 36.224C639.076 36.288 639.652 36.416 640.228 36.608C640.804 36.736 641.38 36.864 641.956 36.992C642.212 37.056 642.532 37.216 642.916 37.472C643.492 37.728 644.036 38.08 644.548 38.528C647.492 40.192 649.636 42.336 650.98 44.96C652.324 47.584 653.188 50.464 653.572 53.6ZM713.624 54.368C713.56 55.136 713.496 55.936 713.432 56.768C713.368 57.536 713.272 58.304 713.144 59.072C713.08 59.52 712.952 59.904 712.76 60.224C712.568 60.48 712.216 60.48 711.704 60.224C710.808 59.712 709.88 59.552 708.92 59.744C708.024 59.872 707.128 59.904 706.232 59.84C704.376 59.648 702.488 59.584 700.568 59.648C698.712 59.648 696.856 59.616 695 59.552C691.16 59.36 687.288 59.136 683.384 58.88C679.544 58.624 675.576 58.368 671.48 58.112C671.608 57.28 671.736 56.512 671.864 55.808C672.056 55.04 672.184 54.336 672.248 53.696C672.312 51.584 672.824 49.664 673.784 47.936C674.808 46.208 675.96 44.576 677.24 43.04C678.328 41.76 679.608 40.704 681.08 39.872C682.616 39.04 684.248 38.432 685.976 38.048C688.216 37.536 690.392 37.344 692.504 37.472C694.68 37.536 696.856 37.824 699.032 38.336C700.504 38.656 701.848 39.2 703.064 39.968C704.28 40.672 705.4 41.504 706.424 42.464C707.512 43.488 708.504 44.608 709.4 45.824C710.36 47.04 711.032 48.416 711.416 49.952C711.544 50.4 711.704 50.88 711.896 51.392C712.152 51.84 712.504 52.224 712.952 52.544C713.208 52.736 713.4 52.992 713.528 53.312C713.72 53.568 713.752 53.92 713.624 54.368ZM671.096 67.424C671.032 67.488 670.904 67.584 670.712 67.712C670.52 67.84 670.264 68 669.944 68.192C669.88 67.872 669.816 67.616 669.752 67.424C669.688 67.168 669.688 66.912 669.752 66.656C669.816 65.696 669.88 64.736 669.944 63.776C670.008 62.816 670.072 61.824 670.136 60.8C670.2 60.288 670.264 59.84 670.328 59.456C670.456 59.072 670.84 58.848 671.48 58.784C672.12 58.656 672.568 58.752 672.824 59.072C673.144 59.392 673.368 59.808 673.496 60.32C673.56 60.384 673.592 60.448 673.592 60.512C673.656 60.576 673.752 60.704 673.88 60.896C674.968 60.96 676.088 60.992 677.24 60.992C678.456 60.992 679.672 61.024 680.888 61.088C685.432 61.152 689.944 61.216 694.424 61.28C698.904 61.28 703.384 61.312 707.864 61.376C708.12 61.376 708.376 61.408 708.632 61.472C708.888 61.536 709.144 61.568 709.4 61.568C709.784 61.632 710.2 61.664 710.648 61.664C711.096 61.6 711.64 61.536 712.28 61.472C712.344 61.536 712.472 61.664 712.664 61.856C712.856 62.048 712.952 62.304 712.952 62.624C712.952 63.84 712.792 65.152 712.472 66.56C712.408 67.2 712.28 67.84 712.088 68.48C711.896 69.056 711.736 69.664 711.608 70.304C711.544 70.56 711.384 70.88 711.128 71.264C710.936 71.52 710.744 71.808 710.552 72.128C710.36 72.384 710.2 72.672 710.072 72.992C708.152 76.128 705.72 78.4 702.776 79.808C699.896 81.216 696.728 82.08 693.272 82.4C691.736 82.464 690.2 82.464 688.664 82.4C687.192 82.336 685.72 82.112 684.248 81.728C683.864 81.728 683.576 81.632 683.384 81.44C682.168 80.736 680.952 80 679.736 79.232C678.52 78.4 677.336 77.568 676.184 76.736C675.864 76.48 675.576 76.128 675.32 75.68C675.064 75.232 674.84 74.816 674.648 74.432C674.008 73.28 673.4 72.128 672.824 70.976C672.312 69.824 671.736 68.64 671.096 67.424ZM730.433 61.376V35.168H749.633C749.761 35.808 749.825 36.448 749.825 37.088C749.825 37.728 749.825 38.336 749.825 38.912C750.017 48.576 750.113 58.304 750.113 68.096C750.113 70.72 750.049 73.408 749.921 76.16C749.857 78.848 749.761 81.568 749.633 84.32H731.873C731.617 81.888 731.361 79.424 731.105 76.928C730.913 74.432 730.689 72 730.433 69.632C730.369 67.392 730.337 65.472 730.337 63.872C730.337 62.208 730.369 61.376 730.433 61.376ZM771.041 53.6H771.137V56.288C771.073 57.696 771.041 59.072 771.041 60.416C771.041 61.696 770.913 63.008 770.656 64.352C770.401 65.824 770.273 67.328 770.273 68.864C770.273 70.4 770.209 71.936 770.081 73.472C770.017 74.816 769.953 76.224 769.889 77.696C769.825 79.104 769.729 80.576 769.601 82.112C767.809 82.048 766.081 82.08 764.417 82.208C762.753 82.336 761.089 82.08 759.425 81.44C758.593 81.184 758.017 80.896 757.697 80.576C757.441 80.256 757.345 79.712 757.409 78.944C757.729 75.168 758.049 71.36 758.369 67.52C758.689 63.68 759.009 59.84 759.329 56L750.881 55.712C750.945 53.216 750.977 50.72 750.977 48.224C750.977 45.664 750.977 43.104 750.977 40.544C751.041 40.288 751.105 40.064 751.169 39.872C751.233 39.616 751.265 39.36 751.265 39.104C751.265 38.784 751.233 38.432 751.169 38.048C751.169 37.6 751.137 37.056 751.073 36.416C751.137 36.416 751.265 36.32 751.457 36.128C751.649 35.936 751.873 35.84 752.129 35.84C752.833 35.84 753.473 35.872 754.049 35.936C754.689 36 755.329 36.096 755.969 36.224C756.545 36.288 757.121 36.416 757.697 36.608C758.273 36.736 758.849 36.864 759.425 36.992C759.681 37.056 760.001 37.216 760.385 37.472C760.961 37.728 761.505 38.08 762.017 38.528C764.961 40.192 767.105 42.336 768.449 44.96C769.793 47.584 770.657 50.464 771.041 53.6Z" fill="#C6C6C6"/>
</svg>
