<svg width="453" height="50" viewBox="0 0 453 50" fill="none" xmlns="http://www.w3.org/2000/svg">
<path d="M0.612 45.212L3.536 38.956C5.848 40.6333 8.18267 41.472 10.54 41.472C12.6253 41.472 14.212 40.928 15.3 39.84C16.388 38.752 16.932 36.9387 16.932 34.4V0.399997H25.976V34.468C25.976 44.0333 21.2613 48.816 11.832 48.816C7.43467 48.816 3.69467 47.6147 0.612 45.212ZM34.0861 31.272V30.796C34.0861 25.5827 35.6274 21.3213 38.7101 18.012C41.7474 14.7027 45.9181 13.048 51.2221 13.048C56.4807 13.048 60.6287 14.7027 63.6661 18.012C66.7487 21.3213 68.2901 25.5827 68.2901 30.796V31.272C68.2901 36.4853 66.7487 40.7693 63.6661 44.124C60.6287 47.388 56.4807 49.02 51.2221 49.02C45.9634 49.02 41.7927 47.388 38.7101 44.124C35.6274 40.7693 34.0861 36.4853 34.0861 31.272ZM59.6541 31.408V30.66C59.6541 26.716 58.8834 23.7013 57.3421 21.616C55.8461 19.5307 53.8061 18.488 51.2221 18.488C48.5927 18.488 46.5074 19.5307 44.9661 21.616C43.4701 23.656 42.7221 26.6707 42.7221 30.66V31.408C42.7221 35.3973 43.4701 38.4347 44.9661 40.52C46.5074 42.56 48.5927 43.58 51.2221 43.58C53.8061 43.58 55.8461 42.5373 57.3421 40.452C58.8834 38.3667 59.6541 35.352 59.6541 31.408ZM75.6537 14.068H84.0177V22.16C84.9697 19.3493 86.3977 17.2187 88.3017 15.768C90.2057 14.3173 92.4271 13.592 94.9657 13.592C95.5097 13.592 96.0084 13.6373 96.4617 13.728V21.616C94.9657 21.48 94.0364 21.412 93.6737 21.412C87.2364 21.412 84.0177 24.948 84.0177 32.02V48H75.6537V14.068ZM126.455 31.408V30.66C126.455 26.988 125.639 24.0413 124.007 21.82C122.42 19.5987 120.448 18.488 118.091 18.488C115.461 18.488 113.376 19.5307 111.835 21.616C110.339 23.656 109.591 26.6707 109.591 30.66V31.408C109.591 35.3973 110.339 38.4347 111.835 40.52C113.376 42.56 115.461 43.58 118.091 43.58C120.448 43.58 122.42 42.4693 124.007 40.248C125.639 37.9813 126.455 35.0347 126.455 31.408ZM100.955 31.408V30.66C100.955 25.7187 102.247 21.548 104.831 18.148C107.415 14.748 110.837 13.048 115.099 13.048C117.547 13.048 119.745 13.6827 121.695 14.952C123.644 16.2213 125.163 17.944 126.251 20.12V0.399997H134.615V48H126.251V41.88C125.163 44.056 123.644 45.8013 121.695 47.116C119.745 48.3853 117.547 49.02 115.099 49.02C110.837 49.02 107.415 47.32 104.831 43.92C102.247 40.4747 100.955 36.304 100.955 31.408ZM163.651 35.08V31.476L161.407 31.612C156.783 31.7933 153.655 32.564 152.023 33.924C150.482 35.1933 149.711 36.6893 149.711 38.412C149.711 39.9533 150.232 41.1773 151.275 42.084C152.363 42.9907 153.746 43.444 155.423 43.444C157.871 43.444 159.843 42.6733 161.339 41.132C162.88 39.5453 163.651 37.528 163.651 35.08ZM144.611 46.164C142.39 44.3507 141.279 41.88 141.279 38.752C141.279 35.624 142.594 32.972 145.223 30.796C147.852 28.6653 153.066 27.4187 160.863 27.056L163.651 26.92V25.696C163.651 21.1627 161.611 18.896 157.531 18.896C154.539 18.896 152.318 20.664 150.867 24.2L143.387 22.84C144.294 19.8933 145.948 17.536 148.351 15.768C150.799 13.9547 153.859 13.048 157.531 13.048C167.187 13.048 172.015 17.944 172.015 27.736V48H163.855V42.492C161.634 46.7533 157.939 48.884 152.771 48.884C149.552 48.884 146.832 47.9773 144.611 46.164ZM180.406 14.068H188.77V20.596C190.991 15.564 194.708 13.048 199.922 13.048C203.82 13.048 206.676 14.2267 208.49 16.584C210.348 18.9413 211.278 21.7973 211.278 25.152V48H202.846V26.716C202.846 24.2227 202.37 22.3867 201.418 21.208C200.466 20.0293 198.97 19.44 196.93 19.44C194.436 19.44 192.442 20.3693 190.946 22.228C189.495 24.0413 188.77 26.4667 188.77 29.504V48H180.406V14.068ZM232.664 0.399997H242.116L253.88 39.84L265.644 0.399997H274.008L258.776 48H247.828L232.664 0.399997ZM283.205 27.6H298.709C298.482 24.3813 297.757 22.0467 296.533 20.596C295.309 19.1453 293.541 18.42 291.229 18.42C289.053 18.42 287.262 19.2133 285.857 20.8C284.451 22.3867 283.567 24.6533 283.205 27.6ZM274.501 31.272V30.796C274.501 25.628 276.019 21.3893 279.057 18.08C282.139 14.7253 286.174 13.048 291.161 13.048C296.283 13.048 300.227 14.612 302.993 17.74C305.803 20.868 307.209 25.2427 307.209 30.864V32.36H283.001C283.137 36.032 283.998 38.82 285.585 40.724C287.171 42.628 289.325 43.58 292.045 43.58C295.218 43.58 298.119 41.3813 300.749 36.984L306.937 39.704C305.486 42.6507 303.401 44.94 300.681 46.572C298.006 48.204 295.059 49.02 291.841 49.02C286.627 49.02 282.411 47.4107 279.193 44.192C276.065 41.0187 274.501 36.712 274.501 31.272ZM314.607 14.068H322.971V22.16C323.923 19.3493 325.351 17.2187 327.255 15.768C329.159 14.3173 331.381 13.592 333.919 13.592C334.463 13.592 334.962 13.6373 335.415 13.728V21.616C333.919 21.48 332.99 21.412 332.627 21.412C326.19 21.412 322.971 24.948 322.971 32.02V48H314.607V14.068ZM342.198 14.068H350.562V20.596C352.783 15.564 356.5 13.048 361.714 13.048C365.612 13.048 368.468 14.2267 370.282 16.584C372.14 18.9413 373.07 21.7973 373.07 25.152V48H364.638V26.716C364.638 24.2227 364.162 22.3867 363.21 21.208C362.258 20.0293 360.762 19.44 358.722 19.44C356.228 19.44 354.234 20.3693 352.738 22.228C351.287 24.0413 350.562 26.4667 350.562 29.504V48H342.198V14.068ZM380.049 31.272V30.796C380.049 25.5827 381.591 21.3213 384.673 18.012C387.711 14.7027 391.881 13.048 397.185 13.048C402.444 13.048 406.592 14.7027 409.629 18.012C412.712 21.3213 414.253 25.5827 414.253 30.796V31.272C414.253 36.4853 412.712 40.7693 409.629 44.124C406.592 47.388 402.444 49.02 397.185 49.02C391.927 49.02 387.756 47.388 384.673 44.124C381.591 40.7693 380.049 36.4853 380.049 31.272ZM405.617 31.408V30.66C405.617 26.716 404.847 23.7013 403.305 21.616C401.809 19.5307 399.769 18.488 397.185 18.488C394.556 18.488 392.471 19.5307 390.929 21.616C389.433 23.656 388.685 26.6707 388.685 30.66V31.408C388.685 35.3973 389.433 38.4347 390.929 40.52C392.471 42.56 394.556 43.58 397.185 43.58C399.769 43.58 401.809 42.5373 403.305 40.452C404.847 38.3667 405.617 35.352 405.617 31.408ZM421.617 14.068H429.981V20.596C432.202 15.564 435.92 13.048 441.133 13.048C445.032 13.048 447.888 14.2267 449.701 16.584C451.56 18.9413 452.489 21.7973 452.489 25.152V48H444.057V26.716C444.057 24.2227 443.581 22.3867 442.629 21.208C441.677 20.0293 440.181 19.44 438.141 19.44C435.648 19.44 433.653 20.3693 432.157 22.228C430.706 24.0413 429.981 26.4667 429.981 29.504V48H421.617V14.068Z" fill="#C6C6C6"/>
</svg>
