<svg width="651" height="69" viewBox="0 0 651 69" fill="none" xmlns="http://www.w3.org/2000/svg">
<path d="M44.8438 45.5781C44.8438 52.1719 42.75 57.5312 38.5625 61.6562C34.125 66.0938 28 68.3125 20.1875 68.3125C15.7188 68.3125 11.4844 67.1562 7.48438 64.8438C4.42188 63.0938 2.09375 61.0781 0.5 58.7969C0.1875 56.8906 0.03125 55.1562 0.03125 53.5938C0.03125 48.5 1.57812 44.5938 4.67188 41.875C7.17188 39.6875 10.25 38.5938 13.9062 38.5938C16.6875 38.5938 19.2188 39.3281 21.5 40.7969C23.8125 42.3594 25.5156 44.5156 26.6094 47.2656C27.6094 47.2656 28.1094 46.75 28.1094 45.7188C28.1094 45.1875 27.875 44.4844 27.4062 43.6094C26.9688 42.7344 26.3281 41.8594 25.4844 40.9844C23.2656 38.7031 20.5938 37.2969 17.4688 36.7656V9.76562C19.0312 8.60938 21 7.64062 23.375 6.85938C25.75 6.07812 28.4531 5.6875 31.4844 5.6875C34.5156 5.6875 37.25 6.21875 39.6875 7.28125C43.125 8.84375 44.8438 11.1875 44.8438 14.3125V45.5781ZM72.5 40.8906V49.0938C72.7188 49.3125 73.0781 49.4219 73.5781 49.4219C74.0781 49.4219 74.4375 49.25 74.6562 48.9062C74.875 48.5625 74.9844 47.9688 74.9844 47.125V40.4219C74.9844 37.4219 74.8594 35.4375 74.6094 34.4688C74.3594 33.4688 73.8906 32.9688 73.2031 32.9688C72.7656 32.9688 72.3906 33.125 72.0781 33.4375C72.3594 36.5312 72.5 39.0156 72.5 40.8906ZM54.9688 61.6562C49.8438 56.7188 47.2812 50.0312 47.2812 41.5938C47.2812 33.125 49.6875 26.4531 54.5 21.5781C59.3438 16.6719 65.6875 14.2188 73.5312 14.2188C81.375 14.2188 87.7188 16.7656 92.5625 21.8594C97.375 26.9531 99.7812 33.5938 99.7812 41.7812C99.7812 49.9375 97.4531 56.4219 92.7969 61.2344C88.1719 66.0469 81.875 68.4531 73.9062 68.4531C65.9375 68.4531 59.625 66.1875 54.9688 61.6562ZM116.141 67.6094C112.422 67.6094 109.453 66.9375 107.234 65.5938C104.766 64.1875 103.531 62.1094 103.531 59.3594V35.2188C101.688 32.625 100.766 29.4375 100.766 25.6562C100.766 21.8438 101.688 18.5469 103.531 15.7656H110.703C114.391 15.7656 117.031 16.9531 118.625 19.3281C117.844 20.2031 117.156 21.3125 116.562 22.6562C115.969 24 115.672 24.9688 115.672 25.5625C115.672 26.125 115.812 26.5469 116.094 26.8281C116.406 27.1094 116.844 27.25 117.406 27.25C118.5 22.9062 120.578 19.7188 123.641 17.6875C126.172 15.9688 129.297 15.1094 133.016 15.1094C137.641 15.1094 141.266 16.0938 143.891 18.0625C144.828 20.5625 145.297 23.625 145.297 27.25C145.297 30.8438 144.578 34.1094 143.141 37.0469C142.078 37.6094 140.609 38.0938 138.734 38.5C136.859 38.875 134.969 39.0625 133.062 39.0625C131.156 39.0625 129.438 38.9375 127.906 38.6875C126.406 38.4062 125.312 38.1562 124.625 37.9375C124.375 38.1875 124.25 38.5469 124.25 39.0156C124.25 39.4844 124.547 39.8438 125.141 40.0938C125.766 40.3125 126.797 40.5625 128.234 40.8438V64.375C124.828 66.5312 120.797 67.6094 116.141 67.6094ZM173.375 33.7656C173.062 33.4531 172.688 33.2969 172.25 33.2969C171.562 33.2969 171.094 33.7969 170.844 34.7969C170.594 35.7656 170.469 37.75 170.469 40.75V45.5312C170.469 46.375 170.578 46.9688 170.797 47.3125C171.016 47.6562 171.375 47.8281 171.875 47.8281C172.375 47.8281 172.734 47.7188 172.953 47.5V41.2188C172.953 38.1562 173.094 35.6719 173.375 33.7656ZM170 6.0625C171.656 4.125 173.484 2.67188 175.484 1.70312C177.484 0.703125 180.031 0.203125 183.125 0.203125C186.875 0.203125 189.922 1.25 192.266 3.34375C194.672 5.59375 195.875 8.625 195.875 12.4375V43.375C195.875 48.0312 197 51.0625 199.25 52.4688C199.281 52.625 199.297 52.9219 199.297 53.3594V54.2031C199.297 58.6406 197.953 62.0938 195.266 64.5625C192.891 66.75 189.953 67.8438 186.453 67.8438C184.016 67.8438 181.906 67.3281 180.125 66.2969C178.031 65.1094 176.562 63.4844 175.719 61.4219C174.656 61.4219 174.125 61.9375 174.125 62.9688C174.125 63.4375 174.297 63.9844 174.641 64.6094C175.016 65.2031 175.516 65.7344 176.141 66.2031C174.297 67.2969 171.906 67.8438 168.969 67.8438C165 67.8438 161.281 66.9375 157.812 65.125C154.375 63.2812 151.641 60.5156 149.609 56.8281C147.266 52.6094 146.094 47.5 146.094 41.5C146.094 33.5 148.328 27.2188 152.797 22.6562C157.297 18.0938 163.031 15.8125 170 15.8125C174.125 15.8125 177.719 16.5938 180.781 18.1562C181.125 17.8125 181.297 17.4531 181.297 17.0781C181.297 16.1406 180.188 15.3438 177.969 14.6875C175.75 14.0312 173.516 13.7031 171.266 13.7031C171.266 10.5156 170.844 7.96875 170 6.0625ZM248.797 43.7969C248.797 46.0469 249.047 47.8594 249.547 49.2344C250.047 50.6094 250.922 51.6875 252.172 52.4688C252.203 52.625 252.219 52.9219 252.219 53.3594V54.2031C252.219 58.6406 250.875 62.0938 248.188 64.5625C245.812 66.75 242.875 67.8438 239.375 67.8438C237 67.8438 234.828 67.2812 232.859 66.1562C230.891 65.0312 229.484 63.4062 228.641 61.2812C227.578 61.2812 227.047 61.7969 227.047 62.8281C227.047 63.7031 227.594 64.6875 228.688 65.7812C226.656 67.1562 223.594 67.8438 219.5 67.8438C213.719 67.8438 209.094 66.2812 205.625 63.1562C202.188 60 200.469 55.6094 200.469 49.9844C200.469 44.3281 202.297 39.9531 205.953 36.8594C209.297 34.0781 213.625 32.6875 218.938 32.6875C220.75 32.6875 222.5 32.8125 224.188 33.0625C225.312 33.2812 225.922 33.4062 226.016 33.4375C226.109 33.125 226.156 32.8594 226.156 32.6406C226.156 31.8281 225.469 31.2812 224.094 31C222.719 30.7188 220.922 30.5781 218.703 30.5781C213.984 30.5781 209.953 31.5312 206.609 33.4375C205.078 30.8438 204.312 27.5625 204.312 23.5938C204.312 21.3438 204.594 19.6719 205.156 18.5781C207.406 17.5469 210.266 16.6406 213.734 15.8594C217.203 15.0469 220.859 14.6406 224.703 14.6406C232.641 14.6406 238.641 16.375 242.703 19.8438C246.766 23.3125 248.797 28.2344 248.797 34.6094V43.7969ZM224.469 46.0938C223.156 46.0938 222.5 46.6875 222.5 47.875C222.5 49 223.266 49.5625 224.797 49.5625C225.859 49.5625 226.641 49.3125 227.141 48.8125C227.641 48.2812 227.891 47.375 227.891 46.0938C227.891 46.0938 226.75 46.0938 224.469 46.0938ZM303.781 43.7969C303.781 46.0469 304.031 47.8594 304.531 49.2344C305.031 50.6094 305.906 51.6875 307.156 52.4688C307.188 52.625 307.203 52.9219 307.203 53.3594V54.2031C307.203 58.5156 305.953 61.875 303.453 64.2812C300.984 66.6562 297.781 67.8438 293.844 67.8438C289.938 67.8438 286.766 66.7344 284.328 64.5156C281.484 61.9844 280.062 58.1406 280.062 52.9844C280.062 50.7969 280.156 48.875 280.344 47.2188C280.562 45.5312 280.703 44.3281 280.766 43.6094C280.859 42.8906 280.953 42.2188 281.047 41.5938C281.141 40.9688 281.188 40.0469 281.188 38.8281C281.188 37.6094 281.016 36.7344 280.672 36.2031C280.359 35.6719 279.906 35.4062 279.312 35.4062C278.75 35.4062 278.25 35.5312 277.812 35.7812L278.422 43.4219C277.859 46.5781 277.578 49.9219 277.578 53.4531C277.578 56.9844 278.375 60.2031 279.969 63.1094C276.906 66.2656 272.609 67.8438 267.078 67.8438C263.922 67.8438 261.188 67.0156 258.875 65.3594C256.188 63.4844 254.844 61 254.844 57.9062V35.2188C253 32.625 252.078 29.4375 252.078 25.6562C252.078 21.8438 253 18.5469 254.844 15.7656H263.188C265.406 15.7656 267.297 16.5938 268.859 18.25C267.484 19.5312 266.797 20.5938 266.797 21.4375C266.797 22.4062 267.344 22.8906 268.438 22.8906C269.812 20.5156 271.906 18.5469 274.719 16.9844C277.562 15.4219 280.781 14.6406 284.375 14.6406C289.781 14.6406 294.172 15.9688 297.547 18.625C301.797 21.9688 303.922 27.1562 303.922 34.1875L303.781 43.7969ZM358.953 15.3438L357.453 45.1094C357.828 45.2031 358.156 45.25 358.438 45.25C359.469 45.25 360.047 44.4688 360.172 42.9062L362.234 8.78125C363.203 7.9375 364.984 7.1875 367.578 6.53125C370.047 5.96875 372.281 5.6875 374.281 5.6875C379 5.6875 382.531 6.76562 384.875 8.92188C387.219 11.0781 388.391 13.8594 388.391 17.2656C388.391 19.1719 387.609 23.4531 386.047 30.1094C384.516 36.7344 382.297 45.7031 379.391 57.0156C378.328 60.9844 375.938 63.8438 372.219 65.5938C368.969 67.0938 364.672 67.8438 359.328 67.8438C355.953 67.8438 352.766 67.4688 349.766 66.7188C346.766 65.9688 344.359 64.8906 342.547 63.4844C340.078 58.0469 337.594 50.5781 335.094 41.0781C332.594 31.5469 330.719 21.9062 329.469 12.1562C332.406 7.8125 337.078 5.64062 343.484 5.64062C351.734 5.64062 356.891 8.875 358.953 15.3438ZM415.484 68.4531C406.828 68.4531 400 66.0469 395 61.2344C389.875 56.3906 387.312 49.7656 387.312 41.3594C387.312 32.9219 389.953 26.2344 395.234 21.2969C400.109 16.7031 406.281 14.4062 413.75 14.4062C421.219 14.4062 427.203 16.4688 431.703 20.5938C436.234 24.6875 438.5 29.7344 438.5 35.7344C438.5 41.0781 436.641 45.1094 432.922 47.8281C429.484 50.3906 424.797 51.6719 418.859 51.6719C414.422 51.6719 410.672 50.75 407.609 48.9062C407.359 49.0938 407.234 49.4375 407.234 49.9375C407.234 50.875 408.469 51.7344 410.938 52.5156C413.406 53.3594 416.203 53.7812 419.328 53.7812C422.484 53.7812 425.344 53.3906 427.906 52.6094C430.5 51.7969 432.578 50.8438 434.141 49.75C434.891 50.4062 435.484 51.625 435.922 53.4062C436.391 55.1562 436.625 56.7656 436.625 58.2344C436.625 59.6719 436.484 60.9531 436.203 62.0781C433.766 64.1406 431.266 65.6094 428.703 66.4844C425.078 67.7969 420.672 68.4531 415.484 68.4531ZM414.875 36.7188C416.438 36.7188 417.219 36.125 417.219 34.9375C417.219 33.8125 416.391 33.25 414.734 33.25C413.078 33.25 412.125 34.1406 411.875 35.9219C412.75 36.4531 413.75 36.7188 414.875 36.7188ZM454.672 67.6094C450.953 67.6094 447.984 66.9375 445.766 65.5938C443.297 64.1875 442.062 62.1094 442.062 59.3594V35.2188C440.219 32.625 439.297 29.4375 439.297 25.6562C439.297 21.8438 440.219 18.5469 442.062 15.7656H449.234C452.922 15.7656 455.562 16.9531 457.156 19.3281C456.375 20.2031 455.688 21.3125 455.094 22.6562C454.5 24 454.203 24.9688 454.203 25.5625C454.203 26.125 454.344 26.5469 454.625 26.8281C454.938 27.1094 455.375 27.25 455.938 27.25C457.031 22.9062 459.109 19.7188 462.172 17.6875C464.703 15.9688 467.828 15.1094 471.547 15.1094C476.172 15.1094 479.797 16.0938 482.422 18.0625C483.359 20.5625 483.828 23.625 483.828 27.25C483.828 30.8438 483.109 34.1094 481.672 37.0469C480.609 37.6094 479.141 38.0938 477.266 38.5C475.391 38.875 473.5 39.0625 471.594 39.0625C469.688 39.0625 467.969 38.9375 466.438 38.6875C464.938 38.4062 463.844 38.1562 463.156 37.9375C462.906 38.1875 462.781 38.5469 462.781 39.0156C462.781 39.4844 463.078 39.8438 463.672 40.0938C464.297 40.3125 465.328 40.5625 466.766 40.8438V64.375C463.359 66.5312 459.328 67.6094 454.672 67.6094ZM537.406 43.7969C537.406 46.0469 537.656 47.8594 538.156 49.2344C538.656 50.6094 539.531 51.6875 540.781 52.4688C540.812 52.625 540.828 52.9219 540.828 53.3594V54.2031C540.828 58.5156 539.578 61.875 537.078 64.2812C534.609 66.6562 531.406 67.8438 527.469 67.8438C523.562 67.8438 520.391 66.7344 517.953 64.5156C515.109 61.9844 513.688 58.1406 513.688 52.9844C513.688 50.7969 513.781 48.875 513.969 47.2188C514.188 45.5312 514.328 44.3281 514.391 43.6094C514.484 42.8906 514.578 42.2188 514.672 41.5938C514.766 40.9688 514.812 40.0469 514.812 38.8281C514.812 37.6094 514.641 36.7344 514.297 36.2031C513.984 35.6719 513.531 35.4062 512.938 35.4062C512.375 35.4062 511.875 35.5312 511.438 35.7812L512.047 43.4219C511.484 46.5781 511.203 49.9219 511.203 53.4531C511.203 56.9844 512 60.2031 513.594 63.1094C510.531 66.2656 506.234 67.8438 500.703 67.8438C497.547 67.8438 494.812 67.0156 492.5 65.3594C489.812 63.4844 488.469 61 488.469 57.9062V35.2188C486.625 32.625 485.703 29.4375 485.703 25.6562C485.703 21.8438 486.625 18.5469 488.469 15.7656H496.812C499.031 15.7656 500.922 16.5938 502.484 18.25C501.109 19.5312 500.422 20.5938 500.422 21.4375C500.422 22.4062 500.969 22.8906 502.062 22.8906C503.438 20.5156 505.531 18.5469 508.344 16.9844C511.188 15.4219 514.406 14.6406 518 14.6406C523.406 14.6406 527.797 15.9688 531.172 18.625C535.422 21.9688 537.547 27.1562 537.547 34.1875L537.406 43.7969ZM566.656 40.8906V49.0938C566.875 49.3125 567.234 49.4219 567.734 49.4219C568.234 49.4219 568.594 49.25 568.812 48.9062C569.031 48.5625 569.141 47.9688 569.141 47.125V40.4219C569.141 37.4219 569.016 35.4375 568.766 34.4688C568.516 33.4688 568.047 32.9688 567.359 32.9688C566.922 32.9688 566.547 33.125 566.234 33.4375C566.516 36.5312 566.656 39.0156 566.656 40.8906ZM549.125 61.6562C544 56.7188 541.438 50.0312 541.438 41.5938C541.438 33.125 543.844 26.4531 548.656 21.5781C553.5 16.6719 559.844 14.2188 567.688 14.2188C575.531 14.2188 581.875 16.7656 586.719 21.8594C591.531 26.9531 593.938 33.5938 593.938 41.7812C593.938 49.9375 591.609 56.4219 586.953 61.2344C582.328 66.0469 576.031 68.4531 568.062 68.4531C560.094 68.4531 553.781 66.1875 549.125 61.6562ZM646.625 43.7969C646.625 46.0469 646.875 47.8594 647.375 49.2344C647.875 50.6094 648.75 51.6875 650 52.4688C650.031 52.625 650.047 52.9219 650.047 53.3594V54.2031C650.047 58.5156 648.797 61.875 646.297 64.2812C643.828 66.6562 640.625 67.8438 636.688 67.8438C632.781 67.8438 629.609 66.7344 627.172 64.5156C624.328 61.9844 622.906 58.1406 622.906 52.9844C622.906 50.7969 623 48.875 623.188 47.2188C623.406 45.5312 623.547 44.3281 623.609 43.6094C623.703 42.8906 623.797 42.2188 623.891 41.5938C623.984 40.9688 624.031 40.0469 624.031 38.8281C624.031 37.6094 623.859 36.7344 623.516 36.2031C623.203 35.6719 622.75 35.4062 622.156 35.4062C621.594 35.4062 621.094 35.5312 620.656 35.7812L621.266 43.4219C620.703 46.5781 620.422 49.9219 620.422 53.4531C620.422 56.9844 621.219 60.2031 622.812 63.1094C619.75 66.2656 615.453 67.8438 609.922 67.8438C606.766 67.8438 604.031 67.0156 601.719 65.3594C599.031 63.4844 597.688 61 597.688 57.9062V35.2188C595.844 32.625 594.922 29.4375 594.922 25.6562C594.922 21.8438 595.844 18.5469 597.688 15.7656H606.031C608.25 15.7656 610.141 16.5938 611.703 18.25C610.328 19.5312 609.641 20.5938 609.641 21.4375C609.641 22.4062 610.188 22.8906 611.281 22.8906C612.656 20.5156 614.75 18.5469 617.562 16.9844C620.406 15.4219 623.625 14.6406 627.219 14.6406C632.625 14.6406 637.016 15.9688 640.391 18.625C644.641 21.9688 646.766 27.1562 646.766 34.1875L646.625 43.7969Z" fill="#C6C6C6"/>
</svg>
