<svg width="567" height="74" viewBox="0 0 567 74" fill="none" xmlns="http://www.w3.org/2000/svg">
<path d="M9.616 73.344C7.056 73.344 4.048 72.864 0.592 71.904V62.4C1.936 62.848 3.184 63.072 4.336 63.072C6.64 63.072 8.08 62.208 8.656 60.48C9.296 58.752 9.616 56.192 9.616 52.8V1.152L23.632 -5.72205e-06V53.952C23.632 60.16 22.544 64.96 20.368 68.352C18.256 71.68 14.672 73.344 9.616 73.344ZM53.3928 73.248C46.9288 73.248 41.9368 70.688 38.4168 65.568C34.9608 60.448 33.2328 53.632 33.2328 45.12C33.2328 36.672 34.9608 29.92 38.4168 24.864C41.8728 19.808 46.8648 17.28 53.3928 17.28C59.8568 17.28 64.8488 19.808 68.3688 24.864C71.9528 29.92 73.7448 36.672 73.7448 45.12C73.7448 53.568 71.9528 60.384 68.3688 65.568C64.8488 70.688 59.8568 73.248 53.3928 73.248ZM53.3928 63.264C56.2728 63.264 58.1288 61.504 58.9608 57.984C59.7928 54.464 60.2088 50.144 60.2088 45.024C60.2088 39.904 59.7928 35.584 58.9608 32.064C58.1288 28.544 56.2728 26.784 53.3928 26.784C50.5128 26.784 48.6888 28.448 47.9208 31.776C47.1528 35.104 46.7688 39.168 46.7688 43.968C46.7688 49.856 47.1528 54.56 47.9208 58.08C48.6888 61.536 50.5128 63.264 53.3928 63.264ZM82.8873 19.104L96.3273 17.952V26.688C98.2473 23.936 100.615 21.728 103.431 20.064C106.311 18.336 109.959 17.472 114.375 17.472V30.624C112.071 30.624 109.031 31.04 105.255 31.872C101.543 32.64 98.5673 34.016 96.3273 36V71.424L82.8873 72.576V19.104ZM134.852 73.248C124.484 73.248 119.3 63.84 119.3 45.024C119.3 35.232 120.58 28.16 123.14 23.808C125.7 19.456 129.7 17.28 135.14 17.28C137.444 17.28 139.652 18.048 141.764 19.584C143.876 21.056 145.412 22.912 146.372 25.152V1.72799L159.908 -5.72205e-06V71.424L149.732 72.576L146.372 65.28C145.732 67.648 144.548 69.568 142.82 71.04C141.092 72.512 138.436 73.248 134.852 73.248ZM139.844 63.648C141.764 63.648 143.332 62.592 144.548 60.48C145.764 58.304 146.372 54.656 146.372 49.536V31.488C144.516 28.608 142.34 27.168 139.844 27.168C137.732 27.168 136.164 27.936 135.14 29.472C134.18 30.944 133.54 32.896 133.22 35.328C132.964 37.76 132.836 40.992 132.836 45.024C132.836 49.12 132.964 52.448 133.22 55.008C133.54 57.568 134.212 59.648 135.236 61.248C136.26 62.848 137.796 63.648 139.844 63.648ZM180.219 73.248C177.915 73.248 175.835 72.544 173.979 71.136C172.123 69.664 170.683 67.712 169.659 65.28C168.635 62.784 168.123 60 168.123 56.928C168.123 49.952 170.491 45.056 175.227 42.24C180.027 39.36 185.595 37.728 191.931 37.344C191.931 33.888 191.707 31.328 191.259 29.664C190.811 28 189.723 27.168 187.995 27.168C186.523 27.168 185.403 27.744 184.635 28.896C183.867 30.048 183.387 31.52 183.195 33.312L170.043 31.008C170.683 26.08 172.699 22.56 176.091 20.448C179.483 18.336 183.451 17.28 187.995 17.28C193.819 17.28 198.171 18.816 201.051 21.888C203.995 24.96 205.467 28.96 205.467 33.888V61.824C205.467 64.832 205.947 68.032 206.907 71.424L193.755 72.576L192.219 65.952C191.067 68 189.371 69.728 187.131 71.136C184.891 72.544 182.587 73.248 180.219 73.248ZM186.459 63.648C187.547 63.648 188.443 63.392 189.147 62.88C189.915 62.368 190.843 61.536 191.931 60.384V45.408C188.731 45.408 186.171 46.272 184.251 48C182.331 49.728 181.371 52.416 181.371 56.064C181.371 58.496 181.787 60.384 182.619 61.728C183.515 63.008 184.795 63.648 186.459 63.648ZM216.575 19.104L230.015 17.952V24.864C232.767 22.432 235.455 20.576 238.079 19.296C240.767 17.952 243.231 17.28 245.471 17.28C248.863 17.28 251.615 18.528 253.727 21.024C255.903 23.456 256.991 26.752 256.991 30.912V71.424L243.551 72.576V36C243.551 31.2 241.919 28.8 238.655 28.8C237.567 28.8 236.351 29.12 235.007 29.76C233.727 30.4 232.063 31.328 230.015 32.544V71.424L216.575 72.576V19.104ZM303.666 72L286.674 0.575998L303.378 -5.72205e-06L312.882 49.728L322.866 0.575998L336.402 -5.72205e-06L319.122 72H303.666ZM360.134 73.248C353.734 73.248 348.838 70.72 345.446 65.664C342.054 60.544 340.358 53.76 340.358 45.312C340.358 36.736 342.086 29.92 345.542 24.864C348.998 19.808 354.022 17.28 360.614 17.28C366.886 17.28 371.686 19.808 375.014 24.864C378.342 29.92 380.006 36.736 380.006 45.312C380.006 45.824 379.91 46.208 379.718 46.464C379.526 46.656 379.43 46.784 379.43 46.848H353.798C353.798 51.008 354.342 54.816 355.43 58.272C356.518 61.664 358.182 63.36 360.422 63.36C362.918 63.36 364.774 61.92 365.99 59.04C367.206 56.16 367.846 54.656 367.91 54.528L378.086 58.368C376.742 62.976 374.598 66.624 371.654 69.312C368.71 71.936 364.87 73.248 360.134 73.248ZM366.758 39.072C366.758 35.232 366.246 32.192 365.222 29.952C364.198 27.712 362.598 26.592 360.422 26.592C359.334 26.592 358.278 27.136 357.254 28.224C356.23 29.312 355.398 30.816 354.758 32.736C354.118 34.656 353.798 36.768 353.798 39.072H366.758ZM388.137 19.104L401.577 17.952V26.688C403.497 23.936 405.865 21.728 408.681 20.064C411.561 18.336 415.209 17.472 419.625 17.472V30.624C417.321 30.624 414.281 31.04 410.505 31.872C406.793 32.64 403.817 34.016 401.577 36V71.424L388.137 72.576V19.104ZM426.95 19.104L440.39 17.952V24.864C443.142 22.432 445.83 20.576 448.454 19.296C451.142 17.952 453.606 17.28 455.846 17.28C459.238 17.28 461.99 18.528 464.102 21.024C466.278 23.456 467.366 26.752 467.366 30.912V71.424L453.926 72.576V36C453.926 31.2 452.294 28.8 449.03 28.8C447.942 28.8 446.726 29.12 445.382 29.76C444.102 30.4 442.438 31.328 440.39 32.544V71.424L426.95 72.576V19.104ZM496.268 73.248C489.804 73.248 484.812 70.688 481.292 65.568C477.836 60.448 476.108 53.632 476.108 45.12C476.108 36.672 477.836 29.92 481.292 24.864C484.748 19.808 489.74 17.28 496.268 17.28C502.732 17.28 507.724 19.808 511.244 24.864C514.828 29.92 516.62 36.672 516.62 45.12C516.62 53.568 514.828 60.384 511.244 65.568C507.724 70.688 502.732 73.248 496.268 73.248ZM496.268 63.264C499.148 63.264 501.004 61.504 501.836 57.984C502.668 54.464 503.084 50.144 503.084 45.024C503.084 39.904 502.668 35.584 501.836 32.064C501.004 28.544 499.148 26.784 496.268 26.784C493.388 26.784 491.564 28.448 490.796 31.776C490.028 35.104 489.644 39.168 489.644 43.968C489.644 49.856 490.028 54.56 490.796 58.08C491.564 61.536 493.388 63.264 496.268 63.264ZM525.762 19.104L539.202 17.952V24.864C541.954 22.432 544.642 20.576 547.266 19.296C549.954 17.952 552.418 17.28 554.658 17.28C558.05 17.28 560.802 18.528 562.914 21.024C565.09 23.456 566.178 26.752 566.178 30.912V71.424L552.738 72.576V36C552.738 31.2 551.106 28.8 547.842 28.8C546.754 28.8 545.538 29.12 544.194 29.76C542.914 30.4 541.25 31.328 539.202 32.544V71.424L525.762 72.576V19.104Z" fill="#C6C6C6"/>
</svg>
