<svg width="461" height="47" viewBox="0 0 461 47" fill="none" xmlns="http://www.w3.org/2000/svg">
<path d="M10.9 3.792C11.3987 3.70133 12.192 3.588 13.28 3.452C14.368 3.27067 15.4107 3.18 16.408 3.18C17.4507 3.18 18.3573 3.27067 19.128 3.452C19.944 3.588 20.624 3.86 21.168 4.268C21.712 4.676 22.12 5.24267 22.392 5.968C22.664 6.69333 22.8 7.64533 22.8 8.824V33.984C22.8 38.0187 21.644 41.056 19.332 43.096C17.02 45.0907 13.62 46.088 9.132 46.088C6.77467 46.088 4.87067 45.7253 3.42 45C2.37733 44.5013 1.60667 43.8213 1.108 42.96C0.654667 42.0987 0.428 41.124 0.428 40.036C0.428 39.1293 0.541333 38.336 0.768 37.656C1.04 36.976 1.35733 36.432 1.72 36.024C2.58133 36.2053 3.30667 36.3413 3.896 36.432C4.53067 36.4773 5.21067 36.5 5.936 36.5C7.704 36.5 8.97333 36.0693 9.744 35.208C10.5147 34.3013 10.9 32.9867 10.9 31.264V3.792ZM66.1234 28.476C66.1234 31.2867 65.6928 33.8027 64.8314 36.024C63.9701 38.2 62.7461 40.036 61.1594 41.532C59.6181 43.028 57.7594 44.1613 55.5834 44.932C53.4074 45.7027 50.9821 46.088 48.3074 46.088C45.6328 46.088 43.2074 45.68 41.0314 44.864C38.8554 44.048 36.9741 42.892 35.3874 41.396C33.8461 39.8547 32.6448 37.996 31.7834 35.82C30.9221 33.644 30.4914 31.196 30.4914 28.476C30.4914 25.8013 30.9221 23.376 31.7834 21.2C32.6448 19.024 33.8461 17.188 35.3874 15.692C36.9741 14.1507 38.8554 12.972 41.0314 12.156C43.2074 11.34 45.6328 10.932 48.3074 10.932C50.9821 10.932 53.4074 11.3627 55.5834 12.224C57.7594 13.04 59.6181 14.2187 61.1594 15.76C62.7461 17.256 63.9701 19.092 64.8314 21.268C65.6928 23.444 66.1234 25.8467 66.1234 28.476ZM42.3234 28.476C42.3234 31.2413 42.8448 33.372 43.8874 34.868C44.9754 36.3187 46.4714 37.044 48.3754 37.044C50.2794 37.044 51.7301 36.296 52.7274 34.8C53.7701 33.304 54.2914 31.196 54.2914 28.476C54.2914 25.756 53.7701 23.6707 52.7274 22.22C51.6848 20.724 50.2114 19.976 48.3074 19.976C46.4034 19.976 44.9301 20.724 43.8874 22.22C42.8448 23.6707 42.3234 25.756 42.3234 28.476ZM84.6832 44.932C84.2299 45.068 83.5045 45.204 82.5072 45.34C81.5552 45.476 80.5579 45.544 79.5152 45.544C78.5179 45.544 77.6112 45.476 76.7952 45.34C76.0245 45.204 75.3672 44.932 74.8232 44.524C74.2792 44.116 73.8485 43.572 73.5312 42.892C73.2592 42.1667 73.1232 41.2373 73.1232 40.104V19.704C73.1232 18.6613 73.3045 17.7773 73.6672 17.052C74.0752 16.2813 74.6419 15.6013 75.3672 15.012C76.0925 14.4227 76.9765 13.9013 78.0192 13.448C79.1072 12.9493 80.2632 12.5187 81.4872 12.156C82.7112 11.7933 83.9805 11.5213 85.2952 11.34C86.6099 11.1133 87.9245 11 89.2392 11C91.4152 11 93.1379 11.4307 94.4072 12.292C95.6765 13.108 96.3112 14.468 96.3112 16.372C96.3112 17.0067 96.2205 17.6413 96.0392 18.276C95.8579 18.8653 95.6312 19.4093 95.3592 19.908C94.4072 19.908 93.4325 19.9533 92.4352 20.044C91.4379 20.1347 90.4632 20.2707 89.5112 20.452C88.5592 20.6333 87.6525 20.8373 86.7912 21.064C85.9752 21.2453 85.2725 21.472 84.6832 21.744V44.932ZM99.7505 28.476C99.7505 25.484 100.204 22.9 101.111 20.724C102.017 18.5027 103.264 16.6667 104.851 15.216C106.483 13.7653 108.364 12.7 110.495 12.02C112.671 11.2947 115.005 10.932 117.499 10.932C118.405 10.932 119.289 11.0227 120.151 11.204C121.012 11.34 121.715 11.5213 122.259 11.748V0.731998C122.712 0.595997 123.437 0.459998 124.435 0.324C125.432 0.142666 126.452 0.0519991 127.495 0.0519991C128.492 0.0519991 129.376 0.119998 130.147 0.255996C130.963 0.391997 131.643 0.663998 132.187 1.072C132.731 1.48 133.139 2.04666 133.411 2.772C133.683 3.452 133.819 4.35867 133.819 5.492V37.724C133.819 39.8547 132.821 41.5547 130.827 42.824C129.512 43.6853 127.812 44.4333 125.727 45.068C123.641 45.748 121.239 46.088 118.519 46.088C115.572 46.088 112.92 45.68 110.563 44.864C108.251 44.048 106.279 42.8693 104.647 41.328C103.06 39.7867 101.836 37.9507 100.975 35.82C100.159 33.644 99.7505 31.196 99.7505 28.476ZM119.063 19.976C116.615 19.976 114.733 20.6787 113.419 22.084C112.104 23.4893 111.447 25.62 111.447 28.476C111.447 31.2867 112.059 33.4173 113.283 34.868C114.507 36.2733 116.275 36.976 118.587 36.976C119.403 36.976 120.128 36.8627 120.763 36.636C121.443 36.364 121.964 36.0693 122.327 35.752V20.792C121.42 20.248 120.332 19.976 119.063 19.976ZM156.526 37.656C157.297 37.656 158.136 37.588 159.042 37.452C159.994 37.2707 160.697 37.044 161.15 36.772V31.332L156.254 31.74C154.985 31.8307 153.942 32.1027 153.126 32.556C152.31 33.0093 151.902 33.6893 151.902 34.596C151.902 35.5027 152.242 36.2507 152.922 36.84C153.648 37.384 154.849 37.656 156.526 37.656ZM155.982 10.932C158.43 10.932 160.652 11.1813 162.646 11.68C164.686 12.1787 166.409 12.9493 167.814 13.992C169.265 14.9893 170.376 16.2813 171.146 17.868C171.917 19.4093 172.302 21.2453 172.302 23.376V38.608C172.302 39.7867 171.962 40.7613 171.282 41.532C170.648 42.2573 169.877 42.892 168.97 43.436C166.024 45.204 161.876 46.088 156.526 46.088C154.124 46.088 151.948 45.8613 149.998 45.408C148.094 44.9547 146.44 44.2747 145.034 43.368C143.674 42.4613 142.609 41.3053 141.838 39.9C141.113 38.4947 140.75 36.8627 140.75 35.004C140.75 31.876 141.68 29.4733 143.538 27.796C145.397 26.1187 148.276 25.076 152.174 24.668L161.082 23.716V23.24C161.082 21.9253 160.493 20.996 159.314 20.452C158.181 19.8627 156.526 19.568 154.35 19.568C152.628 19.568 150.95 19.7493 149.318 20.112C147.686 20.4747 146.213 20.928 144.898 21.472C144.309 21.064 143.81 20.452 143.402 19.636C142.994 18.7747 142.79 17.8907 142.79 16.984C142.79 15.8053 143.062 14.876 143.606 14.196C144.196 13.4707 145.08 12.8587 146.258 12.36C147.573 11.8613 149.114 11.4987 150.882 11.272C152.696 11.0453 154.396 10.932 155.982 10.932ZM201.675 24.056C201.675 22.6507 201.267 21.6307 200.451 20.996C199.68 20.316 198.615 19.976 197.255 19.976C196.348 19.976 195.441 20.0893 194.535 20.316C193.673 20.5427 192.925 20.8827 192.291 21.336V44.932C191.837 45.068 191.112 45.204 190.115 45.34C189.163 45.476 188.165 45.544 187.123 45.544C186.125 45.544 185.219 45.476 184.403 45.34C183.632 45.204 182.975 44.932 182.431 44.524C181.887 44.116 181.456 43.572 181.139 42.892C180.867 42.1667 180.731 41.2373 180.731 40.104V19.704C180.731 18.48 180.98 17.4827 181.479 16.712C182.023 15.9413 182.748 15.2387 183.655 14.604C185.196 13.516 187.123 12.632 189.435 11.952C191.792 11.272 194.399 10.932 197.255 10.932C202.377 10.932 206.321 12.0653 209.087 14.332C211.852 16.5533 213.235 19.6587 213.235 23.648V44.932C212.781 45.068 212.056 45.204 211.059 45.34C210.107 45.476 209.109 45.544 208.067 45.544C207.069 45.544 206.163 45.476 205.347 45.34C204.576 45.204 203.919 44.932 203.375 44.524C202.831 44.116 202.4 43.572 202.083 42.892C201.811 42.1667 201.675 41.2373 201.675 40.104V24.056ZM262.276 43.64C261.642 44.184 260.644 44.66 259.284 45.068C257.97 45.476 256.519 45.68 254.932 45.68C253.028 45.68 251.396 45.408 250.036 44.864C248.676 44.2747 247.747 43.4813 247.248 42.484C246.75 41.4413 246.138 40.104 245.412 38.472C244.687 36.7947 243.916 34.936 243.1 32.896C242.33 30.856 241.514 28.7027 240.652 26.436C239.836 24.124 239.043 21.7893 238.272 19.432C237.502 17.0747 236.776 14.7627 236.096 12.496C235.416 10.2293 234.827 8.09867 234.328 6.104C234.963 5.46933 235.87 4.90267 237.048 4.404C238.272 3.86 239.564 3.588 240.924 3.588C242.602 3.588 243.962 3.95066 245.004 4.676C246.092 5.356 246.886 6.648 247.384 8.552C248.608 12.9947 249.832 17.256 251.056 21.336C252.326 25.3707 253.64 29.5867 255 33.984H255.408C256.632 29.7227 257.879 25.076 259.148 20.044C260.463 15.012 261.71 10.0027 262.888 5.016C263.704 4.608 264.566 4.268 265.472 3.996C266.424 3.724 267.49 3.588 268.668 3.588C270.346 3.588 271.774 3.97333 272.952 4.744C274.131 5.46933 274.72 6.69333 274.72 8.416C274.72 9.41333 274.471 10.864 273.972 12.768C273.519 14.672 272.907 16.8253 272.136 19.228C271.411 21.5853 270.572 24.056 269.62 26.64C268.714 29.224 267.784 31.672 266.832 33.984C265.926 36.2507 265.064 38.268 264.248 40.036C263.432 41.7587 262.775 42.96 262.276 43.64ZM296.384 46.088C293.71 46.088 291.216 45.7253 288.904 45C286.638 44.2293 284.643 43.096 282.92 41.6C281.243 40.104 279.906 38.2227 278.908 35.956C277.956 33.6893 277.48 31.0373 277.48 28C277.48 25.008 277.956 22.4467 278.908 20.316C279.906 18.14 281.198 16.372 282.784 15.012C284.371 13.6067 286.184 12.5867 288.224 11.952C290.264 11.272 292.35 10.932 294.48 10.932C296.883 10.932 299.059 11.2947 301.008 12.02C303.003 12.7453 304.703 13.7427 306.108 15.012C307.559 16.2813 308.67 17.8 309.44 19.568C310.256 21.336 310.664 23.2627 310.664 25.348C310.664 26.8893 310.234 28.068 309.372 28.884C308.511 29.7 307.31 30.2213 305.768 30.448L288.972 32.964C289.471 34.46 290.491 35.5933 292.032 36.364C293.574 37.0893 295.342 37.452 297.336 37.452C299.195 37.452 300.94 37.2253 302.572 36.772C304.25 36.2733 305.61 35.7067 306.652 35.072C307.378 35.5253 307.99 36.16 308.488 36.976C308.987 37.792 309.236 38.6533 309.236 39.56C309.236 41.6 308.284 43.1187 306.38 44.116C304.93 44.8867 303.298 45.408 301.484 45.68C299.671 45.952 297.971 46.088 296.384 46.088ZM294.48 19.364C293.392 19.364 292.44 19.5453 291.624 19.908C290.854 20.2707 290.219 20.7467 289.72 21.336C289.222 21.88 288.836 22.5147 288.564 23.24C288.338 23.92 288.202 24.6227 288.156 25.348L299.784 23.444C299.648 22.5373 299.15 21.6307 298.288 20.724C297.427 19.8173 296.158 19.364 294.48 19.364ZM329.148 44.932C328.695 45.068 327.97 45.204 326.972 45.34C326.02 45.476 325.023 45.544 323.98 45.544C322.983 45.544 322.076 45.476 321.26 45.34C320.49 45.204 319.832 44.932 319.288 44.524C318.744 44.116 318.314 43.572 317.996 42.892C317.724 42.1667 317.588 41.2373 317.588 40.104V19.704C317.588 18.6613 317.77 17.7773 318.132 17.052C318.54 16.2813 319.107 15.6013 319.832 15.012C320.558 14.4227 321.442 13.9013 322.484 13.448C323.572 12.9493 324.728 12.5187 325.952 12.156C327.176 11.7933 328.446 11.5213 329.76 11.34C331.075 11.1133 332.39 11 333.704 11C335.88 11 337.603 11.4307 338.872 12.292C340.142 13.108 340.776 14.468 340.776 16.372C340.776 17.0067 340.686 17.6413 340.504 18.276C340.323 18.8653 340.096 19.4093 339.824 19.908C338.872 19.908 337.898 19.9533 336.9 20.044C335.903 20.1347 334.928 20.2707 333.976 20.452C333.024 20.6333 332.118 20.8373 331.256 21.064C330.44 21.2453 329.738 21.472 329.148 21.744V44.932ZM367.185 24.056C367.185 22.6507 366.777 21.6307 365.961 20.996C365.191 20.316 364.125 19.976 362.765 19.976C361.859 19.976 360.952 20.0893 360.045 20.316C359.184 20.5427 358.436 20.8827 357.801 21.336V44.932C357.348 45.068 356.623 45.204 355.625 45.34C354.673 45.476 353.676 45.544 352.633 45.544C351.636 45.544 350.729 45.476 349.913 45.34C349.143 45.204 348.485 44.932 347.941 44.524C347.397 44.116 346.967 43.572 346.649 42.892C346.377 42.1667 346.241 41.2373 346.241 40.104V19.704C346.241 18.48 346.491 17.4827 346.989 16.712C347.533 15.9413 348.259 15.2387 349.165 14.604C350.707 13.516 352.633 12.632 354.945 11.952C357.303 11.272 359.909 10.932 362.765 10.932C367.888 10.932 371.832 12.0653 374.597 14.332C377.363 16.5533 378.745 19.6587 378.745 23.648V44.932C378.292 45.068 377.567 45.204 376.569 45.34C375.617 45.476 374.62 45.544 373.577 45.544C372.58 45.544 371.673 45.476 370.857 45.34C370.087 45.204 369.429 44.932 368.885 44.524C368.341 44.116 367.911 43.572 367.593 42.892C367.321 42.1667 367.185 41.2373 367.185 40.104V24.056ZM421.45 28.476C421.45 31.2867 421.019 33.8027 420.158 36.024C419.297 38.2 418.073 40.036 416.486 41.532C414.945 43.028 413.086 44.1613 410.91 44.932C408.734 45.7027 406.309 46.088 403.634 46.088C400.959 46.088 398.534 45.68 396.358 44.864C394.182 44.048 392.301 42.892 390.714 41.396C389.173 39.8547 387.971 37.996 387.11 35.82C386.249 33.644 385.818 31.196 385.818 28.476C385.818 25.8013 386.249 23.376 387.11 21.2C387.971 19.024 389.173 17.188 390.714 15.692C392.301 14.1507 394.182 12.972 396.358 12.156C398.534 11.34 400.959 10.932 403.634 10.932C406.309 10.932 408.734 11.3627 410.91 12.224C413.086 13.04 414.945 14.2187 416.486 15.76C418.073 17.256 419.297 19.092 420.158 21.268C421.019 23.444 421.45 25.8467 421.45 28.476ZM397.65 28.476C397.65 31.2413 398.171 33.372 399.214 34.868C400.302 36.3187 401.798 37.044 403.702 37.044C405.606 37.044 407.057 36.296 408.054 34.8C409.097 33.304 409.618 31.196 409.618 28.476C409.618 25.756 409.097 23.6707 408.054 22.22C407.011 20.724 405.538 19.976 403.634 19.976C401.73 19.976 400.257 20.724 399.214 22.22C398.171 23.6707 397.65 25.756 397.65 28.476ZM449.394 24.056C449.394 22.6507 448.986 21.6307 448.17 20.996C447.399 20.316 446.334 19.976 444.974 19.976C444.067 19.976 443.16 20.0893 442.254 20.316C441.392 20.5427 440.644 20.8827 440.01 21.336V44.932C439.556 45.068 438.831 45.204 437.834 45.34C436.882 45.476 435.884 45.544 434.842 45.544C433.844 45.544 432.938 45.476 432.122 45.34C431.351 45.204 430.694 44.932 430.15 44.524C429.606 44.116 429.175 43.572 428.858 42.892C428.586 42.1667 428.45 41.2373 428.45 40.104V19.704C428.45 18.48 428.699 17.4827 429.198 16.712C429.742 15.9413 430.467 15.2387 431.374 14.604C432.915 13.516 434.842 12.632 437.154 11.952C439.511 11.272 442.118 10.932 444.974 10.932C450.096 10.932 454.04 12.0653 456.806 14.332C459.571 16.5533 460.954 19.6587 460.954 23.648V44.932C460.5 45.068 459.775 45.204 458.778 45.34C457.826 45.476 456.828 45.544 455.786 45.544C454.788 45.544 453.882 45.476 453.066 45.34C452.295 45.204 451.638 44.932 451.094 44.524C450.55 44.116 450.119 43.572 449.802 42.892C449.53 42.1667 449.394 41.2373 449.394 40.104V24.056Z" fill="#C6C6C6"/>
</svg>
