<svg width="344" height="34" viewBox="0 0 344 34" fill="none" xmlns="http://www.w3.org/2000/svg">
<path d="M13.03 33.69C10.5153 33.69 8.27667 33.184 6.314 32.172C4.382 31.1293 2.87933 29.6727 1.806 27.802C0.732667 25.9007 0.196 23.7233 0.196 21.27V18.004H7.418V20.81C7.418 21.914 7.648 22.9107 8.108 23.8C8.568 24.6893 9.212 25.3793 10.04 25.87C10.868 26.33 11.8187 26.56 12.892 26.56C14.4867 26.56 15.7593 26.0387 16.71 24.996C17.6913 23.9227 18.182 22.5273 18.182 20.81V0.799998H25.542V21.27C25.542 23.7233 25.0207 25.9007 23.978 27.802C22.966 29.6727 21.5093 31.1293 19.608 32.172C17.7373 33.184 15.5447 33.69 13.03 33.69ZM41.9906 33.46C39.5986 33.46 37.4366 32.9387 35.5046 31.896C33.6033 30.8533 32.1006 29.4273 30.9966 27.618C29.9233 25.778 29.3866 23.7387 29.3866 21.5C29.3866 19.2307 29.9233 17.1913 30.9966 15.382C32.1006 13.5727 33.6033 12.1467 35.5046 11.104C37.4366 10.0613 39.5986 9.54 41.9906 9.54C44.3519 9.54 46.4833 10.0613 48.3846 11.104C50.3166 12.1467 51.8346 13.588 52.9386 15.428C54.0426 17.2373 54.5946 19.2613 54.5946 21.5C54.5946 23.7387 54.0426 25.778 52.9386 27.618C51.8346 29.4273 50.3166 30.8533 48.3846 31.896C46.4833 32.9387 44.3519 33.46 41.9906 33.46ZM41.9906 27.526C43.0946 27.526 44.1066 27.2653 45.0266 26.744C45.9466 26.2227 46.6673 25.502 47.1886 24.582C47.7406 23.662 48.0166 22.6347 48.0166 21.5C48.0166 20.3653 47.7406 19.338 47.1886 18.418C46.6673 17.498 45.9466 16.7773 45.0266 16.256C44.1066 15.704 43.0946 15.428 41.9906 15.428C40.8559 15.428 39.8286 15.704 38.9086 16.256C37.9886 16.7773 37.2526 17.498 36.7006 18.418C36.1793 19.338 35.9186 20.3653 35.9186 21.5C35.9186 22.6347 36.1793 23.662 36.7006 24.582C37.2526 25.502 37.9886 26.2227 38.9086 26.744C39.8286 27.2653 40.8559 27.526 41.9906 27.526ZM59.1507 33V10H65.5448V17.866C65.9434 15.5353 66.8174 13.5727 68.1668 11.978C69.5468 10.3527 71.3254 9.54 73.5028 9.54C75.0668 9.54 76.3548 9.87733 77.3668 10.552C78.4094 11.2267 79.1608 12.208 79.6208 13.496C80.1114 14.784 80.3568 16.3787 80.3568 18.28V20.488H73.9628V19.568C73.9628 18.28 73.6254 17.2987 72.9508 16.624C72.3068 15.9187 71.4174 15.566 70.2827 15.566C69.3627 15.566 68.5501 15.8113 67.8448 16.302C67.1394 16.762 66.5721 17.4213 66.1428 18.28C65.7441 19.1387 65.5448 20.074 65.5448 21.086V33H59.1507ZM90.9321 33.46C89.1227 33.46 87.4821 32.9387 86.0101 31.896C84.5687 30.8533 83.4187 29.4273 82.5601 27.618C81.7321 25.778 81.3181 23.7387 81.3181 21.5C81.3181 19.2613 81.7321 17.2373 82.5601 15.428C83.4187 13.588 84.5687 12.1467 86.0101 11.104C87.4821 10.0613 89.1227 9.54 90.9321 9.54C93.0481 9.54 94.8727 10.322 96.4061 11.886C97.9394 13.4193 98.9821 15.4587 99.5341 18.004V0.339998H105.928V33H99.5341V24.996C98.9821 27.5413 97.9394 29.596 96.4061 31.16C94.8727 32.6933 93.0481 33.46 90.9321 33.46ZM93.7841 27.526C94.8881 27.526 95.8847 27.2653 96.7741 26.744C97.6941 26.2227 98.3994 25.502 98.8901 24.582C99.4114 23.662 99.6721 22.6347 99.6721 21.5C99.6721 20.3653 99.4114 19.338 98.8901 18.418C98.3994 17.498 97.6941 16.7773 96.7741 16.256C95.8847 15.704 94.8881 15.428 93.7841 15.428C92.6801 15.428 91.6681 15.704 90.7481 16.256C89.8587 16.7773 89.1534 17.498 88.6321 18.418C88.1107 19.338 87.8501 20.3653 87.8501 21.5C87.8501 22.6347 88.1107 23.662 88.6321 24.582C89.1534 25.502 89.8587 26.2227 90.7481 26.744C91.6681 27.2653 92.6801 27.526 93.7841 27.526ZM117.165 33.552C115.11 33.552 113.454 33.0613 112.197 32.08C110.939 31.068 110.311 29.642 110.311 27.802C110.311 26.0233 110.893 24.6433 112.059 23.662C113.255 22.6807 114.635 22.006 116.199 21.638C117.793 21.27 119.587 20.994 121.581 20.81C123.145 20.718 124.356 20.5187 125.215 20.212C126.104 19.9053 126.549 19.3227 126.549 18.464C126.549 17.2373 126.119 16.302 125.261 15.658C124.433 14.9833 123.421 14.646 122.225 14.646C120.814 14.646 119.664 15.0293 118.775 15.796C117.885 16.5627 117.364 17.636 117.211 19.016H111.277C111.369 17.0227 111.921 15.3207 112.933 13.91C113.945 12.4687 115.263 11.38 116.889 10.644C118.545 9.908 120.354 9.54 122.317 9.54C124.279 9.54 126.027 9.908 127.561 10.644C129.094 11.38 130.29 12.4533 131.149 13.864C132.007 15.2747 132.437 16.9613 132.437 18.924V27.388H135.105V33H126.595V24.72C126.073 27.296 125 29.412 123.375 31.068C121.78 32.724 119.71 33.552 117.165 33.552ZM120.339 28.584C121.443 28.584 122.47 28.262 123.421 27.618C124.371 26.974 125.123 26.146 125.675 25.134C126.257 24.0913 126.549 22.9873 126.549 21.822L126.595 20.396C126.227 20.7333 125.767 20.9787 125.215 21.132C124.693 21.2853 123.957 21.4387 123.007 21.592C122.945 21.592 122.884 21.6073 122.823 21.638C122.761 21.638 122.715 21.638 122.685 21.638C120.753 21.822 119.296 22.2207 118.315 22.834C117.333 23.4167 116.843 24.306 116.843 25.502C116.843 26.5447 117.165 27.3267 117.809 27.848C118.453 28.3387 119.296 28.584 120.339 28.584ZM139.451 33V10H145.845V17.958C146.275 15.4127 147.225 13.3733 148.697 11.84C150.2 10.3067 152.025 9.54 154.171 9.54C155.889 9.54 157.391 9.96933 158.679 10.828C159.967 11.6867 160.964 12.9133 161.669 14.508C162.375 16.072 162.727 17.8967 162.727 19.982V33H156.287V20.994C156.257 19.338 155.766 18.004 154.815 16.992C153.865 15.98 152.623 15.474 151.089 15.474C150.108 15.474 149.219 15.7193 148.421 16.21C147.624 16.7007 146.995 17.36 146.535 18.188C146.075 19.016 145.845 19.9513 145.845 20.994V33H139.451ZM189.092 33L176.718 0.799998H184.676L193.968 26.56H194.152L203.49 0.799998H211.218L198.798 33H189.092ZM222.736 33.46C220.405 33.46 218.289 32.954 216.388 31.942C214.517 30.93 213.03 29.5347 211.926 27.756C210.852 25.9773 210.316 23.9533 210.316 21.684C210.316 19.3227 210.868 17.222 211.972 15.382C213.076 13.542 214.578 12.116 216.48 11.104C218.381 10.0613 220.482 9.54 222.782 9.54C225.082 9.54 227.152 10.0613 228.992 11.104C230.862 12.116 232.334 13.542 233.408 15.382C234.481 17.1913 235.018 19.2307 235.018 21.5C235.018 21.5613 235.018 21.638 235.018 21.73C235.018 21.822 235.018 21.8987 235.018 21.96H216.618C216.679 23.064 216.986 24.0607 217.538 24.95C218.12 25.8087 218.856 26.4987 219.746 27.02C220.666 27.5107 221.678 27.756 222.782 27.756C223.855 27.756 224.821 27.5413 225.68 27.112C226.538 26.6827 227.136 26.1153 227.474 25.41H234.328C234.174 26.698 233.592 27.9707 232.58 29.228C231.598 30.4547 230.249 31.4667 228.532 32.264C226.845 33.0613 224.913 33.46 222.736 33.46ZM228.992 21.04C228.93 19.936 228.624 18.9547 228.072 18.096C227.52 17.2067 226.784 16.5167 225.864 16.026C224.974 15.5047 223.962 15.244 222.828 15.244C221.724 15.244 220.712 15.5047 219.792 16.026C218.902 16.5167 218.166 17.2067 217.584 18.096C217.032 18.9547 216.725 19.936 216.664 21.04H228.992ZM239.406 33V10H245.8V17.866C246.199 15.5353 247.073 13.5727 248.422 11.978C249.802 10.3527 251.581 9.54 253.758 9.54C255.322 9.54 256.61 9.87733 257.622 10.552C258.665 11.2267 259.416 12.208 259.876 13.496C260.367 14.784 260.612 16.3787 260.612 18.28V20.488H254.218V19.568C254.218 18.28 253.881 17.2987 253.206 16.624C252.562 15.9187 251.673 15.566 250.538 15.566C249.618 15.566 248.805 15.8113 248.1 16.302C247.395 16.762 246.827 17.4213 246.398 18.28C245.999 19.1387 245.8 20.074 245.8 21.086V33H239.406ZM263.283 33V10H269.677V17.958C270.106 15.4127 271.057 13.3733 272.529 11.84C274.032 10.3067 275.856 9.54 278.003 9.54C279.72 9.54 281.223 9.96933 282.511 10.828C283.799 11.6867 284.796 12.9133 285.501 14.508C286.206 16.072 286.559 17.8967 286.559 19.982V33H280.119V20.994C280.088 19.338 279.598 18.004 278.647 16.992C277.696 15.98 276.454 15.474 274.921 15.474C273.94 15.474 273.05 15.7193 272.253 16.21C271.456 16.7007 270.827 17.36 270.367 18.188C269.907 19.016 269.677 19.9513 269.677 20.994V33H263.283ZM303.31 33.46C300.918 33.46 298.756 32.9387 296.824 31.896C294.923 30.8533 293.42 29.4273 292.316 27.618C291.243 25.778 290.706 23.7387 290.706 21.5C290.706 19.2307 291.243 17.1913 292.316 15.382C293.42 13.5727 294.923 12.1467 296.824 11.104C298.756 10.0613 300.918 9.54 303.31 9.54C305.671 9.54 307.803 10.0613 309.704 11.104C311.636 12.1467 313.154 13.588 314.258 15.428C315.362 17.2373 315.914 19.2613 315.914 21.5C315.914 23.7387 315.362 25.778 314.258 27.618C313.154 29.4273 311.636 30.8533 309.704 31.896C307.803 32.9387 305.671 33.46 303.31 33.46ZM303.31 27.526C304.414 27.526 305.426 27.2653 306.346 26.744C307.266 26.2227 307.987 25.502 308.508 24.582C309.06 23.662 309.336 22.6347 309.336 21.5C309.336 20.3653 309.06 19.338 308.508 18.418C307.987 17.498 307.266 16.7773 306.346 16.256C305.426 15.704 304.414 15.428 303.31 15.428C302.175 15.428 301.148 15.704 300.228 16.256C299.308 16.7773 298.572 17.498 298.02 18.418C297.499 19.338 297.238 20.3653 297.238 21.5C297.238 22.6347 297.499 23.662 298.02 24.582C298.572 25.502 299.308 26.2227 300.228 26.744C301.148 27.2653 302.175 27.526 303.31 27.526ZM320.47 33V10H326.864V17.958C327.294 15.4127 328.244 13.3733 329.716 11.84C331.219 10.3067 333.044 9.54 335.19 9.54C336.908 9.54 338.41 9.96933 339.698 10.828C340.986 11.6867 341.983 12.9133 342.688 14.508C343.394 16.072 343.746 17.8967 343.746 19.982V33H337.306V20.994C337.276 19.338 336.785 18.004 335.834 16.992C334.884 15.98 333.642 15.474 332.108 15.474C331.127 15.474 330.238 15.7193 329.44 16.21C328.643 16.7007 328.014 17.36 327.554 18.188C327.094 19.016 326.864 19.9513 326.864 20.994V33H320.47Z" fill="#C6C6C6"/>
</svg>
