<svg width="463" height="57" viewBox="0 0 463 57" fill="none" xmlns="http://www.w3.org/2000/svg">
<path d="M23.152 43.056C22.96 45.168 22.352 46.992 21.328 48.528C20.368 50 19.152 51.184 17.68 52.08C16.208 52.912 14.576 53.424 12.784 53.616C10.992 53.808 9.232 53.648 7.504 53.136C6.736 52.944 5.904 52.624 5.008 52.176C4.176 51.728 3.376 51.216 2.608 50.64C1.904 50.064 1.328 49.424 0.88 48.72C0.432 47.952 0.24 47.12 0.304 46.224C0.304 45.52 0.624 44.848 1.264 44.208C1.968 43.504 2.608 42.896 3.184 42.384C3.824 42 4.528 41.648 5.296 41.328C6.064 41.008 6.8 41.2 7.504 41.904C7.952 42.736 8.016 43.536 7.696 44.304C7.44 45.072 7.216 45.744 7.024 46.32C6.768 47.024 7.088 47.504 7.984 47.76C8.88 48.016 9.936 48.08 11.152 47.952C13.072 47.824 14.512 47.248 15.472 46.224C16.432 45.136 17.04 43.792 17.296 42.192C17.616 40.592 17.68 38.864 17.488 37.008C17.296 35.088 17.04 33.232 16.72 31.44C16.016 28.176 14.864 25.104 13.264 22.224C11.728 19.344 9.936 16.784 7.888 14.544C7.248 13.84 6.832 13.136 6.64 12.432C6.512 11.664 6.8 10.928 7.504 10.224C8.528 9.52 9.392 9.264 10.096 9.456C10.8 9.648 11.536 10.064 12.304 10.704C16.016 14.224 18.864 18.704 20.848 24.144C22.832 29.52 23.6 35.824 23.152 43.056ZM52.7973 20.496C54.7173 21.2 56.3173 22.256 57.5973 23.664C58.9413 25.072 59.9653 26.672 60.6693 28.464C61.3733 30.192 61.7573 31.984 61.8213 33.84C61.9493 35.696 61.7573 37.424 61.2453 39.024C60.5413 40.816 59.6453 42.576 58.5573 44.304C57.4693 46.032 56.2213 47.568 54.8133 48.912C53.4053 50.256 51.8053 51.344 50.0133 52.176C48.2213 53.008 46.2373 53.424 44.0613 53.424C41.4373 53.424 39.2293 52.816 37.4373 51.6C35.6453 50.384 34.2373 48.816 33.2133 46.896C32.1893 44.976 31.5173 42.8 31.1973 40.368C30.9413 37.936 31.0053 35.504 31.3893 33.072C31.6453 31.28 32.0613 29.552 32.6373 27.888C33.2773 26.16 34.0773 24.656 35.0373 23.376C35.9973 22.032 37.0853 20.944 38.3013 20.112C39.5813 19.28 41.0213 18.864 42.6213 18.864C43.5173 18.864 44.6373 19.056 45.9813 19.44C47.3253 19.76 48.5733 20.24 49.7253 20.88C50.5573 20.112 51.5813 19.984 52.7973 20.496ZM49.1493 27.504C48.4453 27.056 47.6133 26.48 46.6533 25.776C45.7573 25.008 44.9573 24.624 44.2533 24.624C43.4853 24.624 42.7173 24.976 41.9493 25.68C41.2453 26.384 40.6053 27.216 40.0293 28.176C39.5173 29.072 39.0693 30 38.6853 30.96C38.3013 31.92 38.0453 32.688 37.9173 33.264C37.7253 34.224 37.5973 35.376 37.5333 36.72C37.4693 38.064 37.5653 39.408 37.8213 40.752C38.0773 42.032 38.5573 43.216 39.2613 44.304C40.0293 45.328 41.1493 46.064 42.6213 46.512C43.5173 46.768 44.5733 46.768 45.7893 46.512C47.0053 46.192 48.1893 45.648 49.3413 44.88C50.5573 44.112 51.6773 43.088 52.7013 41.808C53.7893 40.528 54.6213 39.056 55.1973 37.392C55.8373 35.536 55.8373 33.616 55.1973 31.632C54.6213 29.584 53.4053 28.112 51.5493 27.216C51.1013 27.536 50.6533 27.696 50.2053 27.696C49.7573 27.696 49.4053 27.632 49.1493 27.504ZM98.2338 20.88C97.0818 21.52 95.8658 22.192 94.5858 22.896C93.3698 23.6 92.1218 24.432 90.8418 25.392C89.6258 26.288 88.4418 27.376 87.2898 28.656C86.2018 29.872 85.2098 31.344 84.3138 33.072C83.0338 35.504 82.1698 38 81.7218 40.56C81.2738 43.056 80.9858 45.52 80.8578 47.952C80.8578 49.104 80.5698 50.288 79.9938 51.504C79.4818 52.656 78.7458 53.232 77.7858 53.232C76.5698 53.232 75.5778 52.624 74.8098 51.408C74.1058 50.128 73.6258 48.912 73.3698 47.76C72.2818 43.216 71.3858 38.736 70.6818 34.32C69.9778 29.84 69.3698 25.392 68.8578 20.976C68.8578 20.08 69.1138 19.504 69.6258 19.248C70.2018 18.992 70.8418 18.896 71.5458 18.96C72.3138 19.024 73.0498 19.216 73.7538 19.536C74.4578 19.856 74.8738 20.368 75.0018 21.072C75.2578 23.44 75.5778 25.936 75.9618 28.56C76.3458 31.12 76.7298 33.328 77.1138 35.184C77.3698 33.008 78.0738 30.896 79.2258 28.848C80.3778 26.8 81.7858 24.944 83.4498 23.28C85.1778 21.616 87.0978 20.208 89.2098 19.056C91.3858 17.904 93.5938 17.136 95.8338 16.752C96.7938 16.624 97.5938 16.624 98.2338 16.752C98.8738 16.88 99.3218 17.104 99.5778 17.424C99.8338 17.744 99.8658 18.256 99.6738 18.96C99.5458 19.664 99.0658 20.304 98.2338 20.88ZM120.254 5.328C120.062 4.176 120.126 3.12 120.446 2.16C120.83 1.2 121.566 0.655998 122.654 0.527996C123.614 0.399998 124.446 0.655998 125.15 1.296C125.918 1.936 126.398 2.768 126.59 3.792C127.87 11.152 129.054 18.48 130.142 25.776C131.294 33.008 132.318 40.112 133.214 47.088C133.47 48.944 133.342 50.224 132.83 50.928C132.318 51.568 131.71 52.048 131.006 52.368C130.238 52.688 129.502 52.688 128.798 52.368C128.158 52.048 127.742 51.472 127.55 50.64L127.454 50.064L127.07 50.16C124.958 50.928 122.75 51.376 120.446 51.504C118.142 51.568 115.934 51.28 113.822 50.64C111.71 50 109.822 48.976 108.158 47.568C106.558 46.096 105.406 44.24 104.702 42C103.166 37.072 104.126 32.592 107.582 28.56C109.054 26.896 110.878 25.392 113.054 24.048C115.23 22.704 117.854 21.648 120.926 20.88L122.654 20.496L120.254 5.328ZM110.558 39.6C110.942 41.136 111.646 42.32 112.67 43.152C113.694 43.984 114.91 44.56 116.318 44.88C117.726 45.136 119.23 45.168 120.83 44.976C122.43 44.784 123.998 44.432 125.534 43.92L126.398 43.632L123.71 26.736L121.79 27.216C120.446 27.6 119.006 28.208 117.47 29.04C115.998 29.808 114.686 30.736 113.534 31.824C112.382 32.912 111.486 34.128 110.846 35.472C110.27 36.816 110.174 38.192 110.558 39.6ZM162.342 18.48C162.598 20.272 162.79 22.192 162.918 24.24C163.11 26.224 163.238 28.24 163.302 30.288C163.43 32.336 163.494 34.32 163.494 36.24C163.494 38.16 163.462 39.888 163.398 41.424C165.446 42.832 166.662 44.08 167.046 45.168C167.494 46.256 167.558 47.216 167.238 48.048C166.854 49.2 166.15 49.808 165.126 49.872C164.166 49.872 163.046 49.52 161.766 48.816C160.87 49.456 159.846 50.16 158.694 50.928C157.542 51.632 156.326 52.336 155.046 53.04C153.766 53.68 152.486 54.256 151.206 54.768C149.926 55.28 148.742 55.632 147.654 55.824C145.606 56.144 143.75 55.76 142.086 54.672C140.486 53.584 139.398 51.952 138.822 49.776C138.438 48.304 138.342 46.8 138.534 45.264C138.726 43.664 139.206 42.16 139.974 40.752C140.742 39.28 141.766 37.968 143.046 36.816C144.39 35.664 145.958 34.768 147.75 34.128C148.198 33.936 148.806 33.776 149.574 33.648C150.406 33.52 151.238 33.488 152.07 33.552C152.966 33.552 153.862 33.712 154.758 34.032C155.654 34.352 156.486 34.896 157.254 35.664C157.254 34.576 157.222 33.392 157.158 32.112C157.158 30.768 157.126 29.424 157.062 28.08C156.998 26.736 156.902 25.488 156.774 24.336C156.71 23.12 156.614 22.096 156.486 21.264C156.358 20.304 155.974 19.728 155.334 19.536C154.758 19.28 154.022 19.312 153.126 19.632C151.59 20.144 149.798 21.136 147.75 22.608C145.702 24.08 143.75 25.648 141.894 27.312C141.318 27.888 140.646 28.144 139.878 28.08C139.174 28.016 138.566 27.728 138.054 27.216C137.542 26.704 137.254 26.128 137.19 25.488C137.126 24.784 137.382 24.048 137.958 23.28C139.046 22.128 140.262 20.944 141.606 19.728C142.95 18.512 144.358 17.424 145.83 16.464C147.302 15.44 148.806 14.608 150.342 13.968C151.878 13.328 153.414 12.976 154.95 12.912C157.19 12.848 158.918 13.36 160.134 14.448C161.35 15.472 162.086 16.816 162.342 18.48ZM151.206 39.12C150.374 39.312 149.478 39.728 148.518 40.368C147.622 40.944 146.79 41.68 146.022 42.576C145.318 43.408 144.774 44.368 144.39 45.456C144.07 46.48 144.07 47.504 144.39 48.528C144.518 48.912 144.774 49.2 145.158 49.392C145.606 49.584 146.086 49.616 146.598 49.488C148.134 49.168 149.862 48.56 151.782 47.664C153.766 46.704 155.334 45.68 156.486 44.592C156.486 44.208 156.294 43.728 155.91 43.152C155.526 42.512 155.078 41.904 154.566 41.328C154.054 40.688 153.478 40.144 152.838 39.696C152.262 39.248 151.718 39.056 151.206 39.12ZM178.986 22.32C179.178 23.28 179.37 24.368 179.562 25.584C179.818 26.736 180.074 27.952 180.33 29.232C180.586 30.448 180.81 31.696 181.002 32.976C181.194 34.256 181.354 35.472 181.482 36.624C182.25 34.96 183.082 33.2 183.978 31.344C184.874 29.488 185.834 27.792 186.858 26.256C187.946 24.656 189.066 23.344 190.218 22.32C191.434 21.296 192.746 20.784 194.154 20.784C196.266 20.784 198.026 21.552 199.434 23.088C200.906 24.624 202.122 26.544 203.082 28.848C204.106 31.088 204.906 33.456 205.482 35.952C206.058 38.448 206.538 40.656 206.922 42.576C207.306 44.304 206.538 45.584 204.618 46.416C203.722 46.864 203.05 46.928 202.602 46.608C202.154 46.288 201.898 45.968 201.834 45.648C201.514 44.88 201.098 43.536 200.586 41.616C200.138 39.696 199.594 37.744 198.954 35.76C198.378 33.776 197.706 32.048 196.938 30.576C196.17 29.104 195.306 28.432 194.346 28.56C193.194 28.624 192.17 29.488 191.274 31.152C190.506 32.496 189.706 34 188.874 35.664C188.106 37.264 187.338 38.928 186.57 40.656C185.802 42.32 185.034 44.016 184.266 45.744C183.562 47.408 182.89 48.944 182.25 50.352C181.802 50.8 181.226 51.12 180.522 51.312C179.882 51.44 179.21 51.376 178.506 51.12C177.866 50.928 177.354 50.608 176.97 50.16C176.586 49.712 176.394 49.264 176.394 48.816C175.818 43.824 175.21 39.28 174.57 35.184C173.994 31.088 173.226 26.896 172.266 22.608C171.818 21.136 171.722 19.984 171.978 19.152C172.298 18.256 173.258 17.904 174.858 18.096C177.098 18.48 178.474 19.888 178.986 22.32ZM273.364 19.632C271.188 25.456 268.788 30.896 266.164 35.952C263.604 41.008 260.788 45.616 257.716 49.776C256.82 51.056 255.732 51.632 254.452 51.504C253.428 51.376 252.628 50.96 252.052 50.256C251.476 49.552 251.028 48.88 250.708 48.24C249.94 46.64 249.076 44.624 248.116 42.192C247.22 39.76 246.356 37.328 245.524 34.896C244.692 32.4 243.956 30.16 243.316 28.176C242.676 26.128 242.228 24.752 241.972 24.048C241.588 23.728 241.14 23.28 240.628 22.704C240.116 22.128 239.7 21.52 239.38 20.88C239.06 20.176 238.9 19.504 238.9 18.864C238.9 18.224 239.188 17.648 239.764 17.136C240.596 16.752 241.396 16.624 242.164 16.752C242.932 16.88 243.636 17.168 244.276 17.616C244.916 18.064 245.492 18.608 246.004 19.248C246.516 19.888 246.932 20.496 247.252 21.072C247.764 22.544 248.34 24.24 248.98 26.16C249.62 28.016 250.26 29.968 250.9 32.016C251.604 34 252.276 35.952 252.916 37.872C253.556 39.792 254.164 41.52 254.74 43.056C255.892 41.584 257.076 39.792 258.292 37.68C259.572 35.504 260.82 33.232 262.036 30.864C263.316 28.496 264.532 26.096 265.684 23.664C266.836 21.168 267.892 18.832 268.852 16.656C269.236 15.76 269.78 14.992 270.484 14.352C271.188 13.712 271.892 13.456 272.596 13.584C273.492 13.904 273.972 14.608 274.036 15.696C274.164 16.784 273.94 18.096 273.364 19.632ZM303.512 31.44C301.016 32.912 298.328 34.064 295.448 34.896C292.568 35.664 289.464 36.048 286.136 36.048C286.264 38.288 286.904 40.08 288.056 41.424C289.208 42.704 290.648 43.472 292.376 43.728C293.4 43.856 294.424 43.824 295.448 43.632C296.536 43.44 297.528 43.152 298.424 42.768C299.384 42.32 300.248 41.84 301.016 41.328C301.784 40.816 302.456 40.304 303.032 39.792C303.608 39.28 304.216 38.96 304.856 38.832C305.496 38.64 305.976 38.608 306.296 38.736C307.192 39.056 307.512 40.016 307.256 41.616C306.232 43.664 304.76 45.424 302.84 46.896C300.92 48.304 298.776 49.2 296.408 49.584C294.36 49.968 292.248 49.872 290.072 49.296C287.896 48.72 285.944 47.6 284.216 45.936C282.744 44.464 281.624 42.736 280.856 40.752C280.088 38.768 279.608 36.72 279.416 34.608C279.224 32.624 279.384 30.736 279.896 28.944C280.472 27.152 281.336 25.584 282.488 24.24C283.64 22.832 285.08 21.68 286.808 20.784C288.536 19.888 290.552 19.376 292.856 19.248C295.608 19.056 298.104 19.568 300.344 20.784C302.584 22 304.152 23.696 305.048 25.872C305.56 27.088 305.688 28.144 305.432 29.04C305.24 29.936 304.6 30.736 303.512 31.44ZM292.472 24.912C291.832 25.04 291.128 25.264 290.36 25.584C289.656 25.904 288.984 26.32 288.344 26.832C287.768 27.28 287.224 27.824 286.712 28.464C286.264 29.04 286.008 29.712 285.944 30.48C287.032 30.48 288.216 30.384 289.496 30.192C290.84 30 292.12 29.776 293.336 29.52C294.616 29.2 295.768 28.848 296.792 28.464C297.88 28.08 298.776 27.664 299.48 27.216C298.968 26 298.008 25.264 296.6 25.008C295.256 24.688 293.88 24.656 292.472 24.912ZM342.64 20.88C341.488 21.52 340.272 22.192 338.992 22.896C337.776 23.6 336.528 24.432 335.248 25.392C334.032 26.288 332.848 27.376 331.696 28.656C330.608 29.872 329.616 31.344 328.72 33.072C327.44 35.504 326.576 38 326.128 40.56C325.68 43.056 325.392 45.52 325.264 47.952C325.264 49.104 324.976 50.288 324.4 51.504C323.888 52.656 323.152 53.232 322.192 53.232C320.976 53.232 319.984 52.624 319.216 51.408C318.512 50.128 318.032 48.912 317.776 47.76C316.688 43.216 315.792 38.736 315.088 34.32C314.384 29.84 313.776 25.392 313.264 20.976C313.264 20.08 313.52 19.504 314.032 19.248C314.608 18.992 315.248 18.896 315.952 18.96C316.72 19.024 317.456 19.216 318.16 19.536C318.864 19.856 319.28 20.368 319.408 21.072C319.664 23.44 319.984 25.936 320.368 28.56C320.752 31.12 321.136 33.328 321.52 35.184C321.776 33.008 322.48 30.896 323.632 28.848C324.784 26.8 326.192 24.944 327.856 23.28C329.584 21.616 331.504 20.208 333.616 19.056C335.792 17.904 338 17.136 340.24 16.752C341.2 16.624 342 16.624 342.64 16.752C343.28 16.88 343.728 17.104 343.984 17.424C344.24 17.744 344.272 18.256 344.08 18.96C343.952 19.664 343.472 20.304 342.64 20.88ZM354.58 22.32C354.772 23.28 354.964 24.368 355.156 25.584C355.412 26.736 355.668 27.952 355.924 29.232C356.18 30.448 356.404 31.696 356.596 32.976C356.788 34.256 356.948 35.472 357.076 36.624C357.844 34.96 358.676 33.2 359.572 31.344C360.468 29.488 361.428 27.792 362.452 26.256C363.54 24.656 364.66 23.344 365.812 22.32C367.028 21.296 368.34 20.784 369.748 20.784C371.86 20.784 373.62 21.552 375.028 23.088C376.5 24.624 377.716 26.544 378.676 28.848C379.7 31.088 380.5 33.456 381.076 35.952C381.652 38.448 382.132 40.656 382.516 42.576C382.9 44.304 382.132 45.584 380.212 46.416C379.316 46.864 378.644 46.928 378.196 46.608C377.748 46.288 377.492 45.968 377.428 45.648C377.108 44.88 376.692 43.536 376.18 41.616C375.732 39.696 375.188 37.744 374.548 35.76C373.972 33.776 373.3 32.048 372.532 30.576C371.764 29.104 370.9 28.432 369.94 28.56C368.788 28.624 367.764 29.488 366.868 31.152C366.1 32.496 365.3 34 364.468 35.664C363.7 37.264 362.932 38.928 362.164 40.656C361.396 42.32 360.628 44.016 359.86 45.744C359.156 47.408 358.484 48.944 357.844 50.352C357.396 50.8 356.82 51.12 356.116 51.312C355.476 51.44 354.804 51.376 354.1 51.12C353.46 50.928 352.948 50.608 352.564 50.16C352.18 49.712 351.988 49.264 351.988 48.816C351.412 43.824 350.804 39.28 350.164 35.184C349.588 31.088 348.82 26.896 347.86 22.608C347.412 21.136 347.316 19.984 347.572 19.152C347.892 18.256 348.852 17.904 350.452 18.096C352.692 18.48 354.068 19.888 354.58 22.32ZM411.204 20.496C413.124 21.2 414.724 22.256 416.004 23.664C417.348 25.072 418.372 26.672 419.076 28.464C419.78 30.192 420.164 31.984 420.228 33.84C420.356 35.696 420.164 37.424 419.652 39.024C418.948 40.816 418.052 42.576 416.964 44.304C415.876 46.032 414.628 47.568 413.22 48.912C411.812 50.256 410.212 51.344 408.42 52.176C406.628 53.008 404.644 53.424 402.468 53.424C399.844 53.424 397.636 52.816 395.844 51.6C394.052 50.384 392.644 48.816 391.62 46.896C390.596 44.976 389.924 42.8 389.604 40.368C389.348 37.936 389.412 35.504 389.796 33.072C390.052 31.28 390.468 29.552 391.044 27.888C391.684 26.16 392.484 24.656 393.444 23.376C394.404 22.032 395.492 20.944 396.708 20.112C397.988 19.28 399.428 18.864 401.028 18.864C401.924 18.864 403.044 19.056 404.388 19.44C405.732 19.76 406.98 20.24 408.132 20.88C408.964 20.112 409.988 19.984 411.204 20.496ZM407.556 27.504C406.852 27.056 406.02 26.48 405.06 25.776C404.164 25.008 403.364 24.624 402.66 24.624C401.892 24.624 401.124 24.976 400.356 25.68C399.652 26.384 399.012 27.216 398.436 28.176C397.924 29.072 397.476 30 397.092 30.96C396.708 31.92 396.452 32.688 396.324 33.264C396.132 34.224 396.004 35.376 395.94 36.72C395.876 38.064 395.972 39.408 396.228 40.752C396.484 42.032 396.964 43.216 397.668 44.304C398.436 45.328 399.556 46.064 401.028 46.512C401.924 46.768 402.98 46.768 404.196 46.512C405.412 46.192 406.596 45.648 407.748 44.88C408.964 44.112 410.084 43.088 411.108 41.808C412.196 40.528 413.028 39.056 413.604 37.392C414.244 35.536 414.244 33.616 413.604 31.632C413.028 29.584 411.812 28.112 409.956 27.216C409.508 27.536 409.06 27.696 408.612 27.696C408.164 27.696 407.812 27.632 407.556 27.504ZM434.08 22.32C434.272 23.28 434.464 24.368 434.656 25.584C434.912 26.736 435.168 27.952 435.424 29.232C435.68 30.448 435.904 31.696 436.096 32.976C436.288 34.256 436.448 35.472 436.576 36.624C437.344 34.96 438.176 33.2 439.072 31.344C439.968 29.488 440.928 27.792 441.952 26.256C443.04 24.656 444.16 23.344 445.312 22.32C446.528 21.296 447.84 20.784 449.248 20.784C451.36 20.784 453.12 21.552 454.528 23.088C456 24.624 457.216 26.544 458.176 28.848C459.2 31.088 460 33.456 460.576 35.952C461.152 38.448 461.632 40.656 462.016 42.576C462.4 44.304 461.632 45.584 459.712 46.416C458.816 46.864 458.144 46.928 457.696 46.608C457.248 46.288 456.992 45.968 456.928 45.648C456.608 44.88 456.192 43.536 455.68 41.616C455.232 39.696 454.688 37.744 454.048 35.76C453.472 33.776 452.8 32.048 452.032 30.576C451.264 29.104 450.4 28.432 449.44 28.56C448.288 28.624 447.264 29.488 446.368 31.152C445.6 32.496 444.8 34 443.968 35.664C443.2 37.264 442.432 38.928 441.664 40.656C440.896 42.32 440.128 44.016 439.36 45.744C438.656 47.408 437.984 48.944 437.344 50.352C436.896 50.8 436.32 51.12 435.616 51.312C434.976 51.44 434.304 51.376 433.6 51.12C432.96 50.928 432.448 50.608 432.064 50.16C431.68 49.712 431.488 49.264 431.488 48.816C430.912 43.824 430.304 39.28 429.664 35.184C429.088 31.088 428.32 26.896 427.36 22.608C426.912 21.136 426.816 19.984 427.072 19.152C427.392 18.256 428.352 17.904 429.952 18.096C432.192 18.48 433.568 19.888 434.08 22.32Z" fill="#C6C6C6"/>
</svg>
