<svg width="469" height="86" viewBox="0 0 469 86" fill="none" xmlns="http://www.w3.org/2000/svg">
<path d="M46.4531 54.4531C46.4531 56.8906 46.2344 59.3906 45.7969 61.9531C45.3906 64.4844 44.75 66.9375 43.875 69.3125C43 71.7188 41.8906 73.9688 40.5469 76.0625C39.2031 78.1875 37.6094 80.0312 35.7656 81.5938C33.9219 83.1875 31.8125 84.4375 29.4375 85.3438C27.0938 86.25 24.4844 86.7031 21.6094 86.7031C18.8281 86.7031 16.125 86.2969 13.5 85.4844C10.9062 84.7031 8.60938 83.5156 6.60938 81.9219C4.60938 80.3594 3 78.4219 1.78125 76.1094C0.59375 73.7969 0 71.125 0 68.0938C0 66.2812 0.203125 64.5 0.609375 62.75C1.04688 60.9688 1.64062 59.2656 2.39062 57.6406C3.17188 56.0156 4.10938 54.4844 5.20312 53.0469C6.29688 51.6094 7.53125 50.2969 8.90625 49.1094L9.79688 49.5781C8.70312 51.7031 7.85938 53.9062 7.26562 56.1875C6.70312 58.4375 6.42188 60.75 6.42188 63.125C6.42188 65.625 6.76562 68.0781 7.45312 70.4844C8.14062 72.9219 9.17188 75.0938 10.5469 77C11.9531 78.9375 13.7031 80.5 15.7969 81.6875C17.8906 82.875 20.3438 83.4688 23.1562 83.4688C25.4688 83.4688 27.4531 83.0938 29.1094 82.3438C30.7969 81.625 32.2188 80.625 33.375 79.3438C34.5625 78.0938 35.5156 76.625 36.2344 74.9375C36.9844 73.2812 37.5469 71.5 37.9219 69.5938C38.3281 67.7188 38.5938 65.7969 38.7188 63.8281C38.875 61.8594 38.9531 59.9531 38.9531 58.1094C38.9531 54.2344 38.7344 50.2656 38.2969 46.2031C37.8594 42.1406 37.2656 38.0469 36.5156 33.9219C35.7656 29.7969 34.8906 25.7031 33.8906 21.6406C32.8906 17.5781 31.8281 13.6094 30.7031 9.73438C28.1094 10.5469 25.6562 11.375 23.3438 12.2188C21.0312 13.0625 19.0156 13.8594 17.2969 14.6094C17.0469 14.7031 16.8125 14.7812 16.5938 14.8438C16.4062 14.875 16.1875 14.8906 15.9375 14.8906C15.4375 14.8906 14.9844 14.7812 14.5781 14.5625C14.1719 14.3125 13.8281 14.0156 13.5469 13.6719C13.2656 13.2969 13.0469 12.8906 12.8906 12.4531C12.7344 11.9844 12.6562 11.5312 12.6562 11.0938C12.6562 10.4062 12.7812 9.8125 13.0312 9.3125C13.2812 8.78125 13.6094 8.3125 14.0156 7.90625C14.4531 7.5 14.9375 7.15625 15.4688 6.875C16 6.59375 16.5469 6.35938 17.1094 6.17188C18.6406 5.64063 20.4375 5.20312 22.5 4.85938C24.5938 4.48438 26.7344 4.20312 28.9219 4.01562C28.7656 3.51562 28.6094 3.03125 28.4531 2.5625C28.3281 2.09375 28.1875 1.60938 28.0312 1.10938L28.875 0.59375C29.25 1.125 29.625 1.65625 30 2.1875C30.375 2.71875 30.75 3.26562 31.125 3.82812C32.75 3.70312 34.3125 3.625 35.8125 3.59375C37.3125 3.53125 38.6562 3.5 39.8438 3.5C40.625 3.5 41.5156 3.51562 42.5156 3.54688C43.5156 3.54688 44.5312 3.59375 45.5625 3.6875C46.5938 3.78125 47.5938 3.92188 48.5625 4.10938C49.5312 4.26562 50.375 4.5 51.0938 4.8125L50.7656 5.60938C48.5781 5.67187 46.0312 5.98438 43.125 6.54688C40.2188 7.10938 37.2188 7.82812 34.125 8.70312C36.0938 12.1406 37.8281 15.7344 39.3281 19.4844C40.8594 23.2344 42.1562 27.0625 43.2188 30.9688C44.2812 34.8438 45.0781 38.7656 45.6094 42.7344C46.1719 46.6719 46.4531 50.5781 46.4531 54.4531ZM80.4844 54.1719C80.4844 56.3594 80.125 58.3906 79.4062 60.2656C78.6875 62.1406 77.6719 63.7656 76.3594 65.1406C75.0469 66.5156 73.4688 67.5938 71.625 68.375C69.8125 69.1562 67.7969 69.5469 65.5781 69.5469C63.6094 69.5469 61.8281 69.1719 60.2344 68.4219C58.6719 67.7031 57.3281 66.7188 56.2031 65.4688C55.0781 64.2188 54.2188 62.7656 53.625 61.1094C53.0312 59.4219 52.7344 57.625 52.7344 55.7188C52.7344 54.125 52.9531 52.6094 53.3906 51.1719C53.8594 49.7344 54.5 48.4062 55.3125 47.1875C56.125 45.9375 57.0938 44.7969 58.2188 43.7656C59.3438 42.7031 60.5625 41.75 61.875 40.9062L62.4375 41.3281C61.125 42.8594 60.0938 44.5469 59.3438 46.3906C58.5938 48.2344 58.2188 50.1875 58.2188 52.25C58.2188 53.75 58.4375 55.2812 58.875 56.8438C59.3438 58.375 60.0156 59.7812 60.8906 61.0625C61.7656 62.3438 62.8594 63.3906 64.1719 64.2031C65.4844 65.0156 66.9844 65.4219 68.6719 65.4219C69.7344 65.4219 70.7344 65.2031 71.6719 64.7656C72.6094 64.3281 73.4219 63.7344 74.1094 62.9844C74.8281 62.2344 75.3906 61.3906 75.7969 60.4531C76.2344 59.4844 76.4531 58.4844 76.4531 57.4531C76.4531 56.4531 76.2969 55.4844 75.9844 54.5469C75.7031 53.5781 75.2969 52.6875 74.7656 51.875C74.2344 51.0312 73.5938 50.2812 72.8438 49.625C72.0938 48.9375 71.2812 48.375 70.4062 47.9375C69.9062 47.6875 69.4219 47.5 68.9531 47.375C68.5156 47.25 68.0312 47.1094 67.5 46.9531C67.2812 46.9219 67.0469 46.875 66.7969 46.8125C66.5469 46.7188 66.3125 46.625 66.0938 46.5312C65.875 46.4062 65.6875 46.25 65.5312 46.0625C65.375 45.875 65.2969 45.6406 65.2969 45.3594C65.2969 44.7969 65.5 44.2812 65.9062 43.8125C66.3125 43.3438 66.7969 42.9375 67.3594 42.5938C67.9219 42.2188 68.5156 41.9375 69.1406 41.75C69.7656 41.5312 70.3125 41.4219 70.7812 41.4219C72.375 41.4219 73.7812 41.8281 75 42.6406C76.2188 43.4531 77.2344 44.4844 78.0469 45.7344C78.8594 46.9844 79.4688 48.3594 79.875 49.8594C80.2812 51.3594 80.4844 52.7969 80.4844 54.1719ZM120.562 61.2969C120 62.5469 119.281 63.6719 118.406 64.6719C117.562 65.6719 116.641 66.5312 115.641 67.25C114.641 67.9375 113.609 68.4688 112.547 68.8438C111.484 69.25 110.469 69.4531 109.5 69.4531C107.688 69.4531 106.156 69.1406 104.906 68.5156C103.656 67.8906 102.641 67.0469 101.859 65.9844C101.078 64.9219 100.516 63.6719 100.172 62.2344C99.8281 60.7969 99.6562 59.2656 99.6562 57.6406C99.6562 56.3906 99.75 55.0938 99.9375 53.75C100.125 52.4062 100.391 51.1094 100.734 49.8594C100.797 49.6719 100.859 49.4531 100.922 49.2031C100.984 48.9219 101.016 48.6875 101.016 48.5C101.016 48.3438 100.922 48.2188 100.734 48.125C100.203 47.9375 99.6406 47.7656 99.0469 47.6094C98.4531 47.4219 97.8594 47.2188 97.2656 47C96.7031 46.7812 96.1562 46.5312 95.625 46.25C95.125 45.9688 94.6875 45.6094 94.3125 45.1719C94.2812 47.0469 93.9688 48.9531 93.375 50.8906C92.7812 52.7969 91.9844 54.6406 90.9844 56.4219C90.0156 58.1719 88.875 59.8125 87.5625 61.3438C86.25 62.875 84.8594 64.2031 83.3906 65.3281L82.9219 64.8594C83.8281 63.8594 84.6562 62.6719 85.4062 61.2969C86.1562 59.9219 86.7969 58.4844 87.3281 56.9844C87.8594 55.4844 88.2656 53.9688 88.5469 52.4375C88.8594 50.9062 89.0156 49.4688 89.0156 48.125C89.0156 47.4375 88.9531 46.7969 88.8281 46.2031C88.7031 45.5781 88.5625 44.9844 88.4062 44.4219C88.2812 43.8594 88.1562 43.3281 88.0312 42.8281C87.9062 42.2969 87.8438 41.7656 87.8438 41.2344C87.8438 40.3594 88.125 39.6719 88.6875 39.1719C89.25 38.6719 89.9688 38.4219 90.8438 38.4219C91.3125 38.4219 91.6719 38.5625 91.9219 38.8438C92.1719 39.0938 92.3906 39.4062 92.5781 39.7812C92.7656 40.1562 92.9844 40.5469 93.2344 40.9531C93.4844 41.3594 93.8438 41.7031 94.3125 41.9844C94.9062 42.3281 95.6562 42.5781 96.5625 42.7344C97.4688 42.8906 98.4219 43.0312 99.4219 43.1562C100.422 43.2812 101.422 43.4062 102.422 43.5312C103.422 43.6562 104.312 43.875 105.094 44.1875C105.906 44.4688 106.562 44.875 107.062 45.4062C107.562 45.9062 107.812 46.5938 107.812 47.4688C107.812 47.9062 107.766 48.3438 107.672 48.7812C107.609 49.1875 107.5 49.5781 107.344 49.9531C106.969 51.2656 106.641 52.6094 106.359 53.9844C106.109 55.3281 105.984 56.6719 105.984 58.0156C105.984 59.1719 106.062 60.2344 106.219 61.2031C106.406 62.1406 106.734 62.9531 107.203 63.6406C107.672 64.3281 108.297 64.8594 109.078 65.2344C109.859 65.6094 110.859 65.7969 112.078 65.7969C113.828 65.7969 115.359 65.375 116.672 64.5312C117.984 63.6562 119.141 62.5156 120.141 61.1094L120.562 61.2969ZM161.625 61.2969C161.125 62.3281 160.5 63.2656 159.75 64.1094C159 64.9219 158.156 65.625 157.219 66.2188C156.281 66.7812 155.281 67.2188 154.219 67.5312C153.156 67.8438 152.047 68 150.891 68C148.453 68 146.375 67.4062 144.656 66.2188C142.969 65.0312 141.547 63.4844 140.391 61.5781C139.547 62.5156 138.609 63.4531 137.578 64.3906C136.578 65.2969 135.5 66.1094 134.344 66.8281C133.219 67.5156 132.047 68.0781 130.828 68.5156C129.609 68.9531 128.391 69.1719 127.172 69.1719C125.703 69.1719 124.391 68.875 123.234 68.2812C122.078 67.6875 121.094 66.9062 120.281 65.9375C119.469 64.9375 118.844 63.8125 118.406 62.5625C117.969 61.2812 117.75 59.9531 117.75 58.5781C117.75 56.5156 118.203 54.4375 119.109 52.3438C120.047 50.25 121.266 48.3594 122.766 46.6719C124.297 44.9531 126.047 43.5625 128.016 42.5C129.984 41.4375 132.031 40.9062 134.156 40.9062C134.781 40.9062 135.328 40.9688 135.797 41.0938V39.125C135.797 38.2188 135.828 37.0156 135.891 35.5156C135.953 34.0156 136.078 32.3594 136.266 30.5469C136.453 28.7031 136.688 26.7812 136.969 24.7812C137.281 22.75 137.672 20.75 138.141 18.7812C138.641 16.7812 139.219 14.8906 139.875 13.1094C140.531 11.2969 141.297 9.71875 142.172 8.375C143.047 7 144.047 5.90625 145.172 5.09375C146.297 4.28125 147.562 3.875 148.969 3.875C150.625 3.875 151.969 4.35937 153 5.32812C154.031 6.29688 154.844 7.5 155.438 8.9375C156.031 10.3438 156.422 11.8438 156.609 13.4375C156.828 15.0312 156.938 16.4531 156.938 17.7031C156.938 19.3281 156.781 21.2188 156.469 23.375C156.156 25.5 155.719 27.7656 155.156 30.1719C154.594 32.5469 153.922 34.9844 153.141 37.4844C152.359 39.9844 151.516 42.3906 150.609 44.7031C149.703 47.0156 148.719 49.1719 147.656 51.1719C146.625 53.1406 145.578 54.8125 144.516 56.1875C144.922 57.4062 145.406 58.5312 145.969 59.5625C146.562 60.5938 147.25 61.4844 148.031 62.2344C148.812 62.9844 149.703 63.5781 150.703 64.0156C151.703 64.4219 152.844 64.625 154.125 64.625C157.062 64.625 159.469 63.4531 161.344 61.1094L161.625 61.2969ZM142.406 35.1875C142.406 36.3125 142.406 37.625 142.406 39.125C142.406 40.5938 142.438 42.1562 142.5 43.8125C142.594 45.4688 142.734 47.1719 142.922 48.9219C143.141 50.6406 143.453 52.3125 143.859 53.9375C145.172 51.4062 146.375 48.6406 147.469 45.6406C148.562 42.6094 149.5 39.5156 150.281 36.3594C151.094 33.1719 151.719 30 152.156 26.8438C152.594 23.6875 152.812 20.7031 152.812 17.8906C152.812 17.2969 152.781 16.4375 152.719 15.3125C152.656 14.1875 152.484 13.0781 152.203 11.9844C151.922 10.8594 151.5 9.89062 150.938 9.07812C150.375 8.23438 149.609 7.8125 148.641 7.8125C147.891 7.8125 147.219 8.17188 146.625 8.89062C146.031 9.57813 145.516 10.5156 145.078 11.7031C144.641 12.8594 144.266 14.1875 143.953 15.6875C143.672 17.1875 143.422 18.75 143.203 20.375C143.016 22 142.859 23.6094 142.734 25.2031C142.641 26.7969 142.562 28.2812 142.5 29.6562C142.469 31 142.438 32.1719 142.406 33.1719C142.406 34.1406 142.406 34.8125 142.406 35.1875ZM130.594 64.0625C132.375 64.0625 134.016 63.7188 135.516 63.0312C137.047 62.3438 138.438 61.4375 139.688 60.3125C139.094 59.1562 138.578 57.9219 138.141 56.6094C137.734 55.2656 137.375 53.9219 137.062 52.5781C136.781 51.2031 136.547 49.8281 136.359 48.4531C136.203 47.0781 136.078 45.75 135.984 44.4688C135.609 44.0625 135.141 43.7344 134.578 43.4844C134.016 43.2031 133.328 43.0625 132.516 43.0625C131.047 43.0625 129.734 43.4688 128.578 44.2812C127.453 45.0625 126.5 46.0625 125.719 47.2812C124.938 48.4688 124.344 49.7812 123.938 51.2188C123.531 52.625 123.328 53.9688 123.328 55.25C123.328 56.4375 123.453 57.5781 123.703 58.6719C123.984 59.7344 124.422 60.6719 125.016 61.4844C125.609 62.2656 126.359 62.8906 127.266 63.3594C128.203 63.8281 129.312 64.0625 130.594 64.0625ZM180.469 43.4375C180.469 43.7812 180.344 44.0938 180.094 44.375C179.844 44.625 179.547 44.75 179.203 44.75C178.922 44.75 178.625 44.6719 178.312 44.5156C178 44.3281 177.641 44.125 177.234 43.9062C176.859 43.6875 176.406 43.5 175.875 43.3438C175.375 43.1562 174.797 43.0625 174.141 43.0625C172.609 43.0625 171.234 43.5469 170.016 44.5156C168.828 45.4531 167.812 46.625 166.969 48.0312C166.156 49.4375 165.531 50.9375 165.094 52.5312C164.656 54.125 164.438 55.5625 164.438 56.8438C164.438 57.75 164.516 58.6406 164.672 59.5156C164.828 60.3594 165.094 61.1406 165.469 61.8594C165.875 62.5469 166.422 63.1094 167.109 63.5469C167.797 63.9531 168.672 64.1562 169.734 64.1562C170.859 64.1562 171.938 63.9531 172.969 63.5469C174 63.1094 174.969 62.5469 175.875 61.8594C175.906 60.8594 176.062 59.8125 176.344 58.7188C176.656 57.5938 177.047 56.5 177.516 55.4375C177.984 54.3438 178.516 53.3125 179.109 52.3438C179.734 51.375 180.375 50.5156 181.031 49.7656L181.641 50.1406C181.297 51.2031 181.047 52.2969 180.891 53.4219C180.734 54.5469 180.656 55.6562 180.656 56.75C180.656 57.875 180.75 58.9375 180.938 59.9375C181.125 60.9375 181.453 61.8125 181.922 62.5625C182.391 63.2812 183.031 63.8594 183.844 64.2969C184.656 64.7031 185.703 64.9062 186.984 64.9062C188.547 64.9062 189.984 64.5469 191.297 63.8281C192.609 63.1094 193.766 62.2031 194.766 61.1094L195.141 61.2969C194.578 62.3906 193.844 63.4375 192.938 64.4375C192.031 65.4375 191.016 66.3438 189.891 67.1562C188.797 67.9375 187.625 68.5625 186.375 69.0312C185.125 69.5 183.891 69.7344 182.672 69.7344C180.953 69.7344 179.547 69.2344 178.453 68.2344C177.359 67.2656 176.609 66.0312 176.203 64.5312C174.891 65.8438 173.422 66.9531 171.797 67.8594C170.203 68.7344 168.516 69.1719 166.734 69.1719C165.422 69.1719 164.25 68.9219 163.219 68.4219C162.219 67.9531 161.375 67.3125 160.688 66.5C160 65.6875 159.469 64.7344 159.094 63.6406C158.75 62.5156 158.578 61.3438 158.578 60.125C158.578 58.7188 158.797 57.2812 159.234 55.8125C159.703 54.3125 160.328 52.8438 161.109 51.4062C161.922 49.9688 162.875 48.6094 163.969 47.3281C165.062 46.0469 166.25 44.9219 167.531 43.9531C168.844 42.9844 170.219 42.2188 171.656 41.6562C173.094 41.0938 174.562 40.8125 176.062 40.8125C176.406 40.8125 176.828 40.8594 177.328 40.9531C177.828 41.0156 178.312 41.1406 178.781 41.3281C179.25 41.5156 179.641 41.7812 179.953 42.125C180.297 42.4688 180.469 42.9062 180.469 43.4375ZM233.391 61.2969C232.797 62.4219 232.156 63.5 231.469 64.5312C230.812 65.5625 230.062 66.4688 229.219 67.25C228.375 68.0312 227.422 68.6562 226.359 69.125C225.297 69.5938 224.078 69.8281 222.703 69.8281C221.141 69.8281 219.797 69.4375 218.672 68.6562C217.547 67.9062 216.578 66.9062 215.766 65.6562C214.984 64.375 214.344 62.9219 213.844 61.2969C213.375 59.6719 212.984 58.0156 212.672 56.3281C212.359 54.6406 212.125 52.9844 211.969 51.3594C211.812 49.7031 211.672 48.2188 211.547 46.9062C210.953 47.375 210.234 48.2812 209.391 49.625C208.547 50.9375 207.688 52.4844 206.812 54.2656C205.938 56.0469 205.094 57.9844 204.281 60.0781C203.5 62.1719 202.859 64.2344 202.359 66.2656C202.266 66.7031 202.109 67.1562 201.891 67.625C201.703 68.0938 201.453 68.5156 201.141 68.8906C200.859 69.2969 200.516 69.625 200.109 69.875C199.703 70.1562 199.25 70.2969 198.75 70.2969C197.938 70.2969 197.344 70.0156 196.969 69.4531C196.625 68.8906 196.375 68.25 196.219 67.5312C195.312 63.5625 194.672 59.7656 194.297 56.1406C193.953 52.5156 193.781 48.8906 193.781 45.2656C193.781 44.3906 193.922 43.6406 194.203 43.0156C194.516 42.3594 194.922 41.8281 195.422 41.4219C195.922 40.9844 196.516 40.6719 197.203 40.4844C197.891 40.2656 198.609 40.1562 199.359 40.1562C199.453 40.1562 199.594 40.1562 199.781 40.1562C200 40.1562 200.203 40.1875 200.391 40.25C200.578 40.2812 200.734 40.3438 200.859 40.4375C200.984 40.5312 201.031 40.6562 201 40.8125C200.188 44.9062 199.797 49.0781 199.828 53.3281C199.859 57.5469 200.078 61.6094 200.484 65.5156C200.828 63.9531 201.328 62.1875 201.984 60.2188C202.672 58.2188 203.453 56.2188 204.328 54.2188C205.234 52.1875 206.203 50.2656 207.234 48.4531C208.297 46.6094 209.375 45.0625 210.469 43.8125C211 43.2188 211.531 42.7188 212.062 42.3125C212.625 41.875 213.312 41.6562 214.125 41.6562C214.594 41.6562 214.984 41.75 215.297 41.9375C215.609 42.125 215.859 42.3594 216.047 42.6406C216.266 42.9219 216.422 43.25 216.516 43.625C216.641 43.9688 216.734 44.3125 216.797 44.6562C216.953 45.5625 217.109 46.7344 217.266 48.1719C217.422 49.6094 217.609 51.1406 217.828 52.7656C218.078 54.3906 218.375 56.0312 218.719 57.6875C219.062 59.3125 219.5 60.7969 220.031 62.1406C220.562 63.4531 221.203 64.5312 221.953 65.375C222.703 66.2188 223.594 66.6406 224.625 66.6406C225.469 66.6406 226.281 66.4844 227.062 66.1719C227.875 65.8281 228.641 65.4062 229.359 64.9062C230.078 64.375 230.75 63.7812 231.375 63.125C232 62.4375 232.562 61.7656 233.062 61.1094L233.391 61.2969ZM260.344 3.78125C259.812 4.375 259.391 5.14062 259.078 6.07812C258.797 7.01562 258.578 8 258.422 9.03125C258.266 10.0625 258.156 11.0938 258.094 12.125C258.062 13.1562 258.047 14.0469 258.047 14.7969C258.047 19.0156 258.422 23.1562 259.172 27.2188C259.953 31.2812 261.031 35.25 262.406 39.125C263.781 43 265.406 46.7812 267.281 50.4688C269.188 54.1562 271.281 57.7344 273.562 61.2031C274.219 62.2031 274.922 63.2969 275.672 64.4844C276.422 65.6719 277.141 66.9219 277.828 68.2344C278.203 67.0469 278.578 65.9062 278.953 64.8125C279.328 63.6875 279.688 62.6719 280.031 61.7656C280.938 59.2344 281.906 56.4844 282.938 53.5156C284 50.5469 285.125 47.5 286.312 44.375C287.531 41.2188 288.797 38.0469 290.109 34.8594C291.453 31.6406 292.844 28.5312 294.281 25.5312C295.75 22.5312 297.25 19.7031 298.781 17.0469C300.344 14.3906 301.953 12.0156 303.609 9.92188C304.078 9.32812 304.641 8.70312 305.297 8.04688C305.984 7.35937 306.719 6.73438 307.5 6.17188C308.281 5.57812 309.094 5.09375 309.938 4.71875C310.781 4.34375 311.625 4.15625 312.469 4.15625C312.812 4.15625 313.172 4.23438 313.547 4.39062C313.922 4.54687 314.109 4.82812 314.109 5.23438C314.109 5.48437 314.047 5.71875 313.922 5.9375C313.797 6.15625 313.656 6.35938 313.5 6.54688C306.625 16.8281 300.406 27.4531 294.844 38.4219C289.281 49.3906 284.219 60.6094 279.656 72.0781C280.25 73.4844 280.719 74.875 281.062 76.25C281.438 77.625 281.625 78.9688 281.625 80.2812C281.625 80.8125 281.562 81.4062 281.438 82.0625C281.344 82.7188 281.156 83.3281 280.875 83.8906C280.594 84.4844 280.219 84.9688 279.75 85.3438C279.281 85.75 278.703 85.9531 278.016 85.9531C277.391 85.9531 276.891 85.7969 276.516 85.4844C276.141 85.1719 275.859 84.7812 275.672 84.3125C275.484 83.875 275.359 83.3906 275.297 82.8594C275.234 82.3281 275.203 81.8281 275.203 81.3594C275.203 80.2031 275.312 78.9219 275.531 77.5156C275.781 76.1406 276.078 74.7188 276.422 73.25C275.859 72.4062 275.25 71.5312 274.594 70.625C273.969 69.75 273.328 68.875 272.672 68C272.047 67.1562 271.438 66.3438 270.844 65.5625C270.281 64.7812 269.781 64.0625 269.344 63.4062C267.25 60.4062 265.203 57.3281 263.203 54.1719C261.203 50.9844 259.422 47.7188 257.859 44.375C256.297 41 255.031 37.5469 254.062 34.0156C253.125 30.4531 252.656 26.7656 252.656 22.9531C252.656 19.3594 253.203 15.9062 254.297 12.5938C255.391 9.25 257.109 6.1875 259.453 3.40625L260.344 3.78125ZM278.766 77.3281C278.672 77.1094 278.562 76.8906 278.438 76.6719C278.344 76.4844 278.234 76.2656 278.109 76.0156C278.078 76.0781 278.062 76.125 278.062 76.1562C278.062 76.2188 278.047 76.2812 278.016 76.3438C277.891 76.8125 277.75 77.3125 277.594 77.8438C277.438 78.375 277.297 78.9219 277.172 79.4844C277.047 80.0469 276.938 80.5938 276.844 81.125C276.781 81.6875 276.75 82.2031 276.75 82.6719C276.75 83.0781 276.812 83.5 276.938 83.9375C277.062 84.375 277.391 84.5938 277.922 84.5938C278.641 84.5938 279.188 84.3438 279.562 83.8438C279.938 83.375 280.125 82.7969 280.125 82.1094C280.125 81.2969 279.969 80.4844 279.656 79.6719C279.344 78.8594 279.047 78.0781 278.766 77.3281ZM327.188 61.2969C326.375 62.4844 325.391 63.5938 324.234 64.625C323.109 65.6562 321.859 66.5469 320.484 67.2969C319.141 68.0469 317.719 68.6406 316.219 69.0781C314.75 69.5156 313.266 69.7344 311.766 69.7344C309.641 69.7344 307.656 69.4531 305.812 68.8906C303.969 68.3594 302.359 67.5312 300.984 66.4062C299.609 65.2812 298.531 63.875 297.75 62.1875C296.969 60.4688 296.578 58.4688 296.578 56.1875C296.578 53.9375 296.984 51.8438 297.797 49.9062C298.641 47.9375 299.781 46.2344 301.219 44.7969C302.688 43.3281 304.406 42.1719 306.375 41.3281C308.344 40.4844 310.453 40.0625 312.703 40.0625C313.766 40.0625 314.75 40.2188 315.656 40.5312C316.594 40.8125 317.406 41.25 318.094 41.8438C318.781 42.4062 319.312 43.1094 319.688 43.9531C320.094 44.7969 320.297 45.7656 320.297 46.8594C320.297 48.1719 320.031 49.3281 319.5 50.3281C318.969 51.3281 318.266 52.2031 317.391 52.9531C316.516 53.7031 315.516 54.3281 314.391 54.8281C313.297 55.3281 312.141 55.7344 310.922 56.0469C309.734 56.3594 308.547 56.5938 307.359 56.75C306.203 56.875 305.141 56.9375 304.172 56.9375H303.047C303.453 59.7812 304.578 61.9531 306.422 63.4531C308.266 64.9531 310.812 65.7031 314.062 65.7031C316.375 65.7031 318.625 65.2969 320.812 64.4844C323.031 63.6719 325.031 62.5469 326.812 61.1094L327.188 61.2969ZM302.906 55.5312H304.078C305.203 55.5312 306.359 55.3594 307.547 55.0156C308.734 54.6406 309.797 54.1094 310.734 53.4219C311.703 52.7031 312.5 51.8281 313.125 50.7969C313.75 49.7656 314.062 48.5938 314.062 47.2812C314.062 46 313.781 44.9375 313.219 44.0938C312.688 43.25 311.75 42.8281 310.406 42.8281C309.031 42.8281 307.859 43.25 306.891 44.0938C305.953 44.9062 305.188 45.9219 304.594 47.1406C304 48.3281 303.562 49.5938 303.281 50.9375C303.031 52.25 302.906 53.4219 302.906 54.4531V55.5312ZM360.938 61.2969C360.375 62.5469 359.656 63.6719 358.781 64.6719C357.938 65.6719 357.016 66.5312 356.016 67.25C355.016 67.9375 353.984 68.4688 352.922 68.8438C351.859 69.25 350.844 69.4531 349.875 69.4531C348.062 69.4531 346.531 69.1406 345.281 68.5156C344.031 67.8906 343.016 67.0469 342.234 65.9844C341.453 64.9219 340.891 63.6719 340.547 62.2344C340.203 60.7969 340.031 59.2656 340.031 57.6406C340.031 56.3906 340.125 55.0938 340.312 53.75C340.5 52.4062 340.766 51.1094 341.109 49.8594C341.172 49.6719 341.234 49.4531 341.297 49.2031C341.359 48.9219 341.391 48.6875 341.391 48.5C341.391 48.3438 341.297 48.2188 341.109 48.125C340.578 47.9375 340.016 47.7656 339.422 47.6094C338.828 47.4219 338.234 47.2188 337.641 47C337.078 46.7812 336.531 46.5312 336 46.25C335.5 45.9688 335.062 45.6094 334.688 45.1719C334.656 47.0469 334.344 48.9531 333.75 50.8906C333.156 52.7969 332.359 54.6406 331.359 56.4219C330.391 58.1719 329.25 59.8125 327.938 61.3438C326.625 62.875 325.234 64.2031 323.766 65.3281L323.297 64.8594C324.203 63.8594 325.031 62.6719 325.781 61.2969C326.531 59.9219 327.172 58.4844 327.703 56.9844C328.234 55.4844 328.641 53.9688 328.922 52.4375C329.234 50.9062 329.391 49.4688 329.391 48.125C329.391 47.4375 329.328 46.7969 329.203 46.2031C329.078 45.5781 328.938 44.9844 328.781 44.4219C328.656 43.8594 328.531 43.3281 328.406 42.8281C328.281 42.2969 328.219 41.7656 328.219 41.2344C328.219 40.3594 328.5 39.6719 329.062 39.1719C329.625 38.6719 330.344 38.4219 331.219 38.4219C331.688 38.4219 332.047 38.5625 332.297 38.8438C332.547 39.0938 332.766 39.4062 332.953 39.7812C333.141 40.1562 333.359 40.5469 333.609 40.9531C333.859 41.3594 334.219 41.7031 334.688 41.9844C335.281 42.3281 336.031 42.5781 336.938 42.7344C337.844 42.8906 338.797 43.0312 339.797 43.1562C340.797 43.2812 341.797 43.4062 342.797 43.5312C343.797 43.6562 344.688 43.875 345.469 44.1875C346.281 44.4688 346.938 44.875 347.438 45.4062C347.938 45.9062 348.188 46.5938 348.188 47.4688C348.188 47.9062 348.141 48.3438 348.047 48.7812C347.984 49.1875 347.875 49.5781 347.719 49.9531C347.344 51.2656 347.016 52.6094 346.734 53.9844C346.484 55.3281 346.359 56.6719 346.359 58.0156C346.359 59.1719 346.438 60.2344 346.594 61.2031C346.781 62.1406 347.109 62.9531 347.578 63.6406C348.047 64.3281 348.672 64.8594 349.453 65.2344C350.234 65.6094 351.234 65.7969 352.453 65.7969C354.203 65.7969 355.734 65.375 357.047 64.5312C358.359 63.6562 359.516 62.5156 360.516 61.1094L360.938 61.2969ZM399.141 61.2969C398.547 62.4219 397.906 63.5 397.219 64.5312C396.562 65.5625 395.812 66.4688 394.969 67.25C394.125 68.0312 393.172 68.6562 392.109 69.125C391.047 69.5938 389.828 69.8281 388.453 69.8281C386.891 69.8281 385.547 69.4375 384.422 68.6562C383.297 67.9062 382.328 66.9062 381.516 65.6562C380.734 64.375 380.094 62.9219 379.594 61.2969C379.125 59.6719 378.734 58.0156 378.422 56.3281C378.109 54.6406 377.875 52.9844 377.719 51.3594C377.562 49.7031 377.422 48.2188 377.297 46.9062C376.703 47.375 375.984 48.2812 375.141 49.625C374.297 50.9375 373.438 52.4844 372.562 54.2656C371.688 56.0469 370.844 57.9844 370.031 60.0781C369.25 62.1719 368.609 64.2344 368.109 66.2656C368.016 66.7031 367.859 67.1562 367.641 67.625C367.453 68.0938 367.203 68.5156 366.891 68.8906C366.609 69.2969 366.266 69.625 365.859 69.875C365.453 70.1562 365 70.2969 364.5 70.2969C363.688 70.2969 363.094 70.0156 362.719 69.4531C362.375 68.8906 362.125 68.25 361.969 67.5312C361.062 63.5625 360.422 59.7656 360.047 56.1406C359.703 52.5156 359.531 48.8906 359.531 45.2656C359.531 44.3906 359.672 43.6406 359.953 43.0156C360.266 42.3594 360.672 41.8281 361.172 41.4219C361.672 40.9844 362.266 40.6719 362.953 40.4844C363.641 40.2656 364.359 40.1562 365.109 40.1562C365.203 40.1562 365.344 40.1562 365.531 40.1562C365.75 40.1562 365.953 40.1875 366.141 40.25C366.328 40.2812 366.484 40.3438 366.609 40.4375C366.734 40.5312 366.781 40.6562 366.75 40.8125C365.938 44.9062 365.547 49.0781 365.578 53.3281C365.609 57.5469 365.828 61.6094 366.234 65.5156C366.578 63.9531 367.078 62.1875 367.734 60.2188C368.422 58.2188 369.203 56.2188 370.078 54.2188C370.984 52.1875 371.953 50.2656 372.984 48.4531C374.047 46.6094 375.125 45.0625 376.219 43.8125C376.75 43.2188 377.281 42.7188 377.812 42.3125C378.375 41.875 379.062 41.6562 379.875 41.6562C380.344 41.6562 380.734 41.75 381.047 41.9375C381.359 42.125 381.609 42.3594 381.797 42.6406C382.016 42.9219 382.172 43.25 382.266 43.625C382.391 43.9688 382.484 44.3125 382.547 44.6562C382.703 45.5625 382.859 46.7344 383.016 48.1719C383.172 49.6094 383.359 51.1406 383.578 52.7656C383.828 54.3906 384.125 56.0312 384.469 57.6875C384.812 59.3125 385.25 60.7969 385.781 62.1406C386.312 63.4531 386.953 64.5312 387.703 65.375C388.453 66.2188 389.344 66.6406 390.375 66.6406C391.219 66.6406 392.031 66.4844 392.812 66.1719C393.625 65.8281 394.391 65.4062 395.109 64.9062C395.828 64.375 396.5 63.7812 397.125 63.125C397.75 62.4375 398.312 61.7656 398.812 61.1094L399.141 61.2969ZM423.891 54.1719C423.891 56.3594 423.531 58.3906 422.812 60.2656C422.094 62.1406 421.078 63.7656 419.766 65.1406C418.453 66.5156 416.875 67.5938 415.031 68.375C413.219 69.1562 411.203 69.5469 408.984 69.5469C407.016 69.5469 405.234 69.1719 403.641 68.4219C402.078 67.7031 400.734 66.7188 399.609 65.4688C398.484 64.2188 397.625 62.7656 397.031 61.1094C396.438 59.4219 396.141 57.625 396.141 55.7188C396.141 54.125 396.359 52.6094 396.797 51.1719C397.266 49.7344 397.906 48.4062 398.719 47.1875C399.531 45.9375 400.5 44.7969 401.625 43.7656C402.75 42.7031 403.969 41.75 405.281 40.9062L405.844 41.3281C404.531 42.8594 403.5 44.5469 402.75 46.3906C402 48.2344 401.625 50.1875 401.625 52.25C401.625 53.75 401.844 55.2812 402.281 56.8438C402.75 58.375 403.422 59.7812 404.297 61.0625C405.172 62.3438 406.266 63.3906 407.578 64.2031C408.891 65.0156 410.391 65.4219 412.078 65.4219C413.141 65.4219 414.141 65.2031 415.078 64.7656C416.016 64.3281 416.828 63.7344 417.516 62.9844C418.234 62.2344 418.797 61.3906 419.203 60.4531C419.641 59.4844 419.859 58.4844 419.859 57.4531C419.859 56.4531 419.703 55.4844 419.391 54.5469C419.109 53.5781 418.703 52.6875 418.172 51.875C417.641 51.0312 417 50.2812 416.25 49.625C415.5 48.9375 414.688 48.375 413.812 47.9375C413.312 47.6875 412.828 47.5 412.359 47.375C411.922 47.25 411.438 47.1094 410.906 46.9531C410.688 46.9219 410.453 46.875 410.203 46.8125C409.953 46.7188 409.719 46.625 409.5 46.5312C409.281 46.4062 409.094 46.25 408.938 46.0625C408.781 45.875 408.703 45.6406 408.703 45.3594C408.703 44.7969 408.906 44.2812 409.312 43.8125C409.719 43.3438 410.203 42.9375 410.766 42.5938C411.328 42.2188 411.922 41.9375 412.547 41.75C413.172 41.5312 413.719 41.4219 414.188 41.4219C415.781 41.4219 417.188 41.8281 418.406 42.6406C419.625 43.4531 420.641 44.4844 421.453 45.7344C422.266 46.9844 422.875 48.3594 423.281 49.8594C423.688 51.3594 423.891 52.7969 423.891 54.1719ZM468.422 61.2969C467.828 62.4219 467.188 63.5 466.5 64.5312C465.844 65.5625 465.094 66.4688 464.25 67.25C463.406 68.0312 462.453 68.6562 461.391 69.125C460.328 69.5938 459.109 69.8281 457.734 69.8281C456.172 69.8281 454.828 69.4375 453.703 68.6562C452.578 67.9062 451.609 66.9062 450.797 65.6562C450.016 64.375 449.375 62.9219 448.875 61.2969C448.406 59.6719 448.016 58.0156 447.703 56.3281C447.391 54.6406 447.156 52.9844 447 51.3594C446.844 49.7031 446.703 48.2188 446.578 46.9062C445.984 47.375 445.266 48.2812 444.422 49.625C443.578 50.9375 442.719 52.4844 441.844 54.2656C440.969 56.0469 440.125 57.9844 439.312 60.0781C438.531 62.1719 437.891 64.2344 437.391 66.2656C437.297 66.7031 437.141 67.1562 436.922 67.625C436.734 68.0938 436.484 68.5156 436.172 68.8906C435.891 69.2969 435.547 69.625 435.141 69.875C434.734 70.1562 434.281 70.2969 433.781 70.2969C432.969 70.2969 432.375 70.0156 432 69.4531C431.656 68.8906 431.406 68.25 431.25 67.5312C430.344 63.5625 429.703 59.7656 429.328 56.1406C428.984 52.5156 428.812 48.8906 428.812 45.2656C428.812 44.3906 428.953 43.6406 429.234 43.0156C429.547 42.3594 429.953 41.8281 430.453 41.4219C430.953 40.9844 431.547 40.6719 432.234 40.4844C432.922 40.2656 433.641 40.1562 434.391 40.1562C434.484 40.1562 434.625 40.1562 434.812 40.1562C435.031 40.1562 435.234 40.1875 435.422 40.25C435.609 40.2812 435.766 40.3438 435.891 40.4375C436.016 40.5312 436.062 40.6562 436.031 40.8125C435.219 44.9062 434.828 49.0781 434.859 53.3281C434.891 57.5469 435.109 61.6094 435.516 65.5156C435.859 63.9531 436.359 62.1875 437.016 60.2188C437.703 58.2188 438.484 56.2188 439.359 54.2188C440.266 52.1875 441.234 50.2656 442.266 48.4531C443.328 46.6094 444.406 45.0625 445.5 43.8125C446.031 43.2188 446.562 42.7188 447.094 42.3125C447.656 41.875 448.344 41.6562 449.156 41.6562C449.625 41.6562 450.016 41.75 450.328 41.9375C450.641 42.125 450.891 42.3594 451.078 42.6406C451.297 42.9219 451.453 43.25 451.547 43.625C451.672 43.9688 451.766 44.3125 451.828 44.6562C451.984 45.5625 452.141 46.7344 452.297 48.1719C452.453 49.6094 452.641 51.1406 452.859 52.7656C453.109 54.3906 453.406 56.0312 453.75 57.6875C454.094 59.3125 454.531 60.7969 455.062 62.1406C455.594 63.4531 456.234 64.5312 456.984 65.375C457.734 66.2188 458.625 66.6406 459.656 66.6406C460.5 66.6406 461.312 66.4844 462.094 66.1719C462.906 65.8281 463.672 65.4062 464.391 64.9062C465.109 64.375 465.781 63.7812 466.406 63.125C467.031 62.4375 467.594 61.7656 468.094 61.1094L468.422 61.2969Z" fill="#C6C6C6"/>
</svg>
