<svg width="679" height="74" viewBox="0 0 679 74" fill="none" xmlns="http://www.w3.org/2000/svg">
<path d="M9.408 37.88C9.408 44.088 9.856 48.888 10.752 52.28C11.712 55.672 12.96 58.008 14.496 59.288C16.096 60.504 18.048 61.112 20.352 61.112C22.912 61.112 24.992 60.44 26.592 59.096C28.256 57.688 29.44 56.024 30.144 54.104C30.848 52.184 31.2 50.36 31.2 48.632L31.488 22.136C31.36 20.216 31.296 18.104 31.296 15.8L31.392 6.488C31.264 4.888 31.424 3.896 31.872 3.512C32.32 3.064 32.96 2.84 33.792 2.84C34.176 2.776 34.784 2.712 35.616 2.648C36.448 2.52 37.216 2.456 37.92 2.456C38.624 2.456 39.136 2.488 39.456 2.55199C40.544 2.616 41.216 2.84 41.472 3.224C41.728 3.544 41.824 4.376 41.76 5.72L41.568 35.096C41.504 35.544 41.472 36.056 41.472 36.632C41.536 37.144 41.568 37.624 41.568 38.072V41.144C41.568 61.496 35.52 71.672 23.424 71.672C17.088 71.672 12.192 70.104 8.736 66.968C5.344 63.768 3.104 60.344 2.016 56.696C0.992 52.984 0.48 49.848 0.48 47.288L0.576 39.032C0.64 37.816 0.672 36.44 0.672 34.904C0.672 34.072 0.768 33.592 0.96 33.464C1.152 33.272 1.536 33.208 2.112 33.272C2.816 33.272 4.8 33.048 8.064 32.6C9.216 32.536 9.792 33.112 9.792 34.328C9.792 34.712 9.728 35.256 9.6 35.96C9.472 36.664 9.408 37.304 9.408 37.88ZM89.1083 3.992C92.9483 6.552 96.0203 10.008 98.3243 14.36C100.692 18.712 102.324 22.968 103.22 27.128C104.18 31.224 104.66 34.456 104.66 36.824C104.66 40.792 104.02 45.4 102.74 50.648C101.524 55.896 98.8683 60.792 94.7723 65.336C90.6763 69.816 84.7563 72.056 77.0123 72.056C66.3883 72.056 58.8363 65.88 54.3563 53.528C52.3723 47.96 51.2523 41.752 50.9963 34.904C50.9963 29.272 52.1803 23.928 54.5483 18.872C56.9163 13.752 60.0203 9.656 63.8603 6.584C67.7643 3.512 71.7643 1.976 75.8603 1.976C79.5723 1.976 82.3243 2.072 84.1163 2.264C85.9723 2.456 87.6363 3.032 89.1083 3.992ZM76.5323 66.68C83.3163 66.68 88.3723 63.864 91.7003 58.232C95.0283 52.536 96.6923 45.4 96.6923 36.824C96.6923 31.576 95.8923 26.744 94.2923 22.328C92.7563 17.848 90.5483 14.296 87.6683 11.672C84.8523 8.984 81.5883 7.64 77.8763 7.64C77.5563 7.64 76.6923 7.64 75.2843 7.64C73.9403 7.64 72.7563 7.864 71.7323 8.31199C70.7083 8.76 69.7803 9.432 68.9483 10.328C66.8363 12.44 65.0443 14.392 63.5723 16.184C62.1643 17.912 60.7243 20.504 59.2523 23.96C57.8443 27.416 57.1403 31.416 57.1403 35.96C57.1403 41.336 57.7803 46.36 59.0603 51.032C60.4043 55.64 62.5163 59.416 65.3963 62.36C68.2763 65.24 71.9883 66.68 76.5323 66.68ZM157.909 67.064C159.637 68.792 160.501 69.976 160.501 70.616C160.501 70.744 160.341 70.968 160.021 71.288C159.445 71.672 158.005 71.864 155.701 71.864C154.037 71.864 152.981 71.736 152.533 71.48C152.085 71.288 151.733 70.936 151.477 70.424C151.285 69.912 151.125 69.528 150.997 69.272C150.805 68.888 150.005 67.8 148.597 66.008C147.253 64.152 146.229 62.744 145.525 61.784C142.133 57.432 139.189 53.496 136.693 49.976C135.157 47.8 132.309 44.056 128.149 38.744L126.613 36.824L119.989 28.568L119.605 32.408C119.349 34.328 119.285 36.632 119.413 39.32C119.605 41.112 119.733 45.752 119.797 53.24C119.861 60.728 119.893 66.2 119.893 69.656C119.893 70.68 119.509 71.32 118.741 71.576C117.973 71.896 117.077 72.056 116.053 72.056C115.605 72.056 115.317 71.864 115.189 71.48C115.061 71.096 114.965 70.68 114.901 70.232C114.901 69.784 114.901 69.496 114.901 69.368C114.773 68.344 114.709 66.84 114.709 64.856C114.709 63.576 114.741 62.616 114.805 61.976C114.869 58.52 114.965 52.504 115.093 43.928C115.221 35.288 115.285 27.544 115.285 20.696C115.285 13.336 115.189 9.04799 114.997 7.832C114.933 7.32 114.901 6.648 114.901 5.816C114.901 4.856 115.029 4.248 115.285 3.992C115.605 3.736 116.053 3.608 116.629 3.608C117.909 3.608 119.157 3.64 120.373 3.704L130.837 3.89599C134.677 3.89599 138.677 4.568 142.837 5.912C146.997 7.256 149.077 9.752 149.077 13.4C149.077 16.856 147.797 19.544 145.237 21.464C142.677 23.384 139.797 24.696 136.597 25.4C133.461 26.104 130.709 26.456 128.341 26.456C127.509 26.456 127.061 26.424 126.997 26.36C127.381 26.744 129.909 30.136 134.581 36.536C148.661 55.416 156.437 65.592 157.909 67.064ZM119.701 22.52C121.813 22.52 123.413 22.488 124.501 22.424C128.213 22.296 131.093 22.04 133.141 21.656C136.085 21.144 138.293 20.44 139.765 19.544C141.301 18.648 142.069 17.24 142.069 15.32C142.069 14.04 141.397 12.952 140.053 12.056C138.709 11.096 137.077 10.392 135.157 9.944C133.301 9.432 131.669 9.17599 130.261 9.17599C128.661 9.112 126.421 9.08 123.541 9.08H120.277L119.701 22.52ZM185.225 3.8C189.129 3.8 193.289 4.856 197.705 6.96799C202.121 9.016 205.993 12.792 209.321 18.296C212.649 23.8 214.313 31.288 214.313 40.76C214.313 49.4 212.233 55.96 208.073 60.44C203.977 64.856 199.657 67.704 195.113 68.984C190.569 70.2 186.793 70.808 183.785 70.808L175.913 70.904C174.505 70.968 172.777 71 170.729 71C169.513 71 168.905 69.912 168.905 67.736L169.001 65.24L168.809 60.44L168.713 56.12L168.617 53.24C168.361 49.912 168.233 46.136 168.233 41.912C168.233 39.416 168.361 36.12 168.617 32.024C168.873 27.928 169.001 24.568 169.001 21.944L168.905 9.08C168.841 8.056 168.809 6.904 168.809 5.62399C168.809 4.92 169.257 4.504 170.153 4.376C171.113 4.184 172.105 4.12 173.129 4.184C174.153 4.184 174.857 4.184 175.241 4.184L178.697 3.992C181.385 3.864 183.561 3.8 185.225 3.8ZM185.417 50.456C187.145 49.624 188.745 48.472 190.217 47C193.417 43.928 195.017 40.28 195.017 36.056C195.017 32.024 193.481 28.792 190.409 26.36C189.065 25.336 187.561 24.568 185.897 24.056C186.025 25.464 186.089 26.552 186.089 27.32C186.089 28.536 186.025 30.296 185.897 32.6C185.769 34.776 185.705 36.376 185.705 37.4C185.705 39.064 185.641 41.752 185.513 45.464C185.449 46.552 185.417 48.216 185.417 50.456ZM265.016 69.656C265.208 70.104 265.304 70.424 265.304 70.616C265.304 70.872 264.952 71 264.248 71H258.872C258.616 71 258.392 70.968 258.2 70.904C258.072 70.776 257.944 70.52 257.816 70.136C257.56 69.432 257.208 68.28 256.76 66.68C256.184 65.08 255.8 63.64 255.608 62.36C255.416 61.4 255.096 60.248 254.648 58.904C254.264 57.56 253.912 56.536 253.592 55.832C253.016 54.616 252.504 53.24 252.056 51.704L251.192 48.92C250.872 48.216 250.616 47.8 250.424 47.672C250.296 47.48 250.04 47.384 249.656 47.384C248.312 47.384 247.32 47.416 246.68 47.48L242.552 47.672C242.04 47.736 239.672 47.768 235.448 47.768H229.592H229.4C229.016 47.768 228.728 48.12 228.536 48.824L228.344 49.784L227.96 51.608C227.832 51.928 227.416 53.784 226.712 57.176C226.52 58.264 226.2 59.672 225.752 61.4C225.624 62.68 225.336 63.736 224.888 64.568C224.76 64.76 224.6 65.208 224.408 65.912C224.216 66.616 224.056 67.192 223.928 67.64C223.736 68.152 223.512 68.984 223.256 70.136C223.192 70.2 223.128 70.36 223.064 70.616C223 70.808 222.904 70.936 222.776 71C222.648 71 222.456 71 222.2 71H220.28C219.704 71 219.544 70.584 219.8 69.752C219.8 69.56 219.832 69.4 219.896 69.272C219.896 69.144 219.928 68.984 219.992 68.792C220.056 68.6 220.152 68.312 220.28 67.928L221.144 64.376C221.272 63.992 221.496 63.32 221.816 62.36C222.136 61.4 222.36 60.504 222.488 59.672C222.808 58.136 223.416 55.8 224.312 52.664L225.08 49.976C226.296 46.008 227.064 43.224 227.384 41.624L228.728 36.536C229.368 34.424 229.752 33.08 229.88 32.504C230.328 30.584 230.968 28.184 231.799 25.304L232.472 22.616L233.048 20.6C233.688 18.424 234.232 16.856 234.68 15.896C234.808 15.512 235.256 14.2 236.024 11.96C236.856 9.656 237.4 7.832 237.656 6.488C238.104 4.952 238.552 3.8 239 3.032C239.512 2.264 240.184 1.88 241.016 1.88C241.336 1.88 241.656 2.168 241.976 2.744C242.296 3.32 242.616 4.024 242.936 4.856C243.256 5.688 243.48 6.296 243.608 6.68C244.12 7.896 245.016 10.936 246.296 15.8L247.064 18.488C247.128 19 248.184 22.136 250.232 27.896L252.056 33.176L253.784 37.688C255.576 42.744 256.728 45.816 257.24 46.904C259.48 53.688 260.792 57.784 261.176 59.192C261.624 60.856 262.328 62.936 263.288 65.432C264.312 67.928 264.888 69.336 265.016 69.656ZM247.064 41.144C247.896 41.144 248.312 40.92 248.312 40.472C248.312 40.152 248.088 39.448 247.64 38.36C247.256 37.4 246.68 35.608 245.911 32.984C245.336 30.872 244.76 29.048 244.184 27.512C243.544 25.592 242.84 23.32 242.072 20.696C241.368 18.072 240.952 16.376 240.824 15.608C239.864 12.216 239.224 10.52 238.904 10.52C238.712 10.52 238.392 11.384 237.944 13.112L237.368 15.224C236.92 16.952 236.344 19.128 235.64 21.752C234.936 24.312 234.296 26.488 233.72 28.28C233.336 29.944 232.792 32.056 232.088 34.616C231.448 37.112 230.936 38.84 230.552 39.8C230.424 40.184 230.359 40.408 230.359 40.472C230.359 40.92 230.552 41.208 230.936 41.336C231.384 41.464 231.8 41.528 232.184 41.528C232.632 41.464 232.92 41.432 233.048 41.432L238.616 41.24C239.384 41.112 240.472 41.048 241.88 41.048L247.064 41.144ZM299.272 11.192C299.272 7.224 299.304 4.75999 299.368 3.8C299.368 2.584 299.784 1.848 300.616 1.592C301.448 1.33599 302.664 1.20799 304.264 1.20799C305.672 1.20799 307.464 1.144 309.64 1.016C311.88 0.823996 313.608 0.631996 314.824 0.439999C315.72 0.375996 316.36 0.535995 316.744 0.919998C317.128 1.24 317.32 1.816 317.32 2.648C317.32 2.904 317.256 3.608 317.128 4.75999C317 5.72 316.936 12.088 316.936 23.864V45.56C316.936 48.824 316.968 52.44 317.032 56.408C317.16 60.312 317.288 63.832 317.416 66.968C317.544 70.104 317.608 70.968 317.608 69.56C317.608 70.584 317.096 71.096 316.072 71.096C315.624 71.096 315.24 71.064 314.92 71C314.664 70.936 314.152 70.904 313.384 70.904C312.616 70.904 311.4 70.968 309.736 71.096C307.944 71.224 306.696 71.288 305.992 71.288C304.776 71.288 303.848 71.032 303.208 70.52C302.632 70.008 302.024 69.08 301.384 67.736L299.752 64.472C297.832 60.184 296.136 56.824 294.664 54.392C293.832 52.984 291.72 49.112 288.328 42.776L284.104 34.808V38.456V40.664C284.104 41.176 284.072 41.816 284.008 42.584C284.008 43.352 284.04 44.216 284.104 45.176C284.104 48.504 284.136 52.856 284.2 58.232C284.328 63.608 284.488 66.84 284.68 67.928C284.744 68.248 284.776 68.632 284.776 69.08C284.776 69.72 284.648 70.136 284.392 70.328C284.136 70.456 283.656 70.488 282.952 70.424C281.928 70.424 280.712 70.488 279.304 70.616C277.96 70.744 276.68 70.872 275.464 71C274.504 71.128 273.864 70.968 273.544 70.52C273.288 70.072 273.192 69.08 273.256 67.544C273.256 65.24 273.16 61.176 272.968 55.352C272.712 49.272 272.552 43.992 272.488 39.512C272.488 34.968 272.584 30.36 272.776 25.688C272.904 19.8 272.968 15.768 272.968 13.592C272.968 10.648 272.872 8.504 272.68 7.16C272.552 6.008 272.488 5.272 272.488 4.952C272.488 3.8 272.68 3.032 273.064 2.648C273.448 2.2 273.96 1.976 274.6 1.976C274.92 1.976 275.56 2.008 276.52 2.07199C277.48 2.07199 278.856 1.848 280.648 1.4C281.352 1.272 282.056 1.20799 282.76 1.20799C283.144 1.20799 283.688 1.24 284.392 1.304C285.096 1.368 286.024 1.4 287.176 1.4C288.648 1.4 289.864 1.976 290.824 3.128C291.848 4.28 292.936 5.912 294.088 8.024L295.048 9.752C295.816 11.16 296.744 12.664 297.832 14.264L299.272 16.472V11.192ZM375.254 20.984C375.574 23.032 376.438 27.512 377.846 34.424L379.958 43.928L381.206 38.264C381.782 35.704 382.294 32.792 382.742 29.528C382.806 28.632 383.094 27.064 383.606 24.824C384.182 22.52 384.598 20.792 384.854 19.64C386.774 12.536 387.67 8.12 387.542 6.392C387.414 4.72799 387.574 3.70399 388.022 3.32C388.47 2.936 388.982 2.776 389.558 2.84C390.198 2.84 390.614 2.84 390.806 2.84C396.886 2.84 400.694 2.936 402.23 3.128C402.934 3.192 403.414 3.32 403.67 3.512C403.926 3.704 404.054 3.96 404.054 4.27999C404.054 4.59999 403.958 5.112 403.766 5.816C403.446 6.648 402.838 9.08 401.942 13.112L401.462 15.224C399.094 27.32 397.238 35.768 395.894 40.568C394.87 44.664 393.75 50.744 392.534 58.808C391.446 65.016 390.838 68.28 390.71 68.6C390.518 69.24 390.326 69.688 390.134 69.944C389.942 70.136 389.654 70.232 389.27 70.232L387.734 70.136L381.302 70.52C376.822 70.776 374.134 70.904 373.238 70.904C372.214 70.904 371.542 70.648 371.222 70.136C370.966 69.56 370.742 68.6 370.55 67.256C369.782 64.056 367.478 55.256 363.638 40.856C363.126 38.872 361.366 31.32 358.358 18.2L355.19 4.75999C355.062 4.248 354.998 3.928 354.998 3.8C354.998 3.288 355.35 3.032 356.054 3.032C356.438 3.032 356.886 3.096 357.398 3.224C357.91 3.288 358.454 3.32 359.03 3.32L363.83 3.128L369.686 2.936C370.838 2.808 371.606 3 371.99 3.512C372.374 3.96 372.694 4.76 372.95 5.912C373.142 6.744 373.686 10.2 374.582 16.28L375.254 20.984ZM453.147 8.216C453.147 9.688 453.019 10.424 452.763 10.424C452.379 10.424 451.931 10.392 451.419 10.328C450.971 10.2 450.395 10.136 449.691 10.136H434.331L422.427 10.04C422.043 10.04 420.603 10.136 418.107 10.328L415.899 10.52L415.707 13.112C415.643 14.072 415.611 15.576 415.611 17.624C415.611 18.648 415.675 19.992 415.803 21.656C415.931 23.192 415.995 24.312 415.995 25.016V28.856C415.995 29.88 416.027 30.68 416.091 31.256C416.667 31.32 417.531 31.352 418.683 31.352H422.523C422.907 31.352 423.675 31.288 424.827 31.16C426.491 31.032 427.931 30.968 429.147 30.968C429.659 30.968 431.451 31.064 434.523 31.256L436.635 31.352C437.147 31.352 437.883 31.32 438.843 31.256C439.803 31.128 440.731 31.064 441.627 31.064L444.795 31.16C446.459 31.288 447.611 31.352 448.251 31.352C448.955 31.352 449.435 31.32 449.691 31.256L450.267 31.16C450.715 31.16 451.035 31.32 451.227 31.64C451.419 31.896 451.483 32.152 451.419 32.408C451.355 32.856 451.323 33.432 451.323 34.136C451.323 34.776 451.291 35.352 451.227 35.864C451.163 36.376 451.067 36.696 450.939 36.824C450.811 36.888 450.427 36.92 449.787 36.92L445.947 36.536C441.147 36.088 438.011 35.864 436.539 35.864C431.099 35.864 427.099 35.96 424.539 36.152C423.515 36.28 422.395 36.344 421.179 36.344C419.963 36.344 419.195 36.344 418.875 36.344C417.659 36.344 416.763 36.312 416.187 36.248L415.899 37.784C415.771 38.936 415.707 39.96 415.707 40.856C415.707 41.624 415.771 42.52 415.899 43.544C416.027 44.568 416.091 45.464 416.091 46.232L416.187 57.656L416.091 62.456C416.027 63.032 415.995 63.832 415.995 64.856C416.827 64.92 418.043 64.952 419.643 64.952C420.987 65.016 423.067 65.048 425.883 65.048L431.067 65.144C432.155 65.208 433.819 65.24 436.059 65.24C437.403 65.24 439.163 65.176 441.339 65.048L445.371 64.952C446.907 64.952 448.187 64.984 449.211 65.048C450.235 65.112 451.003 65.144 451.515 65.144C452.027 65.144 452.315 65.24 452.379 65.432C452.507 65.624 452.571 66.04 452.571 66.68C452.571 67.128 452.539 67.608 452.475 68.12C452.411 68.568 452.379 69.08 452.379 69.656C452.379 70.104 452.219 70.424 451.899 70.616C451.579 70.744 451.067 70.808 450.363 70.808C449.659 70.808 449.083 70.776 448.635 70.712C446.907 70.52 443.419 70.424 438.171 70.424C434.971 70.424 432.667 70.456 431.259 70.52C430.171 70.584 428.379 70.616 425.883 70.616L416.955 70.52C415.931 70.456 414.715 70.424 413.307 70.424C412.411 70.424 411.803 70.328 411.483 70.136C411.227 69.88 411.099 69.496 411.099 68.984L411.195 67.448C411.259 67.192 411.291 66.904 411.291 66.584C411.291 66.392 411.259 65.944 411.195 65.24C411.131 64.472 411.099 63.096 411.099 61.112C411.099 59.192 411.035 56.056 410.907 51.704C410.715 48.12 410.619 44.664 410.619 41.336C410.619 39.928 410.779 35.864 411.099 29.144C411.163 27.8 411.227 26.456 411.291 25.112C411.355 23.768 411.387 22.552 411.387 21.464C411.387 14.04 411.291 9.144 411.099 6.776C410.907 5.24 411.835 4.472 413.883 4.472C414.395 4.472 415.227 4.536 416.379 4.664C417.403 4.792 418.171 4.856 418.683 4.856L424.731 4.664C429.083 4.408 432.443 4.27999 434.811 4.27999C437.563 4.27999 441.435 4.344 446.427 4.472C448.027 4.536 449.723 4.568 451.515 4.568C452.283 4.568 452.763 4.76 452.955 5.144C453.147 5.528 453.211 5.944 453.147 6.392C453.147 6.776 453.147 7.032 453.147 7.16V8.216ZM505.346 67.064C507.074 68.792 507.938 69.976 507.938 70.616C507.938 70.744 507.778 70.968 507.458 71.288C506.882 71.672 505.442 71.864 503.138 71.864C501.474 71.864 500.418 71.736 499.97 71.48C499.522 71.288 499.17 70.936 498.914 70.424C498.722 69.912 498.562 69.528 498.434 69.272C498.242 68.888 497.442 67.8 496.034 66.008C494.69 64.152 493.666 62.744 492.962 61.784C489.57 57.432 486.626 53.496 484.13 49.976C482.594 47.8 479.746 44.056 475.586 38.744L474.05 36.824L467.426 28.568L467.042 32.408C466.786 34.328 466.722 36.632 466.85 39.32C467.042 41.112 467.17 45.752 467.234 53.24C467.298 60.728 467.33 66.2 467.33 69.656C467.33 70.68 466.946 71.32 466.178 71.576C465.41 71.896 464.514 72.056 463.49 72.056C463.042 72.056 462.754 71.864 462.626 71.48C462.498 71.096 462.402 70.68 462.338 70.232C462.338 69.784 462.338 69.496 462.338 69.368C462.21 68.344 462.146 66.84 462.146 64.856C462.146 63.576 462.178 62.616 462.242 61.976C462.306 58.52 462.402 52.504 462.53 43.928C462.658 35.288 462.722 27.544 462.722 20.696C462.722 13.336 462.626 9.04799 462.434 7.832C462.37 7.32 462.338 6.648 462.338 5.816C462.338 4.856 462.466 4.248 462.722 3.992C463.042 3.736 463.49 3.608 464.066 3.608C465.346 3.608 466.594 3.64 467.81 3.704L478.274 3.89599C482.114 3.89599 486.114 4.568 490.274 5.912C494.434 7.256 496.514 9.752 496.514 13.4C496.514 16.856 495.234 19.544 492.674 21.464C490.114 23.384 487.234 24.696 484.034 25.4C480.898 26.104 478.146 26.456 475.778 26.456C474.946 26.456 474.498 26.424 474.434 26.36C474.818 26.744 477.346 30.136 482.018 36.536C496.098 55.416 503.874 65.592 505.346 67.064ZM467.138 22.52C469.25 22.52 470.85 22.488 471.938 22.424C475.65 22.296 478.53 22.04 480.578 21.656C483.522 21.144 485.73 20.44 487.202 19.544C488.738 18.648 489.506 17.24 489.506 15.32C489.506 14.04 488.834 12.952 487.49 12.056C486.146 11.096 484.514 10.392 482.594 9.944C480.738 9.432 479.106 9.17599 477.698 9.17599C476.098 9.112 473.858 9.08 470.978 9.08H467.714L467.138 22.52ZM531.415 1.496C532.823 1.496 533.847 1.656 534.487 1.976C535.191 2.232 535.735 2.712 536.119 3.41599C536.759 4.76 537.559 6.488 538.519 8.6L542.071 16.28L546.583 26.168C547.415 27.96 548.503 30.328 549.847 33.272C551.191 36.216 552.151 38.264 552.727 39.416C553.815 41.656 554.519 43.032 554.839 43.544L557.527 48.824L560.503 54.68L560.311 49.112L559.927 39.704V36.824C559.927 33.304 559.991 29.752 560.119 26.168C560.119 23.48 560.087 21.304 560.023 19.64L559.927 12.344L560.311 3.128C560.311 2.168 560.791 1.68799 561.751 1.68799C562.071 1.68799 562.711 1.78399 563.671 1.976C564.247 2.104 564.855 2.168 565.495 2.168C566.135 2.168 566.647 2.168 567.031 2.168C567.543 2.168 567.863 2.232 567.991 2.36C568.183 2.488 568.279 2.712 568.279 3.032C568.279 3.288 568.247 3.57599 568.183 3.89599C568.119 4.216 568.087 4.568 568.087 4.952L567.991 13.208L567.799 32.6L567.703 35.384C567.703 37.56 567.735 39.544 567.799 41.336C567.863 43.128 567.927 44.6 567.991 45.752C568.183 48.504 568.279 50.808 568.279 52.664C568.279 52.408 568.375 56.216 568.567 64.088L568.759 69.464V69.656C568.759 70.936 568.151 71.512 566.935 71.384C566.743 71.32 566.359 71.288 565.783 71.288L562.999 71.384H562.423C561.975 71.384 561.623 71.288 561.367 71.096C561.175 70.904 560.823 70.36 560.311 69.464C560.119 69.016 559.863 68.376 559.543 67.544C559.223 66.712 558.839 65.784 558.391 64.76C555.639 57.848 553.655 53.144 552.439 50.648C551.031 47.96 547.479 40.248 541.783 27.512C540.503 24.888 539.063 22.104 537.463 19.16L534.679 14.168L534.967 23.288L535.063 28.952C535.191 33.176 535.255 35.96 535.255 37.304C535.255 42.552 535.351 47.832 535.543 53.144L535.639 60.632C535.639 61.976 535.703 63.928 535.831 66.488L536.023 69.848V70.04C536.023 70.68 535.863 71.096 535.543 71.288C535.223 71.48 534.775 71.576 534.199 71.576L532.087 71.672C530.743 71.864 529.303 71.96 527.767 71.96C525.975 71.96 524.503 71.992 523.351 72.056L518.455 72.152C517.495 72.152 516.855 71.96 516.535 71.576C516.215 71.256 516.023 70.872 515.959 70.424C515.895 69.976 515.831 69.656 515.767 69.464C515.511 68.312 515.383 66.904 515.383 65.24C515.383 63.704 515.415 62.392 515.479 61.304C515.479 57.976 515.543 54.104 515.671 49.688C515.799 45.208 515.959 42.008 516.151 40.088L516.631 33.272C517.399 22.648 517.783 16.664 517.783 15.32C517.783 10.264 517.879 6.488 518.071 3.992C518.199 2.264 519.095 1.4 520.759 1.4C521.271 1.4 521.751 1.432 522.199 1.496C522.647 1.56 522.999 1.592 523.255 1.592L531.415 1.496ZM600.802 2.456C607.202 2.456 612.002 4.312 615.202 8.024C618.402 11.672 620.45 16.024 621.346 21.08C622.242 26.072 622.69 31.736 622.69 38.072C622.69 43.192 621.922 48.472 620.386 53.912C618.85 59.288 616.482 63.832 613.282 67.544C610.082 71.256 606.146 73.112 601.474 73.112C592.322 73.112 586.242 69.272 583.234 61.592C580.226 53.848 578.722 45.56 578.722 36.728C578.722 28.216 579.874 21.4 582.178 16.28C584.546 11.16 587.394 7.576 590.722 5.528C594.114 3.48 597.474 2.456 600.802 2.456ZM600.706 48.728C602.434 48.728 603.714 47.768 604.546 45.848C605.378 43.928 605.794 41.624 605.794 38.936C605.794 36.376 605.378 34.136 604.546 32.216C603.778 30.296 602.722 29.336 601.378 29.336C599.778 29.336 598.562 30.456 597.73 32.696C596.962 34.872 596.578 37.24 596.578 39.8C596.578 42.424 596.834 44.568 597.346 46.232C597.858 47.896 598.978 48.728 600.706 48.728ZM659.741 11.192C659.741 7.224 659.773 4.75999 659.837 3.8C659.837 2.584 660.253 1.848 661.085 1.592C661.917 1.33599 663.133 1.20799 664.733 1.20799C666.141 1.20799 667.933 1.144 670.109 1.016C672.349 0.823996 674.077 0.631996 675.292 0.439999C676.189 0.375996 676.829 0.535995 677.213 0.919998C677.597 1.24 677.789 1.816 677.789 2.648C677.789 2.904 677.725 3.608 677.597 4.75999C677.469 5.72 677.405 12.088 677.405 23.864V45.56C677.405 48.824 677.437 52.44 677.5 56.408C677.629 60.312 677.757 63.832 677.885 66.968C678.013 70.104 678.077 70.968 678.077 69.56C678.077 70.584 677.565 71.096 676.541 71.096C676.093 71.096 675.709 71.064 675.389 71C675.133 70.936 674.621 70.904 673.853 70.904C673.085 70.904 671.869 70.968 670.205 71.096C668.413 71.224 667.165 71.288 666.461 71.288C665.245 71.288 664.317 71.032 663.677 70.52C663.101 70.008 662.493 69.08 661.853 67.736L660.221 64.472C658.301 60.184 656.605 56.824 655.133 54.392C654.301 52.984 652.189 49.112 648.797 42.776L644.573 34.808V38.456V40.664C644.573 41.176 644.541 41.816 644.477 42.584C644.477 43.352 644.509 44.216 644.573 45.176C644.573 48.504 644.605 52.856 644.669 58.232C644.797 63.608 644.957 66.84 645.149 67.928C645.213 68.248 645.245 68.632 645.245 69.08C645.245 69.72 645.117 70.136 644.861 70.328C644.605 70.456 644.125 70.488 643.421 70.424C642.397 70.424 641.181 70.488 639.773 70.616C638.429 70.744 637.149 70.872 635.933 71C634.973 71.128 634.333 70.968 634.013 70.52C633.757 70.072 633.661 69.08 633.725 67.544C633.725 65.24 633.629 61.176 633.437 55.352C633.181 49.272 633.021 43.992 632.957 39.512C632.957 34.968 633.053 30.36 633.245 25.688C633.373 19.8 633.437 15.768 633.437 13.592C633.437 10.648 633.341 8.504 633.148 7.16C633.021 6.008 632.957 5.272 632.957 4.952C632.957 3.8 633.149 3.032 633.533 2.648C633.917 2.2 634.429 1.976 635.069 1.976C635.389 1.976 636.029 2.008 636.989 2.07199C637.949 2.07199 639.325 1.848 641.117 1.4C641.821 1.272 642.525 1.20799 643.229 1.20799C643.613 1.20799 644.157 1.24 644.861 1.304C645.565 1.368 646.493 1.4 647.645 1.4C649.117 1.4 650.333 1.976 651.293 3.128C652.317 4.28 653.405 5.912 654.557 8.024L655.517 9.752C656.285 11.16 657.213 12.664 658.301 14.264L659.741 16.472V11.192Z" fill="#C6C6C6"/>
</svg>
