<svg width="472" height="122" viewBox="0 0 472 122" fill="none" xmlns="http://www.w3.org/2000/svg">
<path d="M55.3125 8.8125C56.1875 8.8125 56.8125 9.09375 57.1875 9.65625C57.5938 10.2188 57.7969 10.8437 57.7969 11.5312C57.7969 12.5 57.4375 13.5781 56.7188 14.7656C56.0312 15.9219 55.0938 17.0781 53.9062 18.2344C52.7188 19.3906 51.3281 20.5 49.7344 21.5625C48.1406 22.5938 46.4375 23.4688 44.625 24.1875C43.5625 27.2188 42.7031 30.8281 42.0469 35.0156C41.4219 39.1719 41.1094 44.0156 41.1094 49.5469C41.1094 52.8906 41.2344 56.2188 41.4844 59.5312C41.7344 62.8125 42 66.0312 42.2812 69.1875C42.5938 72.3438 42.875 75.4375 43.125 78.4688C43.375 81.5 43.5 84.4375 43.5 87.2812C43.5 89.875 43.3125 92.5312 42.9375 95.25C42.5938 97.9688 42.0312 100.609 41.25 103.172C40.4688 105.734 39.4531 108.141 38.2031 110.391C36.9531 112.672 35.4375 114.656 33.6562 116.344C31.875 118.031 29.8125 119.359 27.4688 120.328C25.125 121.328 22.4688 121.828 19.5 121.828C16.8438 121.828 14.375 121.391 12.0938 120.516C9.8125 119.641 7.8125 118.438 6.09375 116.906C4.375 115.375 2.98438 113.562 1.92188 111.469C0.859375 109.406 0.21875 107.188 0 104.812L3.09375 103.875C3.28125 106 3.78125 108.031 4.59375 109.969C5.4375 111.938 6.5625 113.656 7.96875 115.125C9.375 116.625 11.0469 117.812 12.9844 118.688C14.9219 119.562 17.0938 120 19.5 120C21.8438 120 23.9375 119.672 25.7812 119.016C27.6562 118.391 29.3125 117.531 30.75 116.438C32.1875 115.344 33.4062 114.047 34.4062 112.547C35.4375 111.078 36.2812 109.5 36.9375 107.812C37.5938 106.156 38.0781 104.422 38.3906 102.609C38.7031 100.828 38.8594 99.0781 38.8594 97.3594C38.8594 93.5469 38.6562 89.7812 38.25 86.0625C37.8438 82.3438 37.3906 78.6562 36.8906 75C36.3906 71.3438 35.9375 67.7188 35.5312 64.125C35.125 60.5 34.9219 56.8594 34.9219 53.2031C34.9219 47.7344 35.5 42.6562 36.6562 37.9688C37.8125 33.25 39.25 29.0469 40.9688 25.3594C36.1875 26.7031 31.9375 28.0625 28.2188 29.4375C24.5312 30.8125 21.4219 32.4688 18.8906 34.4062C16.3594 36.3438 14.4375 38.6719 13.125 41.3906C11.8125 44.1094 11.1562 47.4688 11.1562 51.4688C11.1562 53.9062 11.4375 56.0469 12 57.8906C12.5625 59.7344 13.2969 61.3438 14.2031 62.7188C15.1406 64.0625 16.1875 65.2031 17.3438 66.1406C18.5312 67.0469 19.7188 67.7969 20.9062 68.3906C22.0938 68.9844 23.25 69.4375 24.375 69.75C25.5 70.0625 26.4688 70.2969 27.2812 70.4531L26.9531 71.625C24.3281 71.5 21.7188 70.9688 19.125 70.0312C16.5312 69.0625 14.2031 67.7031 12.1406 65.9531C10.1094 64.2031 8.45312 62.0625 7.17188 59.5312C5.92188 56.9688 5.29688 54.0156 5.29688 50.6719C5.29688 47.0156 6.01562 43.7969 7.45312 41.0156C8.92188 38.2344 11.0781 35.7812 13.9219 33.6562C16.7969 31.5312 20.3594 29.6875 24.6094 28.125C28.8594 26.5312 33.7812 25.0937 39.375 23.8125C39.8438 23.7188 40.2969 23.6094 40.7344 23.4844C41.2031 23.3594 41.6719 23.2187 42.1406 23.0625C43.2656 20.8438 44.4375 18.8594 45.6562 17.1094C46.9062 15.3281 48.1094 13.8281 49.2656 12.6094C50.4531 11.3906 51.5625 10.4531 52.5938 9.79688C53.6562 9.14062 54.5625 8.8125 55.3125 8.8125ZM55.3125 10.6406C54.6875 10.6406 53.9844 10.8594 53.2031 11.2969C52.4219 11.7031 51.5938 12.3594 50.7188 13.2656C49.8438 14.1406 48.9688 15.2812 48.0938 16.6875C47.2188 18.0938 46.3906 19.7656 45.6094 21.7031C47.2656 20.9219 48.7344 20.0781 50.0156 19.1719C51.2969 18.2344 52.3594 17.3125 53.2031 16.4062C54.0781 15.4688 54.7344 14.5781 55.1719 13.7344C55.6406 12.8906 55.875 12.1562 55.875 11.5312C55.875 11.3438 55.8438 11.1562 55.7812 10.9688C55.75 10.75 55.5938 10.6406 55.3125 10.6406ZM66.2812 79.7812C68.0312 79.7812 69.7031 79.1406 71.2969 77.8594C72.9219 76.5781 74.1875 74.7188 75.0938 72.2812H74.7188C72.7812 72.2812 70.9844 71.9531 69.3281 71.2969C67.7031 70.6406 66.2812 69.7344 65.0625 68.5781C63.875 67.3906 62.9375 65.9844 62.25 64.3594C61.5625 62.7031 61.2188 60.8906 61.2188 58.9219C61.2188 57.8281 61.3594 56.7188 61.6406 55.5938C61.9531 54.4688 62.4219 53.4688 63.0469 52.5938C63.6719 51.6875 64.4844 50.9531 65.4844 50.3906C66.4844 49.8281 67.6719 49.5469 69.0469 49.5469C70.1719 49.5469 71.2812 49.7812 72.375 50.25C73.4688 50.6875 74.4531 51.4531 75.3281 52.5469C76.2031 53.6406 76.9062 55.125 77.4375 57C78 58.8438 78.2812 61.1875 78.2812 64.0312C78.2812 65.0938 78.2344 66.1562 78.1406 67.2188C78.0469 68.25 77.875 69.2656 77.625 70.2656C78.8438 70.0469 79.9219 69.6562 80.8594 69.0938C81.8281 68.5312 82.6719 67.8594 83.3906 67.0781C84.1406 66.2656 84.7969 65.3594 85.3594 64.3594C85.9219 63.3281 86.4375 62.2344 86.9062 61.0781L88.7344 61.5469C88.0781 63.3281 87.3125 64.8438 86.4375 66.0938C85.5938 67.3438 84.6719 68.3906 83.6719 69.2344C82.7031 70.0781 81.6719 70.7344 80.5781 71.2031C79.5156 71.6406 78.4062 71.9375 77.25 72.0938C76.8125 73.625 76.2344 75.0625 75.5156 76.4062C74.7969 77.75 73.9219 78.9219 72.8906 79.9219C71.8594 80.9219 70.6562 81.7188 69.2812 82.3125C67.9375 82.875 66.4219 83.1562 64.7344 83.1562C63.3281 83.1562 61.9062 82.875 60.4688 82.3125C59.0625 81.7188 57.7812 80.8281 56.625 79.6406C55.5 78.4219 54.5781 76.9062 53.8594 75.0938C53.1719 73.25 52.8281 71.0625 52.8281 68.5312C52.8281 66.875 53.0156 65.25 53.3906 63.6562C53.7969 62.0625 54.3438 60.5625 55.0312 59.1562C55.75 57.7188 56.5938 56.3906 57.5625 55.1719C58.5312 53.9219 59.5781 52.8438 60.7031 51.9375L61.4062 53.1094C60.6875 53.7656 60 54.5781 59.3438 55.5469C58.6875 56.5156 58.0938 57.5938 57.5625 58.7812C57.0312 59.9375 56.6094 61.1719 56.2969 62.4844C55.9844 63.7656 55.8281 65.0469 55.8281 66.3281C55.8281 68.8594 56.1406 70.9844 56.7656 72.7031C57.4219 74.4219 58.25 75.8125 59.25 76.875C60.25 77.9062 61.375 78.6562 62.625 79.125C63.875 79.5625 65.0938 79.7812 66.2812 79.7812ZM68.9531 51.375C68.1094 51.375 67.3281 51.5625 66.6094 51.9375C65.8906 52.2812 65.2656 52.7656 64.7344 53.3906C64.2031 54.0156 63.7812 54.7656 63.4688 55.6406C63.1562 56.5156 63 57.4844 63 58.5469C63 60.3906 63.3125 62.0469 63.9375 63.5156C64.5625 64.9844 65.4062 66.2344 66.4688 67.2656C67.5625 68.2969 68.8281 69.0938 70.2656 69.6562C71.7031 70.1875 73.25 70.4531 74.9062 70.4531H75.7969C76.0469 69.4844 76.2188 68.4688 76.3125 67.4062C76.4062 66.3438 76.4531 65.1875 76.4531 63.9375C76.3906 61.5312 76.1406 59.5312 75.7031 57.9375C75.2969 56.3125 74.7656 55.0156 74.1094 54.0469C73.4531 53.0781 72.6719 52.3906 71.7656 51.9844C70.8906 51.5781 69.9531 51.375 68.9531 51.375ZM89.625 59.0625C89.3125 60.1562 89 61.0938 88.6875 61.875C88.375 62.6562 88.0312 63.3906 87.6562 64.0781C87.2812 64.7344 86.8594 65.375 86.3906 66C85.9531 66.5938 85.4531 67.25 84.8906 67.9688L84.5156 67.5938C85.2344 65.75 85.8594 64.0156 86.3906 62.3906C86.9531 60.7656 87.4531 59.1406 87.8906 57.5156C87.3906 56.7969 86.9531 55.9062 86.5781 54.8438C86.2344 53.75 86.0625 52.4531 86.0625 50.9531C86.0625 49.6094 86.2656 48.5 86.6719 47.625C87.1094 46.7188 87.6719 46.2656 88.3594 46.2656C88.7344 46.2656 89.0781 46.4375 89.3906 46.7812C89.7344 47.125 90.0156 47.5781 90.2344 48.1406C90.4531 48.7031 90.625 49.3594 90.75 50.1094C90.875 50.8281 90.9375 51.5938 90.9375 52.4062C90.9375 52.7812 90.9062 53.1875 90.8438 53.625C90.8125 54.0625 90.7656 54.5156 90.7031 54.9844C90.6406 55.4219 90.5625 55.8594 90.4688 56.2969C90.375 56.7031 90.2812 57.0469 90.1875 57.3281C90.375 57.4844 90.6719 57.625 91.0781 57.75C91.5156 57.8438 92.0781 57.8906 92.7656 57.8906C93.9531 57.8906 95 57.7188 95.9062 57.375C96.8125 57.0312 97.5312 56.5938 98.0625 56.0625C98.5312 55.3125 98.8906 54.7344 99.1406 54.3281C99.4219 53.9219 99.6406 53.625 99.7969 53.4375C99.9531 53.2188 100.062 53.0938 100.125 53.0625C100.219 53 100.328 52.9688 100.453 52.9688C100.797 52.9688 101.078 53.0625 101.297 53.25C101.516 53.4375 101.625 53.7031 101.625 54.0469C101.625 54.1406 101.578 54.2656 101.484 54.4219C101.391 54.5781 101.266 54.7812 101.109 55.0312C99.7969 56.9375 98.7656 59.0312 98.0156 61.3125C97.2656 63.5938 96.8906 66.125 96.8906 68.9062C96.8906 72.125 97.4062 74.4531 98.4375 75.8906C99.5 77.3281 101 78.0469 102.938 78.0469C104 78.0469 105.016 77.7344 105.984 77.1094C106.953 76.4531 107.906 75.4531 108.844 74.1094C109.781 72.7344 110.719 70.9844 111.656 68.8594C112.625 66.7031 113.656 64.1094 114.75 61.0781L116.578 61.5469C115.234 65.5156 113.969 68.7812 112.781 71.3438C111.594 73.875 110.422 75.8906 109.266 77.3906C108.109 78.8594 106.922 79.8906 105.703 80.4844C104.484 81.0469 103.156 81.3281 101.719 81.3281C100.812 81.3281 99.875 81.125 98.9062 80.7188C97.9375 80.3125 97.0469 79.6719 96.2344 78.7969C95.4531 77.9219 94.8125 76.7969 94.3125 75.4219C93.8125 74.0156 93.5625 72.3281 93.5625 70.3594C93.5625 69.3906 93.6406 68.3906 93.7969 67.3594C93.9844 66.2969 94.2188 65.2812 94.5 64.3125C94.7812 63.3125 95.0938 62.3594 95.4375 61.4531C95.7812 60.5156 96.1406 59.6719 96.5156 58.9219C95.3906 59.4531 94.1719 59.7188 92.8594 59.7188C91.5781 59.7188 90.5 59.5 89.625 59.0625ZM128.672 50.7656C130.047 50.7656 131.219 50.9531 132.188 51.3281C133.188 51.6719 134 52.0312 134.625 52.4062C134.844 48.3125 135.203 44.6875 135.703 41.5312C136.203 38.3438 136.781 35.5781 137.438 33.2344C138.125 30.8594 138.859 28.875 139.641 27.2812C140.422 25.6562 141.219 24.3594 142.031 23.3906C142.844 22.3906 143.625 21.6875 144.375 21.2812C145.156 20.8438 145.875 20.625 146.531 20.625C147.938 20.625 149 21.2188 149.719 22.4062C150.469 23.5937 150.844 25.3438 150.844 27.6562C150.844 28.875 150.703 30.4375 150.422 32.3438C150.172 34.2188 149.781 36.3281 149.25 38.6719C148.75 40.9844 148.125 43.4688 147.375 46.125C146.656 48.7812 145.812 51.4531 144.844 54.1406C143.906 56.8281 142.875 59.4844 141.75 62.1094C140.625 64.7344 139.406 67.2031 138.094 69.5156C138.219 71.2969 138.406 72.7344 138.656 73.8281C138.938 74.9219 139.281 75.7812 139.688 76.4062C140.094 77 140.562 77.4062 141.094 77.625C141.625 77.8438 142.219 77.9531 142.875 77.9531C143.781 77.9531 144.656 77.6562 145.5 77.0625C146.344 76.4375 147.203 75.4531 148.078 74.1094C148.953 72.7656 149.859 71.0312 150.797 68.9062C151.734 66.75 152.75 64.1406 153.844 61.0781L155.672 61.5469C154.766 63.9531 153.859 66.2969 152.953 68.5781C152.047 70.8281 151.062 72.8438 150 74.625C148.969 76.375 147.828 77.7812 146.578 78.8438C145.328 79.9062 143.906 80.4375 142.312 80.4375C140.344 80.4375 138.812 79.8594 137.719 78.7031C136.625 77.5156 135.812 75.8906 135.281 73.8281C133.469 76.4844 131.516 78.6094 129.422 80.2031C127.359 81.7656 125.188 82.5469 122.906 82.5469C121.625 82.5469 120.391 82.3125 119.203 81.8438C118.016 81.3438 116.969 80.5938 116.062 79.5938C115.156 78.5625 114.422 77.2656 113.859 75.7031C113.297 74.1094 113.016 72.2031 113.016 69.9844C113.016 67.6719 113.375 65.375 114.094 63.0938C114.844 60.8125 115.891 58.7656 117.234 56.9531C118.609 55.1094 120.25 53.625 122.156 52.5C124.094 51.3438 126.266 50.7656 128.672 50.7656ZM124.547 79.875C126.297 79.875 128.047 79.1094 129.797 77.5781C131.578 76.0156 133.281 73.9688 134.906 71.4375C134.719 69.9688 134.594 68.4062 134.531 66.75C134.469 65.0938 134.438 63.3281 134.438 61.4531C134.438 60.2656 134.438 59.0938 134.438 57.9375C134.438 56.75 134.469 55.6094 134.531 54.5156C134.375 54.3906 134.141 54.2188 133.828 54C133.547 53.7812 133.172 53.5625 132.703 53.3438C132.266 53.125 131.75 52.9531 131.156 52.8281C130.594 52.6719 129.953 52.5938 129.234 52.5938C128.172 52.5938 126.969 52.8906 125.625 53.4844C124.281 54.0781 123 55.0469 121.781 56.3906C120.594 57.7031 119.594 59.4219 118.781 61.5469C117.969 63.6719 117.562 66.2656 117.562 69.3281C117.562 70.7969 117.719 72.1719 118.031 73.4531C118.375 74.7344 118.844 75.8594 119.438 76.8281C120.062 77.7656 120.797 78.5156 121.641 79.0781C122.516 79.6094 123.484 79.875 124.547 79.875ZM149.016 27.6562C149.016 27.1875 148.984 26.6563 148.922 26.0625C148.891 25.4687 148.797 24.9219 148.641 24.4219C148.484 23.8906 148.25 23.4531 147.938 23.1094C147.656 22.7344 147.25 22.5469 146.719 22.5469C145.438 22.5469 144.25 23.6094 143.156 25.7344C142.094 27.8594 141.172 30.7969 140.391 34.5469C139.609 38.2656 139 42.6406 138.562 47.6719C138.125 52.7031 137.906 58.125 137.906 63.9375V66.0469C138.969 63.9531 139.984 61.7188 140.953 59.3438C141.922 56.9688 142.812 54.5781 143.625 52.1719C144.469 49.7656 145.219 47.375 145.875 45C146.531 42.625 147.094 40.375 147.562 38.25C148.031 36.0938 148.391 34.1094 148.641 32.2969C148.891 30.4844 149.016 28.9375 149.016 27.6562ZM189.938 61.5469C188.656 65.0156 187.484 67.9219 186.422 70.2656C185.391 72.6094 184.375 74.5 183.375 75.9375C182.406 77.375 181.438 78.4062 180.469 79.0312C179.5 79.6562 178.438 79.9688 177.281 79.9688C175.875 79.9688 174.672 79.4844 173.672 78.5156C172.672 77.5156 172.047 75.9844 171.797 73.9219C170.797 76.0781 169.5 77.8438 167.906 79.2188C166.312 80.5625 164.312 81.2344 161.906 81.2344C160.625 81.2344 159.391 81 158.203 80.5312C157.047 80.0625 156.016 79.3438 155.109 78.375C154.203 77.375 153.469 76.125 152.906 74.625C152.375 73.125 152.109 71.3594 152.109 69.3281C152.109 67.2656 152.359 65.3281 152.859 63.5156C153.391 61.7031 154.078 60.0469 154.922 58.5469C155.766 57.0156 156.734 55.6562 157.828 54.4688C158.953 53.2812 160.109 52.2812 161.297 51.4688C162.484 50.6562 163.672 50.0312 164.859 49.5938C166.047 49.1562 167.141 48.9375 168.141 48.9375C169.016 48.9375 169.859 49.0469 170.672 49.2656C171.484 49.4844 172.203 49.8438 172.828 50.3438C173.484 50.8125 174 51.4531 174.375 52.2656C174.781 53.0781 174.984 54.0938 174.984 55.3125C174.984 56.75 174.703 58 174.141 59.0625C173.609 60.125 172.953 61.0156 172.172 61.7344C171.422 62.4531 170.641 63.0312 169.828 63.4688C169.047 63.9062 168.422 64.2188 167.953 64.4062L167.391 62.5781C167.484 62.5781 167.828 62.4531 168.422 62.2031C169.047 61.9531 169.688 61.5469 170.344 60.9844C171.031 60.3906 171.656 59.6406 172.219 58.7344C172.781 57.8281 173.062 56.7188 173.062 55.4062C173.062 53.9062 172.641 52.7656 171.797 51.9844C170.953 51.1719 169.875 50.7656 168.562 50.7656C167.562 50.7656 166.391 51.125 165.047 51.8438C163.703 52.5625 162.406 53.6875 161.156 55.2188C159.938 56.75 158.891 58.6875 158.016 61.0312C157.172 63.375 156.75 66.1719 156.75 69.4219C156.75 72.6406 157.312 75.0938 158.438 76.7812C159.594 78.4688 161.141 79.3125 163.078 79.3125C164.047 79.3125 164.969 79.0469 165.844 78.5156C166.75 77.9531 167.578 77.2188 168.328 76.3125C169.078 75.4062 169.75 74.3594 170.344 73.1719C170.938 71.9531 171.453 70.7031 171.891 69.4219C171.891 68.4219 172 67.25 172.219 65.9062C172.469 64.5312 172.844 63.1406 173.344 61.7344L176.203 62.6719C176.047 63.0781 175.891 63.6094 175.734 64.2656C175.578 64.9219 175.422 65.6406 175.266 66.4219C175.141 67.2031 175.031 68.0156 174.938 68.8594C174.844 69.6719 174.797 70.4688 174.797 71.25C174.797 73.6875 175.031 75.375 175.5 76.3125C176 77.2188 176.844 77.6719 178.031 77.6719C178.719 77.6719 179.391 77.4219 180.047 76.9219C180.734 76.4219 181.469 75.5469 182.25 74.2969C183.031 73.0469 183.891 71.3594 184.828 69.2344C185.766 67.0781 186.859 64.3594 188.109 61.0781L189.938 61.5469ZM188.156 61.0781C188.625 59.8594 189.125 58.7031 189.656 57.6094C190.219 56.4844 190.812 55.5 191.438 54.6562C192.062 53.8125 192.734 53.1406 193.453 52.6406C194.203 52.1094 195.031 51.8438 195.938 51.8438C196.375 51.8438 196.875 51.9375 197.438 52.125C198 52.3125 198.531 52.6875 199.031 53.25C199.562 53.8125 200 54.625 200.344 55.6875C200.688 56.75 200.859 58.1562 200.859 59.9062C200.859 60.8125 200.812 61.8125 200.719 62.9062C200.625 64 200.531 65.0781 200.438 66.1406C201.406 64.0781 202.359 62.3438 203.297 60.9375C204.266 59.5 205.203 58.3594 206.109 57.5156C207.047 56.6406 207.969 56.0156 208.875 55.6406C209.781 55.2344 210.688 55.0312 211.594 55.0312C212 55.0312 212.469 55.125 213 55.3125C213.562 55.5 214.078 55.8281 214.547 56.2969C215.047 56.7656 215.453 57.4062 215.766 58.2188C216.109 59.0312 216.281 60.0781 216.281 61.3594C216.281 62.3906 216.203 63.4219 216.047 64.4531C215.891 65.4844 215.719 66.4844 215.531 67.4531C215.344 68.4219 215.172 69.3438 215.016 70.2188C214.859 71.0625 214.781 71.8125 214.781 72.4688C214.781 74.0312 215.062 75.2344 215.625 76.0781C216.188 76.8906 217.047 77.2969 218.203 77.2969C219.141 77.2969 220.031 76.9531 220.875 76.2656C221.719 75.5469 222.5 74.6406 223.219 73.5469C223.969 72.4531 224.641 71.25 225.234 69.9375C225.859 68.625 226.391 67.375 226.828 66.1875C227.297 64.9688 227.688 63.9062 228 63C228.312 62.0625 228.531 61.4219 228.656 61.0781L230.484 61.5469C230.047 62.6406 229.578 63.8594 229.078 65.2031C228.609 66.5156 228.078 67.8438 227.484 69.1875C226.891 70.5312 226.25 71.8438 225.562 73.125C224.875 74.375 224.109 75.4844 223.266 76.4531C222.422 77.4219 221.5 78.2031 220.5 78.7969C219.531 79.3906 218.453 79.6875 217.266 79.6875C216.266 79.6875 215.391 79.5 214.641 79.125C213.922 78.7188 213.312 78.1875 212.812 77.5312C212.312 76.875 211.938 76.0938 211.688 75.1875C211.438 74.2812 211.312 73.3125 211.312 72.2812C211.312 71.125 211.406 69.9375 211.594 68.7188C211.812 67.5 212.031 66.3281 212.25 65.2031C212.5 64.0781 212.719 63.0469 212.906 62.1094C213.125 61.1406 213.234 60.3438 213.234 59.7188C213.234 58.75 213.047 58.0312 212.672 57.5625C212.297 57.0625 211.781 56.8125 211.125 56.8125C210.219 56.8125 209.328 57.1406 208.453 57.7969C207.609 58.4531 206.781 59.3281 205.969 60.4219C205.188 61.5156 204.438 62.7656 203.719 64.1719C203 65.5781 202.328 67.0312 201.703 68.5312C201.109 70 200.547 71.4688 200.016 72.9375C199.516 74.4062 199.078 75.7344 198.703 76.9219C198.328 78.1094 198 79.125 197.719 79.9688C197.469 80.7812 197.297 81.2969 197.203 81.5156L194.484 81.0469C194.859 79.2031 195.203 77.2656 195.516 75.2344C195.828 73.1719 196.094 71.1562 196.312 69.1875C196.562 67.1875 196.75 65.2812 196.875 63.4688C197.031 61.6562 197.109 60.0469 197.109 58.6406C197.109 56.7344 196.984 55.4531 196.734 54.7969C196.484 54.1094 196.031 53.7656 195.375 53.7656C194.812 53.7656 194.281 53.9844 193.781 54.4219C193.281 54.8281 192.812 55.3906 192.375 56.1094C191.969 56.7969 191.562 57.6094 191.156 58.5469C190.75 59.4844 190.359 60.4844 189.984 61.5469L188.156 61.0781ZM273.281 91.125C272.344 91.125 271.609 90.7812 271.078 90.0938C270.547 89.4062 270.109 88.3594 269.766 86.9531C269.453 85.5469 269.172 83.7969 268.922 81.7031C268.672 79.5781 268.359 77.0938 267.984 74.25C267.609 71.375 267.125 68.1406 266.531 64.5469C265.938 60.9531 265.109 56.9688 264.047 52.5938C263.297 49.5312 262.328 46.5938 261.141 43.7812C259.953 40.9375 258.672 38.2812 257.297 35.8125C255.922 33.3438 254.531 31.0938 253.125 29.0625C251.719 27.0312 250.453 25.2969 249.328 23.8594C248.203 22.3906 247.266 21.2656 246.516 20.4844C245.797 19.6719 245.438 19.25 245.438 19.2188L249.281 15.375C249.312 15.4375 249.625 15.8125 250.219 16.5C250.812 17.1562 251.562 18.1406 252.469 19.4531C253.406 20.7656 254.453 22.4219 255.609 24.4219C256.766 26.4219 257.953 28.7812 259.172 31.5C260.391 34.1875 261.594 37.2656 262.781 40.7344C263.969 44.1719 265.031 48 265.969 52.2188C267.281 58.0938 268.266 63.3281 268.922 67.9219C269.578 72.5156 270.094 76.3906 270.469 79.5469C270.875 82.7031 271.266 85.0938 271.641 86.7188C272.016 88.375 272.594 89.2031 273.375 89.2031C274.531 87.9531 275.547 86.3438 276.422 84.375C277.297 82.4375 278.078 80.25 278.766 77.8125C279.484 75.375 280.109 72.7656 280.641 69.9844C281.203 67.1719 281.703 64.2969 282.141 61.3594C282.578 58.4219 282.984 55.4688 283.359 52.5C283.766 49.5312 284.156 46.6719 284.531 43.9219C284.938 41.1719 285.344 38.5938 285.75 36.1875C286.188 33.75 286.672 31.6094 287.203 29.7656C288.234 26.1094 289.5 22.8594 291 20.0156C292.531 17.1719 294.141 14.6719 295.828 12.5156C297.547 10.3594 299.281 8.51563 301.031 6.98438C302.781 5.45312 304.391 4.20313 305.859 3.23438C307.359 2.23438 308.656 1.48438 309.75 0.984375C310.875 0.484375 311.641 0.15625 312.047 0L312.938 1.64062C312.906 1.67188 312.469 1.9375 311.625 2.4375C310.781 2.90625 309.703 3.70312 308.391 4.82812C307.078 5.95312 305.594 7.4375 303.938 9.28125C302.312 11.125 300.688 13.4219 299.062 16.1719C297.469 18.9219 295.953 22.1563 294.516 25.875C293.078 29.5625 291.891 33.8281 290.953 38.6719C290.734 39.7656 290.406 41.3594 289.969 43.4531C289.562 45.5469 289.062 47.9375 288.469 50.625C287.875 53.2812 287.219 56.125 286.5 59.1562C285.781 62.1875 285 65.2031 284.156 68.2031C283.344 71.2031 282.484 74.0938 281.578 76.875C280.672 79.625 279.75 82.0469 278.812 84.1406C277.906 86.2656 276.984 87.9531 276.047 89.2031C275.109 90.4844 274.188 91.125 273.281 91.125ZM311.859 83.3438C310.266 83.3438 308.734 83.0625 307.266 82.5C305.797 81.9375 304.5 81.0938 303.375 79.9688C302.281 78.8125 301.406 77.375 300.75 75.6562C300.094 73.9375 299.766 71.9219 299.766 69.6094C299.766 66.7969 300.172 64.2969 300.984 62.1094C301.797 59.8906 302.828 58.0312 304.078 56.5312C305.359 55 306.781 53.8438 308.344 53.0625C309.906 52.25 311.438 51.8438 312.938 51.8438C314.875 51.8438 316.406 52.4844 317.531 53.7656C318.688 55.0469 319.266 56.7031 319.266 58.7344C319.266 60.4844 318.938 62.0781 318.281 63.5156C317.625 64.9219 316.75 66.1406 315.656 67.1719C314.594 68.1719 313.359 68.9531 311.953 69.5156C310.578 70.0781 309.141 70.3594 307.641 70.3594C306.922 70.3594 306.234 70.3281 305.578 70.2656C304.953 70.1719 304.391 70.0781 303.891 69.9844C304.078 71.9219 304.453 73.5938 305.016 75C305.578 76.4062 306.281 77.5625 307.125 78.4688C307.969 79.375 308.906 80.0469 309.938 80.4844C311 80.9219 312.094 81.1406 313.219 81.1406C314.625 81.1406 315.922 80.7969 317.109 80.1094C318.297 79.4219 319.391 78.5312 320.391 77.4375C321.391 76.3125 322.297 75.0312 323.109 73.5938C323.953 72.1562 324.703 70.7031 325.359 69.2344C326.016 67.7344 326.594 66.2812 327.094 64.875C327.625 63.4375 328.094 62.1719 328.5 61.0781L330.328 61.5469C329.922 62.5781 329.438 63.8281 328.875 65.2969C328.344 66.7656 327.719 68.3125 327 69.9375C326.281 71.5312 325.438 73.1406 324.469 74.7656C323.5 76.3594 322.406 77.7969 321.188 79.0781C319.969 80.3281 318.578 81.3594 317.016 82.1719C315.484 82.9531 313.766 83.3438 311.859 83.3438ZM313.031 53.6719C311.875 53.6719 310.734 54.0469 309.609 54.7969C308.516 55.5156 307.531 56.5156 306.656 57.7969C305.781 59.0781 305.062 60.5938 304.5 62.3438C303.969 64.0938 303.703 65.9688 303.703 67.9688C304.109 68.125 304.672 68.2656 305.391 68.3906C306.141 68.4844 307.047 68.5312 308.109 68.5312C309.234 68.5312 310.344 68.2969 311.438 67.8281C312.562 67.3281 313.562 66.6562 314.438 65.8125C315.344 64.9375 316.062 63.9062 316.594 62.7188C317.156 61.5312 317.438 60.2344 317.438 58.8281C317.438 58.1406 317.344 57.4844 317.156 56.8594C316.969 56.2344 316.688 55.6875 316.312 55.2188C315.938 54.75 315.469 54.375 314.906 54.0938C314.375 53.8125 313.75 53.6719 313.031 53.6719ZM331.219 59.0625C330.906 60.1562 330.594 61.0938 330.281 61.875C329.969 62.6562 329.625 63.3906 329.25 64.0781C328.875 64.7344 328.453 65.375 327.984 66C327.547 66.5938 327.047 67.25 326.484 67.9688L326.109 67.5938C326.828 65.75 327.453 64.0156 327.984 62.3906C328.547 60.7656 329.047 59.1406 329.484 57.5156C328.984 56.7969 328.547 55.9062 328.172 54.8438C327.828 53.75 327.656 52.4531 327.656 50.9531C327.656 49.6094 327.859 48.5 328.266 47.625C328.703 46.7188 329.266 46.2656 329.953 46.2656C330.328 46.2656 330.672 46.4375 330.984 46.7812C331.328 47.125 331.609 47.5781 331.828 48.1406C332.047 48.7031 332.219 49.3594 332.344 50.1094C332.469 50.8281 332.531 51.5938 332.531 52.4062C332.531 52.7812 332.5 53.1875 332.438 53.625C332.406 54.0625 332.359 54.5156 332.297 54.9844C332.234 55.4219 332.156 55.8594 332.062 56.2969C331.969 56.7031 331.875 57.0469 331.781 57.3281C331.969 57.4844 332.266 57.625 332.672 57.75C333.109 57.8438 333.672 57.8906 334.359 57.8906C335.547 57.8906 336.594 57.7188 337.5 57.375C338.406 57.0312 339.125 56.5938 339.656 56.0625C340.125 55.3125 340.484 54.7344 340.734 54.3281C341.016 53.9219 341.234 53.625 341.391 53.4375C341.547 53.2188 341.656 53.0938 341.719 53.0625C341.812 53 341.922 52.9688 342.047 52.9688C342.391 52.9688 342.672 53.0625 342.891 53.25C343.109 53.4375 343.219 53.7031 343.219 54.0469C343.219 54.1406 343.172 54.2656 343.078 54.4219C342.984 54.5781 342.859 54.7812 342.703 55.0312C341.391 56.9375 340.359 59.0312 339.609 61.3125C338.859 63.5938 338.484 66.125 338.484 68.9062C338.484 72.125 339 74.4531 340.031 75.8906C341.094 77.3281 342.594 78.0469 344.531 78.0469C345.594 78.0469 346.609 77.7344 347.578 77.1094C348.547 76.4531 349.5 75.4531 350.438 74.1094C351.375 72.7344 352.312 70.9844 353.25 68.8594C354.219 66.7031 355.25 64.1094 356.344 61.0781L358.172 61.5469C356.828 65.5156 355.562 68.7812 354.375 71.3438C353.188 73.875 352.016 75.8906 350.859 77.3906C349.703 78.8594 348.516 79.8906 347.297 80.4844C346.078 81.0469 344.75 81.3281 343.312 81.3281C342.406 81.3281 341.469 81.125 340.5 80.7188C339.531 80.3125 338.641 79.6719 337.828 78.7969C337.047 77.9219 336.406 76.7969 335.906 75.4219C335.406 74.0156 335.156 72.3281 335.156 70.3594C335.156 69.3906 335.234 68.3906 335.391 67.3594C335.578 66.2969 335.812 65.2812 336.094 64.3125C336.375 63.3125 336.688 62.3594 337.031 61.4531C337.375 60.5156 337.734 59.6719 338.109 58.9219C336.984 59.4531 335.766 59.7188 334.453 59.7188C333.172 59.7188 332.094 59.5 331.219 59.0625ZM356.344 61.0781C356.812 59.8594 357.312 58.7031 357.844 57.6094C358.406 56.4844 359 55.5 359.625 54.6562C360.25 53.8125 360.922 53.1406 361.641 52.6406C362.391 52.1094 363.219 51.8438 364.125 51.8438C364.562 51.8438 365.062 51.9375 365.625 52.125C366.188 52.3125 366.719 52.6875 367.219 53.25C367.75 53.8125 368.188 54.625 368.531 55.6875C368.875 56.75 369.047 58.1562 369.047 59.9062C369.047 60.8125 369 61.8125 368.906 62.9062C368.812 64 368.719 65.0781 368.625 66.1406C369.594 64.0781 370.547 62.3438 371.484 60.9375C372.453 59.5 373.391 58.3594 374.297 57.5156C375.234 56.6406 376.156 56.0156 377.062 55.6406C377.969 55.2344 378.875 55.0312 379.781 55.0312C380.188 55.0312 380.656 55.125 381.188 55.3125C381.75 55.5 382.266 55.8281 382.734 56.2969C383.234 56.7656 383.641 57.4062 383.953 58.2188C384.297 59.0312 384.469 60.0781 384.469 61.3594C384.469 62.3906 384.391 63.4219 384.234 64.4531C384.078 65.4844 383.906 66.4844 383.719 67.4531C383.531 68.4219 383.359 69.3438 383.203 70.2188C383.047 71.0625 382.969 71.8125 382.969 72.4688C382.969 74.0312 383.25 75.2344 383.812 76.0781C384.375 76.8906 385.234 77.2969 386.391 77.2969C387.328 77.2969 388.219 76.9531 389.062 76.2656C389.906 75.5469 390.688 74.6406 391.406 73.5469C392.156 72.4531 392.828 71.25 393.422 69.9375C394.047 68.625 394.578 67.375 395.016 66.1875C395.484 64.9688 395.875 63.9062 396.188 63C396.5 62.0625 396.719 61.4219 396.844 61.0781L398.672 61.5469C398.234 62.6406 397.766 63.8594 397.266 65.2031C396.797 66.5156 396.266 67.8438 395.672 69.1875C395.078 70.5312 394.438 71.8438 393.75 73.125C393.062 74.375 392.297 75.4844 391.453 76.4531C390.609 77.4219 389.688 78.2031 388.688 78.7969C387.719 79.3906 386.641 79.6875 385.453 79.6875C384.453 79.6875 383.578 79.5 382.828 79.125C382.109 78.7188 381.5 78.1875 381 77.5312C380.5 76.875 380.125 76.0938 379.875 75.1875C379.625 74.2812 379.5 73.3125 379.5 72.2812C379.5 71.125 379.594 69.9375 379.781 68.7188C380 67.5 380.219 66.3281 380.438 65.2031C380.688 64.0781 380.906 63.0469 381.094 62.1094C381.312 61.1406 381.422 60.3438 381.422 59.7188C381.422 58.75 381.234 58.0312 380.859 57.5625C380.484 57.0625 379.969 56.8125 379.312 56.8125C378.406 56.8125 377.516 57.1406 376.641 57.7969C375.797 58.4531 374.969 59.3281 374.156 60.4219C373.375 61.5156 372.625 62.7656 371.906 64.1719C371.188 65.5781 370.516 67.0312 369.891 68.5312C369.297 70 368.734 71.4688 368.203 72.9375C367.703 74.4062 367.266 75.7344 366.891 76.9219C366.516 78.1094 366.188 79.125 365.906 79.9688C365.656 80.7812 365.484 81.2969 365.391 81.5156L362.672 81.0469C363.047 79.2031 363.391 77.2656 363.703 75.2344C364.016 73.1719 364.281 71.1562 364.5 69.1875C364.75 67.1875 364.938 65.2812 365.062 63.4688C365.219 61.6562 365.297 60.0469 365.297 58.6406C365.297 56.7344 365.172 55.4531 364.922 54.7969C364.672 54.1094 364.219 53.7656 363.562 53.7656C363 53.7656 362.469 53.9844 361.969 54.4219C361.469 54.8281 361 55.3906 360.562 56.1094C360.156 56.7969 359.75 57.6094 359.344 58.5469C358.938 59.4844 358.547 60.4844 358.172 61.5469L356.344 61.0781ZM408.562 79.7812C410.312 79.7812 411.984 79.1406 413.578 77.8594C415.203 76.5781 416.469 74.7188 417.375 72.2812H417C415.062 72.2812 413.266 71.9531 411.609 71.2969C409.984 70.6406 408.562 69.7344 407.344 68.5781C406.156 67.3906 405.219 65.9844 404.531 64.3594C403.844 62.7031 403.5 60.8906 403.5 58.9219C403.5 57.8281 403.641 56.7188 403.922 55.5938C404.234 54.4688 404.703 53.4688 405.328 52.5938C405.953 51.6875 406.766 50.9531 407.766 50.3906C408.766 49.8281 409.953 49.5469 411.328 49.5469C412.453 49.5469 413.562 49.7812 414.656 50.25C415.75 50.6875 416.734 51.4531 417.609 52.5469C418.484 53.6406 419.188 55.125 419.719 57C420.281 58.8438 420.562 61.1875 420.562 64.0312C420.562 65.0938 420.516 66.1562 420.422 67.2188C420.328 68.25 420.156 69.2656 419.906 70.2656C421.125 70.0469 422.203 69.6562 423.141 69.0938C424.109 68.5312 424.953 67.8594 425.672 67.0781C426.422 66.2656 427.078 65.3594 427.641 64.3594C428.203 63.3281 428.719 62.2344 429.188 61.0781L431.016 61.5469C430.359 63.3281 429.594 64.8438 428.719 66.0938C427.875 67.3438 426.953 68.3906 425.953 69.2344C424.984 70.0781 423.953 70.7344 422.859 71.2031C421.797 71.6406 420.688 71.9375 419.531 72.0938C419.094 73.625 418.516 75.0625 417.797 76.4062C417.078 77.75 416.203 78.9219 415.172 79.9219C414.141 80.9219 412.938 81.7188 411.562 82.3125C410.219 82.875 408.703 83.1562 407.016 83.1562C405.609 83.1562 404.188 82.875 402.75 82.3125C401.344 81.7188 400.062 80.8281 398.906 79.6406C397.781 78.4219 396.859 76.9062 396.141 75.0938C395.453 73.25 395.109 71.0625 395.109 68.5312C395.109 66.875 395.297 65.25 395.672 63.6562C396.078 62.0625 396.625 60.5625 397.312 59.1562C398.031 57.7188 398.875 56.3906 399.844 55.1719C400.812 53.9219 401.859 52.8438 402.984 51.9375L403.688 53.1094C402.969 53.7656 402.281 54.5781 401.625 55.5469C400.969 56.5156 400.375 57.5938 399.844 58.7812C399.312 59.9375 398.891 61.1719 398.578 62.4844C398.266 63.7656 398.109 65.0469 398.109 66.3281C398.109 68.8594 398.422 70.9844 399.047 72.7031C399.703 74.4219 400.531 75.8125 401.531 76.875C402.531 77.9062 403.656 78.6562 404.906 79.125C406.156 79.5625 407.375 79.7812 408.562 79.7812ZM411.234 51.375C410.391 51.375 409.609 51.5625 408.891 51.9375C408.172 52.2812 407.547 52.7656 407.016 53.3906C406.484 54.0156 406.062 54.7656 405.75 55.6406C405.438 56.5156 405.281 57.4844 405.281 58.5469C405.281 60.3906 405.594 62.0469 406.219 63.5156C406.844 64.9844 407.688 66.2344 408.75 67.2656C409.844 68.2969 411.109 69.0938 412.547 69.6562C413.984 70.1875 415.531 70.4531 417.188 70.4531H418.078C418.328 69.4844 418.5 68.4688 418.594 67.4062C418.688 66.3438 418.734 65.1875 418.734 63.9375C418.672 61.5312 418.422 59.5312 417.984 57.9375C417.578 56.3125 417.047 55.0156 416.391 54.0469C415.734 53.0781 414.953 52.3906 414.047 51.9844C413.172 51.5781 412.234 51.375 411.234 51.375ZM429.188 61.0781C429.656 59.8594 430.156 58.7031 430.688 57.6094C431.25 56.4844 431.844 55.5 432.469 54.6562C433.094 53.8125 433.766 53.1406 434.484 52.6406C435.234 52.1094 436.062 51.8438 436.969 51.8438C437.406 51.8438 437.906 51.9375 438.469 52.125C439.031 52.3125 439.562 52.6875 440.062 53.25C440.594 53.8125 441.031 54.625 441.375 55.6875C441.719 56.75 441.891 58.1562 441.891 59.9062C441.891 60.8125 441.844 61.8125 441.75 62.9062C441.656 64 441.562 65.0781 441.469 66.1406C442.438 64.0781 443.391 62.3438 444.328 60.9375C445.297 59.5 446.234 58.3594 447.141 57.5156C448.078 56.6406 449 56.0156 449.906 55.6406C450.812 55.2344 451.719 55.0312 452.625 55.0312C453.031 55.0312 453.5 55.125 454.031 55.3125C454.594 55.5 455.109 55.8281 455.578 56.2969C456.078 56.7656 456.484 57.4062 456.797 58.2188C457.141 59.0312 457.312 60.0781 457.312 61.3594C457.312 62.3906 457.234 63.4219 457.078 64.4531C456.922 65.4844 456.75 66.4844 456.562 67.4531C456.375 68.4219 456.203 69.3438 456.047 70.2188C455.891 71.0625 455.812 71.8125 455.812 72.4688C455.812 74.0312 456.094 75.2344 456.656 76.0781C457.219 76.8906 458.078 77.2969 459.234 77.2969C460.172 77.2969 461.062 76.9531 461.906 76.2656C462.75 75.5469 463.531 74.6406 464.25 73.5469C465 72.4531 465.672 71.25 466.266 69.9375C466.891 68.625 467.422 67.375 467.859 66.1875C468.328 64.9688 468.719 63.9062 469.031 63C469.344 62.0625 469.562 61.4219 469.688 61.0781L471.516 61.5469C471.078 62.6406 470.609 63.8594 470.109 65.2031C469.641 66.5156 469.109 67.8438 468.516 69.1875C467.922 70.5312 467.281 71.8438 466.594 73.125C465.906 74.375 465.141 75.4844 464.297 76.4531C463.453 77.4219 462.531 78.2031 461.531 78.7969C460.562 79.3906 459.484 79.6875 458.297 79.6875C457.297 79.6875 456.422 79.5 455.672 79.125C454.953 78.7188 454.344 78.1875 453.844 77.5312C453.344 76.875 452.969 76.0938 452.719 75.1875C452.469 74.2812 452.344 73.3125 452.344 72.2812C452.344 71.125 452.438 69.9375 452.625 68.7188C452.844 67.5 453.062 66.3281 453.281 65.2031C453.531 64.0781 453.75 63.0469 453.938 62.1094C454.156 61.1406 454.266 60.3438 454.266 59.7188C454.266 58.75 454.078 58.0312 453.703 57.5625C453.328 57.0625 452.812 56.8125 452.156 56.8125C451.25 56.8125 450.359 57.1406 449.484 57.7969C448.641 58.4531 447.812 59.3281 447 60.4219C446.219 61.5156 445.469 62.7656 444.75 64.1719C444.031 65.5781 443.359 67.0312 442.734 68.5312C442.141 70 441.578 71.4688 441.047 72.9375C440.547 74.4062 440.109 75.7344 439.734 76.9219C439.359 78.1094 439.031 79.125 438.75 79.9688C438.5 80.7812 438.328 81.2969 438.234 81.5156L435.516 81.0469C435.891 79.2031 436.234 77.2656 436.547 75.2344C436.859 73.1719 437.125 71.1562 437.344 69.1875C437.594 67.1875 437.781 65.2812 437.906 63.4688C438.062 61.6562 438.141 60.0469 438.141 58.6406C438.141 56.7344 438.016 55.4531 437.766 54.7969C437.516 54.1094 437.062 53.7656 436.406 53.7656C435.844 53.7656 435.312 53.9844 434.812 54.4219C434.312 54.8281 433.844 55.3906 433.406 56.1094C433 56.7969 432.594 57.6094 432.188 58.5469C431.781 59.4844 431.391 60.4844 431.016 61.5469L429.188 61.0781Z" fill="#C6C6C6"/>
</svg>
