<svg width="784" height="72" viewBox="0 0 784 72" fill="none" xmlns="http://www.w3.org/2000/svg">
<path d="M36.696 19.16C36.824 18.776 36.888 18.264 36.888 17.624C36.888 16.6 36.6 15.768 36.024 15.128C35.512 14.488 34.68 13.784 33.528 13.016C32.568 12.312 31.864 11.704 31.416 11.192C31.032 10.68 30.936 10.072 31.128 9.368C31.32 8.472 31.8 7.864 32.568 7.544C33.336 7.224 34.552 7.064 36.216 7.064H63.48C64.824 7.064 65.848 7.288 66.552 7.736C67.32 8.184 67.704 8.76 67.704 9.464C67.704 9.784 67.608 10.2 67.416 10.712C67.224 11.16 66.936 11.576 66.552 11.96C66.232 12.28 65.912 12.536 65.592 12.728C65.336 12.856 65.144 12.984 65.016 13.112C63.992 13.688 63.16 14.328 62.52 15.032C61.88 15.736 61.336 16.824 60.888 18.296L51.48 51.512C49.56 58.296 46.296 63.352 41.688 66.68C37.08 69.944 31.096 71.576 23.736 71.576C18.808 71.576 14.616 70.872 11.16 69.464C7.768 67.992 5.208 66.04 3.48 63.608C1.752 61.176 0.888 58.52 0.888 55.64C0.888 54.232 1.08 52.856 1.464 51.512C2.296 48.632 3.704 46.456 5.688 44.984C7.736 43.512 10.008 42.776 12.504 42.776C15.384 42.776 17.592 43.64 19.128 45.368C20.664 47.096 21.432 49.304 21.432 51.992C21.432 53.336 21.24 54.68 20.856 56.024C20.088 58.712 18.648 60.696 16.536 61.976C17.56 62.616 18.744 62.936 20.088 62.936C21.432 62.936 22.616 62.264 23.64 60.92C24.664 59.576 25.528 57.688 26.232 55.256L36.696 19.16ZM96.822 20.216C105.526 20.216 111.926 21.976 116.022 25.496C120.182 29.016 122.262 33.624 122.262 39.32C122.262 41.24 122.006 43.384 121.494 45.752C120.278 51 118.006 55.608 114.678 59.576C111.35 63.48 107.254 66.52 102.39 68.696C97.59 70.808 92.374 71.864 86.742 71.864C77.846 71.864 71.254 70.104 66.966 66.584C62.742 63 60.63 58.264 60.63 52.376C60.63 50.392 60.886 48.184 61.398 45.752C62.614 40.76 64.918 36.344 68.31 32.504C71.766 28.6 75.958 25.592 80.886 23.48C85.878 21.304 91.19 20.216 96.822 20.216ZM96.534 28.76C95.19 28.76 93.75 29.976 92.214 32.408C90.742 34.776 88.982 39.288 86.934 45.944C84.886 52.6 83.862 57.272 83.862 59.96C83.862 61.368 84.086 62.328 84.534 62.84C84.982 63.288 85.59 63.512 86.358 63.512C87.702 63.64 89.078 62.488 90.486 60.056C91.958 57.624 93.782 52.888 95.958 45.848C97.942 39.64 98.934 35.128 98.934 32.312C98.934 30.968 98.71 30.04 98.262 29.528C97.878 29.016 97.302 28.76 96.534 28.76ZM171.726 20.216C175.31 20.216 178.158 21.304 180.27 23.48C182.446 25.656 183.534 28.344 183.534 31.544C183.534 32.76 183.406 33.88 183.15 34.904C182.51 37.528 181.294 39.544 179.502 40.952C177.71 42.36 175.566 43.064 173.07 43.064C170.638 43.064 168.782 42.488 167.502 41.336C166.286 40.184 165.198 38.648 164.238 36.728C163.726 35.64 163.246 34.84 162.798 34.328C162.35 33.816 161.838 33.56 161.262 33.56C160.622 33.56 160.046 33.816 159.534 34.328C159.086 34.84 158.67 35.736 158.286 37.016L150.894 61.016C150.766 61.336 150.702 61.816 150.702 62.456C150.702 63.288 150.926 63.992 151.374 64.568C151.886 65.08 152.558 65.592 153.39 66.104C154.158 66.616 154.67 67.032 154.926 67.352C155.182 67.672 155.278 68.088 155.214 68.6C155.086 69.432 154.606 70.04 153.774 70.424C153.006 70.808 151.662 71 149.742 71H125.166C123.502 71 122.318 70.744 121.614 70.232C120.846 69.656 120.558 68.92 120.75 68.024C121.006 67.256 121.678 66.584 122.766 66.008C123.726 65.496 124.526 64.888 125.166 64.184C125.806 63.48 126.35 62.36 126.798 60.824L135.342 33.08C135.47 32.76 135.534 32.312 135.534 31.736C135.534 31.032 135.374 30.488 135.054 30.104C134.798 29.72 134.35 29.24 133.71 28.664C133.07 28.152 132.622 27.704 132.366 27.32C132.11 26.936 132.078 26.424 132.27 25.784C132.654 24.312 134.67 23.032 138.318 21.944C141.966 20.792 145.774 20.216 149.742 20.216C152.366 20.216 154.542 20.824 156.27 22.04C157.998 23.192 159.118 24.856 159.63 27.032C162.702 22.488 166.734 20.216 171.726 20.216ZM235.768 57.176C235.64 57.688 235.576 58.04 235.576 58.232C235.576 58.68 235.704 59.032 235.96 59.288C236.216 59.544 236.536 59.672 236.92 59.672C237.688 59.672 238.328 59.352 238.84 58.712C239.416 58.008 239.8 57.656 239.992 57.656C240.312 57.656 240.568 57.88 240.76 58.328C240.952 58.776 241.048 59.288 241.048 59.864C241.112 61.592 240.44 63.352 239.032 65.144C237.688 66.936 235.864 68.408 233.56 69.56C231.256 70.712 228.76 71.288 226.072 71.288C222.872 71.288 220.088 70.68 217.72 69.464C215.352 68.248 213.72 66.648 212.824 64.664C211.096 66.904 209.112 68.568 206.872 69.656C204.632 70.744 202.264 71.288 199.768 71.288C196.824 71.288 194.072 70.552 191.512 69.08C189.016 67.608 187 65.528 185.464 62.84C183.992 60.088 183.256 56.984 183.256 53.528C183.256 47.704 184.344 42.232 186.52 37.112C188.76 31.928 191.864 27.768 195.832 24.632C199.8 21.432 204.312 19.832 209.368 19.832C212.12 19.832 214.456 20.152 216.376 20.792C218.36 21.432 220.152 22.392 221.752 23.672L225.016 12.92C225.208 12.344 225.304 11.864 225.304 11.48C225.304 10.776 225.112 10.2 224.728 9.752C224.408 9.304 223.96 8.856 223.384 8.408C222.744 7.896 222.264 7.448 221.944 7.064C221.688 6.68 221.656 6.168 221.848 5.528C222.232 4.056 224.248 2.776 227.896 1.68799C231.544 0.599997 235.352 0.0559978 239.32 0.0559978C243.032 0.0559978 245.752 0.759998 247.48 2.168C249.272 3.576 250.168 5.496 250.168 7.928C250.168 9.336 249.944 10.712 249.496 12.056L235.768 57.176ZM219.736 30.2C218.712 29.304 217.592 28.856 216.376 28.856C214.52 28.856 212.696 30.232 210.904 32.984C209.112 35.736 207.672 39.064 206.584 42.968C205.496 46.872 204.984 50.392 205.048 53.528C205.048 57.048 206.2 58.808 208.504 58.808C209.336 58.808 210.04 58.488 210.616 57.848C211.192 57.144 211.736 56.024 212.248 54.488L219.736 30.2ZM273.514 20.216C280.874 20.216 286.762 21.592 291.178 24.344C295.594 27.032 297.802 31.16 297.802 36.728C297.802 38.84 297.418 41.24 296.65 43.928L292.714 57.176C292.65 57.432 292.618 57.752 292.618 58.136C292.618 59.16 293.034 59.672 293.866 59.672C294.634 59.672 295.274 59.352 295.786 58.712C296.362 58.008 296.746 57.656 296.938 57.656C297.258 57.656 297.514 57.88 297.706 58.328C297.962 58.776 298.09 59.288 298.09 59.864C298.154 61.592 297.482 63.352 296.074 65.144C294.73 66.936 292.906 68.408 290.602 69.56C288.298 70.712 285.77 71.288 283.018 71.288C279.69 71.288 276.842 70.68 274.474 69.464C272.106 68.248 270.474 66.456 269.578 64.088C267.658 66.392 265.386 68.184 262.762 69.464C260.138 70.68 257.322 71.288 254.314 71.288C250.922 71.288 248.074 70.648 245.77 69.368C243.466 68.024 241.738 66.328 240.586 64.28C239.498 62.168 238.954 59.96 238.954 57.656C238.954 56.632 239.05 55.64 239.242 54.68C240.266 50.264 242.474 46.936 245.866 44.696C249.322 42.456 253.418 41.336 258.154 41.336C263.466 41.336 268.682 42.168 273.802 43.832L276.202 37.496C277.034 34.808 277.45 32.728 277.45 31.256C277.386 29.72 276.874 28.568 275.914 27.8C274.954 27.032 273.482 26.648 271.498 26.648C271.882 27.672 272.074 28.728 272.074 29.816C272.074 32.184 271.178 34.232 269.386 35.96C267.594 37.688 265.034 38.552 261.706 38.552C258.57 38.552 256.106 37.88 254.314 36.536C252.586 35.128 251.722 33.4 251.722 31.352C251.722 28.152 253.514 25.496 257.098 23.384C260.682 21.272 266.154 20.216 273.514 20.216ZM268.138 49.304C266.346 49.304 264.874 50.008 263.722 51.416C262.634 52.76 262.09 54.232 262.09 55.832C262.09 56.856 262.314 57.688 262.762 58.328C263.274 58.968 263.978 59.288 264.874 59.288C265.706 59.288 266.602 58.968 267.562 58.328C268.586 57.624 269.322 56.6 269.77 55.256L271.786 49.592C270.698 49.4 269.482 49.304 268.138 49.304ZM363.399 57.752C363.271 58.008 363.207 58.392 363.207 58.904C363.207 59.352 363.303 59.704 363.495 59.96C363.751 60.216 364.071 60.344 364.455 60.344C365.223 60.344 365.863 60.024 366.375 59.384C366.951 58.68 367.335 58.328 367.527 58.328C367.847 58.328 368.103 58.552 368.295 59C368.487 59.384 368.583 59.864 368.583 60.44C368.647 62.296 368.039 64.12 366.759 65.912C365.479 67.64 363.591 69.08 361.095 70.232C358.663 71.32 355.719 71.864 352.263 71.864C348.039 71.864 344.679 70.904 342.183 68.984C339.687 67 338.407 64.376 338.343 61.112C338.343 58.744 338.919 56.088 340.071 53.144L345.351 39.32C345.671 38.488 345.831 37.816 345.831 37.304C345.831 36.472 345.543 35.832 344.967 35.384C344.455 34.872 343.815 34.616 343.047 34.616C341.639 34.616 340.295 35.288 339.015 36.632C337.735 37.912 336.807 39.512 336.231 41.432L330.279 61.016C330.023 61.72 329.895 62.392 329.895 63.032C329.895 63.8 330.055 64.44 330.375 64.952C330.695 65.4 331.143 65.88 331.719 66.392C332.167 66.776 332.487 67.128 332.679 67.448C332.871 67.768 332.903 68.152 332.775 68.6C332.519 69.432 331.911 70.04 330.951 70.424C329.991 70.808 328.487 71 326.439 71H304.551C302.887 71 301.703 70.744 300.999 70.232C300.231 69.656 299.943 68.92 300.135 68.024C300.391 67.256 301.063 66.584 302.151 66.008C303.111 65.496 303.911 64.888 304.551 64.184C305.191 63.48 305.735 62.36 306.183 60.824L314.727 33.08C314.855 32.76 314.919 32.312 314.919 31.736C314.919 31.032 314.759 30.488 314.439 30.104C314.183 29.72 313.735 29.24 313.095 28.664C312.455 28.152 312.007 27.704 311.751 27.32C311.495 26.936 311.463 26.424 311.655 25.784C312.039 24.312 314.055 23.032 317.703 21.944C321.351 20.792 325.159 20.216 329.127 20.216C332.327 20.216 334.855 21.112 336.711 22.904C338.567 24.632 339.399 27.064 339.207 30.2C341.831 26.424 344.615 23.832 347.559 22.424C350.503 20.952 353.703 20.216 357.159 20.216C361.063 20.216 364.199 21.4 366.567 23.768C368.999 26.136 370.215 29.208 370.215 32.984C370.215 34.968 369.895 36.92 369.255 38.84L363.399 57.752ZM477.449 16.28C477.449 18.584 476.937 20.568 475.913 22.232C474.953 23.896 473.705 25.176 472.169 26.072C470.633 26.904 469.097 27.32 467.561 27.32C466.025 27.32 464.617 27 463.337 26.36C462.121 25.72 461.097 24.856 460.265 23.768L437.129 62.744C435.401 65.688 433.801 67.8 432.329 69.08C430.857 70.36 429.193 71 427.337 71C425.353 71 423.753 70.36 422.537 69.08C421.385 67.736 420.553 65.624 420.041 62.744L411.977 18.392C411.785 17.24 411.433 16.312 410.921 15.608C410.409 14.904 409.737 14.136 408.905 13.304C408.265 12.728 407.817 12.28 407.561 11.96C407.305 11.576 407.177 11.128 407.177 10.616C406.857 8.248 408.265 7.064 411.401 7.064H435.401C436.873 7.064 437.993 7.384 438.761 8.024C439.529 8.6 439.881 9.4 439.817 10.424C439.817 11 439.689 11.48 439.433 11.864C439.241 12.248 438.889 12.728 438.377 13.304C437.801 13.944 437.353 14.552 437.033 15.128C436.713 15.704 436.553 16.408 436.553 17.24C436.553 17.624 436.585 17.944 436.649 18.2L440.297 40.568L453.065 17.912C455.305 13.816 457.513 10.936 459.689 9.272C461.865 7.544 464.553 6.68 467.753 6.68C470.697 6.68 473.033 7.544 474.761 9.272C476.553 10.936 477.449 13.272 477.449 16.28ZM500.623 19.736C508.751 19.736 514.639 21.048 518.287 23.672C521.935 26.232 523.759 29.528 523.759 33.56C523.759 34.776 523.631 35.896 523.375 36.92C522.415 41.144 519.727 44.184 515.311 46.04C510.959 47.832 505.807 48.728 499.855 48.728C496.847 48.728 494.031 48.536 491.407 48.152C491.343 51.48 492.239 53.816 494.095 55.16C495.951 56.504 498.543 57.176 501.871 57.176C503.407 57.176 504.879 57.016 506.287 56.696C507.695 56.312 509.487 55.768 511.663 55.064C513.455 54.424 514.671 54.104 515.311 54.104C516.015 54.104 516.367 54.52 516.367 55.352C516.431 57.592 515.599 59.96 513.871 62.456C512.143 64.888 509.583 66.968 506.191 68.696C502.799 70.424 498.703 71.288 493.903 71.288C486.799 71.288 480.975 69.496 476.431 65.912C471.887 62.328 469.615 57.112 469.615 50.264C469.615 48.344 469.871 46.104 470.383 43.544C471.983 35.672 475.471 29.752 480.847 25.784C486.287 21.752 492.879 19.736 500.623 19.736ZM492.079 42.392C492.335 42.456 492.687 42.488 493.135 42.488C495.823 42.488 497.871 41.24 499.279 38.744C500.687 36.248 501.359 33.464 501.295 30.392C501.231 28.6 500.719 27.704 499.759 27.704C499.055 27.704 498.223 28.28 497.263 29.432C496.303 30.52 495.343 32.184 494.383 34.424C493.487 36.664 492.719 39.32 492.079 42.392ZM570.854 20.216C574.438 20.216 577.286 21.304 579.398 23.48C581.574 25.656 582.662 28.344 582.662 31.544C582.662 32.76 582.534 33.88 582.278 34.904C581.638 37.528 580.422 39.544 578.63 40.952C576.838 42.36 574.694 43.064 572.198 43.064C569.766 43.064 567.91 42.488 566.63 41.336C565.414 40.184 564.326 38.648 563.366 36.728C562.854 35.64 562.374 34.84 561.926 34.328C561.478 33.816 560.966 33.56 560.39 33.56C559.75 33.56 559.174 33.816 558.662 34.328C558.214 34.84 557.798 35.736 557.414 37.016L550.022 61.016C549.894 61.336 549.83 61.816 549.83 62.456C549.83 63.288 550.054 63.992 550.502 64.568C551.014 65.08 551.686 65.592 552.518 66.104C553.286 66.616 553.798 67.032 554.054 67.352C554.31 67.672 554.406 68.088 554.342 68.6C554.214 69.432 553.734 70.04 552.902 70.424C552.134 70.808 550.79 71 548.87 71H524.294C522.63 71 521.446 70.744 520.742 70.232C519.974 69.656 519.686 68.92 519.878 68.024C520.134 67.256 520.806 66.584 521.894 66.008C522.854 65.496 523.654 64.888 524.294 64.184C524.934 63.48 525.478 62.36 525.926 60.824L534.47 33.08C534.598 32.76 534.662 32.312 534.662 31.736C534.662 31.032 534.502 30.488 534.182 30.104C533.926 29.72 533.478 29.24 532.838 28.664C532.198 28.152 531.75 27.704 531.494 27.32C531.238 26.936 531.206 26.424 531.398 25.784C531.782 24.312 533.798 23.032 537.446 21.944C541.094 20.792 544.902 20.216 548.87 20.216C551.494 20.216 553.67 20.824 555.398 22.04C557.126 23.192 558.246 24.856 558.758 27.032C561.83 22.488 565.862 20.216 570.854 20.216ZM640.655 57.752C640.527 58.008 640.463 58.392 640.463 58.904C640.463 59.352 640.559 59.704 640.751 59.96C641.007 60.216 641.327 60.344 641.711 60.344C642.479 60.344 643.119 60.024 643.631 59.384C644.207 58.68 644.591 58.328 644.783 58.328C645.103 58.328 645.359 58.552 645.551 59C645.743 59.384 645.839 59.864 645.839 60.44C645.903 62.296 645.295 64.12 644.015 65.912C642.735 67.64 640.847 69.08 638.351 70.232C635.919 71.32 632.975 71.864 629.519 71.864C625.295 71.864 621.935 70.904 619.439 68.984C616.943 67 615.663 64.376 615.599 61.112C615.599 58.744 616.175 56.088 617.327 53.144L622.607 39.32C622.927 38.488 623.087 37.816 623.087 37.304C623.087 36.472 622.799 35.832 622.223 35.384C621.711 34.872 621.071 34.616 620.303 34.616C618.895 34.616 617.551 35.288 616.271 36.632C614.991 37.912 614.063 39.512 613.487 41.432L607.535 61.016C607.279 61.72 607.151 62.392 607.151 63.032C607.151 63.8 607.311 64.44 607.631 64.952C607.951 65.4 608.399 65.88 608.975 66.392C609.423 66.776 609.743 67.128 609.935 67.448C610.127 67.768 610.159 68.152 610.031 68.6C609.775 69.432 609.167 70.04 608.207 70.424C607.247 70.808 605.743 71 603.695 71H581.807C580.143 71 578.959 70.744 578.255 70.232C577.487 69.656 577.199 68.92 577.391 68.024C577.647 67.256 578.319 66.584 579.407 66.008C580.367 65.496 581.167 64.888 581.807 64.184C582.447 63.48 582.991 62.36 583.439 60.824L591.983 33.08C592.111 32.76 592.175 32.312 592.175 31.736C592.175 31.032 592.015 30.488 591.695 30.104C591.439 29.72 590.991 29.24 590.351 28.664C589.711 28.152 589.263 27.704 589.007 27.32C588.751 26.936 588.719 26.424 588.911 25.784C589.295 24.312 591.311 23.032 594.959 21.944C598.607 20.792 602.415 20.216 606.383 20.216C609.583 20.216 612.111 21.112 613.967 22.904C615.823 24.632 616.655 27.064 616.463 30.2C619.087 26.424 621.871 23.832 624.815 22.424C627.759 20.952 630.959 20.216 634.415 20.216C638.319 20.216 641.455 21.4 643.823 23.768C646.255 26.136 647.471 29.208 647.471 32.984C647.471 34.968 647.151 36.92 646.511 38.84L640.655 57.752ZM689.022 20.216C697.726 20.216 704.126 21.976 708.222 25.496C712.382 29.016 714.462 33.624 714.462 39.32C714.462 41.24 714.206 43.384 713.694 45.752C712.478 51 710.206 55.608 706.878 59.576C703.55 63.48 699.454 66.52 694.59 68.696C689.79 70.808 684.574 71.864 678.942 71.864C670.046 71.864 663.454 70.104 659.166 66.584C654.942 63 652.83 58.264 652.83 52.376C652.83 50.392 653.086 48.184 653.598 45.752C654.814 40.76 657.118 36.344 660.51 32.504C663.966 28.6 668.158 25.592 673.086 23.48C678.078 21.304 683.39 20.216 689.022 20.216ZM688.734 28.76C687.39 28.76 685.95 29.976 684.414 32.408C682.942 34.776 681.182 39.288 679.134 45.944C677.086 52.6 676.062 57.272 676.062 59.96C676.062 61.368 676.286 62.328 676.734 62.84C677.182 63.288 677.79 63.512 678.558 63.512C679.902 63.64 681.278 62.488 682.686 60.056C684.158 57.624 685.982 52.888 688.158 45.848C690.142 39.64 691.134 35.128 691.134 32.312C691.134 30.968 690.91 30.04 690.462 29.528C690.078 29.016 689.502 28.76 688.734 28.76ZM776.214 57.752C776.086 58.008 776.022 58.392 776.022 58.904C776.022 59.352 776.118 59.704 776.31 59.96C776.566 60.216 776.886 60.344 777.27 60.344C778.038 60.344 778.678 60.024 779.19 59.384C779.766 58.68 780.15 58.328 780.342 58.328C780.662 58.328 780.918 58.552 781.11 59C781.302 59.384 781.398 59.864 781.398 60.44C781.462 62.296 780.854 64.12 779.574 65.912C778.294 67.64 776.406 69.08 773.91 70.232C771.478 71.32 768.534 71.864 765.078 71.864C760.854 71.864 757.494 70.904 754.998 68.984C752.502 67 751.222 64.376 751.158 61.112C751.158 58.744 751.734 56.088 752.886 53.144L758.166 39.32C758.486 38.488 758.646 37.816 758.646 37.304C758.646 36.472 758.358 35.832 757.782 35.384C757.27 34.872 756.63 34.616 755.862 34.616C754.454 34.616 753.11 35.288 751.83 36.632C750.55 37.912 749.622 39.512 749.046 41.432L743.094 61.016C742.838 61.72 742.71 62.392 742.71 63.032C742.71 63.8 742.87 64.44 743.19 64.952C743.51 65.4 743.958 65.88 744.534 66.392C744.982 66.776 745.302 67.128 745.494 67.448C745.686 67.768 745.718 68.152 745.59 68.6C745.334 69.432 744.726 70.04 743.766 70.424C742.806 70.808 741.302 71 739.254 71H717.366C715.702 71 714.518 70.744 713.814 70.232C713.046 69.656 712.758 68.92 712.95 68.024C713.206 67.256 713.878 66.584 714.966 66.008C715.926 65.496 716.726 64.888 717.366 64.184C718.006 63.48 718.55 62.36 718.998 60.824L727.542 33.08C727.67 32.76 727.734 32.312 727.734 31.736C727.734 31.032 727.574 30.488 727.254 30.104C726.998 29.72 726.55 29.24 725.91 28.664C725.27 28.152 724.822 27.704 724.566 27.32C724.31 26.936 724.278 26.424 724.47 25.784C724.854 24.312 726.87 23.032 730.518 21.944C734.166 20.792 737.974 20.216 741.942 20.216C745.142 20.216 747.67 21.112 749.526 22.904C751.382 24.632 752.214 27.064 752.022 30.2C754.646 26.424 757.43 23.832 760.374 22.424C763.318 20.952 766.518 20.216 769.974 20.216C773.878 20.216 777.014 21.4 779.382 23.768C781.814 26.136 783.03 29.208 783.03 32.984C783.03 34.968 782.71 36.92 782.07 38.84L776.214 57.752Z" fill="#C6C6C6"/>
</svg>
