<svg width="716" height="67" viewBox="0 0 716 67" fill="none" xmlns="http://www.w3.org/2000/svg">
<path d="M21.536 46.896C21.536 48.752 22.08 50.224 23.168 51.312C24.256 52.4 25.472 52.944 26.816 52.944C28.416 52.944 29.568 52.528 30.272 51.696C30.976 50.8 31.328 49.2 31.328 46.896V11.76C31.328 7.856 32.16 4.976 33.824 3.12C35.552 1.2 38.368 0.239994 42.272 0.239994C45.728 0.239994 48.448 1.04 50.432 2.64C52.416 4.24 53.408 6.992 53.408 10.896V46.512C53.408 53.552 51.264 58.672 46.976 61.872C42.752 65.072 36.512 66.672 28.256 66.672C25.632 66.672 23.2 66.48 20.96 66.096C18.72 65.712 16.736 65.2 15.008 64.56C13.28 63.856 11.68 63.056 10.208 62.16C8.8 61.264 7.584 60.272 6.56 59.184C5.6 58.096 4.736 56.976 3.968 55.824C3.2 54.608 2.592 53.392 2.144 52.176C1.76 50.896 1.44 49.712 1.184 48.624C0.992 47.472 0.896 46.32 0.896 45.168C0.896 40.88 1.6 37.968 3.008 36.432C4.48 34.832 7.328 34.032 11.552 34.032C14.944 34.032 17.536 34.64 19.328 35.856C21.184 37.072 22.112 38.736 22.112 40.848C22.112 41.488 22.016 42.512 21.824 43.92C21.632 45.328 21.536 46.32 21.536 46.896ZM93.2053 43.248C93.2053 39.92 92.7893 37.008 91.9573 34.512C91.1253 31.952 89.9093 30.672 88.3093 30.672C87.2213 30.672 86.2613 31.312 85.4293 32.592C84.5973 33.872 83.9893 35.44 83.6053 37.296C83.2213 39.152 83.0293 41.136 83.0293 43.248C83.0293 46.512 83.4773 49.392 84.3733 51.888C85.2693 54.32 86.5493 55.536 88.2133 55.536C89.8773 55.536 91.1253 54.32 91.9573 51.888C92.7893 49.456 93.2053 46.576 93.2053 43.248ZM88.2133 66.672C83.2213 66.672 78.7093 65.776 74.6773 63.984C70.7093 62.192 67.5093 59.504 65.0773 55.92C62.7093 52.336 61.5253 48.144 61.5253 43.344C61.5253 36.048 64.0213 30.256 69.0133 25.968C74.0053 21.68 80.4053 19.536 88.2133 19.536C96.0213 19.536 102.389 21.68 107.317 25.968C112.245 30.256 114.709 36.048 114.709 43.344C114.709 50.576 112.181 56.272 107.125 60.432C102.133 64.592 95.8293 66.672 88.2133 66.672ZM143.4 55.728C143.4 59.568 142.6 62.256 141 63.792C139.4 65.264 136.552 66 132.456 66C128.68 66 126.12 65.136 124.776 63.408C123.432 61.616 122.76 58.704 122.76 54.672V31.056C122.76 28.88 123.144 26.992 123.912 25.392C124.68 23.728 125.8 22.448 127.272 21.552C128.744 20.656 130.472 20.208 132.456 20.208C137.32 20.208 140.52 21.616 142.056 24.432C145.768 21.616 149.352 20.208 152.808 20.208C159.528 20.208 162.888 23.408 162.888 29.808C162.888 32.368 162.152 34.448 160.68 36.048C159.208 37.648 157.288 38.448 154.92 38.448C153.512 38.448 152.36 38.16 151.464 37.584C150.632 37.008 149.832 36.432 149.064 35.856C148.36 35.28 147.528 34.992 146.568 34.992C145.16 34.992 144.104 35.472 143.4 36.432V55.728ZM218.272 51.6C218.272 56.784 217.408 60.496 215.68 62.736C213.952 64.912 211.296 66 207.712 66C203.616 66 200.8 64.72 199.264 62.16C195.104 65.168 190.08 66.672 184.192 66.672C179.2 66.672 175.04 64.624 171.712 60.528C168.384 56.368 166.72 50.704 166.72 43.536C166.72 36.24 168.352 30.448 171.616 26.16C174.88 21.808 179.072 19.632 184.192 19.632C188.8 19.632 193.12 21.104 197.152 24.048V11.76C197.152 7.856 198.112 4.976 200.032 3.12C201.952 1.2 204.512 0.239994 207.712 0.239994C211.232 0.239994 213.856 0.943995 215.583 2.352C217.376 3.76 218.272 6.608 218.272 10.896V51.6ZM197.344 52.176L197.248 34.224C196.16 32.432 194.752 31.536 193.024 31.536C191.936 31.536 190.944 32.144 190.048 33.36C189.216 34.576 188.576 36.08 188.128 37.872C187.68 39.664 187.456 41.552 187.456 43.536C187.456 46.48 187.936 49.104 188.896 51.408C189.856 53.712 191.2 54.864 192.928 54.864C193.248 54.864 193.568 54.832 193.888 54.768C194.208 54.704 194.496 54.64 194.752 54.576C195.008 54.448 195.264 54.32 195.52 54.192C195.776 54 196 53.808 196.192 53.616C196.384 53.424 196.576 53.2 196.768 52.944C196.96 52.688 197.152 52.432 197.344 52.176ZM244.288 66.576C239.232 66.576 235.04 64.528 231.712 60.432C228.384 56.272 226.72 50.608 226.72 43.44C226.72 36.144 228.352 30.352 231.616 26.064C234.944 21.712 239.168 19.536 244.288 19.536C249.472 19.536 254.272 21.36 258.688 25.008C260.416 21.808 263.2 20.208 267.04 20.208C270.496 20.208 273.184 20.976 275.104 22.512C277.024 23.984 277.984 26.736 277.984 30.768V55.728C277.984 59.568 277.184 62.256 275.583 63.792C273.984 65.264 271.168 66 267.136 66C262.912 66 260.128 64.816 258.784 62.448C254.688 65.2 249.856 66.576 244.288 66.576ZM257.344 34.224C256.256 32.368 254.848 31.44 253.12 31.44C251.456 31.44 250.112 32.656 249.088 35.088C248.064 37.52 247.552 40.304 247.552 43.44C247.552 46.384 248.032 49.008 248.992 51.312C249.952 53.616 251.296 54.768 253.024 54.768C254.816 54.768 256.256 53.904 257.344 52.176V34.224ZM316.482 40.176C316.482 36.592 315.074 34.8 312.258 34.8C310.914 34.8 309.794 35.376 308.898 36.528C308.066 37.616 307.586 39.088 307.458 40.944V55.728C307.458 59.632 306.658 62.32 305.058 63.792C303.458 65.264 300.642 66 296.61 66C292.834 66 290.242 65.136 288.834 63.408C287.49 61.616 286.818 58.704 286.818 54.672V31.056C286.818 27.792 287.682 25.168 289.41 23.184C291.202 21.2 293.57 20.208 296.514 20.208C298.946 20.208 300.994 20.56 302.658 21.264C304.322 21.968 305.57 23.184 306.402 24.912C311.394 21.648 317.474 20.016 324.642 20.016C329.186 20.016 332.45 21.808 334.434 25.392C336.482 28.976 337.506 34.864 337.506 43.056C337.506 47.088 337.41 50.384 337.218 52.944C337.026 55.44 336.706 57.616 336.258 59.472C335.874 61.264 335.234 62.608 334.338 63.504C333.442 64.4 332.386 65.04 331.17 65.424C330.018 65.808 328.514 66 326.658 66C323.074 66 320.482 65.328 318.882 63.984C317.346 62.64 316.578 60.656 316.578 58.032L316.482 40.176ZM403.337 50.352C406.601 50.352 408.713 49.52 409.673 47.856C410.697 46.192 411.209 43.344 411.209 39.312C411.209 37.392 411.209 32.976 411.209 26.064C411.273 19.088 411.305 13.776 411.305 10.128C411.305 6.736 412.105 4.272 413.705 2.736C415.369 1.136 418.185 0.335999 422.153 0.335999C425.673 0.335999 428.297 1.232 430.025 3.024C431.753 4.752 432.969 7.952 433.673 12.624C434.377 17.232 434.729 24.272 434.729 33.744C434.729 37.776 434.249 41.456 433.289 44.784C432.393 48.112 431.113 50.96 429.449 53.328C427.849 55.632 426.025 57.68 423.977 59.472C421.929 61.2 419.721 62.576 417.353 63.6C414.985 64.624 412.649 65.392 410.345 65.904C408.041 66.416 405.769 66.672 403.529 66.672C400.777 66.672 397.993 66.352 395.177 65.712C392.425 65.008 389.609 63.824 386.729 62.16C383.913 60.496 381.417 58.48 379.241 56.112C377.065 53.68 375.273 50.544 373.865 46.704C372.521 42.8 371.849 38.48 371.849 33.744C371.849 24.272 372.233 17.232 373.001 12.624C373.769 7.952 375.081 4.752 376.937 3.024C378.793 1.232 381.641 0.335999 385.481 0.335999C389.065 0.335999 391.593 1.136 393.065 2.736C394.537 4.272 395.273 6.736 395.273 10.128C395.273 13.84 395.273 19.152 395.273 26.064C395.337 32.912 395.369 37.296 395.369 39.216C395.369 40.88 395.401 42.224 395.465 43.248C395.593 44.208 395.785 45.2 396.041 46.224C396.361 47.248 396.809 48.048 397.385 48.624C397.961 49.136 398.729 49.552 399.689 49.872C400.649 50.192 401.865 50.352 403.337 50.352ZM469.691 66.576C461.883 66.576 455.419 64.56 450.299 60.528C445.243 56.496 442.715 50.992 442.715 44.016C442.715 36.464 445.211 30.512 450.203 26.16C455.259 21.744 461.755 19.536 469.691 19.536C477.179 19.536 482.651 20.88 486.107 23.568C489.627 26.192 491.387 29.808 491.387 34.416C491.387 35.312 491.259 36.176 491.003 37.008C490.811 37.84 490.459 38.672 489.947 39.504C489.499 40.272 488.859 41.008 488.027 41.712C487.259 42.352 486.363 42.96 485.339 43.536C484.315 44.048 483.099 44.464 481.691 44.784C480.283 45.04 478.779 45.168 477.179 45.168L463.643 45.264C464.283 47.312 465.435 48.944 467.099 50.16C468.763 51.312 470.875 51.888 473.435 51.888C476.187 51.888 479.003 51.536 481.883 50.832C483.099 50.512 484.411 50 485.819 49.296C487.291 48.592 488.347 48.24 488.987 48.24C490.075 48.24 490.907 48.56 491.483 49.2C492.123 49.84 492.443 50.64 492.443 51.6C492.443 52.752 491.931 54.16 490.907 55.824C489.883 57.424 488.443 59.056 486.587 60.72C484.795 62.32 482.395 63.696 479.387 64.848C476.379 66 473.147 66.576 469.691 66.576ZM463.163 39.12C467.579 39.056 469.979 39.024 470.363 39.024C471.323 39.024 472.027 38.448 472.475 37.296C472.795 36.464 472.955 35.312 472.955 33.84C472.955 29.808 471.739 27.792 469.307 27.792C468.411 27.792 467.515 28.272 466.619 29.232C465.787 30.192 465.051 31.568 464.411 33.36C463.771 35.088 463.355 37.008 463.163 39.12ZM521.025 55.728C521.025 59.568 520.225 62.256 518.625 63.792C517.025 65.264 514.177 66 510.081 66C506.305 66 503.745 65.136 502.401 63.408C501.057 61.616 500.385 58.704 500.385 54.672V31.056C500.385 28.88 500.769 26.992 501.537 25.392C502.305 23.728 503.425 22.448 504.897 21.552C506.369 20.656 508.097 20.208 510.081 20.208C514.945 20.208 518.145 21.616 519.681 24.432C523.393 21.616 526.977 20.208 530.433 20.208C537.153 20.208 540.513 23.408 540.513 29.808C540.513 32.368 539.777 34.448 538.305 36.048C536.833 37.648 534.913 38.448 532.545 38.448C531.137 38.448 529.985 38.16 529.089 37.584C528.257 37.008 527.457 36.432 526.689 35.856C525.985 35.28 525.153 34.992 524.193 34.992C522.785 34.992 521.729 35.472 521.025 36.432V55.728ZM575.138 40.176C575.138 36.592 573.73 34.8 570.914 34.8C569.57 34.8 568.45 35.376 567.554 36.528C566.722 37.616 566.242 39.088 566.114 40.944V55.728C566.114 59.632 565.314 62.32 563.714 63.792C562.114 65.264 559.298 66 555.266 66C551.49 66 548.898 65.136 547.49 63.408C546.146 61.616 545.474 58.704 545.474 54.672V31.056C545.474 27.792 546.338 25.168 548.066 23.184C549.858 21.2 552.226 20.208 555.17 20.208C557.602 20.208 559.65 20.56 561.314 21.264C562.978 21.968 564.226 23.184 565.058 24.912C570.05 21.648 576.13 20.016 583.298 20.016C587.842 20.016 591.106 21.808 593.09 25.392C595.138 28.976 596.162 34.864 596.162 43.056C596.162 47.088 596.066 50.384 595.874 52.944C595.682 55.44 595.362 57.616 594.914 59.472C594.53 61.264 593.89 62.608 592.994 63.504C592.098 64.4 591.042 65.04 589.826 65.424C588.674 65.808 587.17 66 585.314 66C581.73 66 579.138 65.328 577.538 63.984C576.002 62.64 575.234 60.656 575.234 58.032L575.138 40.176ZM635.83 43.248C635.83 39.92 635.414 37.008 634.582 34.512C633.75 31.952 632.534 30.672 630.934 30.672C629.846 30.672 628.886 31.312 628.054 32.592C627.222 33.872 626.614 35.44 626.23 37.296C625.846 39.152 625.654 41.136 625.654 43.248C625.654 46.512 626.102 49.392 626.998 51.888C627.894 54.32 629.174 55.536 630.838 55.536C632.502 55.536 633.75 54.32 634.582 51.888C635.414 49.456 635.83 46.576 635.83 43.248ZM630.838 66.672C625.846 66.672 621.334 65.776 617.302 63.984C613.334 62.192 610.134 59.504 607.702 55.92C605.334 52.336 604.15 48.144 604.15 43.344C604.15 36.048 606.646 30.256 611.638 25.968C616.63 21.68 623.03 19.536 630.838 19.536C638.646 19.536 645.014 21.68 649.942 25.968C654.87 30.256 657.334 36.048 657.334 43.344C657.334 50.576 654.806 56.272 649.75 60.432C644.758 64.592 638.454 66.672 630.838 66.672ZM694.857 40.176C694.857 36.592 693.449 34.8 690.633 34.8C689.289 34.8 688.169 35.376 687.273 36.528C686.441 37.616 685.961 39.088 685.833 40.944V55.728C685.833 59.632 685.033 62.32 683.433 63.792C681.833 65.264 679.017 66 674.985 66C671.209 66 668.617 65.136 667.209 63.408C665.865 61.616 665.193 58.704 665.193 54.672V31.056C665.193 27.792 666.057 25.168 667.785 23.184C669.577 21.2 671.945 20.208 674.889 20.208C677.321 20.208 679.369 20.56 681.033 21.264C682.697 21.968 683.945 23.184 684.777 24.912C689.769 21.648 695.849 20.016 703.017 20.016C707.561 20.016 710.825 21.808 712.809 25.392C714.857 28.976 715.881 34.864 715.881 43.056C715.881 47.088 715.785 50.384 715.593 52.944C715.401 55.44 715.081 57.616 714.633 59.472C714.249 61.264 713.609 62.608 712.713 63.504C711.817 64.4 710.761 65.04 709.545 65.424C708.393 65.808 706.889 66 705.033 66C701.449 66 698.857 65.328 697.257 63.984C695.721 62.64 694.953 60.656 694.953 58.032L694.857 40.176Z" fill="#C6C6C6"/>
</svg>
