<svg width="731" height="69" viewBox="0 0 731 69" fill="none" xmlns="http://www.w3.org/2000/svg">
<path d="M-22.192 1.75999H-14.416C-14.544 2.528 -14.672 3.168 -14.8 3.68C-16.208 3.616 -17.488 3.904 -18.64 4.544C-19.728 5.12 -20.656 5.92 -21.424 6.944C-22.192 7.904 -22.8 9.024 -23.248 10.304C-23.632 11.584 -23.824 12.832 -23.824 14.048C-24.016 16.608 -24.048 19.168 -23.92 21.728C-23.728 24.224 -23.472 26.752 -23.152 29.312C-22.832 31.808 -22.448 34.336 -22 36.896C-21.552 39.392 -21.136 41.888 -20.752 44.384C-20.432 47.776 -20.432 51.232 -20.752 54.752C-21.008 58.208 -22.096 61.376 -24.016 64.256C-25.168 65.92 -26.704 67.136 -28.624 67.904C-30.48 68.608 -32.368 68.928 -34.288 68.864C-35.76 68.8 -37.296 68.672 -38.896 68.48C-40.496 68.288 -41.84 67.616 -42.928 66.464C-43.44 66.144 -43.856 65.76 -44.176 65.312C-44.496 64.8 -44.816 64.288 -45.136 63.776C-45.84 62.624 -46.128 61.344 -46 59.936C-45.808 58.4 -45.136 57.024 -43.984 55.808C-42.832 54.528 -41.424 53.888 -39.76 53.888C-38.992 53.824 -38.256 53.984 -37.552 54.368C-36.848 54.688 -36.272 55.136 -35.824 55.712C-35.312 56.288 -34.928 56.96 -34.672 57.728C-34.416 58.432 -34.352 59.168 -34.48 59.936C-34.672 61.792 -35.44 63.232 -36.784 64.256C-36.528 64.96 -36.112 65.472 -35.536 65.792C-34.96 66.112 -34.32 66.272 -33.616 66.272C-33.488 66.272 -33.392 66.304 -33.328 66.368C-33.264 66.368 -33.168 66.368 -33.04 66.368C-32.464 66.368 -31.92 66.24 -31.408 65.984C-30.896 65.728 -30.512 65.344 -30.256 64.832C-29.744 64.064 -29.424 63.232 -29.296 62.336C-29.168 61.44 -29.008 60.544 -28.816 59.648C-28.624 57.792 -28.528 55.936 -28.528 54.08C-28.528 52.224 -28.528 50.368 -28.528 48.512C-28.848 45.312 -29.296 42.112 -29.872 38.912C-30.384 35.712 -30.864 32.512 -31.312 29.312C-31.76 26.112 -32.08 22.912 -32.272 19.712C-32.4 16.512 -32.208 13.28 -31.696 10.016C-31.504 8.992 -31.6 8.064 -31.984 7.232C-32.304 6.4 -32.816 5.696 -33.52 5.12C-34.16 4.544 -34.96 4.128 -35.92 3.872C-36.816 3.616 -37.712 3.552 -38.608 3.68C-38.48 2.912 -38.352 2.272 -38.224 1.75999H-30.448H-22.192ZM20.2317 0.991999C23.3678 0.863997 26.1838 1.27999 28.6798 2.23999C31.2398 3.2 33.5438 4.544 35.5918 6.272C37.6398 7.936 39.4638 9.888 41.0637 12.128C42.7278 14.368 44.2318 16.768 45.5757 19.328C46.9198 21.824 48.1358 24.384 49.2238 27.008C50.3118 29.568 51.3678 32.032 52.3918 34.4C53.6718 37.6 54.1518 40.672 53.8318 43.616C53.5758 46.496 52.7118 49.216 51.2397 51.776C49.8317 54.272 47.9437 56.544 45.5757 58.592C43.2077 60.576 40.6157 62.272 37.7998 63.68C34.9838 65.088 32.0718 66.176 29.0637 66.944C26.0557 67.712 23.1438 68.064 20.3278 68C15.5918 68.192 11.5278 67.232 8.13575 65.12C4.80775 62.944 1.89575 60.192 -0.600251 56.864C-3.03225 53.472 -5.14425 49.792 -6.93625 45.824C-8.72825 41.792 -10.3923 38.016 -11.9283 34.496C-13.1443 31.296 -13.5923 28.256 -13.2723 25.376C-12.9523 22.432 -12.0563 19.712 -10.5843 17.216C-9.11225 14.72 -7.22425 12.48 -4.92025 10.496C-2.55225 8.448 0.0077486 6.72 2.75975 5.31199C5.57575 3.904 8.48775 2.816 11.4957 2.048C14.5677 1.27999 17.4797 0.927996 20.2317 0.991999ZM42.3118 34.4C41.0318 31.328 39.7518 28.32 38.4717 25.376C37.1917 22.368 35.8798 19.328 34.5358 16.256C33.7678 14.4 32.8398 12.672 31.7517 11.072C30.7277 9.472 29.5437 8.096 28.1997 6.944C26.8557 5.792 25.3837 4.928 23.7837 4.352C22.2477 3.712 20.5837 3.456 18.7917 3.584C15.0157 3.52 11.4637 4.448 8.13575 6.368C4.87175 8.224 2.15175 10.656 -0.024251 13.664C-2.13625 16.608 -3.51225 19.936 -4.15225 23.648C-4.79225 27.36 -4.31225 30.976 -2.71225 34.496C-1.36825 37.568 -0.0562515 40.608 1.22375 43.616C2.50375 46.624 3.84775 49.664 5.25575 52.736C6.02375 54.592 6.91975 56.32 7.94375 57.92C9.03175 59.456 10.2157 60.8 11.4957 61.952C12.8397 63.104 14.2797 64 15.8157 64.64C17.4157 65.216 19.1117 65.44 20.9037 65.312C24.6797 65.376 28.2318 64.48 31.5598 62.624C34.8878 60.768 37.6077 58.336 39.7197 55.328C41.8958 52.32 43.2718 48.992 43.8478 45.344C44.4878 41.632 43.9758 37.984 42.3118 34.4ZM115.289 66.368L114.713 68H101.849C100.313 68 99.065 67.616 98.105 66.848C97.209 66.08 96.441 65.12 95.801 63.968C95.161 62.816 94.617 61.6 94.169 60.32C93.721 58.976 93.209 57.792 92.633 56.768C90.649 52.608 87.993 49.248 84.665 46.688C81.401 44.064 77.721 42.72 73.625 42.656V42.56H72.857C72.985 42.56 73.113 42.592 73.241 42.656C73.369 42.656 73.497 42.656 73.625 42.656C74.585 47.712 74.745 52.672 74.105 57.536C73.913 58.496 73.817 59.488 73.817 60.512C73.881 61.536 74.073 62.528 74.393 63.488C75.353 64.768 76.377 65.568 77.465 65.888C78.617 66.144 79.705 66.304 80.729 66.368L80.153 68H56.153L56.729 66.368L56.825 66.272C57.977 66.272 59.065 66.08 60.089 65.696C61.177 65.248 62.137 64.672 62.969 63.968C63.801 63.264 64.473 62.432 64.985 61.472C65.561 60.448 65.913 59.36 66.041 58.208C66.681 55.392 66.873 52.608 66.617 49.856C66.361 47.104 65.881 44.384 65.177 41.696C64.537 39.008 63.801 36.352 62.969 33.728C62.137 31.04 61.401 28.352 60.761 25.664C60.185 22.976 59.865 20.256 59.801 17.504C59.737 14.752 60.153 11.968 61.049 9.152C61.433 8.256 61.497 7.424 61.241 6.65599C61.049 5.888 60.665 5.248 60.089 4.736C59.513 4.16 58.809 3.776 57.977 3.584C57.145 3.328 56.313 3.264 55.481 3.392L56.153 1.568H86.009C88.505 1.44 90.585 1.984 92.249 3.2C93.913 4.352 95.257 5.888 96.281 7.808C97.369 9.664 98.137 11.712 98.585 13.952C99.097 16.128 99.449 18.208 99.641 20.192C99.961 23.072 100.089 25.568 100.025 27.68C100.025 29.792 99.769 31.808 99.257 33.728C98.681 35.072 97.977 36.192 97.145 37.088C96.377 37.92 95.513 38.624 94.553 39.2C93.593 39.712 92.601 40.064 91.577 40.256C90.553 40.448 89.529 40.544 88.505 40.544C91.769 41.824 94.553 43.776 96.857 46.4C99.225 49.024 101.145 51.904 102.617 55.04C103.129 56.704 103.769 58.272 104.537 59.744C105.369 61.152 106.297 62.4 107.321 63.488C108.409 64.512 109.593 65.312 110.873 65.888C112.217 66.4 113.689 66.56 115.289 66.368ZM76.217 39.968C78.329 40.032 80.409 39.68 82.457 38.912C84.569 38.08 86.329 36.832 87.737 35.168C88.953 32.672 89.721 30.272 90.041 27.968C90.425 25.664 90.553 23.392 90.425 21.152C90.425 19.104 90.105 17.056 89.465 15.008C88.825 12.896 87.865 11.04 86.585 9.44C85.305 7.776 83.737 6.464 81.881 5.504C80.089 4.544 78.041 4.16 75.737 4.352H70.265C69.241 7.296 68.569 10.304 68.249 13.376C67.993 16.384 67.993 19.392 68.249 22.4C68.569 25.408 69.145 28.416 69.977 31.424C70.809 34.368 71.801 37.216 72.953 39.968H75.353H76.217ZM177.468 34.016C178.3 35.872 178.844 37.824 179.1 39.872C179.42 41.92 179.42 43.968 179.1 46.016C178.78 48 178.172 49.92 177.276 51.776C176.38 53.632 175.196 55.264 173.724 56.672C171.292 58.848 168.732 60.672 166.044 62.144C163.42 63.552 160.7 64.704 157.884 65.6C155.132 66.432 152.316 67.04 149.436 67.424C146.62 67.808 143.836 68 141.084 68H119.196L119.964 65.888C120.988 65.888 121.98 65.728 122.94 65.408C123.9 65.088 124.764 64.608 125.532 63.968C126.3 63.328 126.94 62.592 127.452 61.76C127.964 60.864 128.284 59.904 128.412 58.88C129.116 56.064 129.372 53.28 129.18 50.528C128.988 47.776 128.54 45.056 127.836 42.368C127.196 39.68 126.46 37.024 125.628 34.4C124.796 31.712 124.06 29.024 123.42 26.336C122.844 23.648 122.492 20.928 122.364 18.176C122.236 15.424 122.588 12.64 123.42 9.824C123.676 8.992 123.708 8.224 123.516 7.51999C123.324 6.752 122.972 6.112 122.46 5.6C122.012 5.024 121.404 4.576 120.636 4.256C119.932 3.936 119.196 3.776 118.428 3.776C118.556 3.392 118.684 3.04 118.812 2.72C118.94 2.336 119.068 1.952 119.196 1.568H140.892C143.068 1.568 145.308 1.696 147.612 1.952C149.916 2.144 152.156 2.52799 154.332 3.10399C156.572 3.67999 158.684 4.512 160.668 5.6C162.652 6.624 164.444 7.968 166.044 9.632C167.644 11.552 168.988 13.536 170.076 15.584C171.228 17.632 172.22 19.712 173.052 21.824C173.884 23.872 174.62 25.92 175.26 27.968C175.964 30.016 176.7 32.032 177.468 34.016ZM166.716 32.768C166.012 30.848 165.34 28.928 164.7 27.008C164.06 25.024 163.324 23.104 162.492 21.248C161.724 19.328 160.796 17.504 159.708 15.776C158.684 14.048 157.436 12.448 155.964 10.976C152.572 7.904 148.924 5.92 145.02 5.024C141.116 4.064 137.276 3.584 133.5 3.584V3.488C133.5 3.424 133.5 3.392 133.5 3.392C133.564 3.328 133.596 3.264 133.596 3.2C133.596 3.264 133.564 3.328 133.5 3.392C133.5 3.392 133.5 3.424 133.5 3.488V3.584C131.836 8.384 131.004 13.376 131.004 18.56C131.004 23.744 131.932 28.736 133.788 33.536C136.028 39.232 137.244 44.768 137.436 50.144C137.692 55.456 136.988 60.512 135.324 65.312H141.468C143.452 65.312 145.468 65.216 147.516 65.024C149.564 64.768 151.548 64.384 153.468 63.872C155.452 63.296 157.308 62.528 159.036 61.568C160.828 60.608 162.46 59.392 163.932 57.92C165.596 56 166.812 53.984 167.58 51.872C168.412 49.696 168.892 47.52 169.02 45.344C169.212 43.168 169.084 41.024 168.636 38.912C168.188 36.736 167.548 34.688 166.716 32.768ZM230.518 61.568C230.646 62.848 231.158 63.968 232.054 64.928C232.95 65.888 234.07 66.304 235.414 66.176H237.238C237.11 66.496 236.982 66.816 236.854 67.136C236.726 67.392 236.598 67.68 236.47 68H230.71H221.302H212.278C212.406 67.68 212.534 67.392 212.662 67.136C212.79 66.816 212.918 66.496 213.046 66.176H215.158C215.99 66.304 216.79 66.24 217.558 65.984C218.39 65.664 219.094 65.216 219.67 64.64C220.246 64.064 220.63 63.392 220.822 62.624C221.078 61.792 221.078 60.928 220.822 60.032V59.84C220.502 58.368 220.118 56.896 219.67 55.424C219.286 53.952 218.742 52.544 218.038 51.2H191.638C190.934 52.864 190.134 54.496 189.238 56.096C188.406 57.696 187.478 59.264 186.454 60.8C186.134 61.44 185.75 62.08 185.302 62.72C184.918 63.296 184.822 63.968 185.014 64.736C185.718 65.44 186.358 65.856 186.934 65.984C187.51 66.112 188.054 66.176 188.566 66.176H190.006C189.878 66.496 189.75 66.816 189.622 67.136C189.494 67.392 189.366 67.68 189.238 68H180.982H171.574C171.702 67.68 171.83 67.392 171.958 67.136C172.086 66.816 172.214 66.496 172.342 66.176H174.166C175.894 66.176 177.526 65.76 179.062 64.928C180.598 64.096 181.878 62.976 182.902 61.568C185.91 57.408 188.182 52.896 189.718 48.032C190.358 46.304 190.742 44.576 190.87 42.848C191.062 41.12 191.158 39.36 191.158 37.568C191.158 35.776 191.158 34.016 191.158 32.288C191.222 30.496 191.446 28.736 191.83 27.008C192.982 22.08 194.582 17.664 196.63 13.76C198.678 9.856 201.078 6.24 203.83 2.912C203.51 6.944 203.894 10.656 204.982 14.048C206.07 17.44 207.51 20.704 209.302 23.84C211.158 26.912 213.206 29.92 215.446 32.864C217.75 35.744 219.926 38.688 221.974 41.696C224.086 44.704 225.91 47.84 227.446 51.104C229.046 54.304 230.07 57.792 230.518 61.568ZM216.886 48.32C215.542 45.568 213.942 43.008 212.086 40.64C210.294 38.208 208.438 35.808 206.518 33.44C204.662 31.008 202.902 28.544 201.238 26.048C199.638 23.552 198.39 20.8 197.494 17.792C196.214 20.224 195.35 22.72 194.902 25.28C194.518 27.776 194.262 30.336 194.134 32.96C194.07 35.52 193.974 38.112 193.846 40.736C193.782 43.296 193.398 45.824 192.694 48.32H216.886ZM302.86 1.568H310.252C310.124 1.888 309.996 2.208 309.868 2.528C309.74 2.784 309.612 3.072 309.484 3.392H308.812C307.788 3.328 306.764 3.456 305.74 3.776C304.78 4.096 303.884 4.576 303.052 5.216C302.284 5.792 301.612 6.528 301.036 7.424C300.524 8.32 300.204 9.28 300.076 10.304C298.86 13.952 298.54 17.504 299.116 20.96C299.692 24.416 300.556 27.84 301.708 31.232C302.86 34.56 303.98 37.92 305.068 41.312C306.22 44.704 306.764 48.192 306.7 51.776C306.764 54.656 306.412 57.44 305.644 60.128C304.94 62.816 304.012 65.44 302.86 68H299.212V67.904C297.804 63.68 295.916 59.872 293.548 56.48C291.244 53.024 288.62 49.824 285.676 46.88C282.796 43.872 279.724 41.024 276.46 38.336C273.196 35.584 269.964 32.8 266.764 29.984C263.628 27.168 260.62 24.256 257.74 21.248C254.86 18.176 252.332 14.816 250.156 11.168C249.324 14.048 249.036 16.864 249.292 19.616C249.548 22.368 250.06 25.088 250.828 27.776C251.596 30.4 252.46 33.056 253.42 35.744C254.444 38.368 255.308 41.024 256.012 43.712C256.716 46.336 257.132 49.024 257.26 51.776C257.388 54.528 256.94 57.344 255.916 60.224C255.724 60.992 255.628 61.792 255.628 62.624C255.692 63.456 256.012 64.192 256.588 64.832C257.676 65.472 258.636 65.888 259.468 66.08C260.364 66.272 261.228 66.336 262.06 66.272L261.292 68H253.132H241.324L242.092 66.272H242.764C243.852 66.336 244.94 66.208 246.028 65.888C247.18 65.568 248.204 65.12 249.1 64.544C250.06 63.904 250.86 63.136 251.5 62.24C252.204 61.28 252.652 60.224 252.844 59.072C253.676 56.192 253.996 53.408 253.804 50.72C253.612 47.968 253.132 45.248 252.364 42.56C251.66 39.872 250.796 37.216 249.772 34.592C248.748 31.968 247.884 29.312 247.18 26.624C246.476 23.936 246.028 21.248 245.836 18.56C245.708 15.808 246.092 12.992 246.988 10.112C246.988 10.048 246.988 10.016 246.988 10.016C247.052 10.016 247.084 9.984 247.084 9.92C247.148 9.088 247.212 8.256 247.276 7.424C247.34 6.528 247.02 5.728 246.316 5.024C245.292 4.32 244.364 3.872 243.532 3.68C242.764 3.488 241.996 3.392 241.228 3.392C241.356 3.072 241.484 2.784 241.612 2.528C241.74 2.208 241.868 1.888 241.996 1.568H257.644V1.664L258.412 3.392C259.756 7.168 261.484 10.624 263.596 13.76C265.708 16.832 268.044 19.744 270.604 22.496C273.228 25.184 275.98 27.776 278.86 30.272C281.74 32.768 284.62 35.296 287.5 37.856C290.38 40.352 293.132 42.944 295.756 45.632C298.444 48.32 300.876 51.232 303.052 54.368C303.372 51.808 303.308 49.28 302.86 46.784C302.412 44.288 301.772 41.824 300.94 39.392C300.172 36.96 299.34 34.56 298.444 32.192C297.548 29.76 296.812 27.328 296.236 24.896C295.66 22.464 295.34 20 295.276 17.504C295.276 14.944 295.724 12.352 296.62 9.72799C296.748 9.024 296.844 8.352 296.908 7.712C297.036 7.008 296.972 6.304 296.716 5.6C296.012 4.576 295.244 3.968 294.412 3.776C293.58 3.584 292.812 3.456 292.108 3.392H291.052C291.18 3.072 291.308 2.784 291.436 2.528C291.564 2.208 291.692 1.888 291.82 1.568H299.308H302.86ZM388.786 1.75999H395.698C395.506 2.33599 395.25 2.976 394.93 3.68C392.178 3.68 389.618 4.48 387.25 6.08C384.946 7.616 383.122 9.536 381.778 11.84C379.538 15.872 377.906 20.128 376.882 24.608C375.858 29.024 375.538 33.536 375.922 38.144C375.41 44.352 373.97 49.888 371.602 54.752C369.298 59.616 366.45 64.032 363.058 68H361.138H360.946C361.33 64.16 361.074 60.608 360.178 57.344C359.346 54.016 358.098 50.848 356.434 47.84C354.834 44.832 352.978 41.92 350.866 39.104C348.754 36.288 346.674 33.44 344.626 30.56C342.642 27.616 340.818 24.64 339.154 21.632C337.554 18.56 336.402 15.296 335.698 11.84C335.57 10.88 335.314 9.92 334.93 8.96C334.61 7.936 334.13 7.008 333.49 6.17599C332.914 5.344 332.21 4.704 331.378 4.256C330.482 3.808 329.458 3.616 328.306 3.68C328.434 3.36 328.562 3.04 328.69 2.72C328.818 2.4 328.946 2.07999 329.074 1.75999H334.642H343.762H353.074C352.882 2.33599 352.626 2.976 352.306 3.68C351.282 3.616 350.226 3.744 349.138 4.064C348.114 4.32 347.186 4.768 346.354 5.408C345.586 6.048 345.01 6.848 344.626 7.808C344.242 8.704 344.21 9.728 344.53 10.88L344.626 11.072C345.01 14.016 345.778 16.768 346.93 19.328C348.082 21.824 349.394 24.256 350.866 26.624C352.402 28.928 354.034 31.2 355.762 33.44C357.49 35.68 359.154 37.952 360.754 40.256C362.418 42.56 363.922 44.96 365.266 47.456C366.61 49.888 367.634 52.48 368.338 55.232C369.618 52.928 370.514 50.56 371.026 48.128C371.602 45.632 371.986 43.136 372.178 40.64C372.434 38.08 372.594 35.52 372.658 32.96C372.722 30.4 372.914 27.872 373.234 25.376C373.618 22.88 374.194 20.448 374.962 18.08C375.73 15.648 376.946 13.344 378.61 11.168L378.802 10.976C379.186 10.208 379.538 9.408 379.858 8.576C380.242 7.744 380.402 6.88 380.338 5.984C379.506 4.896 378.642 4.256 377.746 4.064C376.85 3.808 375.954 3.68 375.058 3.68C375.186 3.36 375.314 3.04 375.442 2.72C375.57 2.4 375.698 2.07999 375.826 1.75999H385.33H388.786ZM432.708 65.888C435.332 65.952 437.892 65.6 440.388 64.832C442.884 64 445.188 62.88 447.3 61.472C449.476 60 451.396 58.24 453.06 56.192C454.724 54.144 456.004 51.904 456.9 49.472C457.284 49.664 457.668 49.888 458.052 50.144C458.436 50.4 458.852 50.592 459.3 50.72C458.532 53.408 457.508 56 456.228 58.496C455.012 60.992 453.668 63.456 452.196 65.888C451.876 66.208 451.62 66.56 451.428 66.944C451.236 67.328 450.98 67.68 450.66 68H401.7L402.468 65.888H402.948C403.972 65.952 405.028 65.888 406.116 65.696C407.204 65.44 408.228 65.088 409.188 64.64C410.148 64.128 410.948 63.488 411.588 62.72C412.292 61.888 412.74 60.896 412.932 59.744C413.7 56.8 413.988 53.92 413.796 51.104C413.668 48.224 413.284 45.376 412.644 42.56C412.004 39.68 411.268 36.864 410.436 34.112C409.604 31.296 408.9 28.48 408.324 25.664C407.748 22.784 407.428 19.904 407.364 17.024C407.364 14.144 407.812 11.232 408.708 8.288C409.028 7.392 409.028 6.624 408.708 5.984C408.452 5.344 408.004 4.832 407.364 4.44799C406.788 4.064 406.084 3.808 405.252 3.68C404.484 3.552 403.748 3.52 403.044 3.584H400.836C400.964 3.264 401.06 2.94399 401.124 2.62399C401.252 2.24 401.38 1.888 401.508 1.568H445.668C446.244 7.008 447.652 12.32 449.892 17.504L448.452 18.368C447.364 16.768 446.18 15.136 444.9 13.472C443.684 11.744 442.308 10.176 440.772 8.768C439.3 7.35999 437.668 6.17599 435.876 5.216C434.148 4.256 432.228 3.712 430.116 3.584H418.212C416.676 8.512 415.908 13.6 415.908 18.848C415.972 24.032 416.868 29.056 418.596 33.92H423.396C424.74 34.048 426.052 33.792 427.332 33.152C428.612 32.448 429.508 31.456 430.02 30.176C430.66 28.064 431.012 26.144 431.076 24.416C431.204 22.624 431.236 20.896 431.172 19.232H433.668C433.54 21.856 433.764 24.416 434.34 26.912C434.98 29.408 435.684 31.904 436.452 34.4C437.22 36.832 437.924 39.296 438.564 41.792C439.268 44.288 439.62 46.848 439.62 49.472H437.124C437.124 47.744 436.804 46.08 436.164 44.48C435.524 42.816 434.596 41.376 433.38 40.16C432.228 38.88 430.852 37.888 429.252 37.184C427.716 36.48 426.052 36.192 424.26 36.32H419.364C421.028 41.12 421.892 46.048 421.956 51.104C422.02 56.16 421.252 61.088 419.652 65.888H432.708ZM518.354 66.368L517.778 68H504.914C503.378 68 502.13 67.616 501.17 66.848C500.274 66.08 499.506 65.12 498.866 63.968C498.226 62.816 497.682 61.6 497.234 60.32C496.786 58.976 496.274 57.792 495.698 56.768C493.714 52.608 491.058 49.248 487.73 46.688C484.466 44.064 480.786 42.72 476.69 42.656V42.56H475.922C476.05 42.56 476.178 42.592 476.306 42.656C476.434 42.656 476.562 42.656 476.69 42.656C477.65 47.712 477.81 52.672 477.17 57.536C476.978 58.496 476.882 59.488 476.882 60.512C476.946 61.536 477.138 62.528 477.458 63.488C478.418 64.768 479.442 65.568 480.53 65.888C481.682 66.144 482.77 66.304 483.794 66.368L483.218 68H459.218L459.794 66.368L459.89 66.272C461.042 66.272 462.13 66.08 463.154 65.696C464.242 65.248 465.202 64.672 466.034 63.968C466.866 63.264 467.538 62.432 468.05 61.472C468.626 60.448 468.978 59.36 469.106 58.208C469.746 55.392 469.938 52.608 469.682 49.856C469.426 47.104 468.946 44.384 468.242 41.696C467.602 39.008 466.866 36.352 466.034 33.728C465.202 31.04 464.466 28.352 463.826 25.664C463.25 22.976 462.93 20.256 462.866 17.504C462.802 14.752 463.218 11.968 464.114 9.152C464.498 8.256 464.562 7.424 464.306 6.65599C464.114 5.888 463.73 5.248 463.154 4.736C462.578 4.16 461.874 3.776 461.042 3.584C460.21 3.328 459.378 3.264 458.546 3.392L459.218 1.568H489.074C491.57 1.44 493.65 1.984 495.314 3.2C496.978 4.352 498.322 5.888 499.346 7.808C500.434 9.664 501.202 11.712 501.65 13.952C502.162 16.128 502.514 18.208 502.706 20.192C503.026 23.072 503.154 25.568 503.09 27.68C503.09 29.792 502.834 31.808 502.322 33.728C501.746 35.072 501.042 36.192 500.21 37.088C499.442 37.92 498.578 38.624 497.618 39.2C496.658 39.712 495.666 40.064 494.642 40.256C493.618 40.448 492.594 40.544 491.57 40.544C494.834 41.824 497.618 43.776 499.922 46.4C502.29 49.024 504.21 51.904 505.682 55.04C506.194 56.704 506.834 58.272 507.602 59.744C508.434 61.152 509.362 62.4 510.386 63.488C511.474 64.512 512.658 65.312 513.938 65.888C515.282 66.4 516.754 66.56 518.354 66.368ZM479.282 39.968C481.394 40.032 483.474 39.68 485.522 38.912C487.634 38.08 489.394 36.832 490.802 35.168C492.018 32.672 492.786 30.272 493.106 27.968C493.49 25.664 493.618 23.392 493.49 21.152C493.49 19.104 493.17 17.056 492.53 15.008C491.89 12.896 490.93 11.04 489.65 9.44C488.37 7.776 486.802 6.464 484.946 5.504C483.154 4.544 481.106 4.16 478.802 4.352H473.33C472.306 7.296 471.634 10.304 471.314 13.376C471.058 16.384 471.058 19.392 471.314 22.4C471.634 25.408 472.21 28.416 473.042 31.424C473.874 34.368 474.866 37.216 476.018 39.968H478.418H479.282ZM584.428 1.568H591.82C591.692 1.888 591.564 2.208 591.436 2.528C591.308 2.784 591.18 3.072 591.052 3.392H590.38C589.356 3.328 588.332 3.456 587.308 3.776C586.348 4.096 585.452 4.576 584.62 5.216C583.852 5.792 583.18 6.528 582.604 7.424C582.092 8.32 581.772 9.28 581.644 10.304C580.428 13.952 580.108 17.504 580.684 20.96C581.26 24.416 582.124 27.84 583.276 31.232C584.428 34.56 585.548 37.92 586.636 41.312C587.788 44.704 588.332 48.192 588.268 51.776C588.332 54.656 587.98 57.44 587.212 60.128C586.508 62.816 585.58 65.44 584.428 68H580.78V67.904C579.372 63.68 577.484 59.872 575.116 56.48C572.812 53.024 570.188 49.824 567.244 46.88C564.364 43.872 561.292 41.024 558.028 38.336C554.764 35.584 551.532 32.8 548.332 29.984C545.196 27.168 542.188 24.256 539.308 21.248C536.428 18.176 533.9 14.816 531.724 11.168C530.892 14.048 530.604 16.864 530.86 19.616C531.116 22.368 531.628 25.088 532.396 27.776C533.164 30.4 534.028 33.056 534.988 35.744C536.012 38.368 536.876 41.024 537.58 43.712C538.284 46.336 538.7 49.024 538.828 51.776C538.956 54.528 538.508 57.344 537.484 60.224C537.292 60.992 537.196 61.792 537.196 62.624C537.26 63.456 537.58 64.192 538.156 64.832C539.244 65.472 540.204 65.888 541.036 66.08C541.932 66.272 542.796 66.336 543.628 66.272L542.86 68H534.7H522.892L523.66 66.272H524.332C525.42 66.336 526.508 66.208 527.596 65.888C528.748 65.568 529.772 65.12 530.668 64.544C531.628 63.904 532.428 63.136 533.068 62.24C533.772 61.28 534.22 60.224 534.412 59.072C535.244 56.192 535.564 53.408 535.372 50.72C535.18 47.968 534.7 45.248 533.932 42.56C533.228 39.872 532.364 37.216 531.34 34.592C530.316 31.968 529.452 29.312 528.748 26.624C528.044 23.936 527.596 21.248 527.404 18.56C527.276 15.808 527.66 12.992 528.556 10.112C528.556 10.048 528.556 10.016 528.556 10.016C528.62 10.016 528.652 9.984 528.652 9.92C528.716 9.088 528.78 8.256 528.844 7.424C528.908 6.528 528.588 5.728 527.884 5.024C526.86 4.32 525.932 3.872 525.1 3.68C524.332 3.488 523.564 3.392 522.796 3.392C522.924 3.072 523.052 2.784 523.18 2.528C523.308 2.208 523.436 1.888 523.564 1.568H539.212V1.664L539.98 3.392C541.324 7.168 543.052 10.624 545.164 13.76C547.276 16.832 549.612 19.744 552.172 22.496C554.796 25.184 557.548 27.776 560.428 30.272C563.308 32.768 566.188 35.296 569.068 37.856C571.948 40.352 574.7 42.944 577.324 45.632C580.012 48.32 582.444 51.232 584.62 54.368C584.94 51.808 584.876 49.28 584.428 46.784C583.98 44.288 583.34 41.824 582.508 39.392C581.74 36.96 580.908 34.56 580.012 32.192C579.116 29.76 578.38 27.328 577.804 24.896C577.228 22.464 576.908 20 576.844 17.504C576.844 14.944 577.292 12.352 578.188 9.72799C578.316 9.024 578.412 8.352 578.476 7.712C578.604 7.008 578.54 6.304 578.284 5.6C577.58 4.576 576.812 3.968 575.98 3.776C575.148 3.584 574.38 3.456 573.676 3.392H572.62C572.748 3.072 572.876 2.784 573.004 2.528C573.132 2.208 573.26 1.888 573.388 1.568H580.876H584.428ZM627.807 0.991999C630.943 0.863997 633.759 1.27999 636.255 2.23999C638.815 3.2 641.119 4.544 643.167 6.272C645.215 7.936 647.039 9.888 648.639 12.128C650.303 14.368 651.807 16.768 653.151 19.328C654.495 21.824 655.711 24.384 656.799 27.008C657.887 29.568 658.943 32.032 659.967 34.4C661.247 37.6 661.727 40.672 661.407 43.616C661.151 46.496 660.287 49.216 658.815 51.776C657.407 54.272 655.519 56.544 653.151 58.592C650.783 60.576 648.191 62.272 645.375 63.68C642.559 65.088 639.647 66.176 636.639 66.944C633.631 67.712 630.719 68.064 627.903 68C623.167 68.192 619.103 67.232 615.711 65.12C612.383 62.944 609.471 60.192 606.975 56.864C604.543 53.472 602.431 49.792 600.639 45.824C598.847 41.792 597.183 38.016 595.647 34.496C594.431 31.296 593.983 28.256 594.303 25.376C594.623 22.432 595.519 19.712 596.991 17.216C598.463 14.72 600.351 12.48 602.655 10.496C605.023 8.448 607.583 6.72 610.335 5.31199C613.151 3.904 616.063 2.816 619.071 2.048C622.143 1.27999 625.055 0.927996 627.807 0.991999ZM649.887 34.4C648.607 31.328 647.327 28.32 646.047 25.376C644.767 22.368 643.455 19.328 642.111 16.256C641.343 14.4 640.415 12.672 639.327 11.072C638.303 9.472 637.119 8.096 635.775 6.944C634.431 5.792 632.959 4.928 631.359 4.352C629.823 3.712 628.159 3.456 626.367 3.584C622.591 3.52 619.039 4.448 615.711 6.368C612.447 8.224 609.727 10.656 607.551 13.664C605.439 16.608 604.063 19.936 603.423 23.648C602.783 27.36 603.263 30.976 604.863 34.496C606.207 37.568 607.519 40.608 608.799 43.616C610.079 46.624 611.423 49.664 612.831 52.736C613.599 54.592 614.495 56.32 615.519 57.92C616.607 59.456 617.791 60.8 619.071 61.952C620.415 63.104 621.855 64 623.391 64.64C624.991 65.216 626.687 65.44 628.479 65.312C632.255 65.376 635.807 64.48 639.135 62.624C642.463 60.768 645.183 58.336 647.295 55.328C649.471 52.32 650.847 48.992 651.423 45.344C652.063 41.632 651.551 37.984 649.887 34.4ZM722.987 1.568H730.379C730.251 1.888 730.123 2.208 729.995 2.528C729.867 2.784 729.739 3.072 729.611 3.392H728.939C727.915 3.328 726.891 3.456 725.867 3.776C724.907 4.096 724.011 4.576 723.179 5.216C722.411 5.792 721.739 6.528 721.163 7.424C720.651 8.32 720.331 9.28 720.203 10.304C718.987 13.952 718.667 17.504 719.243 20.96C719.819 24.416 720.683 27.84 721.835 31.232C722.987 34.56 724.107 37.92 725.195 41.312C726.347 44.704 726.891 48.192 726.827 51.776C726.891 54.656 726.539 57.44 725.771 60.128C725.067 62.816 724.139 65.44 722.987 68H719.339V67.904C717.931 63.68 716.043 59.872 713.675 56.48C711.371 53.024 708.747 49.824 705.803 46.88C702.923 43.872 699.851 41.024 696.587 38.336C693.323 35.584 690.091 32.8 686.891 29.984C683.755 27.168 680.747 24.256 677.867 21.248C674.987 18.176 672.459 14.816 670.283 11.168C669.451 14.048 669.163 16.864 669.419 19.616C669.675 22.368 670.187 25.088 670.955 27.776C671.723 30.4 672.587 33.056 673.547 35.744C674.571 38.368 675.435 41.024 676.139 43.712C676.843 46.336 677.259 49.024 677.387 51.776C677.515 54.528 677.067 57.344 676.043 60.224C675.851 60.992 675.755 61.792 675.755 62.624C675.819 63.456 676.139 64.192 676.715 64.832C677.803 65.472 678.763 65.888 679.595 66.08C680.491 66.272 681.355 66.336 682.187 66.272L681.419 68H673.259H661.451L662.219 66.272H662.891C663.979 66.336 665.067 66.208 666.155 65.888C667.307 65.568 668.331 65.12 669.227 64.544C670.187 63.904 670.987 63.136 671.627 62.24C672.331 61.28 672.779 60.224 672.971 59.072C673.803 56.192 674.123 53.408 673.931 50.72C673.739 47.968 673.259 45.248 672.491 42.56C671.787 39.872 670.923 37.216 669.899 34.592C668.875 31.968 668.011 29.312 667.307 26.624C666.603 23.936 666.155 21.248 665.963 18.56C665.835 15.808 666.219 12.992 667.115 10.112C667.115 10.048 667.115 10.016 667.115 10.016C667.179 10.016 667.211 9.984 667.211 9.92C667.275 9.088 667.339 8.256 667.403 7.424C667.467 6.528 667.147 5.728 666.443 5.024C665.419 4.32 664.491 3.872 663.659 3.68C662.891 3.488 662.123 3.392 661.355 3.392C661.483 3.072 661.611 2.784 661.739 2.528C661.867 2.208 661.995 1.888 662.123 1.568H677.771V1.664L678.539 3.392C679.883 7.168 681.611 10.624 683.723 13.76C685.835 16.832 688.171 19.744 690.731 22.496C693.355 25.184 696.107 27.776 698.987 30.272C701.867 32.768 704.747 35.296 707.627 37.856C710.507 40.352 713.259 42.944 715.883 45.632C718.571 48.32 721.003 51.232 723.179 54.368C723.499 51.808 723.435 49.28 722.987 46.784C722.539 44.288 721.899 41.824 721.067 39.392C720.299 36.96 719.467 34.56 718.571 32.192C717.675 29.76 716.939 27.328 716.363 24.896C715.787 22.464 715.467 20 715.403 17.504C715.403 14.944 715.851 12.352 716.747 9.72799C716.875 9.024 716.971 8.352 717.035 7.712C717.163 7.008 717.099 6.304 716.843 5.6C716.139 4.576 715.371 3.968 714.539 3.776C713.707 3.584 712.939 3.456 712.235 3.392H711.179C711.307 3.072 711.435 2.784 711.563 2.528C711.691 2.208 711.819 1.888 711.947 1.568H719.435H722.987Z" fill="#C6C6C6"/>
</svg>
