<svg width="573" height="66" viewBox="0 0 573 66" fill="none" xmlns="http://www.w3.org/2000/svg">
<path d="M8.848 42.92C8.72 44.904 8.944 46.728 9.52 48.392C10.16 50.056 11.024 51.496 12.112 52.712C13.264 53.928 14.608 54.888 16.144 55.592C17.744 56.232 19.44 56.552 21.232 56.552C22.896 56.552 24.464 56.232 25.936 55.592C27.408 54.952 28.688 54.088 29.776 53C30.928 51.848 31.824 50.536 32.464 49.064C33.104 47.528 33.424 45.896 33.424 44.168V0.679998H41.872V44.168C41.872 47.112 41.328 49.864 40.24 52.424C39.216 54.92 37.744 57.128 35.824 59.048C33.968 60.904 31.792 62.376 29.296 63.464C26.8 64.488 24.112 65 21.232 65C17.968 65 14.992 64.456 12.304 63.368C9.68 62.28 7.44 60.776 5.584 58.856C3.728 56.936 2.32 54.632 1.36 51.944C0.464 49.192 0.144 46.184 0.4 42.92H8.848ZM85.3023 41.576C85.3023 39.464 84.8863 37.448 84.0543 35.528C83.2863 33.608 82.1983 31.944 80.7903 30.536C79.3823 29.128 77.7183 28.008 75.7983 27.176C73.9423 26.344 71.9583 25.928 69.8463 25.928C67.7343 25.928 65.7183 26.344 63.7983 27.176C61.9423 28.008 60.3103 29.128 58.9023 30.536C57.4943 31.944 56.3743 33.608 55.5423 35.528C54.7743 37.448 54.3903 39.464 54.3903 41.576C54.3903 43.688 54.7743 45.704 55.5423 47.624C56.3743 49.48 57.4943 51.112 58.9023 52.52C60.3103 53.928 61.9423 55.048 63.7983 55.88C65.7183 56.648 67.7343 57.032 69.8463 57.032C71.9583 57.032 73.9423 56.648 75.7983 55.88C77.7183 55.048 79.3823 53.928 80.7903 52.52C82.1983 51.112 83.2863 49.48 84.0543 47.624C84.8863 45.704 85.3023 43.688 85.3023 41.576ZM93.4623 41.576C93.4623 44.84 92.8223 47.912 91.5423 50.792C90.3263 53.672 88.6623 56.168 86.5503 58.28C84.4383 60.392 81.9423 62.088 79.0623 63.368C76.1823 64.584 73.1103 65.192 69.8463 65.192C66.5183 65.192 63.4143 64.584 60.5343 63.368C57.6543 62.088 55.1583 60.392 53.0463 58.28C50.9343 56.168 49.2703 53.672 48.0543 50.792C46.8383 47.912 46.2303 44.84 46.2303 41.576C46.2303 38.248 46.8383 35.144 48.0543 32.264C49.2703 29.384 50.9343 26.888 53.0463 24.776C55.1583 22.6 57.6543 20.904 60.5343 19.688C63.4143 18.408 66.5183 17.768 69.8463 17.768C73.1103 17.768 76.1823 18.408 79.0623 19.688C81.9423 20.904 84.4383 22.6 86.5503 24.776C88.6623 26.888 90.3263 29.384 91.5423 32.264C92.8223 35.144 93.4623 38.248 93.4623 41.576ZM108.072 17.96V26.024C109.352 23.784 111.112 21.864 113.352 20.264C115.592 18.6 118.216 17.768 121.224 17.768V25.928C119.56 25.928 117.96 26.248 116.424 26.888C114.888 27.528 113.512 28.392 112.296 29.48C111.08 30.504 110.088 31.72 109.32 33.128C108.552 34.536 108.136 36.04 108.072 37.64V65H100.008V17.96H108.072ZM123.956 41.576C123.956 38.248 124.532 35.144 125.684 32.264C126.836 29.384 128.372 26.888 130.292 24.776C132.276 22.6 134.58 20.904 137.204 19.688C139.892 18.408 142.772 17.768 145.844 17.768C149.492 17.768 152.788 18.632 155.732 20.36C158.676 22.088 161.108 24.392 163.028 27.272V3.17599H171.188V65H163.028V55.784C161.108 58.664 158.676 60.968 155.732 62.696C152.788 64.36 149.492 65.192 145.844 65.192C142.772 65.192 139.892 64.584 137.204 63.368C134.58 62.088 132.276 60.392 130.292 58.28C128.372 56.168 126.836 53.672 125.684 50.792C124.532 47.912 123.956 44.84 123.956 41.576ZM132.116 41.576C132.116 43.688 132.5 45.704 133.268 47.624C134.1 49.48 135.188 51.112 136.532 52.52C137.94 53.928 139.572 55.048 141.428 55.88C143.348 56.648 145.396 57.032 147.572 57.032C149.684 57.032 151.668 56.648 153.524 55.88C155.444 55.048 157.108 53.928 158.516 52.52C159.924 51.112 161.012 49.48 161.78 47.624C162.612 45.704 163.028 43.688 163.028 41.576V41C162.9 38.952 162.42 37.032 161.588 35.24C160.756 33.384 159.636 31.784 158.228 30.44C156.884 29.032 155.284 27.944 153.428 27.176C151.636 26.344 149.684 25.928 147.572 25.928C145.396 25.928 143.348 26.344 141.428 27.176C139.572 28.008 137.94 29.128 136.532 30.536C135.188 31.944 134.1 33.608 133.268 35.528C132.5 37.448 132.116 39.464 132.116 41.576ZM176.456 41.576C176.456 38.248 177.032 35.144 178.184 32.264C179.336 29.384 180.872 26.888 182.792 24.776C184.776 22.6 187.08 20.904 189.704 19.688C192.392 18.408 195.272 17.768 198.344 17.768C201.992 17.768 205.32 18.664 208.328 20.456C211.336 22.184 213.8 24.52 215.72 27.464V17.96H223.88V65H215.72V55.592C213.8 58.536 211.336 60.872 208.328 62.6C205.32 64.328 201.992 65.192 198.344 65.192C195.272 65.192 192.392 64.584 189.704 63.368C187.08 62.088 184.776 60.392 182.792 58.28C180.872 56.168 179.336 53.672 178.184 50.792C177.032 47.912 176.456 44.84 176.456 41.576ZM184.616 41.576C184.616 43.688 185 45.704 185.768 47.624C186.6 49.48 187.688 51.112 189.032 52.52C190.44 53.928 192.072 55.048 193.928 55.88C195.848 56.648 197.896 57.032 200.072 57.032C202.184 57.032 204.168 56.648 206.024 55.88C207.944 55.048 209.608 53.928 211.016 52.52C212.424 51.112 213.544 49.48 214.376 47.624C215.208 45.704 215.624 43.688 215.624 41.576C215.624 39.464 215.208 37.448 214.376 35.528C213.544 33.608 212.424 31.944 211.016 30.536C209.608 29.128 207.944 28.008 206.024 27.176C204.168 26.344 202.184 25.928 200.072 25.928C197.896 25.928 195.848 26.344 193.928 27.176C192.072 28.008 190.44 29.128 189.032 30.536C187.688 31.944 186.6 33.608 185.768 35.528C185 37.448 184.616 39.464 184.616 41.576ZM268.695 65V41.576C268.695 39.464 268.279 37.448 267.447 35.528C266.679 33.608 265.591 31.944 264.183 30.536C262.775 29.064 261.111 27.912 259.191 27.08C257.335 26.248 255.351 25.832 253.239 25.832C251.127 25.832 249.143 26.248 247.287 27.08C245.431 27.848 243.799 28.936 242.391 30.344C240.983 31.752 239.863 33.448 239.031 35.432C238.199 37.416 237.751 39.592 237.687 41.96V65H229.623V17.96H237.687V27.848C239.607 24.584 242.103 22.088 245.175 20.36C248.247 18.632 251.639 17.768 255.351 17.768C258.359 17.768 261.143 18.344 263.703 19.496C266.327 20.648 268.599 22.248 270.519 24.296C272.439 26.28 273.943 28.68 275.031 31.496C276.183 34.248 276.759 37.288 276.759 40.616V65H268.695ZM305.155 0.679998L321.763 51.752L338.851 0.679998H347.491L325.891 65H317.251L296.419 0.679998H305.155ZM390.964 53.96C388.34 57.864 385.236 60.712 381.652 62.504C378.132 64.296 374.292 65.192 370.132 65.192C366.868 65.192 363.796 64.584 360.916 63.368C358.036 62.088 355.54 60.392 353.428 58.28C351.316 56.168 349.62 53.672 348.34 50.792C347.124 47.912 346.516 44.84 346.516 41.576C346.516 38.248 347.124 35.144 348.34 32.264C349.62 29.384 351.316 26.888 353.428 24.776C355.54 22.6 358.036 20.904 360.916 19.688C363.796 18.408 366.868 17.768 370.132 17.768C374.292 17.768 378.196 18.728 381.844 20.648C385.556 22.568 388.756 25.544 391.444 29.576L363.604 55.496C364.628 56.2 365.908 56.712 367.444 57.032C368.98 57.288 370.516 57.32 372.052 57.128C374.74 56.808 377.236 55.912 379.54 54.44C381.908 52.904 383.892 50.984 385.492 48.68L390.964 53.96ZM354.196 40.328C354.004 42.76 354.324 45 355.156 47.048C355.988 49.096 357.172 50.696 358.708 51.848L380.692 30.44C379.476 28.968 377.844 27.784 375.796 26.888C373.748 25.928 371.508 25.512 369.076 25.64C367.092 25.768 365.236 26.216 363.508 26.984C361.78 27.752 360.244 28.808 358.9 30.152C357.62 31.432 356.564 32.936 355.732 34.664C354.9 36.392 354.388 38.28 354.196 40.328ZM405.259 17.96V26.024C406.539 23.784 408.299 21.864 410.539 20.264C412.779 18.6 415.403 17.768 418.411 17.768V25.928C416.747 25.928 415.147 26.248 413.611 26.888C412.075 27.528 410.699 28.392 409.483 29.48C408.267 30.504 407.275 31.72 406.507 33.128C405.739 34.536 405.323 36.04 405.259 37.64V65H397.195V17.96H405.259ZM460.695 65V41.576C460.695 39.464 460.279 37.448 459.447 35.528C458.679 33.608 457.591 31.944 456.183 30.536C454.775 29.064 453.111 27.912 451.191 27.08C449.335 26.248 447.351 25.832 445.239 25.832C443.127 25.832 441.143 26.248 439.287 27.08C437.431 27.848 435.799 28.936 434.391 30.344C432.983 31.752 431.863 33.448 431.031 35.432C430.199 37.416 429.751 39.592 429.687 41.96V65H421.623V17.96H429.687V27.848C431.607 24.584 434.103 22.088 437.175 20.36C440.247 18.632 443.639 17.768 447.351 17.768C450.359 17.768 453.143 18.344 455.703 19.496C458.327 20.648 460.599 22.248 462.519 24.296C464.439 26.28 465.943 28.68 467.031 31.496C468.183 34.248 468.759 37.288 468.759 40.616V65H460.695ZM512.896 41.576C512.896 39.464 512.48 37.448 511.648 35.528C510.88 33.608 509.792 31.944 508.384 30.536C506.976 29.128 505.312 28.008 503.392 27.176C501.536 26.344 499.552 25.928 497.44 25.928C495.328 25.928 493.312 26.344 491.392 27.176C489.536 28.008 487.904 29.128 486.496 30.536C485.088 31.944 483.968 33.608 483.136 35.528C482.368 37.448 481.984 39.464 481.984 41.576C481.984 43.688 482.368 45.704 483.136 47.624C483.968 49.48 485.088 51.112 486.496 52.52C487.904 53.928 489.536 55.048 491.392 55.88C493.312 56.648 495.328 57.032 497.44 57.032C499.552 57.032 501.536 56.648 503.392 55.88C505.312 55.048 506.976 53.928 508.384 52.52C509.792 51.112 510.88 49.48 511.648 47.624C512.48 45.704 512.896 43.688 512.896 41.576ZM521.056 41.576C521.056 44.84 520.416 47.912 519.136 50.792C517.92 53.672 516.256 56.168 514.144 58.28C512.032 60.392 509.536 62.088 506.656 63.368C503.776 64.584 500.704 65.192 497.44 65.192C494.112 65.192 491.008 64.584 488.128 63.368C485.248 62.088 482.752 60.392 480.64 58.28C478.528 56.168 476.864 53.672 475.648 50.792C474.432 47.912 473.824 44.84 473.824 41.576C473.824 38.248 474.432 35.144 475.648 32.264C476.864 29.384 478.528 26.888 480.64 24.776C482.752 22.6 485.248 20.904 488.128 19.688C491.008 18.408 494.112 17.768 497.44 17.768C500.704 17.768 503.776 18.408 506.656 19.688C509.536 20.904 512.032 22.6 514.144 24.776C516.256 26.888 517.92 29.384 519.136 32.264C520.416 35.144 521.056 38.248 521.056 41.576ZM564.945 65V41.576C564.945 39.464 564.529 37.448 563.697 35.528C562.929 33.608 561.841 31.944 560.433 30.536C559.025 29.064 557.361 27.912 555.441 27.08C553.585 26.248 551.601 25.832 549.489 25.832C547.377 25.832 545.393 26.248 543.537 27.08C541.681 27.848 540.049 28.936 538.641 30.344C537.233 31.752 536.113 33.448 535.281 35.432C534.449 37.416 534.001 39.592 533.937 41.96V65H525.873V17.96H533.937V27.848C535.857 24.584 538.353 22.088 541.425 20.36C544.497 18.632 547.889 17.768 551.601 17.768C554.609 17.768 557.393 18.344 559.953 19.496C562.577 20.648 564.849 22.248 566.769 24.296C568.689 26.28 570.193 28.68 571.281 31.496C572.433 34.248 573.009 37.288 573.009 40.616V65H564.945Z" fill="#C6C6C6"/>
</svg>
